<?xml version="1.0" encoding="utf-8"?>
<!-- Generator: Adobe Illustrator 24.1.2, SVG Export Plug-In . SVG Version: 6.00 Build 0)  -->
<svg version="1.1" id="Слой_2" xmlns="http://www.w3.org/2000/svg" xmlns:xlink="http://www.w3.org/1999/xlink" x="0px" y="0px"
	 viewBox="0 0 100 70" style="enable-background:new 0 0 100 70;" xml:space="preserve">
<style type="text/css">
	.st0{fill:#AABABB;}
	.st1{fill:#9AAEAF;}
	.st2{fill:#0A4B4E;}
	.st3{fill:#013739;}
	.st4{fill:#32CCD3;}
	.st5{fill:#FEC459;}
	.st6{fill:#FEFEFE;}
	.st7{fill:#FDC459;}
	.st8{fill:#00989F;}
	.st9{fill:#33CAD0;}
	.st10{fill:#32CBD1;}
	.st11{fill:#BAA356;}
	.st12{fill:#A7BB7B;}
	.st13{fill:#FCC459;}
	.st14{fill:#01989F;}
	.st15{fill:#0B4D50;}
	.st16{fill:#0A4C4F;}
</style>
<g>
	<path class="st0" d="M1,32.8L1,32.8L1,32.8c0-0.2,0-0.4,0-0.6c0,0,0,0,0,0c0.1,0.1,0,0.3,0,0.4C1.1,32.6,1.1,32.7,1,32.8z"/>
	<path class="st1" d="M1,42.1C1,42.1,1,42.1,1,42.1c0,0,0.1,0.1,0.1,0.1c0,0.2,0,0.3,0,0.4c0,0,0,0.1,0,0.1h0v0
		C1,42.5,1,42.3,1,42.1z"/>
	<path class="st2" d="M1,42.8c0-0.2,0-0.4,0-0.7c0.1-1,0.5-2,1.2-2.8c0.4-0.4,0.8-0.8,1.3-1.2c0,0,0.1-0.1,0.1-0.1
		c0.1-0.1,0.2-0.2,0.3-0.3c0.5-0.3,1-0.5,1.5-0.7c-0.4,0-0.9,0-1.3,0c-0.1,0-0.2,0-0.3-0.1c-0.8-0.5-1.4-1.1-1.9-1.8
		c-0.3-0.5-0.6-1-0.8-1.6c0-0.1,0-0.2-0.1-0.3c0-0.2,0-0.4,0-0.6c0-0.2,0-0.4,0-0.7c0.1-1.3,0.8-2.2,1.8-3c0,0,0.1,0,0.1-0.1
		c0.1-0.2,0.3-0.2,0.5-0.4c0.1,0,0.1-0.1,0.2-0.1c0.1,0,0.1-0.1,0-0.1c-0.3-0.3-0.5-0.5-0.8-0.8c-0.1-0.1-0.3-0.3-0.3-0.4
		c-0.1-0.3,0-0.6,0.2-0.8C2.9,26.3,3,26.2,3.2,26c0.1,0,0.1-0.1,0.1-0.2c0-1.1,0.5-1.9,1.3-2.6c0.4-0.4,0.8-0.4,1.2,0
		c0.2,0.2,0.4,0.2,0.6,0.1c0.3-0.1,0.6-0.2,1-0.2c0.5,0,0.9,0,1.4,0.1c0.1,0,0.3,0.1,0.4,0.1c0.1,0,0.1,0,0.2,0
		c0.1-0.1,0.2-0.2,0.3-0.2c0.3-0.3,0.7-0.3,1,0c0.6,0.5,1,1.1,1.3,1.8c0.1,0.3,0.1,0.6,0.1,0.9c0,0.1,0,0.1,0.1,0.1
		c0.2,0.1,0.4,0.3,0.5,0.4c0.2,0.2,0.3,0.4,0.3,0.7c-0.1,0.3-0.3,0.4-0.5,0.6c-0.2,0.2-0.5,0.5-0.7,0.7c-0.1,0.1,0,0.1,0,0.1
		c0.2,0.1,0.5,0.2,0.7,0.4c0.1,0,0.1,0.1,0.1,0.1c0.1,0.1,0.3,0.3,0.4,0.4c0.7,0.6,1.1,1.4,1.3,2.3c0.1,0.4,0.1,0.7,0.1,1.1
		c0,0.3-0.1,0.5-0.1,0.8c-0.2,0.5-0.4,1.1-0.8,1.5c-0.7,0.9-1.5,1.6-2.5,2.1c-0.1,0-0.1,0.1-0.2,0.1c0,0,0,0,0,0
		c0.1,0.1,0.2,0.1,0.3,0.2c0.2,0.1,0.4,0.2,0.6,0.4c0.1,0,0.1,0.1,0.2,0.2c0.2,0.2,0.4,0.3,0.6,0.5c0.9,0.8,1.6,1.8,1.9,3
		c0.1,0.4,0.1,0.8,0.1,1.3c0,0.2-0.1,0.5-0.1,0.7c-0.3,0.9-0.9,1.6-1.6,2.2c-0.8,0.5-1.6,0.9-2.5,1.1C9.6,47,9.1,47,8.5,47.1
		c-0.5,0-0.9,0-1.4,0c-1.1,0-2.1-0.2-3.1-0.6c-0.7-0.3-1.4-0.7-1.9-1.2c-0.4-0.5-0.8-1-1-1.6c0,0,0-0.1,0-0.1c0,0,0-0.1,0-0.1
		c0,0,0,0,0,0C1.1,43.3,1,43,1,42.8z"/>
	<path class="st3" d="M1.1,43.5c0,0,0-0.1,0-0.1c0.1,0.3,0.2,0.6,0.3,0.8c0.3,0.6,0.8,1.1,1.4,1.5c0.8,0.6,1.8,0.9,2.8,1.1
		C6,46.9,6.4,47,6.9,47c0.5,0,0.9,0,1.4,0c1.3-0.1,2.6-0.3,3.7-0.9c0.3-0.2,0.7-0.4,1-0.7c0.6-0.5,1-1.1,1.2-1.8
		c0.1-0.2,0.1-0.4,0.1-0.7c0,0,0,0,0-0.1c0,0.3,0.1,0.7,0.1,1c0,0.9-0.3,1.7-0.9,2.5c-0.6,0.8-1.5,1.3-2.4,1.6
		c-0.6,0.2-1.2,0.3-1.8,0.4c-0.4,0-0.8,0.1-1.1,0.1c-0.5,0-1,0-1.4,0c-1.2-0.1-2.4-0.4-3.4-1c-1-0.6-1.7-1.4-2.1-2.5
		c-0.1-0.4-0.2-0.7-0.2-1.1C1.1,43.8,1.1,43.6,1.1,43.5z"/>
	<path class="st3" d="M11.9,38.2c-0.2-0.1-0.4-0.3-0.7-0.4c-0.2-0.1-0.4-0.2-0.5-0.3c0.2-0.1,0.4-0.2,0.6-0.3
		c0.7-0.4,1.3-0.9,1.8-1.5c0.6-0.6,1-1.4,1.2-2.2c0.1-0.2,0.1-0.4,0.1-0.6c0,0.3,0.1,0.7,0.1,1c0,0.6-0.1,1.1-0.4,1.7
		c-0.3,0.6-0.6,1.1-1.1,1.6C12.7,37.5,12.3,37.9,11.9,38.2z"/>
	<path class="st3" d="M12.6,29.1c-0.3-0.2-0.5-0.4-0.8-0.5c-0.1,0-0.1-0.1,0-0.2c0.3-0.2,0.5-0.5,0.7-0.7c0.2-0.2,0.3-0.4,0.4-0.6
		c0,0.1,0,0.3,0,0.5c0,0.3,0,0.6,0,0.8c0,0.2-0.1,0.3-0.2,0.4C12.7,29,12.6,29.1,12.6,29.1z"/>
	<path class="st3" d="M2.5,27.3c0.2,0.2,0.3,0.4,0.6,0.6s0.4,0.4,0.6,0.6c0.1,0.1,0.1,0.1,0,0.1c-0.3,0.1-0.5,0.3-0.8,0.4
		c-0.1-0.1-0.1-0.2-0.2-0.3c-0.1-0.1-0.1-0.2-0.1-0.3C2.5,28.1,2.5,27.7,2.5,27.3z"/>
	<path class="st3" d="M1.1,33.4c0,0,0,0.1,0.1,0.1c0.2,0.7,0.5,1.3,0.9,1.9C2.6,36,3.2,36.5,3.9,37C4,37.1,4.2,37,4.3,37.1
		c0.4,0,0.7,0,1.1,0c0,0,0.1,0,0.1,0c-0.2,0.1-0.3,0.1-0.4,0.2c-0.5,0.2-0.9,0.5-1.4,0.8c0,0-0.1,0-0.1,0.1
		c-0.2-0.2-0.4-0.3-0.7-0.5c-0.3-0.3-0.5-0.5-0.8-0.8c-0.4-0.5-0.7-1-0.9-1.6c-0.1-0.4-0.2-0.9-0.2-1.3C1.1,33.7,1,33.5,1.1,33.4z"
		/>
	<path class="st4" d="M11.1,28.1C11,28.2,11,28.1,11.1,28.1c0.1-0.3,0-0.5-0.1-0.7c0,0,0,0-0.1,0c-0.1,0.2-0.2,0.4-0.4,0.5
		c-0.1,0.1-0.1,0.1-0.2,0.1c-0.1-0.1-0.1-0.1-0.2-0.2c0,0.1-0.1,0.3-0.2,0.4c-0.4,0.4-0.8,0.5-1.3,0.5c-0.3,0-0.5,0-0.8,0
		c-0.4,0-0.8,0-1.2,0c-0.3,0-0.7-0.1-1-0.2c-0.2-0.1-0.3-0.2-0.4-0.3c-0.1-0.1-0.2-0.3-0.2-0.4c-0.1,0-0.1,0-0.2,0.2
		c-0.1,0-0.2-0.1-0.3-0.2c-0.1-0.1-0.2-0.2-0.3-0.4c0,0,0-0.1-0.1-0.1c-0.1,0.2-0.2,0.4-0.1,0.6c0,0,0,0,0,0.1c0,0,0,0,0,0
		C4,28,3.8,27.8,3.6,27.6c-0.1-0.1-0.3-0.3-0.3-0.5c-0.1-0.1,0-0.3,0-0.4c0.2-0.2,0.3-0.4,0.5-0.5c0,0,0,0,0,0
		c0,0.3,0.1,0.4,0.4,0.4c0.3,0,0.5,0,0.8,0c-0.1-0.1-0.3-0.1-0.4-0.2c-0.3-0.2-0.5-0.3-0.7-0.6c-0.2-0.2-0.2-0.4-0.1-0.7
		c0.2-0.4,0.3-0.8,0.5-1.1c0.2-0.3,0.4-0.5,0.7-0.6c0.1,0,0.2,0,0.3,0c0.4,0.2,0.8,0.6,1.1,1c0.1,0.1,0.2,0.3,0.3,0.4
		c0-0.2-0.1-0.3-0.1-0.4c0,0,0-0.1,0-0.1c0.3-0.2,0.5-0.4,0.9-0.5c0.3,0,0.5,0,0.8,0.1c0.2,0.1,0.3,0.2,0.5,0.3c0,0,0.1,0,0.1,0.1
		c0,0.1-0.1,0.3-0.1,0.4c0,0,0,0,0,0c0.1-0.2,0.2-0.3,0.3-0.5c0.2-0.3,0.5-0.6,0.9-0.8c0.2-0.1,0.3-0.1,0.5,0
		c0.3,0.2,0.4,0.4,0.6,0.6c0.3,0.4,0.4,0.8,0.6,1.3c0.1,0.1,0,0.2,0,0.3c-0.1,0.3-0.3,0.4-0.6,0.6c-0.2,0.1-0.4,0.2-0.6,0.4
		c0.3,0,0.6,0.1,0.9,0c0.2-0.1,0.3-0.2,0.3-0.4c0-0.1,0-0.1,0.1,0c0.1,0.1,0.2,0.2,0.3,0.3c0,0,0.1,0.1,0.1,0.1
		c0.2,0.2,0.2,0.3,0.1,0.5C11.8,27.6,11.5,27.9,11.1,28.1z"/>
	<path class="st5" d="M10.4,39.2c0.4,0.1,0.6,0.3,0.9,0.6c0.5,0.4,0.9,0.9,1.2,1.5c0.3,0.6,0.3,1.2,0.1,1.8
		c-0.2,0.8-0.7,1.4-1.4,1.8c-0.9,0.6-1.8,0.9-2.9,1c-1.2,0.1-2.4,0-3.5-0.5c-0.7-0.3-1.4-0.7-1.9-1.4c-0.5-0.7-0.7-1.5-0.5-2.4
		c0.1-0.4,0.3-0.8,0.6-1.1c0.4-0.6,0.9-1,1.6-1.4c0.1,0,0.1-0.1,0.2-0.1c-0.3,0.2-0.5,0.5-0.7,0.8c-0.3,0.4-0.5,0.7-0.6,1.2
		c-0.1,0.7,0.1,1.3,0.5,1.8c0.4,0.5,1,0.8,1.6,1c0.6,0.2,1.3,0.4,1.9,0.4c0.3,0,0.6,0,0.8-0.1c0.7-0.1,1.4-0.3,2.1-0.7
		c0.5-0.3,0.9-0.7,1.1-1.3c0.3-0.8,0.2-1.5-0.3-2.2C11.1,39.8,10.8,39.5,10.4,39.2z"/>
	<path class="st6" d="M11.1,41.8c0,0.1-0.1,0.3-0.2,0.3c-0.4,0.5-1,0.9-1.6,1.1c-0.6,0.2-1.3,0.3-2,0.3c-0.9-0.1-1.7-0.3-2.4-0.8
		c-0.2-0.2-0.4-0.3-0.5-0.5c0-0.1-0.1-0.1-0.1-0.2c0-0.1,0.1-0.2,0.1-0.3c0.3-0.4,0.6-0.7,1-0.9c0.7-0.4,1.4-0.8,2.2-1
		c0.2-0.1,0.5-0.1,0.7-0.2c0.1,0,0.1,0,0.1,0.1c0,0,0,0,0,0c-0.1,0.2,0.1,0.3,0.3,0.4c0.6,0.3,1.2,0.6,1.7,1
		c0.2,0.2,0.4,0.4,0.5,0.6C11.1,41.8,11.1,41.8,11.1,41.8z"/>
	<path class="st3" d="M11.1,41.8c-0.4-0.6-0.9-1-1.5-1.3c-0.3-0.2-0.7-0.3-1-0.5c-0.1,0-0.1-0.1-0.1-0.2c0-0.2,0-0.2-0.2-0.2
		c-0.8,0.1-1.5,0.5-2.2,0.8c-0.5,0.2-0.9,0.5-1.2,0.9c-0.2,0.2-0.3,0.4-0.4,0.6c-0.1,0-0.1-0.2-0.1-0.2c-0.2-0.5-0.1-0.9,0.2-1.3
		c0.3-0.5,0.8-0.9,1.3-1.2c0.6-0.4,1.3-0.6,1.9-0.8c0.3-0.1,0.5-0.1,0.8-0.2c0.1,0,0.2-0.1,0.3,0c-0.1,0.1-0.2,0.2-0.3,0.3
		c-0.1,0.1-0.1,0.2,0.1,0.2c0.3,0.1,0.6,0.3,0.9,0.4c0.5,0.3,0.9,0.6,1.3,1c0.3,0.4,0.5,0.8,0.5,1.3C11.2,41.5,11.2,41.7,11.1,41.8z
		"/>
	<path class="st3" d="M4.4,34.4c-0.1,0-0.1-0.1-0.1-0.1c-0.2-0.5-0.1-1.1,0.2-1.5c0.2-0.3,0.5-0.6,0.9-0.8c0.1-0.1,0.1,0,0.1,0.1
		c0,0.2,0.1,0.5,0.1,0.7C5.7,33.1,5.8,33.6,6,34c0.1,0.3,0.3,0.5,0.6,0.5c0.3,0,0.7,0.2,1,0.1c0.4,0,0.8-0.1,1.2-0.2
		c0.3-0.1,0.4-0.3,0.5-0.5c0.2-0.4,0.3-0.8,0.4-1.2c0.1-0.3,0.1-0.5,0.1-0.8c0-0.1,0-0.1,0.1-0.1c0.5,0.3,0.9,0.6,1.1,1.2
		c0.1,0.3,0.1,0.7,0,1.1c0,0,0,0.1-0.1,0.1c-0.1,0-0.1,0-0.1-0.1c-0.2-0.3-0.5-0.6-0.9-0.8c-0.1-0.1-0.1-0.1-0.2,0.1
		c-0.1,0.3-0.1,0.7-0.2,1c-0.1,0.3-0.1,0.6-0.3,0.9c-0.2,0.3-0.4,0.5-0.7,0.5C8.4,36,8.2,36,7.9,36c-0.3,0-0.5,0-0.8-0.1
		c-0.1,0-0.2,0-0.4-0.1c-0.4,0-0.7-0.3-0.8-0.7c-0.2-0.5-0.3-1-0.4-1.5c0-0.1,0-0.2-0.1-0.4s-0.1-0.1-0.2-0.1
		c-0.4,0.2-0.7,0.5-0.9,0.9C4.5,34.3,4.4,34.3,4.4,34.4z"/>
	<path class="st4" d="M10.3,30.4c0.2-0.4,0.4-0.7,0.7-1c0.1-0.1,0.2-0.2,0.3-0.3c0.1-0.1,0.1-0.1,0.2-0.1c0.6,0.2,1.1,0.5,1.5,1
		c0.5,0.5,0.8,1.2,0.9,1.9c0.1,0.5,0,1-0.1,1.5c-0.2,0.9-0.7,1.7-1.4,2.4c-0.2,0.2-0.4,0.3-0.6,0.4c0.1-0.2,0.3-0.3,0.4-0.5
		c0.4-0.6,0.7-1.3,0.8-2.1c0.1-0.5,0.1-1-0.1-1.4c0,0,0,0,0,0c-0.1-0.1-0.1-0.2-0.1-0.3c-0.2-0.8-1-1.2-1.6-1.1
		c-0.3,0-0.5,0.1-0.8-0.1C10.3,30.5,10.3,30.5,10.3,30.4z"/>
	<path class="st4" d="M2.5,32c-0.1,0.4-0.1,0.8-0.1,1.2c0.1,1.1,0.5,2,1.2,2.8c0,0,0,0,0,0c0,0,0,0,0,0C3.4,36,3.2,35.9,3,35.7
		c-0.8-0.7-1.2-1.6-1.4-2.6c-0.2-0.8-0.1-1.6,0.3-2.4c0.4-0.8,1.1-1.4,2-1.8c0.1,0,0.2,0,0.3,0.1c0.3,0.4,0.6,0.8,0.9,1.2
		c0,0,0,0.1,0.1,0.1c-0.1,0.2-0.3,0.3-0.5,0.3c-0.1,0-0.3,0-0.4,0c-0.7-0.1-1.5,0.3-1.7,1C2.5,31.8,2.5,31.9,2.5,32z"/>
	<path class="st6" d="M6.2,35.5c0.1,0.2,0.3,0.4,0.6,0.4C7,35.9,7.3,36,7.6,36c0.2,0,0.3,0,0.5,0c0.2,0,0.5-0.1,0.7-0.1
		c0.3,0,0.4-0.2,0.6-0.5c0.2-0.3,0.3-0.7,0.4-1.1c0.1-0.3,0.1-0.7,0.2-1c0-0.1,0.1-0.1,0.1,0c0.2,0.1,0.4,0.3,0.6,0.4
		c0.2,0.2,0.3,0.3,0.4,0.5c0,0.1,0,0.2-0.1,0.2c-0.3,0.5-0.6,0.8-1.1,1.1c-0.7,0.5-1.4,0.8-2.2,1c0,0-0.1,0-0.1,0
		c-0.8-0.3-1.6-0.6-2.3-1.1c-0.3-0.2-0.6-0.5-0.9-0.9c0,0-0.1-0.1-0.1-0.2c0.2-0.4,0.6-0.8,1-1c0,0,0.1,0,0.1,0c0.1,0,0.1,0,0.1,0"
		/>
	<path class="st4" d="M6,31.8c-0.1-0.2-0.1-0.4-0.1-0.5c-0.2-0.7-0.6-1.4-1-2c-0.2-0.2-0.3-0.5-0.4-0.7c0.9,0.8,1.4,1.8,1.9,2.9
		c0-0.3,0.1-0.6,0.3-0.9c-0.2,0.9,0,1.7,0.2,2.5c0.1,0.3,0.4,0.5,0.7,0.5c0.2,0,0.3,0,0.4,0c0.3-0.1,0.5-0.2,0.6-0.5
		c0.2-0.5,0.3-1.1,0.3-1.7c0-0.3,0-0.5-0.1-0.7c0.2,0.1,0.3,0.4,0.4,0.8c0.5-1,1-2.1,1.9-2.9c0,0,0,0,0,0c-0.1,0.2-0.2,0.3-0.3,0.5
		c-0.4,0.6-0.8,1.2-1,1.8c-0.1,0.3-0.1,0.5-0.2,0.8c-0.1,0.5-0.3,1-0.4,1.4c-0.1,0.5-0.4,0.7-0.9,0.8c-0.4,0-0.8,0.1-1.2,0
		c-0.3-0.1-0.6-0.3-0.7-0.7C6.2,32.8,6.1,32.3,6,31.8z"/>
	<path class="st5" d="M4.6,38c0.9-0.5,1.9-0.9,2.9-1c1.4-0.2,2.5-0.8,3.5-1.9c0,0,0,0,0-0.1c0,0,0,0,0,0.1c-0.4,0.8-0.9,1.4-1.7,1.9
		c-0.5,0.3-1.1,0.4-1.6,0.5c-0.8,0.1-1.6,0.1-2.4,0.3C5.1,37.9,4.9,38,4.6,38C4.6,38.1,4.6,38,4.6,38z"/>
	<path class="st5" d="M5.2,27.9c0.1,0.1,0.1,0.3,0.2,0.4c0.4,0.4,1,0.6,1.6,0.7c0.3,0,0.5,0.1,0.8,0c0.5,0,1.1-0.1,1.6-0.3
		c0.3-0.1,0.5-0.3,0.7-0.5c0.1-0.1,0.1-0.3,0.2-0.4c0.1,0.3,0,0.6-0.3,0.8c0,0-0.1,0.1-0.1,0.1c0,0.1,0,0.2-0.1,0.3
		c-0.1,0,0-0.1,0-0.2c0-0.1,0-0.1-0.1-0.1c-0.1,0-0.1,0.1-0.1,0.2c0,0.2-0.1,0.4-0.1,0.6c0,0,0,0-0.1,0c0-0.1,0-0.2,0-0.3
		c0-0.1,0-0.2-0.1-0.2h0c-0.3,0-0.4,0.1-0.4,0.4c0,0.2-0.1,0.4-0.2,0.6c-0.1,0,0-0.1,0-0.1c0-0.1,0-0.3,0-0.5c0-0.1-0.1-0.2-0.2-0.2
		c-0.3,0-0.3,0-0.3,0.3C8,29.7,8,29.9,8,30.1c-0.1,0-0.1-0.1-0.1-0.1c0-0.2,0-0.4,0-0.5c0,0,0-0.1,0-0.1c0,0-0.1,0-0.1,0
		c-0.1,0.1-0.2,0.1-0.2,0c0,0-0.1,0-0.1,0c0,0,0,0.1,0,0.1c0,0.1,0,0.3,0,0.5c0,0.1,0,0.2-0.1,0.2c-0.1-0.3-0.1-0.5-0.1-0.8
		c0-0.1,0-0.2-0.1-0.1c-0.1,0-0.1,0-0.2,0c-0.2,0-0.2,0.1-0.2,0.3c0,0.1,0,0.2,0,0.4c0,0,0,0.1,0,0.2c-0.1-0.2-0.2-0.5-0.2-0.8
		c0-0.1,0-0.1-0.1-0.1c-0.1,0-0.2-0.1-0.3,0c-0.2,0-0.2,0-0.2,0.2c0,0.1,0,0.2,0.1,0.3c0,0,0,0.1,0,0.1c-0.1-0.2-0.2-0.5-0.2-0.7
		c0-0.1,0-0.1-0.1-0.1c-0.1,0-0.1,0.1-0.1,0.1c0,0,0,0.1,0,0.1c0,0,0,0,0,0c0-0.3-0.1-0.5-0.3-0.7C5.1,28.3,5.1,28.1,5.2,27.9z"/>
	<path class="st7" d="M6,31.8c0.2,0.4,0.2,0.8,0.3,1.3c0,0.1,0.1,0.2,0.1,0.3c0.1,0.3,0.3,0.5,0.5,0.6c0.5,0.1,1,0.1,1.5,0
		c0.3-0.1,0.5-0.3,0.6-0.6c0.1-0.4,0.2-0.9,0.4-1.3c0-0.1,0-0.1,0.1-0.2c-0.1,0.4-0.1,0.8-0.2,1.3c0,0.2-0.1,0.3-0.1,0.5
		c0,0.2-0.1,0.4-0.3,0.5c-0.3,0.1-0.5,0.2-0.8,0.2c-0.4,0-0.7,0-1.1-0.1c-0.1,0-0.2,0-0.3-0.1c-0.2-0.1-0.4-0.2-0.4-0.5
		C6.2,33,6.1,32.5,6,31.9C6,31.9,6,31.9,6,31.8z"/>
	<path class="st8" d="M8.8,24.4c-0.2-0.1-0.4-0.3-0.6-0.4c-0.3-0.1-0.6-0.2-0.9-0.1s-0.5,0.3-0.8,0.5c-0.1-0.2-0.2-0.3-0.3-0.5
		c-0.1-0.1,0-0.1,0.1-0.1c0.3-0.1,0.6-0.2,0.8-0.2c0.5-0.1,1,0,1.5,0.1c0.1,0,0.2,0.1,0.4,0.1c0.1,0,0.1,0.1,0,0.1
		C8.9,24.1,8.9,24.3,8.8,24.4z"/>
	<path class="st5" d="M10.3,30.4c0.2,0.2,0.5,0.3,0.8,0.2c0.9-0.2,1.7,0.3,1.8,1.3c0,0,0,0.1,0,0.1c-0.1,0,0,0-0.1-0.1
		c-0.1-0.3-0.3-0.6-0.6-0.8s-0.6-0.2-0.9-0.2c-0.3,0-0.5,0-0.8,0c0,0-0.1,0-0.1,0c-0.3-0.1-0.3-0.2-0.2-0.4
		C10.2,30.5,10.3,30.4,10.3,30.4z"/>
	<path class="st5" d="M2.5,32c0.1-1.1,1-1.6,1.8-1.4c0.3,0.1,0.6,0,0.8-0.2c0,0.1,0.1,0.1,0.1,0.2c0.1,0.2,0.1,0.2-0.1,0.3
		C4.9,31,4.7,31,4.5,31c-0.2,0-0.4,0-0.6,0c-0.5,0-0.9,0.2-1.2,0.6C2.6,31.7,2.5,31.9,2.5,32z"/>
	<path class="st4" d="M7.3,30.1c0.1-0.2,0.1-0.4,0.1-0.6c0,0,0,0,0-0.1c0-0.1,0-0.1,0-0.2c0.1,0,0.1,0,0.2,0.1c0.1,0.1,0.1,0,0.1,0
		c0,0,0.1-0.1,0.2-0.1c0.1,0.1,0,0.2,0,0.4c0,0.2,0,0.4,0.1,0.5c0,0.2-0.1,0.3-0.2,0.5c-0.1,0.1-0.2,0.1-0.3,0
		C7.4,30.5,7.4,30.3,7.3,30.1z"/>
	<path class="st7" d="M11.1,28.1c0.3-0.2,0.5-0.4,0.7-0.6c0.1-0.1,0.2-0.3,0.3-0.5c0-0.1,0-0.2,0-0.3c-0.1-0.2-0.3-0.3-0.4-0.5
		c0,0-0.1,0,0-0.1c0.3,0.1,0.6,0.3,0.8,0.6c0.2,0.2,0.1,0.4-0.1,0.6c-0.3,0.3-0.6,0.4-0.9,0.6C11.3,28.1,11.2,28.1,11.1,28.1z"/>
	<path class="st5" d="M3.8,26.2c-0.2,0.2-0.3,0.3-0.5,0.5c-0.1,0.1-0.1,0.3,0,0.4c0.2,0.4,0.5,0.7,0.9,0.9c0,0,0.1,0,0.1,0.1
		C3.8,28,3.4,27.8,3,27.4c-0.2-0.2-0.2-0.3,0-0.5C3.2,26.6,3.5,26.4,3.8,26.2z"/>
	<path class="st4" d="M6.7,30c0-0.2,0-0.4,0-0.7c0.1-0.2,0.1-0.2,0.2-0.1c0.2,0.1,0.2,0.2,0.2,0.4c0,0.2,0,0.4,0,0.5
		c0,0.2,0.1,0.3,0.2,0.5C7,30.5,6.8,30.3,6.7,30z"/>
	<path class="st4" d="M8.4,29.2c0.2,0,0.2,0,0.2,0.1c0.1,0.2,0.1,0.4,0,0.6c0,0,0,0.1,0,0.1c-0.1,0.3-0.3,0.5-0.6,0.6
		c0.2-0.4,0.2-0.7,0.2-1.1c0,0,0-0.1,0-0.1C8.2,29.3,8.2,29.3,8.4,29.2C8.3,29.2,8.4,29.2,8.4,29.2z"/>
	<path class="st4" d="M6,29.7c0-0.1-0.1-0.3-0.1-0.5c0,0,0-0.1,0-0.1c0-0.2,0-0.2,0.2-0.1c0.2,0.1,0.3,0.2,0.3,0.5
		c0,0.3,0.1,0.6,0.3,0.8c0,0,0.1,0.1,0.1,0.1C6.5,30.5,6.1,30,6,29.7z"/>
	<path class="st4" d="M9.3,29c0.1-0.1,0.1,0,0.2,0.1c0,0.2,0,0.3,0,0.5c0,0.1,0,0.1,0,0.2c-0.2,0.4-0.5,0.6-0.7,0.7
		c0.1-0.2,0.2-0.3,0.3-0.5C9,29.7,9,29.5,9,29.3c0-0.1,0-0.1,0.1-0.1C9.1,29.1,9.2,29.1,9.3,29z"/>
	<path class="st7" d="M10.4,28c0.3-0.1,0.5-0.4,0.6-0.6c0,0,0-0.1,0,0c0.1,0.4-0.1,0.6-0.4,0.8c-0.1,0-0.1,0.1-0.2,0.1
		C10.4,28.2,10.4,28.1,10.4,28z"/>
	<path class="st7" d="M4.3,27.4C4.4,27.4,4.4,27.4,4.3,27.4C4.5,27.7,4.7,27.9,5,28c0,0.1-0.1,0.2-0.1,0.3
		C4.6,28.2,4.3,27.9,4.3,27.4z"/>
	<path class="st9" d="M5.5,29.1c0-0.1,0-0.1,0-0.2c0,0,0-0.1,0-0.1c0,0,0.1,0,0.1,0.1c0.1,0.1,0.1,0.2,0.1,0.3c0,0.2,0,0.3,0.1,0.5
		C5.6,29.4,5.6,29.3,5.5,29.1z"/>
	<path class="st10" d="M9.7,28.8c0.1-0.1,0.1-0.1,0.1,0.1c0,0.1,0,0.1,0,0.2c0,0.2-0.1,0.3-0.3,0.5c0.1-0.2,0.1-0.4,0.1-0.6
		C9.6,28.9,9.7,28.9,9.7,28.8z"/>
	<path class="st11" d="M4.6,38C4.6,38,4.6,38,4.6,38c0,0.1-0.1,0.1-0.2,0.1C4.5,38.1,4.6,38,4.6,38z"/>
	<path class="st12" d="M9.3,29.8c0-0.1,0-0.1,0-0.2c0,0,0,0,0,0C9.4,29.7,9.4,29.7,9.3,29.8z"/>
	<path class="st2" d="M10,24.9c0.1-0.1,0.3-0.1,0.4,0c0.2,0.1,0.4,0.3,0.6,0.5c-0.3-0.1-0.5-0.2-0.7-0.2c0.1,0.1,0.1,0.2,0.1,0.3
		c0.1,0.2,0,0.5-0.2,0.6c-0.2,0.1-0.4,0.2-0.6,0.2c-0.3,0-0.6,0-0.9-0.1c0,0-0.1,0-0.1,0c0,0-0.1-0.1-0.1-0.1c0,0,0.1,0,0.1-0.1
		c0.2-0.1,0.5-0.2,0.7-0.4c0.1-0.1,0.2-0.3,0.3-0.4C9.8,25,9.9,24.9,10,24.9z"/>
	<path class="st2" d="M4.9,25.5C4.9,25.4,5,25.3,5,25.2c-0.3,0-0.5,0.1-0.7,0.2c0.2-0.2,0.4-0.4,0.6-0.5c0.2-0.1,0.3-0.1,0.5,0
		c0.1,0.1,0.2,0.2,0.3,0.4c0.2,0.3,0.5,0.5,0.9,0.6c0.1,0,0.1,0,0.2,0.1c0,0,0,0,0,0c-0.3,0.2-0.5,0.2-0.8,0.2c-0.2,0-0.5,0-0.7-0.1
		c-0.1,0-0.2-0.1-0.2-0.1C4.8,25.9,4.8,25.7,4.9,25.5z"/>
	<path class="st8" d="M10,28.2c-0.2,0.3-0.4,0.4-0.7,0.5C8.7,29,8,29,7.4,29c-0.4,0-0.9-0.1-1.3-0.2c-0.3-0.1-0.6-0.3-0.8-0.5
		c0.1,0,0.2,0.1,0.2,0.2c0.3,0.2,0.5,0.3,0.8,0.3c0.5,0.1,1.1,0,1.6,0c0.1,0,0.3,0,0.4,0C9,28.8,9.6,28.6,10,28.2z"/>
	<path class="st2" d="M8.3,26c0.1,0,0.3,0.1,0.4,0.1c0.2,0.1,0.4,0.2,0.6,0.3c-0.3-0.1-0.5-0.2-0.8-0.2c-0.2,0-0.3,0-0.4,0.1
		c-0.1,0.1-0.2,0.2-0.3,0.3c-0.1,0.1-0.1,0.1-0.1,0c-0.1-0.1-0.2-0.3-0.4-0.4c-0.1-0.1-0.2-0.1-0.3-0.1c-0.3,0-0.5,0.1-0.8,0.2
		c0-0.1,0.1-0.1,0.1-0.1c0.2-0.1,0.5-0.2,0.7-0.3c0,0,0.1,0,0.1,0c0.1,0,0.2,0.1,0.3,0.1c0.2,0.1,0.4,0.1,0.6,0
		C8.1,26.1,8.2,26.1,8.3,26z"/>
	<path class="st8" d="M8.7,26c0.3,0.1,0.6,0.2,1,0.1c0.2,0,0.4-0.1,0.5-0.2c0.2-0.1,0.2-0.3,0.2-0.5c0.2,0.3,0.3,0.6,0,0.7
		c-0.1,0.1-0.3,0.2-0.4,0.2C9.6,26.5,9.2,26.3,8.7,26C8.8,26.1,8.8,26.1,8.7,26z"/>
	<path class="st8" d="M4.9,25.5c0,0.5,0.2,0.7,0.7,0.7c0.4,0,0.8,0,1.2-0.2c-0.3,0.2-0.6,0.4-0.9,0.4c-0.3,0-0.5,0-0.8-0.1
		s-0.3-0.4-0.2-0.6C4.8,25.6,4.8,25.5,4.9,25.5z"/>
	<path class="st2" d="M7.1,28c-0.4,0-0.8-0.5-0.8-0.9c0-0.1,0.1-0.1,0.1-0.2c0.1-0.1,0.2-0.1,0.3,0c0.1,0.1,0.1,0.4,0,0.6
		c-0.1,0.1-0.1,0.2,0.1,0.3C6.9,27.9,7,27.9,7.1,28z"/>
	<path class="st2" d="M8.2,28c0.1-0.1,0.3-0.1,0.3-0.3c0-0.1,0.1-0.1,0-0.2c-0.1-0.2-0.1-0.4,0-0.5c0.1-0.2,0.3-0.2,0.4,0
		C9,27.1,9,27.2,9,27.3C8.9,27.6,8.6,27.9,8.2,28z"/>
	<path class="st13" d="M6.7,26c-0.3-0.1-0.5-0.2-0.8-0.4c-0.1-0.1-0.2-0.2-0.3-0.3c-0.1-0.1-0.2-0.3-0.3-0.4c0.2,0,0.3,0.1,0.4,0.2
		C6.1,25.4,6.4,25.7,6.7,26C6.7,25.9,6.8,26,6.7,26C6.8,26,6.7,26,6.7,26z"/>
	<path class="st7" d="M10,24.9c-0.1,0.1-0.2,0.3-0.3,0.4c-0.2,0.4-0.6,0.5-1,0.6c0,0,0,0-0.1,0c0,0-0.1,0,0,0
		c0.1-0.1,0.1-0.1,0.2-0.2c0.2-0.2,0.4-0.4,0.6-0.6C9.6,25,9.8,24.9,10,24.9z"/>
	<path class="st14" d="M8.3,26c-0.1,0.1-0.3,0.1-0.4,0.2c-0.2,0.1-0.3,0.1-0.5,0c-0.1-0.1-0.2-0.1-0.3-0.2c0.2,0,0.4,0.1,0.5,0.1
		C7.8,26.1,8.1,26,8.3,26z"/>
	<path class="st15" d="M9.3,27.6c0,0.1,0,0.2-0.1,0.2S9,27.7,9,27.6c0-0.1,0-0.2,0.1-0.2C9.3,27.4,9.2,27.5,9.3,27.6z"/>
	<path class="st16" d="M6.3,27.6c0,0.1,0,0.2-0.1,0.2c-0.1,0-0.1-0.1-0.1-0.2c0-0.1,0-0.2,0.1-0.2C6.3,27.4,6.3,27.5,6.3,27.6z"/>
	<g>
		<path d="M31.8,42.6h-2.9l-1.2-3h-5.3l-1.1,3h-2.9l5.2-13.4h2.9L31.8,42.6z M26.9,37.3l-1.8-5l-1.8,5H26.9z"/>
		<path d="M40.9,36.1l-2.7,0.1c-0.1-0.5-0.3-0.9-0.6-1.1s-0.7-0.4-1.2-0.4c-0.6,0-1.2,0.2-1.5,0.7c-0.4,0.4-0.6,1.2-0.6,2.2
			c0,1.2,0.2,2,0.6,2.4c0.4,0.5,0.9,0.7,1.5,0.7c0.5,0,0.9-0.1,1.2-0.4c0.3-0.3,0.5-0.8,0.7-1.4l2.6,0.1c-0.3,1.2-0.8,2.3-1.6,2.9
			s-1.7,0.9-3,0.9c-1.4,0-2.5-0.5-3.4-1.3c-0.8-0.9-1.3-2.1-1.3-3.7c0-1.6,0.4-2.8,1.3-3.7c0.8-0.9,2-1.3,3.4-1.3
			c1.2,0,2.1,0.3,2.8,0.8C39.9,34,40.6,35.1,40.9,36.1z"/>
		<path d="M42.4,42.6v-9.7H45v9.7H42.4z"/>
		<path d="M56.5,42.6h-2.4v-1.4c-0.4,0.5-0.9,1-1.4,1.2s-1.1,0.4-1.6,0.4c-1.1,0-2.1-0.5-2.9-1.3c-0.8-0.9-1.2-2.2-1.2-3.8
			c0-1.6,0.4-2.9,1.2-3.7c0.8-0.8,1.8-1.3,2.9-1.3c1.1,0,2,0.5,2.8,1.3v-4.8h2.6V42.6z M49.6,37.5c0,1,0.1,1.8,0.4,2.2
			c0.4,0.7,1,1,1.7,1c0.6,0,1.1-0.3,1.5-0.8s0.6-1.3,0.6-2.3c0-1.1-0.2-1.9-0.6-2.4c-0.4-0.5-0.9-0.7-1.5-0.7
			c-0.6,0-1.1,0.2-1.5,0.7C49.8,35.9,49.6,36.6,49.6,37.5z"/>
		<path d="M59,42.6V29.2h4l2.4,9.1l2.4-9.1h4.1v13.4h-2.5V32.1l-2.7,10.5h-2.6l-2.6-10.5v10.5H59z"/>
		<path d="M74.5,42.6v-9.7h2.6v9.7H74.5z"/>
		<path d="M88.5,42.6H86v-4.9c0-1-0.1-1.7-0.2-2c-0.1-0.3-0.3-0.5-0.5-0.7c-0.3-0.2-0.5-0.3-0.9-0.3c-0.4,0-0.8,0.1-1.2,0.4
			c-0.3,0.2-0.6,0.6-0.7,1c-0.1,0.4-0.2,1.1-0.2,2.2v4.4h-2.6v-9.7h2.4v1.4c0.8-1.1,1.9-1.6,3.2-1.6c0.6,0,1.1,0.1,1.6,0.3
			c0.5,0.2,0.8,0.5,1.1,0.8s0.4,0.7,0.5,1.1c0.1,0.4,0.1,1,0.1,1.7V42.6z"/>
		<path d="M96.7,39.5l2.7,0c-0.3,0.9-0.9,2.1-1.7,2.6c-0.7,0.5-1.6,0.7-2.7,0.7c-1.7,0-2.9-0.5-3.7-1.7c-0.6-0.9-1-2-1-3.3
			c0-1.6,0.4-2.9,1.3-3.8c0.8-0.9,1.9-1.4,3.2-1.4c1.4,0,2.6,0.5,3.4,1.4s1.2,2.4,1.2,4.4H93c0,0.8,0.2,1.3,0.6,1.8
			c0.4,0.4,0.9,0.6,1.5,0.6c0.4,0,0.7-0.1,1-0.3C96.4,40.3,96.6,40,96.7,39.5z M96.9,36.9c0-0.7-0.2-1.3-0.6-1.7s-0.8-0.6-1.3-0.6
			c-0.6,0-1,0.2-1.4,0.6c-0.4,0.4-0.5,1-0.5,1.7H96.9z"/>
	</g>
	<circle cx="43.7" cy="31.1" r="1.3"/>
	<circle cx="75.8" cy="31.1" r="1.3"/>
</g>
</svg>
