<?xml version="1.0" encoding="utf-8"?>
<!-- Generator: Adobe Illustrator 24.1.2, SVG Export Plug-In . SVG Version: 6.00 Build 0)  -->
<svg version="1.1" id="Слой_2" xmlns="http://www.w3.org/2000/svg" xmlns:xlink="http://www.w3.org/1999/xlink" x="0px" y="0px"
	 viewBox="0 0 112 26" style="enable-background:new 0 0 112 26;" xml:space="preserve">
<style type="text/css">
	.st0{fill:url(#SVGID_1_);}
	.st1{fill:none;stroke:#FFFFFF;stroke-width:0.1932;stroke-miterlimit:10;}
	.st2{fill:#FFFFFF;}
	.st3{fill:none;stroke:#FFFFFF;stroke-width:0.6761;stroke-miterlimit:10;}
	.st4{clip-path:url(#SVGID_3_);}
	.st5{clip-path:url(#SVGID_5_);}
	.st6{opacity:0.41;fill:none;stroke:#FFFFFF;stroke-width:0.4829;stroke-miterlimit:10;enable-background:new    ;}
	.st7{opacity:0.39;fill:#11171C;enable-background:new    ;}
	.st8{fill:#11171C;}
	.st9{opacity:0.42;fill:#FFFFFF;enable-background:new    ;}
	.st10{fill:#AFAFAF;stroke:#0A0A0A;stroke-width:0.1932;stroke-miterlimit:10;}
</style>
<g>
	<g>
		
			<radialGradient id="SVGID_1_" cx="16.65" cy="15.2412" r="8.8198" gradientTransform="matrix(1 0 0 -1 0 28)" gradientUnits="userSpaceOnUse">
			<stop  offset="0" style="stop-color:#666666"/>
			<stop  offset="1" style="stop-color:#161C21"/>
		</radialGradient>
		<path class="st0" d="M21.9,4c0,0,3.6-0.1,3.6,3.7l-0.1,10.2c0,0,0.4,3.6-3.6,3.6H11.4c0,0-3.6,0.5-3.6-4l0.1-9.8
			c0,0-0.4-3.7,4.3-3.6L21.9,4z"/>
		<circle class="st1" cx="22.1" cy="7" r="1.4"/>
		<g>
			<path class="st2" d="M22.3,6.2v0.6h0.6v0.4h-0.6v0.6h-0.4V7.2h-0.6V6.8h0.6V6.2H22.3z"/>
		</g>
		<circle class="st3" cx="16.6" cy="12.9" r="5.5"/>
		<g>
			<g>
				<g>
					<defs>
						<circle id="SVGID_2_" cx="16.6" cy="12.9" r="3.9"/>
					</defs>
					<clipPath id="SVGID_3_">
						<use xlink:href="#SVGID_2_"  style="overflow:visible;"/>
					</clipPath>
					<g class="st4">
						<g>
							<g>
								<defs>
									<rect id="SVGID_4_" x="7.7" y="3.9" width="17.9" height="17.9"/>
								</defs>
								<clipPath id="SVGID_5_">
									<use xlink:href="#SVGID_4_"  style="overflow:visible;"/>
								</clipPath>
								<g class="st5">
									
										<image style="overflow:visible;enable-background:new    ;" width="40" height="42" xlink:href="2E85E640.jpeg"  transform="matrix(0.4343 0 0 0.4343 7.8743 3.92)">
									</image>
								</g>
							</g>
						</g>
					</g>
				</g>
			</g>
		</g>
		<ellipse class="st6" cx="16.6" cy="12.9" rx="3.7" ry="3.8"/>
		<circle class="st7" cx="16.6" cy="13" r="2.1"/>
		<circle class="st8" cx="16.6" cy="13" r="1.8"/>
	</g>
	<circle class="st2" cx="17" cy="13.1" r="0.4"/>
	<circle class="st9" cx="15.6" cy="11.6" r="0.7"/>
	<g>
		<path class="st10" d="M32.6,9.6h-3.4v3h3.1v0.9h-3.1v3.8h-1V8.7h4.4V9.6z"/>
		<path class="st10" d="M37.7,17.5c-1.2,0-2.2-0.4-2.9-1.2c-0.7-0.8-1.1-1.9-1.1-3.1c0-1.4,0.4-2.5,1.1-3.3c0.8-0.8,1.8-1.2,3-1.2
			C39,8.6,40,9,40.7,9.8s1.1,1.9,1.1,3.1c0,1.4-0.4,2.5-1.1,3.3C40,17,39,17.5,37.7,17.5z M37.8,9.5c-0.9,0-1.6,0.3-2.2,1
			S34.7,12,34.7,13s0.3,1.9,0.8,2.6s1.3,1,2.2,1c0.9,0,1.7-0.3,2.2-0.9c0.5-0.6,0.8-1.5,0.8-2.6c0-1.1-0.3-2-0.8-2.6
			C39.4,9.8,38.7,9.5,37.8,9.5z"/>
		<path class="st10" d="M48.6,9.6h-2.5v7.7h-1V9.6h-2.5V8.7h6C48.6,8.7,48.6,9.6,48.6,9.6z"/>
		<path class="st10" d="M53.4,17.5c-1.2,0-2.2-0.4-2.9-1.2c-0.7-0.8-1.1-1.9-1.1-3.1c0-1.4,0.4-2.5,1.1-3.3c0.8-0.8,1.8-1.2,3-1.2
			c1.2,0,2.1,0.4,2.9,1.2s1.1,1.9,1.1,3.1c0,1.4-0.4,2.5-1.1,3.3C55.7,17,54.7,17.5,53.4,17.5z M53.5,9.5c-0.9,0-1.6,0.3-2.2,1
			S50.4,12,50.4,13s0.3,1.9,0.8,2.6s1.3,1,2.2,1c0.9,0,1.7-0.3,2.2-0.9c0.5-0.6,0.8-1.5,0.8-2.6c0-1.1-0.3-2-0.8-2.6
			C55.1,9.8,54.4,9.5,53.5,9.5z"/>
		<path class="st10" d="M65.6,16.7c-0.9,0.5-1.8,0.7-2.9,0.7c-1.2,0-2.2-0.4-3-1.2c-0.8-0.8-1.1-1.8-1.1-3.1c0-1.3,0.4-2.4,1.3-3.3
			c0.8-0.9,1.9-1.3,3.2-1.3c0.9,0,1.7,0.1,2.4,0.5v1.1C64.8,9.7,64,9.5,63,9.5c-1,0-1.8,0.3-2.4,1c-0.6,0.7-0.9,1.5-0.9,2.6
			c0,1.1,0.3,1.9,0.9,2.6s1.3,0.9,2.3,0.9c0.7,0,1.3-0.1,1.8-0.4v-2.4h-1.9v-0.9h2.9L65.6,16.7L65.6,16.7z"/>
		<path class="st10" d="M72.2,17.3h-4.6V8.7H72v0.9h-3.4v2.9h3.1v0.9h-3.1v3h3.6C72.2,16.4,72.2,17.3,72.2,17.3z"/>
		<path class="st10" d="M78.9,9.6h-2.5v7.7h-1V9.6H73V8.7h6C78.9,8.7,78.9,9.6,78.9,9.6z"/>
		<path class="st10" d="M80.5,17.4c-0.2,0-0.3-0.1-0.5-0.2c-0.1-0.1-0.2-0.3-0.2-0.5s0.1-0.3,0.2-0.5c0.1-0.1,0.3-0.2,0.5-0.2
			c0.2,0,0.3,0.1,0.5,0.2c0.1,0.1,0.2,0.3,0.2,0.5s-0.1,0.3-0.2,0.5C80.8,17.4,80.7,17.4,80.5,17.4z"/>
		<path class="st10" d="M86.4,17.5c-1.2,0-2.2-0.4-2.9-1.2s-1.1-1.9-1.1-3.1c0-1.4,0.4-2.5,1.1-3.3c0.8-0.8,1.8-1.2,3.1-1.2
			c1.2,0,2.1,0.4,2.9,1.2s1.1,1.9,1.1,3.1c0,1.4-0.4,2.5-1.1,3.3S87.7,17.5,86.4,17.5z M86.5,9.5c-0.9,0-1.6,0.3-2.2,1
			S83.5,12,83.5,13s0.3,1.9,0.8,2.6s1.3,1,2.2,1c0.9,0,1.7-0.3,2.2-0.9c0.5-0.6,0.8-1.5,0.8-2.6c0-1.1-0.3-2-0.8-2.6
			C88.2,9.8,87.4,9.5,86.5,9.5z"/>
		<path class="st10" d="M98.4,17.3h-1.2l-1.4-2.4c-0.1-0.2-0.3-0.4-0.4-0.6c-0.1-0.2-0.3-0.3-0.4-0.4s-0.3-0.2-0.4-0.2
			s-0.3-0.1-0.5-0.1h-0.8v3.7h-1V8.7h2.6c0.4,0,0.7,0.1,1,0.1s0.6,0.2,0.8,0.4c0.2,0.2,0.4,0.4,0.6,0.7c0.1,0.3,0.2,0.6,0.2,1
			c0,0.3,0,0.6-0.1,0.8s-0.2,0.5-0.4,0.7s-0.4,0.4-0.6,0.5c-0.2,0.1-0.5,0.2-0.8,0.3v0c0.1,0.1,0.3,0.1,0.4,0.2
			c0.1,0.1,0.2,0.2,0.3,0.3s0.2,0.2,0.3,0.4s0.2,0.3,0.3,0.5L98.4,17.3z M93.2,9.6v3.1h1.4c0.3,0,0.5,0,0.7-0.1
			c0.2-0.1,0.4-0.2,0.6-0.3s0.3-0.3,0.4-0.5c0.1-0.2,0.1-0.4,0.1-0.7c0-0.5-0.2-0.8-0.4-1.1c-0.3-0.3-0.7-0.4-1.3-0.4
			C94.6,9.6,93.2,9.6,93.2,9.6z"/>
		<path class="st10" d="M106,16.7c-0.9,0.5-1.8,0.7-2.9,0.7c-1.2,0-2.2-0.4-3-1.2c-0.8-0.8-1.1-1.8-1.1-3.1c0-1.3,0.4-2.4,1.3-3.3
			c0.8-0.9,1.9-1.3,3.2-1.3c0.9,0,1.7,0.1,2.4,0.5v1.1c-0.7-0.4-1.5-0.7-2.5-0.7c-1,0-1.8,0.3-2.4,1c-0.6,0.7-0.9,1.5-0.9,2.6
			c0,1.1,0.3,1.9,0.9,2.6s1.3,0.9,2.3,0.9c0.7,0,1.3-0.1,1.8-0.4v-2.4h-1.9v-0.9h2.9V16.7z"/>
	</g>
</g>
</svg>
