<?xml version="1.0" encoding="utf-8"?>
<!-- Generator: Adobe Illustrator 24.1.2, SVG Export Plug-In . SVG Version: 6.00 Build 0)  -->
<svg version="1.1" id="Слой_2" xmlns="http://www.w3.org/2000/svg" xmlns:xlink="http://www.w3.org/1999/xlink" x="0px" y="0px"
	 viewBox="0 0 100 70" style="enable-background:new 0 0 100 70;" xml:space="preserve">
<style type="text/css">
	.st0{fill:#F7CF0D;}
</style>
<g>
	<path class="st0" d="M12.1,36.4c0-2.4,0-4.9,0.1-6.3h-0.1c-0.6,2.1-2.7,7.7-4.2,11.8H6.4c-1.1-3.3-3.3-9.6-3.9-11.9H2.5
		c0.1,1.5,0.1,4.4,0.1,6.6v5.2H1v-13h2.6c1.5,4.1,3.3,9.3,3.7,10.9h0c0.3-1.3,2.5-7,4-10.9h2.5v13h-1.7V36.4z"/>
	<path class="st0" d="M16.9,28.1h1.6v2h-1.6V28.1z M16.9,32.4h1.6v9.5h-1.6V32.4z"/>
	<path class="st0" d="M21.3,34.8c0-0.8,0-1.7,0-2.4h1.6c0,0.3,0.1,1.3,0.1,1.6c0.4-0.8,1.1-1.8,3-1.8c1.8,0,3.2,1.1,3.2,3.6v6.1
		h-1.6V36c0-1.4-0.6-2.4-2-2.4c-1.8,0-2.5,1.4-2.5,3.3v5h-1.6V34.8z"/>
	<path class="st0" d="M32.9,37.5c0,1.9,1,3.3,2.6,3.3c1.5,0,2-0.8,2.3-1.5h1.7c-0.4,1.2-1.4,2.8-4,2.8c-3,0-4.2-2.4-4.2-4.9
		c0-2.8,1.4-5.1,4.3-5.1c3.1,0,4.1,2.5,4.1,4.5c0,0.3,0,0.5,0,0.8H32.9z M38,36.3c0-1.6-0.8-2.8-2.4-2.8c-1.7,0-2.4,1.2-2.6,2.8H38z
		"/>
	<path class="st0" d="M42.1,28.9h1.7v11.6h6.8l-0.2,1.5h-8.3V28.9z"/>
	<path class="st0" d="M53.4,37.5c0,1.9,1,3.3,2.6,3.3c1.5,0,2-0.8,2.3-1.5h1.7c-0.4,1.2-1.4,2.8-4,2.8c-3,0-4.2-2.4-4.2-4.9
		c0-2.8,1.4-5.1,4.3-5.1c3.1,0,4.1,2.5,4.1,4.5c0,0.3,0,0.5,0,0.8H53.4z M58.4,36.3c0-1.6-0.8-2.8-2.4-2.8c-1.7,0-2.4,1.2-2.6,2.8
		H58.4z"/>
	<path class="st0" d="M70.2,41.1c0,3-1.3,4.8-4.4,4.8c-2.9,0-3.8-1.6-3.9-2.9h1.7c0.3,1,1.1,1.6,2.3,1.6c2.2,0,2.7-1.4,2.7-3.6v-0.8
		c-0.5,1.1-1.4,1.7-3,1.7c-2.3,0-3.9-1.9-3.9-4.7c0-3.1,1.8-5,4.1-5c1.8,0,2.6,0.8,2.8,1.5c0-0.4,0.1-1.1,0.1-1.3h1.6
		c0,0.5,0,1.8,0,2.8L70.2,41.1L70.2,41.1z M63.4,37.1c0,2,1,3.4,2.6,3.4c2.1,0,2.7-1.4,2.7-3.5c0-2.1-0.6-3.4-2.6-3.4
		C64.3,33.6,63.4,35,63.4,37.1z"/>
	<path class="st0" d="M79.9,39.8c0,0.9,0.1,1.8,0.1,2.1h-1.6c-0.1-0.2-0.1-0.7-0.2-1.2c-0.3,0.6-1.1,1.5-2.9,1.5
		c-2.2,0-3.2-1.5-3.2-2.9c0-2.1,1.7-3.1,4.5-3.1c0.7,0,1.3,0,1.6,0v-0.8c0-0.8-0.3-1.9-2.1-1.9c-1.6,0-1.9,0.8-2,1.5h-1.6
		c0.1-1.3,0.9-2.8,3.7-2.8c2.3,0,3.6,1,3.6,3.1L79.9,39.8L79.9,39.8z M78.3,37.3c-0.3,0-1,0-1.5,0c-1.9,0-2.9,0.5-2.9,1.9
		c0,1,0.7,1.7,1.8,1.7c2.3,0,2.6-1.5,2.6-3.3C78.3,37.6,78.3,37.3,78.3,37.3z"/>
	<path class="st0" d="M90.2,39c-0.4,1.6-1.5,3.1-3.9,3.1c-2.6,0-4.2-1.9-4.2-4.9c0-2.7,1.5-5,4.4-5c2.7,0,3.7,2,3.8,3.2h-1.6
		c-0.2-1-0.8-1.8-2.2-1.8c-1.7,0-2.6,1.4-2.6,3.6c0,2.2,0.9,3.6,2.6,3.6c1.2,0,1.9-0.6,2.3-1.8L90.2,39L90.2,39z"/>
	<path class="st0" d="M93.2,32.4c1.5,4.5,2.4,7.1,2.6,8h0c0.3-1.1,1-3.3,2.5-8h1.7l-3.4,10c-1,2.8-1.7,3.5-3.6,3.5
		c-0.3,0-0.7,0-1-0.1v-1.4c0.2,0,0.5,0,0.8,0c1.2,0,1.7-0.5,2.2-2.1l-3.6-9.9H93.2z"/>
</g>
</svg>
