<?xml version="1.0" encoding="utf-8"?>
<!-- Generator: Adobe Illustrator 24.1.2, SVG Export Plug-In . SVG Version: 6.00 Build 0)  -->
<svg version="1.1" id="Слой_2" xmlns="http://www.w3.org/2000/svg" xmlns:xlink="http://www.w3.org/1999/xlink" x="0px" y="0px"
	 viewBox="0 0 100 70" style="enable-background:new 0 0 100 70;" xml:space="preserve">
<style type="text/css">
	.st0{fill:#3C59F0;}
	.st1{fill:#8C8C8C;}
	.st2{fill:#F72D4A;}
</style>
<g>
	<g>
		<path class="st0" d="M18.1,31.1v13.6H15v-9.5l-4.3,9.5H8.6l-4.3-9.5v9.5H1.1V31.1h4.3l4,8.9l4.3-8.9
			C13.7,31.1,18.1,31.1,18.1,31.1z"/>
		<path class="st0" d="M19.2,40c0-0.8,0.1-1.5,0.4-2.2c0.3-0.6,0.7-1.1,1.1-1.5s1-0.7,1.7-0.9c0.6-0.2,1.3-0.3,2-0.3
			c0.7,0,1.4,0.1,2,0.3c0.6,0.2,1.2,0.5,1.7,0.9c0.5,0.4,0.9,0.9,1.1,1.5c0.3,0.6,0.4,1.3,0.4,2.2c0,0.8-0.1,1.5-0.4,2.2
			s-0.7,1.1-1.1,1.5s-1,0.7-1.7,0.9c-0.6,0.2-1.3,0.3-2,0.3c-0.7,0-1.4-0.1-2-0.3c-0.6-0.2-1.2-0.5-1.7-0.9
			c-0.5-0.4-0.9-0.9-1.1-1.5C19.4,41.6,19.2,40.8,19.2,40z M26.3,40c0-0.3,0-0.5-0.1-0.8s-0.2-0.5-0.3-0.7c-0.1-0.2-0.3-0.3-0.6-0.5
			S24.8,38,24.5,38s-0.6,0.1-0.9,0.2c-0.2,0.1-0.4,0.3-0.6,0.5s-0.3,0.4-0.3,0.7c-0.1,0.3-0.1,0.5-0.1,0.8s0,0.5,0.1,0.8
			c0.1,0.3,0.2,0.5,0.3,0.7c0.1,0.2,0.3,0.3,0.6,0.5s0.5,0.2,0.9,0.2s0.6-0.1,0.9-0.2c0.2-0.1,0.4-0.3,0.6-0.5
			c0.1-0.2,0.3-0.4,0.3-0.7C26.3,40.5,26.3,40.3,26.3,40z"/>
		<path class="st0" d="M35.6,35.5c0.6-0.3,1.4-0.4,2.3-0.3v3.2c-0.7-0.1-1.3-0.1-1.9,0.1s-1.1,0.5-1.4,1v5.3h-3.3v-9.4h2.9v1.3
			C34.5,36.2,35,35.8,35.6,35.5z"/>
		<path class="st0" d="M42.4,42c1.5,0.9,2.5-0.2,2.5-0.2l0.4,0.1l2.3,0.8C46.1,45,44.1,45,44.1,45c0,0-0.1,0-0.1,0
			c-0.7,0-1.4-0.1-2-0.3c-0.7-0.2-1.3-0.5-1.8-1c-0.5-0.4-0.9-0.9-1.2-1.6c-0.3-0.6-0.4-1.3-0.4-2.1c0-0.9,0.2-1.7,0.5-2.3
			s0.7-1.2,1.2-1.5s1-0.7,1.6-0.8c0.6-0.2,1.1-0.3,1.6-0.3c1,0,1.8,0.2,2.5,0.5s1.2,0.8,1.5,1.4c0.4,0.6,0.6,1.2,0.7,1.9
			c0.1,0.7,0,1.4-0.1,2.1h-6.1C41.8,41.5,42.4,42,42.4,42z M44.9,39c0-0.1,0-0.3,0-0.4c0-0.2-0.1-0.3-0.2-0.5
			c-0.1-0.2-0.3-0.3-0.5-0.4c-0.2-0.1-0.5-0.2-0.8-0.2c-0.5,0-0.8,0.1-1.2,0.4s-0.5,0.7-0.5,1.2H44.9z"/>
		<path class="st1" d="M53.4,31.1v10.4h6.2v3.2h-9.8V31.1H53.4z"/>
		<path class="st1" d="M60.9,44.7V34.1h3.3v10.5H60.9z"/>
		<path class="st1" d="M72.3,35.3H76l-3.3,4l3.5,5.3h-3.7l-1.9-2.9L69.5,43l0,1.6h-3.3V31.1h3.3l0,8L72.3,35.3z"/>
		<path class="st1" d="M76.2,40c0-0.9,0.2-1.7,0.5-2.3s0.7-1.2,1.2-1.5s1-0.7,1.6-0.8s1.1-0.3,1.6-0.3c1,0,1.8,0.2,2.5,0.5
			c0.7,0.4,1.2,0.8,1.5,1.4c0.4,0.6,0.6,1.2,0.7,1.9s0,1.4-0.1,2.1h-6.1c0.1,0.3,0.2,0.5,0.4,0.7c0.2,0.2,0.4,0.3,0.7,0.5
			c0.3,0.1,0.6,0.2,0.9,0.3s0.7,0.1,1,0.1c0.5,0,1,0,1.4-0.1c0.4-0.1,0.8-0.2,1.2-0.3v2.5c-0.4,0.2-0.9,0.3-1.5,0.4
			c-0.6,0.1-1.2,0.2-2,0.2c-0.8,0-1.5-0.1-2.2-0.3c-0.7-0.2-1.3-0.5-1.8-1c-0.5-0.4-0.9-0.9-1.2-1.6C76.3,41.5,76.2,40.8,76.2,40z
			 M82.6,39c0-0.1,0-0.3,0-0.4c0-0.2-0.1-0.3-0.2-0.5c-0.1-0.2-0.3-0.3-0.5-0.4c-0.2-0.1-0.5-0.2-0.8-0.2c-0.4,0-0.8,0.1-1.2,0.4
			s-0.5,0.7-0.5,1.2H82.6z"/>
		<path class="st1" d="M87,38c0-0.6,0.1-1,0.3-1.4c0.2-0.4,0.5-0.7,0.9-0.9c0.4-0.2,0.8-0.4,1.3-0.5c0.5-0.1,1-0.2,1.5-0.2
			c0.7,0,1.3,0.1,1.9,0.2c0.6,0.2,1.1,0.3,1.6,0.6v2.6c-0.2-0.1-0.4-0.3-0.7-0.4c-0.3-0.1-0.5-0.2-0.8-0.3c-0.3-0.1-0.6-0.2-0.9-0.2
			s-0.6-0.1-0.9-0.1c-0.2,0-0.4,0-0.6,0.1c-0.2,0.1-0.3,0.2-0.3,0.4c0,0.2,0.1,0.4,0.4,0.5c0.2,0.1,0.5,0.2,0.9,0.3s0.8,0.2,1.2,0.3
			s0.8,0.3,1.2,0.5c0.4,0.2,0.7,0.5,0.9,0.9c0.2,0.4,0.4,0.8,0.4,1.4c0,0.6-0.1,1.1-0.4,1.5s-0.6,0.7-1,0.9
			c-0.4,0.2-0.9,0.4-1.4,0.5C92,44.9,91.4,45,90.9,45c-0.7,0-1.4-0.1-2.1-0.2c-0.6-0.1-1.2-0.4-1.7-0.6v-2.6
			c0.5,0.3,1.1,0.6,1.8,0.8c0.7,0.2,1.3,0.2,1.8,0.2c0.8,0,1.2-0.2,1.2-0.5c0-0.2-0.1-0.4-0.4-0.5c-0.2-0.1-0.5-0.2-0.9-0.3
			c-0.4-0.1-0.8-0.2-1.2-0.4s-0.8-0.3-1.2-0.5c-0.4-0.2-0.7-0.5-0.9-0.9C87.1,39,87,38.6,87,38z"/>
	</g>
	<path class="st2" d="M94.1,27.7c0,0-0.5-2-3-1.5c0,0-2.5,0.7-2.2,3.1c0,0,0.5,2.3,3.5,3.3c0,0,1.8,0.6,1.6,2.6c0,0,0.7-1.6,2.6-2.8
		c0,0,3.8-2.7,2.2-5.1C98.8,27.3,96.7,24.2,94.1,27.7z"/>
	<rect x="60.8" y="31" class="st1" width="3.3" height="2.2"/>
</g>
</svg>
