<?xml version="1.0" encoding="utf-8"?>
<!-- Generator: Adobe Illustrator 24.1.2, SVG Export Plug-In . SVG Version: 6.00 Build 0)  -->
<svg version="1.1" id="Слой_2" xmlns="http://www.w3.org/2000/svg" xmlns:xlink="http://www.w3.org/1999/xlink" x="0px" y="0px"
	 viewBox="0 0 100 70" style="enable-background:new 0 0 100 70;" xml:space="preserve">
<g>
	<path d="M7.2,41c0,0.1,0,0.2,0,0.2c0,0.1-0.1,0.1-0.1,0.2c-0.1,0-0.1,0.1-0.2,0.1c-0.1,0-0.1,0-0.2,0H6.3c-0.1,0-0.2,0-0.3,0
		c-0.1,0-0.2-0.1-0.3-0.1s-0.2-0.2-0.2-0.3c-0.1-0.1-0.2-0.2-0.3-0.4l-2.5-4.7c-0.1-0.2-0.3-0.5-0.4-0.8c-0.1-0.3-0.3-0.5-0.4-0.8h0
		c0,0.3,0,0.6,0,1c0,0.3,0,0.6,0,1v5c0,0,0,0.1,0,0.1s0,0-0.1,0.1c0,0-0.1,0-0.2,0c-0.1,0-0.2,0-0.3,0s-0.2,0-0.3,0
		c-0.1,0-0.1,0-0.2-0.1c0,0-0.1,0-0.1-0.1c0,0,0-0.1,0-0.1v-7.7c0-0.2,0.1-0.3,0.1-0.4c0.1-0.1,0.2-0.1,0.3-0.1h0.6
		c0.1,0,0.2,0,0.3,0c0.1,0,0.2,0.1,0.2,0.1s0.1,0.1,0.2,0.2s0.1,0.2,0.2,0.3l2,3.7c0.1,0.2,0.2,0.4,0.3,0.7c0.1,0.2,0.2,0.4,0.3,0.6
		c0.1,0.2,0.2,0.4,0.3,0.6s0.2,0.4,0.3,0.6h0c0-0.3,0-0.7,0-1.1c0-0.4,0-0.7,0-1.1v-4.5c0,0,0-0.1,0-0.1s0.1,0,0.1-0.1s0.1,0,0.2,0
		c0.1,0,0.2,0,0.3,0c0.1,0,0.2,0,0.3,0s0.1,0,0.2,0s0.1,0,0.1,0.1s0,0,0,0.1C7.2,33.3,7.2,41,7.2,41z"/>
	<path d="M14.8,41.1c0,0.1,0.1,0.2,0.1,0.2s0,0.1-0.1,0.1c0,0-0.1,0-0.2,0.1c-0.1,0-0.2,0-0.3,0s-0.2,0-0.3,0s-0.1,0-0.2,0
		s-0.1,0-0.1-0.1c0,0,0-0.1-0.1-0.1l-0.7-2H9.5l-0.7,2c0,0,0,0.1-0.1,0.1s-0.1,0-0.1,0.1s-0.1,0-0.2,0c-0.1,0-0.2,0-0.3,0
		s-0.2,0-0.3,0c-0.1,0-0.1,0-0.2-0.1c0,0-0.1-0.1-0.1-0.1s0-0.1,0.1-0.2l2.8-7.7c0,0,0-0.1,0.1-0.1s0.1,0,0.1-0.1s0.1,0,0.2,0
		c0.1,0,0.2,0,0.3,0c0.1,0,0.3,0,0.3,0s0.2,0,0.2,0s0.1,0,0.1,0.1s0.1,0.1,0.1,0.1L14.8,41.1z M11.2,34.2L11.2,34.2l-1.4,4.2h2.9
		L11.2,34.2z"/>
	<path d="M21,41.3C21,41.3,20.9,41.3,21,41.3c0,0.1-0.1,0.1-0.1,0.2c0,0-0.1,0-0.2,0c-0.1,0-0.2,0-0.3,0c-0.1,0-0.2,0-0.3,0
		s-0.1,0-0.2,0s-0.1,0-0.1-0.1c0,0,0-0.1-0.1-0.1l-0.8-2c-0.1-0.2-0.2-0.4-0.3-0.6c-0.1-0.2-0.2-0.3-0.3-0.5
		c-0.1-0.1-0.3-0.2-0.5-0.3c-0.2-0.1-0.4-0.1-0.6-0.1h-0.7v3.5c0,0,0,0.1,0,0.1s0,0-0.1,0.1c0,0-0.1,0-0.2,0c-0.1,0-0.2,0-0.3,0
		c-0.1,0-0.2,0-0.3,0c-0.1,0-0.1,0-0.2,0c0,0-0.1,0-0.1-0.1c0,0,0-0.1,0-0.1v-7.7c0-0.2,0-0.3,0.1-0.3s0.2-0.1,0.3-0.1h1.8
		c0.2,0,0.4,0,0.5,0c0.1,0,0.3,0,0.4,0c0.3,0.1,0.6,0.1,0.9,0.3c0.3,0.1,0.5,0.3,0.6,0.5c0.2,0.2,0.3,0.4,0.4,0.6s0.1,0.5,0.1,0.8
		c0,0.3,0,0.5-0.1,0.8c-0.1,0.2-0.2,0.4-0.3,0.6c-0.1,0.2-0.3,0.3-0.5,0.4s-0.4,0.2-0.7,0.3c0.1,0.1,0.3,0.1,0.4,0.2
		s0.2,0.2,0.3,0.3s0.2,0.3,0.3,0.4c0.1,0.2,0.2,0.4,0.3,0.6l0.8,1.8c0.1,0.2,0.1,0.3,0.1,0.3C21,41.2,21,41.3,21,41.3z M19.3,35.4
		c0-0.3-0.1-0.6-0.2-0.8c-0.1-0.2-0.4-0.4-0.7-0.5c-0.1,0-0.2,0-0.4-0.1s-0.3,0-0.5,0h-0.9v2.8h1.1c0.3,0,0.5,0,0.8-0.1
		c0.2-0.1,0.4-0.2,0.5-0.3c0.1-0.1,0.3-0.3,0.3-0.5C19.3,35.8,19.3,35.6,19.3,35.4z"/>
	<path d="M28.5,41.1c0,0.1,0,0.2,0,0.2s0,0.1,0,0.1c0,0-0.1,0-0.2,0.1c-0.1,0-0.2,0-0.3,0s-0.2,0-0.3,0s-0.1,0-0.2,0s-0.1,0-0.1-0.1
		c0,0,0-0.1,0-0.1l-0.7-2h-3.5l-0.7,2c0,0,0,0.1,0,0.1c0,0,0,0-0.1,0.1s-0.1,0-0.2,0c-0.1,0-0.2,0-0.3,0s-0.2,0-0.3,0
		c-0.1,0-0.1,0-0.2-0.1c0,0,0-0.1,0-0.1s0-0.1,0-0.2l2.8-7.7c0,0,0-0.1,0.1-0.1c0,0,0.1,0,0.1-0.1c0,0,0.1,0,0.2,0
		c0.1,0,0.2,0,0.3,0c0.1,0,0.3,0,0.3,0s0.2,0,0.2,0s0.1,0,0.1,0.1c0,0,0,0.1,0.1,0.1L28.5,41.1z M24.9,34.2L24.9,34.2l-1.4,4.2h2.9
		L24.9,34.2z"/>
	<path d="M30.3,38.2v3.1c0,0,0,0.1,0,0.1s0,0-0.1,0.1c0,0-0.1,0-0.2,0c-0.1,0-0.2,0-0.3,0c-0.1,0-0.2,0-0.3,0c-0.1,0-0.1,0-0.2,0
		c0,0-0.1,0-0.1-0.1c0,0,0-0.1,0-0.1v-3.1l-2.4-4.7c0-0.1-0.1-0.2-0.1-0.2c0-0.1,0-0.1,0-0.1c0,0,0.1,0,0.2-0.1c0.1,0,0.2,0,0.3,0
		c0.1,0,0.2,0,0.3,0s0.1,0,0.2,0c0,0,0.1,0,0.1,0.1c0,0,0,0.1,0.1,0.1l1.1,2.4c0.1,0.2,0.2,0.5,0.3,0.7c0.1,0.3,0.2,0.5,0.3,0.8h0
		c0.1-0.2,0.2-0.5,0.3-0.7c0.1-0.2,0.2-0.5,0.3-0.7l1.2-2.4c0,0,0-0.1,0-0.1c0,0,0.1,0,0.1-0.1c0,0,0.1,0,0.2,0c0.1,0,0.2,0,0.3,0
		c0.2,0,0.3,0,0.4,0c0.1,0,0.2,0,0.2,0.1c0,0,0,0.1,0,0.1s0,0.1-0.1,0.2L30.3,38.2z"/>
	<path d="M38.4,41.1c0,0.1,0,0.2,0,0.2s0,0.1,0,0.1c0,0-0.1,0-0.2,0.1c-0.1,0-0.2,0-0.3,0s-0.2,0-0.3,0c-0.1,0-0.1,0-0.2,0
		s-0.1,0-0.1-0.1c0,0,0-0.1,0-0.1l-0.7-2h-3.5l-0.7,2c0,0,0,0.1,0,0.1s0,0-0.1,0.1s-0.1,0-0.2,0c-0.1,0-0.2,0-0.3,0s-0.2,0-0.3,0
		c-0.1,0-0.1,0-0.2-0.1c0,0,0-0.1,0-0.1s0-0.1,0-0.2l2.8-7.7c0,0,0-0.1,0.1-0.1s0.1,0,0.1-0.1s0.1,0,0.2,0c0.1,0,0.2,0,0.3,0
		c0.1,0,0.3,0,0.3,0s0.2,0,0.2,0s0.1,0,0.1,0.1c0,0,0,0.1,0.1,0.1L38.4,41.1z M34.8,34.2L34.8,34.2l-1.4,4.2h2.9L34.8,34.2z"/>
	<path d="M45.5,41c0,0.1,0,0.2,0,0.2c0,0.1-0.1,0.1-0.1,0.2c0,0-0.1,0.1-0.2,0.1c-0.1,0-0.1,0-0.2,0h-0.4c-0.1,0-0.2,0-0.3,0
		c-0.1,0-0.2-0.1-0.3-0.1s-0.2-0.2-0.2-0.3c-0.1-0.1-0.2-0.2-0.3-0.4L41,35.9c-0.1-0.2-0.3-0.5-0.4-0.8s-0.3-0.5-0.4-0.8h0
		c0,0.3,0,0.6,0,1c0,0.3,0,0.6,0,1v5c0,0,0,0.1,0,0.1s0,0-0.1,0.1c0,0-0.1,0-0.2,0c-0.1,0-0.2,0-0.3,0s-0.2,0-0.3,0
		c-0.1,0-0.1,0-0.2,0c0,0-0.1,0-0.1-0.1c0,0,0-0.1,0-0.1v-7.7c0-0.2,0-0.3,0.2-0.4c0.1-0.1,0.2-0.1,0.3-0.1h0.5c0.1,0,0.2,0,0.3,0
		c0.1,0,0.2,0.1,0.2,0.1s0.1,0.1,0.2,0.2s0.1,0.2,0.2,0.3l2,3.7c0.1,0.2,0.2,0.4,0.3,0.7c0.1,0.2,0.2,0.4,0.3,0.6
		c0.1,0.2,0.2,0.4,0.3,0.6c0.1,0.2,0.2,0.4,0.3,0.6h0c0-0.3,0-0.7,0-1.1c0-0.4,0-0.7,0-1.1v-4.5c0,0,0-0.1,0-0.1s0,0,0.1-0.1
		s0.1,0,0.2,0c0.1,0,0.2,0,0.3,0c0.1,0,0.2,0,0.3,0s0.1,0,0.2,0c0,0,0.1,0,0.1,0.1s0,0,0,0.1L45.5,41L45.5,41z"/>
	<path d="M53.1,41.1c0,0.1,0,0.2,0,0.2s0,0.1,0,0.1c0,0-0.1,0-0.2,0.1c-0.1,0-0.2,0-0.3,0s-0.2,0-0.3,0c-0.1,0-0.1,0-0.2,0
		s-0.1,0-0.1-0.1c0,0,0-0.1,0-0.1l-0.7-2h-3.5l-0.7,2c0,0,0,0.1,0,0.1s0,0-0.1,0.1s-0.1,0-0.2,0c-0.1,0-0.2,0-0.3,0
		c-0.1,0-0.2,0-0.3,0c-0.1,0-0.1,0-0.2-0.1c0,0,0-0.1,0-0.1s0-0.1,0-0.2l2.8-7.7c0,0,0-0.1,0.1-0.1s0.1,0,0.1-0.1s0.1,0,0.2,0
		c0.1,0,0.2,0,0.3,0c0.1,0,0.3,0,0.3,0s0.2,0,0.2,0s0.1,0,0.1,0.1c0,0,0,0.1,0.1,0.1L53.1,41.1z M49.6,34.2L49.6,34.2l-1.4,4.2H51
		L49.6,34.2z"/>
	<path d="M62,39.1c0,0.4-0.1,0.7-0.2,1c-0.1,0.3-0.3,0.6-0.6,0.8c-0.3,0.2-0.6,0.4-0.9,0.5c-0.3,0.1-0.7,0.2-1.1,0.2
		c-0.3,0-0.5,0-0.8-0.1c-0.2,0-0.5-0.1-0.6-0.2c-0.2-0.1-0.3-0.1-0.5-0.2S57.1,41,57,40.9s-0.1-0.1-0.1-0.2s0-0.2,0-0.3
		c0-0.1,0-0.2,0-0.2s0-0.1,0-0.2s0-0.1,0.1-0.1c0,0,0.1,0,0.1,0c0.1,0,0.1,0,0.3,0.1s0.3,0.2,0.4,0.2s0.4,0.2,0.6,0.2
		c0.2,0.1,0.5,0.1,0.8,0.1c0.2,0,0.5,0,0.7-0.1c0.2-0.1,0.4-0.2,0.5-0.3c0.1-0.1,0.3-0.3,0.3-0.4c0.1-0.2,0.1-0.4,0.1-0.6
		c0-0.2,0-0.4-0.2-0.6c-0.1-0.2-0.3-0.3-0.4-0.4c-0.2-0.1-0.4-0.2-0.6-0.3c-0.2-0.1-0.5-0.2-0.7-0.3c-0.2-0.1-0.5-0.2-0.7-0.4
		c-0.2-0.1-0.4-0.3-0.6-0.5s-0.3-0.4-0.4-0.6s-0.2-0.5-0.2-0.9c0-0.3,0.1-0.7,0.2-0.9c0.1-0.3,0.3-0.5,0.5-0.7
		c0.2-0.2,0.5-0.3,0.8-0.4c0.3-0.1,0.7-0.2,1-0.2c0.2,0,0.4,0,0.6,0c0.2,0,0.4,0.1,0.5,0.1s0.3,0.1,0.4,0.2c0.1,0.1,0.2,0.1,0.3,0.2
		s0.1,0.1,0.1,0.1c0,0,0,0,0,0.1s0,0.1,0,0.1c0,0,0,0.1,0,0.2s0,0.2,0,0.2c0,0.1,0,0.1,0,0.2s0,0.1,0,0.1s0,0-0.1,0
		c0,0-0.1,0-0.2-0.1c-0.1-0.1-0.2-0.1-0.4-0.2c-0.2-0.1-0.3-0.1-0.5-0.2c-0.2-0.1-0.4-0.1-0.7-0.1c-0.2,0-0.4,0-0.6,0.1
		s-0.3,0.1-0.4,0.3c-0.1,0.1-0.2,0.2-0.3,0.4c-0.1,0.1-0.1,0.3-0.1,0.5c0,0.2,0,0.4,0.2,0.6s0.3,0.3,0.4,0.4
		c0.2,0.1,0.4,0.3,0.6,0.3c0.2,0.1,0.5,0.2,0.7,0.3c0.2,0.1,0.5,0.2,0.7,0.4c0.2,0.1,0.4,0.3,0.6,0.5c0.2,0.2,0.3,0.4,0.4,0.6
		C61.9,38.5,62,38.8,62,39.1z"/>
	<path d="M67.2,41c0,0.1,0,0.1,0,0.2s0,0.1-0.1,0.1c0,0-0.1,0.1-0.1,0.1c0,0-0.1,0-0.1,0h-4c-0.1,0-0.2,0-0.3-0.1s-0.1-0.2-0.1-0.3
		v-7.4c0-0.2,0-0.3,0.1-0.3s0.2-0.1,0.3-0.1H67c0,0,0.1,0,0.1,0c0,0,0.1,0,0.1,0.1c0,0,0,0.1,0,0.1c0,0.1,0,0.1,0,0.2
		c0,0.1,0,0.1,0,0.2c0,0.1,0,0.1,0,0.1c0,0,0,0.1-0.1,0.1S67,34,67,34h-3.3v2.6h2.8c0,0,0.1,0,0.1,0c0,0,0.1,0,0.1,0.1
		c0,0,0,0.1,0,0.1c0,0.1,0,0.1,0,0.2c0,0.1,0,0.1,0,0.2s0,0.1,0,0.1c0,0,0,0.1-0.1,0.1c0,0-0.1,0-0.1,0h-2.8v3H67c0,0,0.1,0,0.1,0
		c0,0,0.1,0,0.1,0.1s0,0.1,0.1,0.1C67.2,40.8,67.2,40.9,67.2,41z"/>
	<path d="M73.4,41.3C73.4,41.3,73.4,41.3,73.4,41.3c0,0.1-0.1,0.1-0.1,0.2c0,0-0.1,0-0.2,0c-0.1,0-0.2,0-0.3,0c-0.1,0-0.2,0-0.3,0
		s-0.1,0-0.2,0s-0.1,0-0.1-0.1c0,0,0-0.1-0.1-0.1l-0.8-2c-0.1-0.2-0.2-0.4-0.3-0.6c-0.1-0.2-0.2-0.3-0.3-0.5
		c-0.1-0.1-0.3-0.2-0.5-0.3c-0.2-0.1-0.4-0.1-0.7-0.1H69v3.5c0,0,0,0.1,0,0.1s-0.1,0-0.1,0.1c0,0-0.1,0-0.2,0c-0.1,0-0.2,0-0.3,0
		c-0.1,0-0.2,0-0.3,0c-0.1,0-0.1,0-0.2,0c0,0-0.1,0-0.1-0.1c0,0,0-0.1,0-0.1v-7.7c0-0.2,0-0.3,0.1-0.3s0.2-0.1,0.3-0.1H70
		c0.2,0,0.4,0,0.5,0c0.1,0,0.3,0,0.4,0c0.3,0.1,0.6,0.1,0.8,0.3c0.3,0.1,0.4,0.3,0.6,0.5c0.2,0.2,0.3,0.4,0.4,0.6
		c0.1,0.2,0.1,0.5,0.1,0.8c0,0.3,0,0.5-0.1,0.8c-0.1,0.2-0.2,0.4-0.3,0.6c-0.1,0.2-0.3,0.3-0.5,0.4c-0.2,0.1-0.4,0.2-0.7,0.3
		c0.1,0.1,0.3,0.1,0.4,0.2s0.2,0.2,0.3,0.3c0.1,0.1,0.2,0.3,0.3,0.4c0.1,0.2,0.2,0.4,0.3,0.6l0.8,1.8c0.1,0.2,0.1,0.3,0.1,0.3
		C73.4,41.2,73.4,41.3,73.4,41.3z M71.7,35.4c0-0.3-0.1-0.6-0.2-0.8c-0.2-0.2-0.4-0.4-0.7-0.5c-0.1,0-0.2,0-0.4-0.1
		c-0.1,0-0.3,0-0.5,0H69v2.8H70c0.3,0,0.5,0,0.8-0.1c0.2-0.1,0.4-0.2,0.5-0.3s0.3-0.3,0.3-0.5C71.7,35.8,71.7,35.6,71.7,35.4z"/>
	<path d="M77.3,41.3c0,0,0,0.1-0.1,0.1s-0.1,0-0.1,0.1c-0.1,0-0.1,0-0.2,0c-0.1,0-0.2,0-0.3,0c-0.1,0-0.2,0-0.3,0s-0.1,0-0.2,0
		c-0.1,0-0.1,0-0.1,0c0,0-0.1,0-0.1,0c0,0-0.1,0-0.1-0.1c0,0,0,0,0-0.1l-2.7-7.7c0-0.1-0.1-0.2-0.1-0.2s0-0.1,0.1-0.1
		c0,0,0.1,0,0.2-0.1c0.1,0,0.2,0,0.3,0c0.1,0,0.2,0,0.3,0s0.1,0,0.2,0c0,0,0.1,0,0.1,0.1s0,0.1,0.1,0.1l2.4,7h0l2.3-7
		c0,0,0-0.1,0.1-0.1c0,0,0.1,0,0.1-0.1c0,0,0.1,0,0.2,0s0.2,0,0.3,0s0.2,0,0.3,0c0.1,0,0.1,0,0.2,0.1c0,0,0,0.1,0,0.1s0,0.1-0.1,0.2
		L77.3,41.3z"/>
	<path d="M81.7,41.3C81.7,41.3,81.7,41.3,81.7,41.3c0,0.1-0.1,0.1-0.1,0.2c0,0-0.1,0-0.2,0c-0.1,0-0.2,0-0.3,0c-0.1,0-0.2,0-0.3,0
		c-0.1,0-0.1,0-0.2,0c0,0-0.1,0-0.1-0.1c0,0,0-0.1,0-0.1v-8c0,0,0-0.1,0-0.1s0.1,0,0.1-0.1c0,0,0.1,0,0.2,0c0.1,0,0.2,0,0.3,0
		c0.1,0,0.2,0,0.3,0c0.1,0,0.1,0,0.2,0s0.1,0,0.1,0.1c0,0,0,0.1,0,0.1V41.3z"/>
	<path d="M88.3,40.3c0,0.1,0,0.1,0,0.2c0,0,0,0.1,0,0.1c0,0,0,0.1,0,0.1c0,0-0.1,0.1-0.1,0.1c0,0-0.1,0.1-0.3,0.2s-0.3,0.2-0.5,0.3
		c-0.2,0.1-0.4,0.2-0.7,0.2c-0.3,0.1-0.6,0.1-0.9,0.1c-0.5,0-1-0.1-1.5-0.3c-0.4-0.2-0.8-0.5-1.1-0.8c-0.3-0.3-0.5-0.8-0.7-1.3
		c-0.2-0.5-0.3-1.1-0.3-1.8c0-0.7,0.1-1.3,0.3-1.8s0.4-1,0.8-1.4c0.3-0.4,0.7-0.7,1.2-0.9c0.4-0.2,0.9-0.3,1.5-0.3
		c0.2,0,0.5,0,0.7,0.1c0.2,0,0.4,0.1,0.6,0.2c0.2,0.1,0.4,0.2,0.5,0.2s0.3,0.2,0.3,0.2s0.1,0.1,0.1,0.1c0,0,0,0.1,0,0.1s0,0.1,0,0.1
		c0,0.1,0,0.1,0,0.2c0,0.1,0,0.2,0,0.2s0,0.1,0,0.2c0,0,0,0.1-0.1,0.1s-0.1,0-0.1,0c-0.1,0-0.1,0-0.3-0.1c-0.1-0.1-0.3-0.2-0.4-0.3
		s-0.4-0.2-0.6-0.3C86.5,34,86.2,34,85.9,34c-0.4,0-0.7,0.1-1,0.2s-0.6,0.4-0.8,0.7c-0.2,0.3-0.4,0.6-0.5,1s-0.2,0.9-0.2,1.4
		s0.1,1,0.2,1.4s0.3,0.7,0.5,1c0.2,0.3,0.5,0.5,0.8,0.6s0.7,0.2,1.1,0.2c0.3,0,0.6,0,0.9-0.1c0.3-0.1,0.5-0.2,0.6-0.3
		c0.2-0.1,0.3-0.2,0.4-0.3s0.2-0.1,0.3-0.1c0,0,0.1,0,0.1,0c0,0,0,0,0.1,0.1c0,0,0,0.1,0,0.2S88.3,40.2,88.3,40.3z"/>
	<path d="M93.5,41c0,0.1,0,0.1,0,0.2s0,0.1-0.1,0.1c0,0-0.1,0.1-0.1,0.1c0,0-0.1,0-0.1,0h-4c-0.1,0-0.2,0-0.3-0.1s-0.1-0.2-0.1-0.3
		v-7.4c0-0.2,0-0.3,0.1-0.3s0.2-0.1,0.3-0.1h3.9c0,0,0.1,0,0.1,0c0,0,0.1,0,0.1,0.1c0,0,0,0.1,0,0.1c0,0.1,0,0.1,0,0.2
		c0,0.1,0,0.1,0,0.2c0,0.1,0,0.1,0,0.1c0,0,0,0.1-0.1,0.1s-0.1,0-0.1,0H90v2.6h2.8c0,0,0.1,0,0.1,0c0,0,0.1,0,0.1,0.1
		c0,0,0,0.1,0,0.1c0,0.1,0,0.1,0,0.2c0,0.1,0,0.1,0,0.2s0,0.1,0,0.1c0,0,0,0.1-0.1,0.1c0,0-0.1,0-0.1,0H90v3h3.3c0,0,0.1,0,0.1,0
		c0,0,0.1,0,0.1,0.1s0,0.1,0.1,0.1C93.5,40.8,93.5,40.9,93.5,41z"/>
	<path d="M99,39.1c0,0.4-0.1,0.7-0.2,1c-0.1,0.3-0.3,0.6-0.6,0.8c-0.3,0.2-0.6,0.4-0.9,0.5c-0.3,0.1-0.7,0.2-1.1,0.2
		c-0.3,0-0.5,0-0.8-0.1s-0.4-0.1-0.6-0.2c-0.2-0.1-0.3-0.1-0.5-0.2c-0.1-0.1-0.2-0.1-0.3-0.2s-0.1-0.1-0.1-0.2c0-0.1,0-0.2,0-0.3
		c0-0.1,0-0.2,0-0.2s0-0.1,0-0.2c0,0,0-0.1,0.1-0.1c0,0,0.1,0,0.1,0c0.1,0,0.1,0,0.3,0.1s0.3,0.2,0.4,0.2s0.4,0.2,0.6,0.2
		c0.2,0.1,0.5,0.1,0.8,0.1c0.2,0,0.5,0,0.7-0.1c0.2-0.1,0.4-0.2,0.5-0.3c0.1-0.1,0.3-0.3,0.3-0.4c0.1-0.2,0.1-0.4,0.1-0.6
		c0-0.2-0.1-0.4-0.2-0.6c-0.1-0.2-0.3-0.3-0.4-0.4c-0.2-0.1-0.4-0.2-0.6-0.3c-0.2-0.1-0.5-0.2-0.7-0.3c-0.2-0.1-0.5-0.2-0.7-0.4
		s-0.4-0.3-0.6-0.5s-0.3-0.4-0.4-0.6s-0.2-0.5-0.2-0.9c0-0.3,0.1-0.7,0.2-0.9c0.1-0.3,0.3-0.5,0.5-0.7c0.2-0.2,0.5-0.3,0.8-0.4
		c0.3-0.1,0.7-0.1,1-0.1c0.2,0,0.4,0,0.6,0c0.2,0,0.4,0.1,0.5,0.1s0.3,0.1,0.4,0.2c0.1,0.1,0.2,0.1,0.3,0.2s0.1,0.1,0.1,0.1
		c0,0,0,0,0,0.1s0,0.1,0,0.1c0,0,0,0.1,0,0.2s0,0.2,0,0.2c0,0.1,0,0.1,0,0.2s0,0.1-0.1,0.1c0,0-0.1,0-0.1,0c-0.1,0-0.1,0-0.2-0.1
		s-0.2-0.1-0.4-0.2c-0.2-0.1-0.3-0.1-0.5-0.2C97,34,96.8,34,96.6,34c-0.2,0-0.4,0-0.6,0.1s-0.3,0.1-0.4,0.3
		c-0.1,0.1-0.2,0.2-0.3,0.4c-0.1,0.1-0.1,0.3-0.1,0.5c0,0.2,0.1,0.4,0.2,0.6s0.3,0.3,0.4,0.4c0.2,0.1,0.4,0.3,0.6,0.3
		c0.2,0.1,0.5,0.2,0.7,0.3c0.2,0.1,0.5,0.2,0.7,0.4c0.2,0.1,0.4,0.3,0.6,0.5c0.2,0.2,0.3,0.4,0.4,0.6C98.9,38.5,99,38.8,99,39.1z"/>
</g>
</svg>
