<?xml version="1.0" encoding="utf-8"?>
<!-- Generator: Adobe Illustrator 24.1.2, SVG Export Plug-In . SVG Version: 6.00 Build 0)  -->
<svg version="1.1" id="Слой_2" xmlns="http://www.w3.org/2000/svg" xmlns:xlink="http://www.w3.org/1999/xlink" x="0px" y="0px"
	 viewBox="0 0 100 70" style="enable-background:new 0 0 100 70;" xml:space="preserve">
<style type="text/css">
	.st0{fill:#898989;}
	.st1{fill:#BBA672;}
	.st2{fill:#1C1C1C;}
	.st3{fill:#ECECEC;}
</style>
<g>
	<g>
		<path class="st0" d="M22.2,32.3h4c2.1,0,3.5,1.2,3.5,3c0,2.1-1.6,3.1-3.5,3.1h-1.9V42h-2.1C22.2,42,22.2,32.3,22.2,32.3z
			 M24.3,36.7h1.6c1,0,1.7-0.4,1.7-1.4S26.9,34,26,34h-1.6V36.7z"/>
		<path class="st0" d="M40.4,37.1c0,2.7-1.6,5-4.8,5c-3,0-4.6-2.2-4.6-5c0-2.8,1.8-5,4.8-5C38.6,32.2,40.4,34.1,40.4,37.1z
			 M33.1,37.1c0,1.9,0.8,3.3,2.5,3.3c1.9,0,2.5-1.6,2.5-3.3c0-1.8-0.8-3.3-2.6-3.3C33.9,33.9,33.1,35.2,33.1,37.1z"/>
		<path class="st0" d="M42.2,32.3h2.1v8h4.8L48.9,42h-6.7L42.2,32.3L42.2,32.3z"/>
		<path class="st0" d="M52.5,32.3V42h-2.1v-9.7H52.5z"/>
		<path class="st0" d="M56.9,34h-3v-1.7h8V34H59v8h-2.1V34z"/>
		<path class="st0" d="M71.4,38.4c0-1.7,0-3.5,0.1-4.6h-0.1C71,35.7,70,39,69.1,42h-1.8c-0.7-2.7-1.7-6.3-2.1-8.3h-0.1
			c0.1,1.1,0.1,3.1,0.1,4.8V42h-1.9v-9.7h3.1c0.8,2.5,1.6,5.7,1.9,7.2h0c0.2-1.3,1.3-4.7,2.1-7.2h3V42h-2
			C71.4,42,71.4,38.4,71.4,38.4z"/>
		<path class="st0" d="M77.9,32.3V42h-2.1v-9.7H77.9z"/>
		<path class="st0" d="M80.2,42v-9.7h2.6c1.2,2.2,3.4,6.1,3.9,7.2h0c-0.1-1-0.1-2.7-0.1-4.3v-2.9h1.9V42H86c-1-1.9-3.5-6.4-4-7.5h0
			c0.1,0.8,0.1,2.8,0.1,4.6V42H80.2z"/>
		<path class="st0" d="M97.5,37.8h-4.6v2.5H98L97.8,42h-6.9v-9.7h6.9V34h-4.8v2.1h4.6L97.5,37.8L97.5,37.8z"/>
	</g>
	<g>
		<g>
			<path class="st1" d="M14.2,31.6c0,0,0.1,0.1,0.1,0.2c-0.1,0-0.1,0-0.2,0c-0.1-0.1-0.1,0-0.1,0c0,0-0.1,0.1,0,0.1
				c0.1,0.1,0.2-0.1,0.3,0c0,0,0,0.1,0.1,0.1c0,0-0.1,0.1-0.1,0.1c-0.1,0-0.1,0.1,0,0.1c0,0,0.1,0.1,0.1,0c0.1-0.1,0.3-0.1,0.4,0
				c0,0,0,0,0,0c0,0.1,0.1,0.1,0.1,0.1l0,0c0,0.1,0.1,0,0.1,0c0.9,0.5,1.7,1.2,2.4,2c0.6,0.8,1.1,1.6,1.5,2.6
				c0.4,1.1,0.5,2.2,0.4,3.4c0,0.2,0,0.5-0.1,0.7c0,0.1,0,0.1,0.1,0.2c0.3,0.4,0.6,0.9,0.8,1.3c0.4,0.8,0.8,1.6,0.9,2.5
				c0,0.2-0.1,0.5-0.4,0.5c-0.9,0.2-1.7,0.3-2.6,0.3c-0.5,0-0.9,0-1.4,0c-0.1,0-0.2,0-0.2,0.1c-0.9,0.8-2,1.4-3.1,1.7
				c-0.6,0.2-1.2,0.3-1.8,0.3c-0.4,0-0.8,0-1.3,0c-0.7-0.1-1.3-0.2-2-0.4c-0.5-0.2-1-0.4-1.4-0.6c-0.4-0.3-0.9-0.6-1.3-1
				c-0.1-0.1-0.2-0.1-0.3-0.1c-0.3,0-0.5,0-0.8,0c-0.8,0-1.6-0.1-2.5-0.3c-0.3,0-0.5-0.1-0.8-0.1c0-0.2-0.1-0.5-0.1-0.7
				c0-0.1,0-0.2-0.1-0.3c0.3-1,0.7-1.9,1.2-2.8c0.1-0.2,0.3-0.4,0.4-0.6c0.1-0.2,0-0.3,0-0.5c0-0.5-0.1-0.9,0-1.4
				c0-0.5,0.1-1.1,0.3-1.6c0.4-1.6,1.2-2.9,2.4-4c0.4-0.3,0.8-0.6,1.2-0.9c0.3-0.2,0.6-0.3,0.9-0.5c0.1-0.1,0.2-0.1,0.2-0.3
				c0.5-1.1,1.2-2.1,2.1-2.9c0.1,0,0.1-0.1,0.1-0.1c0.1,0.1,0.1,0.1,0,0.2c-0.1,0.1,0,0.3,0,0.4c0,0.1,0.1,0,0.2,0.1
				c0.1,0,0,0,0.1,0.1c0,0-0.1,0-0.1,0.1c-0.2-0.1-0.3-0.1-0.3,0.1c0,0.1,0,0.1-0.1,0.2c-0.1,0.1-0.1,0.2-0.1,0.3
				c-0.2,0.3-0.4,0.6-0.6,0.9c-0.4,0.6-0.7,1.3-0.9,2c-0.2,0.7-0.3,1.3-0.4,2c-0.1,0.5,0,1.1,0,1.6c0,0.1,0,0.2,0.2,0.2
				c0.1,0,0.2-0.1,0.3-0.1c0.1,0,0.3,0,0.4-0.1c0.1-0.1,0-0.3,0-0.4c0-0.8,0-1.5,0.3-2.3c0.2-0.8,0.6-1.6,1.1-2.3
				c0.1,0.1,0.2,0.3,0.3,0.4c0-0.1,0-0.2,0-0.3c0-0.3,0-0.3-0.3-0.3c0,0,0.1-0.1,0.1-0.1c0.1,0,0.1,0,0.2,0c0,0,0-0.1-0.1-0.1
				c0.2-0.3,0.4-0.5,0.6-0.7c0.1-0.1,0.4-0.1,0.5,0c0.2,0.2,0.4,0.4,0.6,0.7c0,0.2-0.1,0.3,0.1,0.5c0.1,0.1,0.1,0.2-0.1,0.3
				c-0.1,0-0.1,0-0.1,0.1c-0.4,0-0.7,0-1.1,0c-0.1,0-0.2,0-0.3,0.2c-0.1,0.2-0.3,0.5-0.4,0.7c0,0,0,0.1,0,0.1c0,0,0.1,0,0.1,0
				c0.5-0.1,1.1-0.1,1.6,0c0,0.3,0,0.5,0,0.8c-0.2,0-0.3,0-0.5,0c-0.5,0-1,0.1-1.5,0.2c-0.1,0-0.1,0-0.2,0.1
				c-0.2,0.8-0.4,1.6-0.3,2.4c0,0.1,0,0.1,0.1,0.1c0.3-0.1,0.5-0.1,0.8-0.1c0.3,0,0.6-0.1,0.9-0.1c0.5,0,1,0,1.4,0.2
				c0.1,0,0.1,0,0.1-0.1c0-0.5,0.1-0.9,0-1.3c-0.1-0.3-0.1-0.7-0.2-1c0.2,0,0.4,0,0.5,0c0.1,0,0.1,0,0.1-0.1
				c-0.1-0.2-0.2-0.5-0.3-0.8c0.4,0.1,0.7,0.2,1.1,0.4c0.9,0.4,1.8,1,2.4,1.9c0.7,0.9,1.2,1.9,1.4,3.1c0,0.2,0.1,0.4,0.3,0.6
				c0.2,0.2,0.4,0.4,0.6,0.7c0,0,0,0.1,0.1,0.1c0.1,0,0-0.1,0-0.2c0-0.5,0-1-0.1-1.4c-0.2-1.3-0.8-2.4-1.6-3.4
				c-0.4-0.4-0.8-0.8-1.2-1.2c-0.7-0.6-1.6-1-2.5-1.3c-0.3-0.1-0.6-0.2-0.9-0.2c0-0.2,0-0.3,0-0.4c0-0.1-0.1-0.2-0.2-0.2
				c-0.1,0-0.2,0-0.1-0.2c0.4,0,0.8,0.1,1.2,0.2c0.1,0,0.1,0,0.1,0c0,0,0-0.1,0-0.1c-0.3-0.5-0.7-1.1-1.1-1.5
				c-0.3-0.3-0.6-0.6-0.9-0.9c-0.2-0.2-0.2-0.2-0.4,0c-0.2,0.2-0.3,0.3-0.5,0.5c-0.1-0.1-0.1-0.2-0.1-0.3c0-0.2,0-0.5,0-0.7
				c0.2-0.2,0.4-0.3,0.6-0.5c0.2-0.1,0.3-0.1,0.5,0c0.8,0.6,1.6,1.4,2.1,2.2c0.1,0.1,0.2,0.3,0.3,0.4c0,0.1,0,0.3-0.1,0.3
				c0.1,0,0.2,0,0.2,0.1c0,0.2,0.2,0.1,0.3,0.1c0,0.1,0.1,0.2,0.1,0.2C14.1,31.6,14.1,31.6,14.2,31.6z M12.1,44.7
				c-0.4-0.2-0.7-0.4-1-0.7c-0.1-0.1-0.1-0.1-0.2,0c-0.3,0.2-0.6,0.5-1,0.7c0,0,0,0-0.1,0c-0.4-0.1-0.9,0.2-1.3,0.1c0,0-0.1,0-0.1,0
				c-0.1,0.1-0.4,0-0.5,0c0.8-0.3,1.6-0.7,2.3-1.2c0.1-0.1,0.1-0.1,0-0.2c-0.2-0.1-0.4-0.3-0.5-0.5c-0.1-0.1-0.1-0.1-0.2,0
				c-0.7,0.4-1.4,0.7-2.2,1c-0.1-0.2,0-0.3-0.1-0.5c-0.1,0.2-0.2,0.4-0.3,0.6c-0.2,0.1-0.4,0.1-0.6,0.2c-0.9,0.2-1.9,0.3-2.9,0.3
				c-0.3,0-0.5-0.3-0.4-0.6c0.1-0.2,0.2-0.3,0.2-0.5c0-0.1,0.1-0.1,0-0.2c-0.1-0.3-0.2-0.5-0.3-0.8c0,0,0-0.1-0.1-0.1
				s-0.1,0-0.1,0.1c-0.4,0.7-0.8,1.5-1,2.3c-0.1,0.3-0.1,0.3,0.2,0.4c0.7,0.2,1.5,0.2,2.2,0.2c0.7,0,1.3,0,2,0c0,0.1,0,0.2-0.1,0.2
				c0,0-0.2,0.5-0.1,0.5c0,0,0.1,0,0.1,0c0.1,0,0.3,0.1,0.4,0c0.1,0,0.1,0,0.2,0c-0.2,0.1,0,0.1,0,0.2c0.9,0.7,2,1,3.1,1.2
				c0.8,0.1,1.5,0.1,2.3,0c0.7-0.1,1.4-0.3,2-0.6c0.6-0.3,1.2-0.6,1.7-1c0.8-0.6,1.4-1.4,1.9-2.3c0-0.1,0-0.2,0-0.2
				c-0.1-0.2-0.3-0.4-0.4-0.6c-0.1-0.1-0.1-0.1-0.2,0c-0.7,1.5-1.8,2.6-3.3,3.3c-1,0.5-2.1,0.7-3.2,0.6C9.7,46.3,9,46,8.2,45.7
				c0,0,0.1,0,0.1,0c0.2-0.1,0.4,0,0.7,0c0.4,0,0.8,0,1.2,0c0.3,0,0.5,0,0.8,0c0.2,0,0.5,0,0.7,0c0.5,0,0.9,0,1.4,0
				c0.1,0,0.2,0,0.1-0.1c-0.1-0.3-0.2-0.5-0.3-0.8c0,0,0-0.1-0.1-0.1C12.6,44.6,12.4,44.6,12.1,44.7z M4.7,43.4c0.2,0,0.4,0,0.6-0.1
				c0.1,0,0.1-0.1,0.1-0.2C5.2,43,5.1,42.7,5,42.4c-0.4-1-0.7-2.1-0.6-3.3c0.1-0.7,0.2-1.3,0.5-1.9c0.4-1.1,1.1-2,2-2.7
				C7,34.4,7,34.3,7,34.2c0-0.3,0.1-0.5,0.2-0.8c0-0.1,0.1-0.1,0-0.2c-0.1,0-0.1,0-0.2,0.1c0,0-0.1,0-0.1,0c-0.8,0.5-1.5,1.1-2,1.9
				c-0.7,0.9-1.1,1.9-1.3,3c-0.1,0.7-0.2,1.3-0.1,2c0,0.8,0.2,1.5,0.5,2.2c0.1,0.3,0.2,0.5,0.3,0.8C4.4,43.4,4.5,43.5,4.7,43.4z
				 M18.4,44.3c-0.1,0-0.2,0-0.3,0c-0.1,0-0.1,0-0.2,0.1c-0.1,0.2-0.3,0.4-0.5,0.6c0,0-0.1,0.1,0,0.1c0,0,0.1,0,0.1,0
				c0.3,0,0.6,0,1-0.1c0.5,0,1.1-0.1,1.6-0.2c0.1,0,0.1,0,0.1-0.2c-0.2-0.6-0.4-1.3-0.7-1.8C19,42,18.5,41.3,18,40.5
				c-0.8-1-1.7-1.8-2.9-2.4c-0.1,0-0.1,0-0.1,0.1c0,0.2-0.1,0.5-0.2,0.7c0,0.1,0,0.2,0.1,0.2c0.1,0.1,0.3,0.2,0.4,0.2
				c0.6,0.4,1.2,0.9,1.7,1.4c0.8,0.9,1.5,1.8,2,2.9c0.1,0.2,0,0.4-0.1,0.5C18.6,44.3,18.5,44.2,18.4,44.3z M14,44.7
				c0.1,0,0.1,0,0.1,0c0.3-0.2,0.6-0.4,0.8-0.6c0,0,0.1,0,0.1-0.1S15,43.8,15,43.8c-0.4-0.1-0.9-0.3-1.3-0.4
				c-0.5-0.2-1.1-0.5-1.6-0.8c-0.8-0.5-1.3-1.2-1.8-1.8c-0.4-0.5-0.7-1-1-1.5c-0.1-0.1-0.1-0.1-0.2-0.1c-0.3,0.1-0.5,0.2-0.8,0.3
				c-0.1,0-0.1,0.1-0.1,0.1C8.5,40,8.7,40.4,9,40.8c0.5,0.7,1.1,1.3,1.7,1.9c0.8,0.7,1.6,1.3,2.6,1.7C13.5,44.5,13.8,44.6,14,44.7z
				 M11,37.2c-0.3,0-0.7,0-1,0.1c-0.8,0.1-1.6,0.3-2.4,0.7c-0.8,0.3-1.6,0.8-2.3,1.3c-0.1,0.1-0.1,0.2-0.1,0.3c0,0.3,0,0.6,0,0.9
				c0,0.1,0.1,0.1,0.1,0.2c0,0.1,0.1,0.1,0.1,0c0,0,0.1-0.1,0.1-0.1c0.4-0.5,0.9-0.9,1.5-1.2c0.7-0.4,1.4-0.8,2.2-1
				c0.5-0.1,1.1-0.3,1.6-0.3c0.4,0,0.9,0,1.4,0.1c0.1,0,0.2,0,0.2-0.1c0.1-0.2,0.1-0.4,0.2-0.6c0-0.1,0-0.1-0.1-0.1
				C11.9,37.2,11.5,37.2,11,37.2z M14.4,36c0-0.3-0.1-0.7-0.1-1c0-0.1-0.1-0.2-0.2-0.3c-0.2-0.1-0.5-0.3-0.7-0.4c0,0-0.1-0.1-0.1,0
				c-0.1,0,0,0.1,0,0.1c0.1,0.3,0.1,0.7,0.2,1c0.1,0.9-0.1,1.9-0.4,2.8c-0.4,1-0.9,1.9-1.5,2.7c-0.1,0.1-0.1,0.1,0,0.2
				c0.2,0.2,0.4,0.4,0.6,0.5c0.1,0.1,0.2,0.1,0.3,0c0.5-0.6,0.9-1.2,1.2-1.8c0.3-0.7,0.5-1.5,0.7-2.3C14.4,37,14.4,36.5,14.4,36z
				 M15.6,43.2c0.1,0,0.1-0.1,0.2-0.1c0.3-0.4,0.5-0.9,0.7-1.4c0-0.1,0-0.2,0-0.2c-0.2-0.2-0.4-0.4-0.6-0.6
				c-0.4-0.3-0.7-0.6-1.1-0.9c-0.3-0.2-0.3-0.2-0.5,0.2c-0.2,0.4-0.4,0.8-0.7,1.2c-0.2,0.3-0.3,0.5-0.6,0.7c-0.1,0.1-0.1,0.1,0,0.2
				c0.1,0,0.1,0.1,0.1,0.1c0.4,0.2,0.9,0.4,1.4,0.6C14.9,43,15.3,43.1,15.6,43.2z M6.4,43.2c0.1,0,0.1,0,0.2,0C6.8,43.1,7,43,7.3,43
				c0.6-0.2,1.1-0.4,1.6-0.7C9,42.2,9,42.2,8.9,42c-0.5-0.6-0.9-1.3-1.2-2c-0.1-0.2-0.1-0.3-0.3-0.1c-0.7,0.4-1.2,0.9-1.8,1.5
				c-0.1,0.1-0.1,0.2-0.1,0.3c0.2,0.5,0.4,0.9,0.7,1.3C6.3,43.2,6.3,43.2,6.4,43.2z M15.1,37.2C15.1,37.3,15.1,37.3,15.1,37.2
				c0.5,0.3,1,0.5,1.4,0.8c0,0,0.1,0.1,0.1,0c0,0,0-0.1,0-0.1c-0.1-0.4-0.3-0.7-0.5-1.1c-0.2-0.5-0.5-0.8-0.9-1.2
				c0,0-0.1-0.1-0.1-0.1c-0.1,0,0,0.1,0,0.1C15.2,36.2,15.2,36.7,15.1,37.2z M5.4,38.1C5.4,38.1,5.4,38.1,5.4,38.1
				c0.5-0.3,1-0.6,1.5-0.8c0.1,0,0.1-0.1,0.1-0.1c0-0.5-0.1-1-0.1-1.4c0,0,0-0.1,0-0.1c-0.1,0-0.1,0-0.1,0.1
				c-0.6,0.7-1.1,1.4-1.3,2.3C5.4,38,5.4,38.1,5.4,38.1z M11,38.8c-0.3,0-0.5,0-0.7,0c-0.2,0-0.2,0.1-0.1,0.2
				c0.2,0.4,0.5,0.8,0.7,1.1c0.1,0.1,0.1,0.1,0.2,0c0.3-0.4,0.5-0.8,0.8-1.2c0.1-0.1,0.1-0.1-0.1-0.2C11.5,38.9,11.3,38.8,11,38.8z
				 M11.9,31.9L11.9,31.9L11.9,31.9C11.9,31.9,11.9,31.9,11.9,31.9C11.9,31.9,11.9,31.9,11.9,31.9z"/>
			<path class="st1" d="M10.2,29.6C10.2,29.6,10.2,29.5,10.2,29.6c-0.1-0.1-0.2,0-0.3-0.1c0-0.1-0.1-0.3,0-0.4c0.1-0.1,0-0.2,0-0.2
				c0.1-0.1,0.2-0.2,0.3-0.2c0,0.2,0,0.5,0,0.7C10.2,29.4,10.2,29.5,10.2,29.6C10.3,29.6,10.3,29.6,10.2,29.6z"/>
			<path class="st1" d="M1.1,44.5c0,0.1,0.1,0.2,0.1,0.3c0,0.3,0.1,0.5,0.1,0.7C1,45.5,1,45.3,1,45.2C1,44.9,1,44.7,1.1,44.5z"/>
			<path class="st1" d="M14,31.3c-0.1,0-0.2,0-0.3-0.1c0-0.1-0.1,0-0.2-0.1c0.2,0,0.1-0.2,0.1-0.3C13.8,30.9,13.9,31.1,14,31.3z"/>
			<path class="st1" d="M14.8,32.3c-0.1,0-0.3-0.1-0.4,0c0,0-0.1,0-0.1,0c0,0,0-0.1,0-0.1c0.1,0,0.1-0.1,0.1-0.1
				C14.5,32.1,14.7,32.1,14.8,32.3z"/>
			<path class="st1" d="M14.3,31.9c-0.1,0-0.1,0.1-0.3,0c-0.1-0.1,0-0.1,0-0.1c0-0.1,0.1-0.1,0.1,0C14.1,31.8,14.2,31.8,14.3,31.9
				C14.3,31.8,14.3,31.8,14.3,31.9z"/>
			<path class="st1" d="M14.2,31.6c-0.1,0-0.1-0.1-0.1-0.1C14.2,31.5,14.2,31.6,14.2,31.6z"/>
			<path class="st1" d="M15,32.4c0,0-0.1,0-0.1,0C15,32.3,15,32.4,15,32.4z"/>
			<path class="st1" d="M14.9,32.3c-0.1,0-0.1,0-0.1-0.1C14.9,32.3,14.9,32.3,14.9,32.3z"/>
			<path class="st2" d="M8.2,45.8c0.7,0.3,1.5,0.5,2.3,0.6c1.1,0.1,2.2-0.1,3.2-0.6c1.5-0.7,2.6-1.8,3.3-3.3c0.1-0.2,0.1-0.2,0.2,0
				c0.1,0.2,0.3,0.4,0.4,0.6c0,0.1,0,0.2,0,0.2c-0.5,0.9-1.1,1.7-1.9,2.3c-0.5,0.4-1.1,0.8-1.7,1c-0.6,0.3-1.3,0.5-2,0.6
				c-0.8,0.1-1.5,0.1-2.3,0c-1.1-0.2-2.2-0.6-3.1-1.2c-0.1,0-0.2-0.1,0-0.2c0.3,0,0.5-0.1,0.8-0.1C7.8,45.6,7.9,45.6,8.2,45.8
				C8.1,45.7,8.2,45.7,8.2,45.8z"/>
			<path class="st2" d="M10.2,29.6C10.3,29.6,10.3,29.6,10.2,29.6c0.3-0.3,0.4-0.4,0.6-0.6c0.2-0.2,0.2-0.2,0.4,0
				c0.3,0.3,0.6,0.6,0.9,0.9c0.4,0.5,0.8,1,1.1,1.5c0,0,0.1,0.1,0,0.1c0,0-0.1,0-0.1,0c-0.4-0.1-0.8-0.2-1.2-0.2
				c0,0-0.1-0.1-0.1-0.1c-0.2-0.3-0.3-0.5-0.6-0.7c-0.1-0.1-0.4-0.1-0.5,0c-0.2,0.2-0.4,0.5-0.6,0.7c-0.1,0-0.1,0.1-0.1,0.1
				c0,0-0.1,0.1-0.1,0.1c-0.1,0-0.1,0.1-0.1,0.1C9.4,32.4,9,33.2,8.8,34c-0.2,0.8-0.3,1.5-0.3,2.3c0,0.1,0.1,0.3,0,0.4
				c-0.1,0.1-0.2,0.1-0.3,0.1c-0.1,0-0.2,0.1-0.3,0.1c-0.2,0.1-0.2,0-0.2-0.2c0-0.5-0.1-1.1,0-1.6c0.1-0.7,0.2-1.3,0.4-2
				c0.2-0.7,0.6-1.4,0.9-2c0.2-0.3,0.4-0.6,0.6-0.9C9.8,30.1,10,29.9,10.2,29.6C10.1,29.6,10.2,29.6,10.2,29.6z"/>
			<path class="st2" d="M12.3,32.2c0.3,0.1,0.6,0.2,0.9,0.2c0.9,0.3,1.7,0.7,2.5,1.3c0.4,0.3,0.8,0.7,1.2,1.2c0.8,1,1.4,2.2,1.6,3.4
				c0.1,0.5,0.1,0.9,0.1,1.4c0,0.1,0,0.1,0,0.2c-0.1,0-0.1-0.1-0.1-0.1c-0.2-0.2-0.4-0.5-0.6-0.7c-0.2-0.2-0.2-0.4-0.3-0.6
				c-0.2-1.2-0.6-2.2-1.4-3.1c-0.6-0.8-1.5-1.4-2.4-1.9c-0.3-0.2-0.7-0.3-1.1-0.4c0,0-0.1,0-0.1,0c-0.1,0-0.1,0-0.2,0
				c-0.2-0.1-0.4-0.1-0.7-0.1c-0.5-0.1-1.1,0-1.6,0c0,0-0.1,0-0.1,0c0,0,0-0.1,0-0.1c0.1-0.2,0.3-0.5,0.4-0.7
				c0.1-0.1,0.1-0.2,0.3-0.2c0.4,0,0.7,0,1.1,0C11.9,32.2,12.1,32.2,12.3,32.2z"/>
			<path class="st2" d="M4.7,43.4c-0.2,0.1-0.3,0-0.4-0.2C4.2,43,4.1,42.7,4,42.4c-0.3-0.7-0.5-1.5-0.5-2.2c0-0.7,0-1.3,0.1-2
				c0.2-1.1,0.7-2.1,1.3-3c0.6-0.8,1.2-1.4,2-1.9c0,0,0,0,0.1,0c0.1,0,0.1-0.1,0.2-0.1c0.1,0,0,0.1,0,0.2c-0.1,0.3-0.1,0.5-0.2,0.8
				c0,0.1-0.1,0.2-0.2,0.3c-0.9,0.7-1.6,1.6-2,2.7c-0.3,0.6-0.4,1.3-0.5,1.9c-0.1,1.1,0.1,2.2,0.6,3.3c0.1,0.3,0.3,0.5,0.4,0.8
				c0.1,0.1,0.1,0.1-0.1,0.2C5.1,43.4,4.9,43.4,4.7,43.4z"/>
			<path class="st2" d="M7.3,43.8c0.8-0.2,1.5-0.5,2.2-1c0.1,0,0.1,0,0.2,0c0.2,0.2,0.3,0.3,0.5,0.5c0.1,0.1,0.1,0.1,0,0.2
				c-0.7,0.5-1.4,1-2.3,1.2c0,0-0.1,0-0.1,0c-0.5,0.2-1,0.2-1.6,0.3c-0.6,0.1-1.3,0.1-1.9,0.1c-0.7,0-1.5-0.1-2.2-0.2
				c-0.3-0.1-0.3-0.1-0.2-0.4c0.2-0.8,0.6-1.5,1-2.3c0,0,0-0.1,0.1-0.1c0,0,0.1,0.1,0.1,0.1c0.1,0.3,0.2,0.5,0.3,0.8
				c0,0.1,0,0.1,0,0.2c-0.1,0.2-0.2,0.3-0.2,0.5C3,44,3.3,44.3,3.5,44.3c1,0,1.9-0.1,2.9-0.3c0.2,0,0.4-0.1,0.6-0.2
				C7.1,43.8,7.2,43.8,7.3,43.8z"/>
			<path class="st2" d="M18.4,44.3c0.1,0,0.3,0,0.4-0.1c0.2-0.1,0.2-0.3,0.1-0.5c-0.5-1.1-1.1-2-2-2.9c-0.5-0.5-1.1-1-1.7-1.4
				c-0.1-0.1-0.3-0.2-0.4-0.2c-0.1,0-0.1-0.1-0.1-0.2c0.1-0.2,0.1-0.5,0.2-0.7c0-0.1,0.1-0.1,0.1-0.1c1.2,0.6,2.1,1.3,2.9,2.4
				c0.5,0.7,1,1.5,1.5,2.3c0.3,0.6,0.6,1.2,0.7,1.8c0,0.1,0,0.1-0.1,0.2C19.5,44.9,19,45,18.5,45c-0.3,0-0.6,0-1,0.1
				c0,0-0.1,0-0.1,0c0,0,0-0.1,0-0.1c0.2-0.2,0.3-0.4,0.5-0.6c0-0.1,0.1-0.1,0.2-0.1C18.2,44.3,18.3,44.3,18.4,44.3z"/>
			<path class="st2" d="M14,44.7c-0.3-0.1-0.6-0.2-0.8-0.3c-0.9-0.5-1.8-1.1-2.6-1.7c-0.7-0.5-1.2-1.2-1.7-1.9
				c-0.3-0.4-0.4-0.8-0.6-1.2c0-0.1,0-0.1,0.1-0.1c0.3-0.1,0.5-0.2,0.8-0.3c0.1,0,0.1,0,0.2,0.1c0.3,0.5,0.6,1,1,1.5
				c0.5,0.7,1.1,1.4,1.8,1.8c0.5,0.3,1,0.6,1.6,0.8c0.4,0.2,0.8,0.3,1.3,0.4c0.1,0,0.1,0,0.1,0.1S15,44,15,44
				c-0.3,0.2-0.5,0.5-0.8,0.6C14.1,44.7,14.1,44.7,14,44.7z"/>
			<path class="st2" d="M12.4,34.1c0.1,0.3,0.2,0.7,0.2,1c0.1,0.5,0.1,0.9,0,1.3c0,0.1-0.1,0.1-0.1,0.1c-0.5-0.1-1-0.1-1.4-0.2
				c-0.3,0-0.6,0-0.9,0.1c-0.3,0-0.5,0-0.8,0.1c-0.1,0-0.1,0-0.1-0.1c-0.1-0.8,0-1.6,0.3-2.4c0-0.1,0.1-0.1,0.1-0.1
				c0.5-0.1,1-0.2,1.5-0.2c0.2,0,0.3,0,0.5,0c0,0,0.1,0,0.1,0C12.1,33.9,12.3,33.9,12.4,34.1z"/>
			<path class="st2" d="M11,37.2c0.5,0,1,0.1,1.4,0.1c0.1,0,0.1,0,0.1,0.1c-0.1,0.2-0.1,0.4-0.2,0.6c0,0.1-0.1,0.2-0.2,0.1
				c-0.4-0.1-0.9-0.1-1.4-0.1c-0.6,0-1.1,0.1-1.6,0.3c-0.8,0.2-1.5,0.5-2.2,1c-0.5,0.3-1,0.7-1.5,1.2c0,0-0.1,0.1-0.1,0.1
				c0,0-0.1,0-0.1,0c0-0.1-0.1-0.1-0.1-0.2c0-0.3,0-0.6,0-0.9c0-0.1,0.1-0.2,0.1-0.3c0.7-0.6,1.5-1,2.3-1.3c0.8-0.3,1.6-0.5,2.4-0.7
				C10.3,37.2,10.7,37.1,11,37.2z"/>
			<path class="st2" d="M14.4,36c0,0.5,0,1-0.1,1.5c-0.1,0.8-0.3,1.5-0.7,2.3c-0.3,0.7-0.7,1.3-1.2,1.8c-0.1,0.1-0.2,0.1-0.3,0
				c-0.2-0.2-0.4-0.4-0.6-0.5c-0.1-0.1-0.1-0.1,0-0.2c0.7-0.8,1.2-1.7,1.5-2.7c0.3-0.9,0.4-1.8,0.4-2.8c0-0.3-0.1-0.7-0.2-1
				c0,0,0-0.1,0-0.1c0,0,0.1,0,0.1,0c0.3,0.1,0.5,0.3,0.7,0.4c0.1,0.1,0.2,0.1,0.2,0.3C14.3,35.3,14.4,35.7,14.4,36z"/>
			<path class="st2" d="M15.6,43.2c-0.4-0.1-0.7-0.2-1.1-0.3c-0.5-0.2-0.9-0.3-1.4-0.6c-0.1,0-0.1-0.1-0.1-0.1c-0.1,0-0.1-0.1,0-0.2
				c0.2-0.2,0.4-0.5,0.6-0.7c0.3-0.4,0.5-0.8,0.7-1.2c0.1-0.3,0.1-0.3,0.5-0.2c0.4,0.3,0.8,0.6,1.1,0.9c0.2,0.2,0.4,0.4,0.6,0.6
				c0.1,0.1,0.1,0.1,0,0.2c-0.2,0.5-0.4,0.9-0.7,1.4C15.8,43.1,15.8,43.2,15.6,43.2z"/>
			<path class="st2" d="M6.4,43.2c-0.1,0-0.1,0-0.1-0.1c-0.3-0.4-0.6-0.9-0.7-1.3c-0.1-0.1,0-0.2,0.1-0.3c0.5-0.6,1.1-1.1,1.8-1.5
				c0.2-0.1,0.3-0.1,0.3,0.1c0.3,0.7,0.7,1.4,1.2,2c0.1,0.1,0.1,0.2,0,0.3c-0.5,0.3-1.1,0.5-1.6,0.7C7,43,6.8,43.1,6.6,43.1
				C6.5,43.2,6.4,43.2,6.4,43.2z"/>
			<path class="st1" d="M6.3,45.1c0.5-0.1,1.1-0.2,1.6-0.3c0,0,0.1,0,0.1,0c0.1,0.1,0.4,0.1,0.5,0c0,0,0.1,0,0.1,0
				c0.4,0,0.9-0.2,1.3-0.1c0,0,0,0,0.1,0C9.7,44.9,9.3,45,9,45.2c1.4,0.5,2.7,0.5,4.1,0c-0.3-0.2-0.6-0.3-0.9-0.5
				c0.2-0.1,0.5,0,0.7,0c0,0,0.1,0,0.1,0.1c0.1,0.3,0.2,0.5,0.3,0.8c0.1,0.1-0.1,0.1-0.1,0.1c-0.5,0-0.9,0-1.4,0c-0.2,0-0.5,0-0.7,0
				c-0.2,0-0.5,0-0.8,0c-0.4,0-0.8,0-1.2,0c-0.2,0-0.4-0.1-0.7,0c-0.1,0-0.1,0-0.1,0c0,0-0.1,0-0.1-0.1c-0.2-0.1-0.4-0.1-0.6-0.1
				c-0.3,0.1-0.5,0.1-0.8,0.1c0-0.1-0.1-0.1-0.2,0c-0.1,0.1-0.3,0-0.4,0c0,0-0.1,0-0.1,0c0,0,0.1-0.5,0.1-0.5
				C6.3,45.2,6.3,45.2,6.3,45.1z M6.8,45.6c0.1-0.1,0.2,0,0.4,0c0.1,0,0.1,0,0.1-0.1c0-0.1,0-0.2-0.1-0.3c-0.1,0-0.1,0-0.2,0
				c0,0.1-0.1,0.1-0.2,0.1c-0.1,0-0.1,0-0.2,0.1c0,0-0.1,0.1,0,0.1C6.7,45.6,6.7,45.6,6.8,45.6z"/>
			<path class="st2" d="M12.1,44.7c0.3,0.2,0.6,0.3,0.9,0.5c-1.4,0.5-2.7,0.5-4.1,0c0.3-0.2,0.7-0.3,0.9-0.5c0.4-0.2,0.7-0.4,1-0.7
				c0.1-0.1,0.1-0.1,0.2,0C11.4,44.2,11.8,44.5,12.1,44.7z"/>
			<path class="st2" d="M15.1,37.2c0.1-0.5,0.1-1,0.1-1.5c0,0,0-0.1,0-0.1c0.1,0,0.1,0,0.1,0.1c0.3,0.4,0.6,0.8,0.9,1.2
				c0.2,0.3,0.3,0.7,0.5,1.1c0,0,0.1,0.1,0,0.1c-0.1,0-0.1,0-0.1,0C16.1,37.8,15.6,37.5,15.1,37.2C15.1,37.3,15.1,37.3,15.1,37.2z"
				/>
			<path class="st2" d="M5.4,38.1c0,0,0-0.1,0-0.1c0.3-0.9,0.7-1.7,1.3-2.3c0,0,0.1-0.1,0.1-0.1c0.1,0,0,0.1,0,0.1
				c0,0.5,0,1,0.1,1.4c0,0.1,0,0.1-0.1,0.1C6.4,37.5,5.9,37.8,5.4,38.1C5.4,38.1,5.4,38.1,5.4,38.1z"/>
			<path class="st2" d="M11,38.8c0.3,0,0.5,0,0.8,0.1c0.1,0,0.1,0.1,0.1,0.2c-0.2,0.4-0.5,0.8-0.8,1.2c-0.1,0.1-0.1,0.1-0.2,0
				c-0.3-0.4-0.5-0.7-0.7-1.1c-0.1-0.1-0.1-0.2,0.1-0.2C10.5,38.9,10.8,38.8,11,38.8z"/>
			<path class="st1" d="M12.4,34.1c-0.1-0.2-0.4-0.2-0.5-0.2c-0.1,0-0.1,0-0.1,0c0-0.3,0-0.5,0-0.8c0.2,0,0.5,0.1,0.7,0.1
				c0,0,0,0.1,0.1,0.1c0.1,0,0.1,0,0.1-0.1c0,0,0.1,0,0.1,0c0.1,0.3,0.2,0.5,0.3,0.8c0,0.1,0,0.1-0.1,0.1
				C12.8,34.1,12.6,34.1,12.4,34.1z M11.8,33.4c0,0.3,0,0.3,0.3,0.3c0,0,0.1,0,0.1,0c0,0,0-0.1-0.1-0.1c-0.1,0-0.1,0-0.1-0.2
				c0-0.1,0.1-0.2-0.1-0.2C11.8,33.2,11.9,33.4,11.8,33.4z M12.4,33.5C12.4,33.5,12.4,33.5,12.4,33.5c-0.1,0-0.2,0-0.2,0
				C12.3,33.6,12.3,33.6,12.4,33.5C12.4,33.6,12.4,33.6,12.4,33.5z"/>
			<path class="st1" d="M12.3,32.2c-0.2,0-0.4,0-0.6-0.1c0-0.1,0-0.1,0.1-0.1c0.1,0,0.2-0.2,0.1-0.3c-0.1-0.1-0.1-0.3-0.1-0.5
				c0.1,0,0.1,0.1,0.1,0.1c-0.1,0.1,0,0.2,0.1,0.2c0.2,0,0.2,0.1,0.2,0.2C12.3,31.9,12.4,32.1,12.3,32.2z"/>
			<path class="st1" d="M10.1,29.6c-0.1,0.2-0.3,0.5-0.5,0.6c0-0.1,0.1-0.2,0.1-0.3c0.1,0,0.1-0.1,0.1-0.2
				C9.9,29.6,9.9,29.6,10.1,29.6z"/>
			<path class="st1" d="M9.9,31.7c0-0.1,0.1-0.1,0.1-0.1c0.3,0,0.3,0,0.3,0.3c0,0.1,0,0.2,0,0.3C10.1,32,10,31.8,9.9,31.7z"/>
			<path class="st1" d="M7.3,43.8c-0.1,0-0.2,0.1-0.3,0.1c0.1-0.2,0.2-0.4,0.3-0.6C7.3,43.4,7.3,43.6,7.3,43.8z"/>
			<path class="st1" d="M10.1,31.5c0-0.1,0.1-0.1,0.1-0.1c0.1,0,0.1,0,0.1,0.1C10.2,31.5,10.1,31.5,10.1,31.5z"/>
			<path class="st1" d="M11.9,31.9C11.9,31.9,11.9,31.9,11.9,31.9C11.9,31.9,11.9,31.9,11.9,31.9L11.9,31.9
				C11.8,31.9,11.8,31.9,11.9,31.9z"/>
			<path class="st3" d="M12.6,33.2c0,0.1,0,0.1-0.1,0.1c-0.1,0-0.1-0.1-0.1-0.1C12.5,33.2,12.6,33.2,12.6,33.2z"/>
			<path class="st3" d="M11.8,33.4c0-0.1-0.1-0.2,0.1-0.2c0.1,0,0.1,0.2,0.1,0.2c0,0.1,0,0.2,0.1,0.2c0,0,0.1,0,0.1,0.1
				c0,0,0,0-0.1,0C11.9,33.8,11.8,33.7,11.8,33.4z"/>
			<path class="st3" d="M12.4,33.5C12.4,33.6,12.4,33.6,12.4,33.5c-0.1,0.1-0.2,0.1-0.2,0C12.3,33.5,12.3,33.5,12.4,33.5
				C12.4,33.5,12.4,33.5,12.4,33.5z"/>
		</g>
		<polygon class="st1" points="6.4,45.2 7.7,45 7.5,45.5 7.2,45.6 6.4,45.8 		"/>
		<polygon class="st1" points="11.5,33.1 12.3,33.2 12.6,33.2 12.8,33.5 12.6,33.7 12,33.8 11.5,33.7 		"/>
		<path class="st1" d="M10.7,30.7c0,0-1.2,1.2-1.7,2.7c-0.5,1.6,0.6-0.2,0.6-0.2s1.1-2.1,1.1-2.1C10.8,31,10.7,30.7,10.7,30.7z"/>
		<path class="st1" d="M10.9,29c0,0-2.2,2.4-2.6,3.5c-0.4,1.2,0.2-1.3,0.2-1.4s0.6-1.5,0.6-1.5s1.1-1.3,1.6-1.6s0.3,0.1,0.3,0.1
			L10.9,29z"/>
		<path class="st1" d="M10.4,32.4c0,0,0-0.5,2.6,0s-0.3-0.3-0.3-0.3l-1.9-0.3L10.2,32L10.4,32.4z"/>
		<path class="st1" d="M11.3,28.1c0,0,2.2,1.5,3.1,3.9c0,0,0.3,0.1,1.1,0.6c0.8,0.5-1.1,0-1.1,0l-0.8-1.1L12,29.1L11.3,28.1z"/>
		<path class="st1" d="M9.6,34c0,0,2.7-0.2,3.1,0.2c0.5,0.4-0.1-0.4-0.1-0.4S10.1,33.5,9.6,34z"/>
		<path class="st1" d="M9.8,33.3c0,0,2.9-1.3,5.9,1.9L13,33.8L9.8,33.3z"/>
		<path class="st1" d="M11.1,30.6c0,0,1,0.9,1.1,1c0.1,0.2-1-0.1-1-0.1L11.1,30.6z"/>
	</g>
</g>
</svg>
