<?xml version="1.0" encoding="utf-8"?>
<!-- Generator: Adobe Illustrator 24.1.2, SVG Export Plug-In . SVG Version: 6.00 Build 0)  -->
<svg version="1.1" id="Слой_2" xmlns="http://www.w3.org/2000/svg" xmlns:xlink="http://www.w3.org/1999/xlink" x="0px" y="0px"
	 viewBox="0 0 100 70" style="enable-background:new 0 0 100 70;" xml:space="preserve">
<style type="text/css">
	.st0{fill:#010101;}
	.st1{fill:#E4E7EB;}
	.st2{fill:#4A88DB;}
	.st3{fill:#EB5564;}
	.st4{fill:#9DD26A;}
	.st5{fill:#FDCC57;}
	.st6{fill:#434A54;}
	.st7{fill:#030202;}
	.st8{fill:#F9FAFD;}
	.st9{fill:#EBF1FA;}
	.st10{fill:#E3ECF8;}
	.st11{fill:#FEFBFC;}
	.st12{fill:#FDFDFE;}
	.st13{fill:#FEFEFE;}
</style>
<g>
	<g>
		<path class="st0" d="M11,32c0-0.3,0-0.6,0-0.8c0-0.2,0-0.3-0.2-0.3c-0.9-0.3-1.5-1.1-1.4-2.1c0-0.9,0.6-1.8,1.5-2
			c1.1-0.4,2.4,0.3,2.7,1.4c0.4,1.1-0.2,2.4-1.3,2.8C12,30.9,12,30.9,12,31.1c0,0.6,0,1.2,0,1.8c0,0.2,0,0.2,0.2,0.2
			c0.8,0.1,1.5,0.4,2.2,0.8c0.1,0.1,0.2,0.1,0.3,0c0.4-0.4,0.8-0.8,1.2-1.2c0.1-0.1,0.1-0.2,0.1-0.3c-0.4-0.8-0.3-1.6,0.2-2.3
			c0.5-0.7,1.3-1,2.2-0.8c0.8,0.2,1.4,0.7,1.6,1.6c0.2,0.9,0,1.7-0.7,2.2c-0.7,0.6-1.5,0.6-2.3,0.3c-0.2-0.1-0.2-0.1-0.3,0.1
			c-0.4,0.4-0.8,0.8-1.2,1.2c-0.1,0.1-0.1,0.1,0,0.3c0.6,0.7,1,1.4,1.1,2.3c0,0.1,0.1,0.2,0.2,0.2c0.5,0,1,0,1.4,0
			c0.2,0,0.3,0,0.3-0.2c0.3-0.9,1.2-1.5,2.2-1.4c0.9,0,1.7,0.7,1.9,1.6c0.3,1.1-0.4,2.2-1.4,2.6c-1.1,0.3-2.3-0.2-2.7-1.3
			c-0.1-0.2-0.2-0.3-0.4-0.3c-0.4,0-0.9,0-1.3,0c-0.1,0-0.2,0-0.2,0.2c0,0.9-0.4,1.8-0.9,2.6c-0.1,0.1-0.1,0.2,0,0.3
			c0.3,0.3,0.6,0.6,0.9,0.9c0.1,0.1,0.2,0.1,0.3,0c0.8-0.4,1.6-0.3,2.3,0.2c0.7,0.5,1,1.3,0.8,2.2c-0.2,0.9-0.7,1.4-1.6,1.7
			c-0.9,0.2-1.6,0-2.2-0.7c-0.6-0.7-0.7-1.5-0.3-2.3c0.1-0.2,0.1-0.4-0.1-0.5c-0.3-0.2-0.5-0.5-0.8-0.8C15,42,14.9,42,14.8,42
			c-0.8,0.7-1.6,1.1-2.7,1.2c-0.1,0-0.2,0.1-0.2,0.2c0,0.4,0,0.8,0,1.2c0,0.2,0.1,0.2,0.2,0.2c0.9,0.3,1.5,1.2,1.5,2.1
			c0,0.9-0.7,1.7-1.6,2c-1.1,0.3-2.3-0.3-2.6-1.4c-0.4-1.1,0.2-2.3,1.3-2.7c0.3-0.1,0.3-0.2,0.3-0.5c0-0.3,0-0.6,0-0.9
			c0-0.1,0-0.2-0.2-0.2c-1-0.1-1.9-0.5-2.7-1.2C8.1,42,8,42,7.9,42c-0.3,0.3-0.6,0.6-0.8,0.8C7,43,7,43.1,7.1,43.2
			c0.5,1.1,0.1,2.4-1,2.9c-1.1,0.5-2.4,0-2.9-1.1c-0.4-0.8-0.2-1.8,0.5-2.4s1.7-0.8,2.5-0.4c0.2,0.1,0.3,0,0.4-0.1
			c0.3-0.3,0.6-0.6,0.8-0.8c0.1-0.1,0.1-0.2,0-0.3c-0.5-0.8-0.8-1.6-0.9-2.6c0-0.1,0-0.2-0.2-0.2c-0.5,0-1,0-1.5,0
			c-0.2,0-0.2,0.1-0.2,0.2c-0.5,1.3-1.9,1.8-3.1,1.2c-0.8-0.5-1.3-1.4-1.1-2.4c0.2-0.9,1-1.6,1.9-1.7c1,0,1.9,0.5,2.2,1.5
			c0.1,0.2,0.1,0.2,0.3,0.2c0.5,0,1,0,1.4,0c0.1,0,0.2,0,0.2-0.2c0.2-0.8,0.5-1.6,1.1-2.3c0.1-0.1,0.1-0.2,0-0.3
			c-0.4-0.4-0.8-0.8-1.2-1.2c-0.1-0.1-0.2-0.1-0.3,0c-0.8,0.4-1.8,0.3-2.5-0.4c-0.6-0.6-0.8-1.6-0.5-2.4c0.4-0.8,1.2-1.3,2.1-1.3
			C6.8,29.4,7.7,31,7,32.3C7,32.5,7,32.6,7.1,32.7c0.4,0.4,0.8,0.8,1.2,1.2C8.4,34,8.5,34,8.6,34c0.7-0.5,1.4-0.8,2.2-0.8
			c0.2,0,0.2-0.1,0.2-0.2C11,32.6,11,32.3,11,32z"/>
		<path class="st1" d="M11.5,43.1c-2.7,0-4.9-2.2-4.9-4.9c0-2.8,2.2-4.9,4.8-5c2.7-0.1,5.1,2,5.1,4.8C16.5,40.9,14.3,43.1,11.5,43.1
			z"/>
		<path class="st2" d="M11.5,48.8c-1.1,0-2-0.9-2-2c0-1.1,0.9-2,2-2s2,0.9,2,2C13.5,47.9,12.6,48.8,11.5,48.8z"/>
		<path class="st3" d="M22.5,37.8c0,1.1-0.9,2-2,2c-1.1,0-2-0.9-2-2c0-1.1,0.9-2,2-2C21.6,35.8,22.5,36.7,22.5,37.8z"/>
		<path class="st2" d="M3.1,31.4c0-1.1,0.9-2,2-2c1.1,0,2,0.9,2,2c0,1.1-0.9,2-2,2C4,33.4,3.1,32.5,3.1,31.4z"/>
		<path class="st4" d="M0.5,37.8c0-1.1,0.9-2,2-2c1.1,0,2,0.9,2,2c0,1.1-0.9,2-2,2C1.4,39.8,0.5,38.9,0.5,37.8z"/>
		<path class="st5" d="M19.9,44.2c0,1.1-0.9,2-2,2c-1.1,0-2-0.9-2-2s0.9-2,2-2C19,42.2,19.9,43.1,19.9,44.2z"/>
		<path class="st3" d="M3.1,44.2c0-1.1,0.9-2,2-2c1.1,0,2,0.9,2,2c0,1.1-0.9,2-2,2S3.1,45.3,3.1,44.2z"/>
		<path class="st5" d="M9.5,28.8c0-1.1,0.9-2,1.9-2c1.2,0,2.1,0.8,2.1,2c0,1.1-0.9,2-2,2C10.4,30.8,9.5,29.9,9.5,28.8z"/>
		<path class="st4" d="M19.9,31.4c0,1.1-0.9,2-2,2c-1.1,0-2-0.9-2-2c0-1.1,0.9-2,2-2C19,29.4,19.9,30.3,19.9,31.4z"/>
		<path class="st6" d="M11.1,32c0-0.3,0-0.6,0-0.9c0-0.1,0-0.2,0.2-0.2c0.5,0,0.5,0,0.5,0.5c0,0.5,0,0.9,0,1.4c0,0.2,0,0.2-0.2,0.2
			c-0.5,0-0.5,0-0.5-0.5C11.1,32.4,11.1,32.2,11.1,32z"/>
		<path class="st6" d="M16.6,33.2c0,0-0.1,0.1-0.1,0.1c-0.4,0.4-0.8,0.8-1.2,1.2c-0.1,0.1-0.2,0.1-0.3,0c-0.4-0.3-0.4-0.3,0-0.7
			c0.3-0.3,0.7-0.7,1-1c0.1-0.1,0.2-0.1,0.3,0C16.3,32.9,16.4,33,16.6,33.2C16.5,33.1,16.5,33.1,16.6,33.2z"/>
		<path class="st6" d="M6.9,32.7C6.9,32.8,6.9,32.8,6.9,32.7c0.5,0.5,0.9,0.9,1.3,1.3c0.1,0.1,0.1,0.1,0,0.2c-0.4,0.3-0.4,0.3-0.7,0
			c-0.3-0.3-0.6-0.6-0.9-0.9c-0.1-0.1-0.2-0.2,0-0.3C6.7,33,6.7,32.9,6.9,32.7C6.8,32.8,6.8,32.7,6.9,32.7z"/>
		<path class="st6" d="M5.5,37.5c0.3,0,0.5,0,0.7,0c0.1,0,0.1,0,0.1,0.2c-0.1,0.5,0,0.5-0.6,0.5c-0.3,0-0.7,0-1.1,0
			c-0.1,0-0.2,0-0.2-0.2c0-0.5,0-0.5,0.5-0.5C5.2,37.5,5.4,37.5,5.5,37.5z"/>
		<path class="st6" d="M17.5,37.5c0.2,0,0.5,0,0.7,0c0.1,0,0.2,0,0.2,0.2c0,0.5,0,0.5-0.5,0.5c-0.4,0-0.7,0-1.1,0
			c-0.2,0-0.2,0-0.2-0.2c0-0.5,0-0.5,0.5-0.5C17.2,37.5,17.3,37.5,17.5,37.5z"/>
		<path class="st6" d="M15.5,41.4c0,0,0.1,0.1,0.1,0.1c0.3,0.3,0.6,0.6,0.9,0.9c0.1,0.1,0.1,0.2,0,0.2c0,0-0.1,0.1-0.1,0.1
			c-0.3,0.2-0.3,0.2-0.5,0c-0.2-0.2-0.5-0.5-0.7-0.7c-0.1-0.1-0.1-0.1,0-0.2C15.3,41.6,15.4,41.5,15.5,41.4z"/>
		<path class="st6" d="M7.9,41.8C7.9,41.9,7.9,41.9,7.9,41.8c-0.4,0.4-0.7,0.7-1,1c-0.1,0.1-0.1,0.1-0.2,0c-0.1-0.1-0.3-0.3-0.3-0.4
			c0-0.1,0.2-0.3,0.3-0.4c0.2-0.2,0.4-0.4,0.6-0.6c0.1-0.1,0.1-0.1,0.2,0C7.7,41.6,7.8,41.7,7.9,41.8z"/>
		<path class="st6" d="M11.8,44c0,0.2,0,0.3,0,0.5c0,0.2-0.1,0.2-0.2,0.2c-0.5,0-0.5,0-0.5-0.5c0-0.2,0-0.5,0-0.7
			c0-0.2,0-0.2,0.2-0.2c0.5,0,0.5,0,0.5,0.5C11.8,43.8,11.8,43.9,11.8,44z"/>
		<path class="st7" d="M10,38.2c0-0.5,0-1,0-1.4c0-0.3,0.1-0.5,0.3-0.6c0.2-0.1,0.5-0.1,0.7,0.1c0.8,0.5,1.5,1,2.3,1.4
			c0.5,0.3,0.5,0.8,0,1.1c-0.8,0.5-1.5,1-2.3,1.4c-0.2,0.1-0.4,0.2-0.7,0.1c-0.2-0.1-0.3-0.3-0.3-0.6C10,39.1,10,38.7,10,38.2z"/>
		<path class="st8" d="M11.5,46.6c0.1,0,0.2-0.1,0.3-0.1c0.4-0.1,0.6,0.1,0.6,0.5c0,0.1,0,0.3,0,0.4c0,0.1,0,0.2-0.1,0.2
			c-0.1,0-0.1-0.1-0.1-0.2c0-0.1,0-0.2,0-0.4c0-0.2,0-0.4-0.3-0.4c-0.3,0-0.5,0.2-0.5,0.4c0,0.1,0,0.3,0,0.4c0,0.1,0,0.1-0.1,0.1
			c-0.1,0-0.1-0.1-0.1-0.2c0-0.3,0-0.6,0-0.8c0-0.1-0.1-0.2,0.1-0.3C11.5,46.4,11.4,46.6,11.5,46.6z"/>
		<path class="st9" d="M10.8,47c0,0.2,0,0.3,0,0.5c0,0.1,0,0.1-0.1,0.1s-0.1,0-0.1-0.1c0-0.3,0-0.7,0-1c0,0,0-0.1,0.1-0.1
			c0.1,0,0.1,0,0.1,0.1C10.8,46.7,10.8,46.9,10.8,47L10.8,47z"/>
		<path class="st10" d="M10.8,46.1c0,0.1,0,0.1-0.1,0.1c-0.1,0-0.1-0.1-0.1-0.1c0,0,0-0.1,0.1-0.1C10.7,46,10.8,46,10.8,46.1z"/>
		<path class="st11" d="M20.4,38.2c-0.1,0.2-0.2,0.4-0.3,0.7c0,0.1-0.1,0.1-0.1,0.1s0-0.1,0-0.2c0.2-0.5,0.3-1,0.3-1.5
			c0,0,0-0.1,0.1-0.1c0.1,0,0.1,0.1,0.1,0.1c0,0.2,0,0.3,0,0.5c0,0.2,0,0.3,0.2,0.3s0.3,0,0.4-0.1c0.3-0.2,0.3-0.6,0.1-0.9
			c-0.2-0.3-0.6-0.4-0.9-0.3s-0.5,0.5-0.4,0.8c0,0.1,0.1,0.1,0.1,0.2c0,0,0.1,0.1,0,0.1c0,0-0.1,0-0.1,0c-0.1-0.1-0.2-0.3-0.2-0.4
			c0-0.4,0.2-0.7,0.6-0.9c0.4-0.1,0.8,0,1,0.3c0.2,0.3,0.2,0.8,0,1C21,38.4,20.8,38.4,20.4,38.2z"/>
		<path class="st12" d="M5.8,30.5c0,0.1-0.1,0.2-0.2,0.2c-0.1,0-0.2,0-0.3,0c-0.2,0-0.2,0-0.2,0.2c0,0.2,0.1,0.2,0.2,0.2
			c0.1,0,0.2,0,0.3,0c0.1,0,0.2,0.1,0.2,0.2s-0.1,0.1-0.2,0.2c0,0,0,0,0,0c-0.4,0-0.4,0-0.4,0.5c0,0.1,0,0.2,0,0.4
			c0,0.1-0.1,0.2-0.2,0.2c-0.1,0-0.2-0.1-0.2-0.2c0-0.2,0-0.4,0-0.6c0-0.1,0-0.2-0.2-0.2c-0.1,0-0.2-0.1-0.2-0.1
			c0-0.1,0.1-0.2,0.2-0.2c0.2,0,0.2-0.1,0.2-0.2c0-0.6,0-0.6,0.6-0.6c0.1,0,0.2,0,0.2,0C5.7,30.4,5.8,30.4,5.8,30.5z"/>
		<path class="st13" d="M1.5,37c0.2,0.2,0.4,0.3,0.7,0.4c0.2,0,0.3,0,0.3-0.2C2.5,37,2.8,36.9,3,37c0.1,0,0.2,0.1,0.3-0.1
			c-0.1,0.2-0.1,0.3,0.1,0.2c-0.2,0.1-0.2,0.3-0.2,0.5c0,0.4-0.2,0.8-0.6,0.9c-0.4,0.2-0.8,0.2-1.2,0c0.2-0.1,0.4-0.1,0.5-0.2
			c-0.1,0-0.2-0.1-0.2-0.2c0,0-0.1-0.1-0.1-0.1c0.2-0.1,0-0.2-0.1-0.2c0-0.1-0.3-0.2,0-0.2c0.1,0,0-0.1,0-0.1
			C1.5,37.4,1.5,37.2,1.5,37z"/>
		<path class="st13" d="M16.9,45c0.2-0.1,0.4-0.1,0.5-0.2c-0.1,0-0.2-0.1-0.2-0.1c0,0-0.2-0.1,0-0.2c0.1,0,0-0.1,0-0.1
			c0,0-0.1-0.1-0.1-0.2c-0.1-0.1-0.1-0.2,0.1-0.1c-0.1-0.2-0.3-0.3-0.1-0.6c0.2,0.2,0.4,0.3,0.7,0.4c0.1,0,0.2,0,0.2-0.2
			c0-0.3,0.3-0.5,0.6-0.3c0.1,0,0.2,0.1,0.3,0c0,0,0.1,0,0,0c-0.1,0.1,0.1,0.1,0.1,0.2c-0.1,0.1-0.1,0.2-0.1,0.3
			C18.7,44.9,17.7,45.5,16.9,45z"/>
		<path class="st13" d="M4.2,44.9C4.2,44.8,4.3,44.8,4.2,44.9c0.3-0.1,0.2-0.2,0.1-0.3c-0.3-0.3-0.3-0.7,0.1-0.9
			c0.4-0.3,1-0.3,1.4,0c0.3,0.3,0.3,0.7,0,1c-0.1,0.1-0.2,0.1-0.3,0.2C5.3,44.9,4.5,44.9,4.2,44.9z"/>
		<path class="st13" d="M12.1,29.3c0.1,0.1,0.2,0.1,0.3,0.1c-0.3,0.1-1.1,0-1.4-0.1c-0.3-0.1-0.5-0.3-0.5-0.6c0-0.3,0.2-0.5,0.5-0.6
			c0.4-0.1,0.7-0.1,1.1,0.1c0.4,0.3,0.4,0.7,0.1,1C12.2,29.2,12.1,29.3,12.1,29.3z"/>
		<path class="st13" d="M17,32.1C17,32,17.2,32,17.2,32c0,0,0,0,0,0c-0.5-0.4-0.3-1,0.3-1.2c0.4-0.1,0.8-0.1,1.1,0.2
			c0.3,0.3,0.3,0.7,0,1c0,0-0.1,0.1-0.1,0.1C18,32.2,17.5,32.1,17,32.1z"/>
		<path class="st3" d="M10.2,38.2c0-0.5,0-0.9,0-1.4c0-0.2,0-0.4,0.2-0.5c0.2-0.1,0.4,0,0.5,0.1c0.7,0.5,1.5,0.9,2.2,1.4
			c0.4,0.3,0.4,0.6,0,0.8c-0.7,0.5-1.5,0.9-2.2,1.4c-0.2,0.1-0.3,0.2-0.5,0.1c-0.2-0.1-0.2-0.3-0.2-0.5
			C10.2,39.1,10.2,38.6,10.2,38.2z"/>
	</g>
	<g>
		<path d="M25.2,33h4.4c2.3,0,3.8,1.3,3.8,3.3c0,2.3-1.7,3.3-3.8,3.3h-2v4h-2.3C25.2,43.6,25.2,33,25.2,33z M27.5,37.8h1.7
			c1.1,0,1.8-0.4,1.8-1.5c0-1.1-0.8-1.5-1.8-1.5h-1.8L27.5,37.8L27.5,37.8z"/>
		<path d="M34.7,37.8c0-0.8,0-1.5,0-2.2h2.2c0,0.2,0.1,1,0.1,1.4c0.3-0.9,1.2-1.6,2.5-1.6v2.1c-1.6,0-2.5,0.4-2.5,2.6v3.5h-2.2
			L34.7,37.8L34.7,37.8z"/>
		<path d="M48,39.6c0,2.4-1.4,4.2-4,4.2c-2.5,0-3.9-1.8-3.9-4.1c0-2.5,1.5-4.2,4-4.2C46.5,35.5,48,37.1,48,39.6z M42.4,39.6
			c0,1.5,0.7,2.4,1.7,2.4c1.1,0,1.7-0.9,1.7-2.4c0-1.7-0.6-2.5-1.7-2.5C43.1,37.2,42.4,37.9,42.4,39.6z"/>
		<path d="M49.8,43.6v-6.3h-1.2v-1.7h1.2v-0.7c0-1.6,0.8-2.7,2.5-2.7c0.4,0,0.8,0,1,0.1v1.7c-0.1,0-0.3,0-0.5,0
			c-0.7,0-0.9,0.2-0.9,1.1v0.5h1.4v1.7H52v6.3L49.8,43.6L49.8,43.6z"/>
		<path d="M54.6,32.4h2.2v2h-2.2V32.4z M54.6,35.7h2.2v7.9h-2.2V35.7z"/>
		<path d="M58,35.7h1.2v-2.2h2.2v2.2h1.5v1.7h-1.5v3.9c0,0.6,0.2,0.8,0.8,0.8c0.1,0,0.3,0,0.5,0v1.5c-0.4,0.2-1,0.2-1.5,0.2
			c-1.5,0-2.1-0.8-2.1-2.2v-4.2H58V35.7z"/>
		<path d="M66.3,40.5c0.2,1.1,1,1.5,2.2,1.5c1.2,0,1.7-0.5,1.7-1.3c0-0.9-0.5-1.2-2.3-1.7c-2.9-0.7-3.6-1.7-3.6-3.2
			c0-1.8,1.4-3.1,3.9-3.1c2.8,0,3.9,1.5,4.1,3H70c-0.1-0.7-0.5-1.4-1.8-1.4c-0.9,0-1.5,0.4-1.5,1.1c0,0.7,0.4,1,2.2,1.4
			c3.1,0.7,3.8,1.9,3.8,3.4c0,1.9-1.5,3.3-4.3,3.3c-2.7,0-4.1-1.3-4.3-3.3L66.3,40.5L66.3,40.5z"/>
		<path d="M83.2,39.6c0-1.8,0-3.8,0.1-5h-0.1c-0.5,2.2-1.6,5.7-2.6,9h-1.9c-0.8-2.9-1.9-6.9-2.3-9h-0.1c0.1,1.2,0.1,3.4,0.1,5.2v3.8
			h-2.1V33h3.4c0.8,2.8,1.8,6.2,2.1,7.8h0c0.3-1.4,1.4-5.1,2.3-7.8h3.3v10.6h-2.2L83.2,39.6L83.2,39.6z"/>
		<path d="M96.8,39.6c0-1.8,0-3.8,0.1-5h-0.1c-0.5,2.2-1.6,5.7-2.6,9h-1.9c-0.8-2.9-1.9-6.9-2.3-9h-0.1C90,35.8,90,38,90,39.8v3.8
			h-2.1V33h3.4c0.8,2.8,1.8,6.2,2.1,7.8h0c0.3-1.4,1.4-5.1,2.3-7.8H99v10.6h-2.2V39.6z"/>
	</g>
</g>
</svg>
