<?xml version="1.0" encoding="utf-8"?>
<!-- Generator: Adobe Illustrator 24.1.2, SVG Export Plug-In . SVG Version: 6.00 Build 0)  -->
<svg version="1.1" id="Слой_2" xmlns="http://www.w3.org/2000/svg" xmlns:xlink="http://www.w3.org/1999/xlink" x="0px" y="0px"
	 viewBox="0 0 100 70" style="enable-background:new 0 0 100 70;" xml:space="preserve">
<style type="text/css">
	.st0{fill:#D9D9DB;}
	.st1{fill:#FBA700;}
	.st2{fill:#FEFEFE;}
</style>
<g>
	<g>
		<path class="st0" d="M33.9,35.3c0,3.7,0,7.4,0,11.2c0,0.5-0.2,0.8-0.7,0.9c-5,1.7-10,3.4-14.9,5.2c-0.5,0.2-1,0.2-1.6,0
			c-5-1.8-10.1-3.5-15.1-5.3C1.1,47.1,1,46.8,1,46.3c0-7.4,0-14.8,0-22.2c0-0.4,0-0.7,0.6-0.9c5.1-1.7,10.2-3.5,15.4-5.3
			c0.4-0.1,0.8-0.1,1.3,0c5,1.8,10.1,3.5,15.1,5.2c0.5,0.2,0.6,0.4,0.6,0.9C33.9,27.8,33.9,31.5,33.9,35.3z"/>
		<path d="M32.5,35.3c0,3.3,0,6.6,0,9.9c0,0.7-0.2,0.9-0.8,1.1c-4.6,1.5-9.1,3.2-13.6,4.7c-0.4,0.1-0.6,0.2-1,0
			c-4.6-1.6-9.3-3.3-13.9-4.9c-0.6-0.2-0.7-0.5-0.7-1c0-6.7,0-13.4,0-20c0-0.6,0.2-0.8,0.7-1c4.7-1.6,9.3-3.2,13.9-4.8
			c0.4-0.1,0.7-0.1,1,0c4.6,1.6,9.1,3.2,13.7,4.8c0.6,0.2,0.8,0.5,0.8,1.1C32.5,28.6,32.5,32,32.5,35.3z"/>
		<path class="st1" d="M27.8,24.3c1,0.4,2,0.7,3,1c0.5,0.1,0.3,0.5,0.3,0.8c0,4.8,0,9.7,0,14.5c0,1.3,0,2.5,0,3.8
			c0,0.3,0,0.5-0.3,0.7c-1,0.3-1.9,0.7-2.9,1c0-1.4,0-2.7,0-4c0-0.3,0.1-0.5-0.3-0.7c-1.9-0.8-3.8-1.5-5.9-2.3c0,2.8,0,5.5,0,8.1
			c0,0.8-0.2,1.1-0.9,1.3c-0.7,0.2-1.3,0.5-2,0.7c-0.4,0.2-0.6,0-0.5-0.4c0,0,0-0.1,0-0.2c0-9,0-18,0-27.1c0-0.6,0.1-0.8,0.7-0.5
			c0.9,0.4,2.1,0.4,2.6,1.1c0.5,0.7,0.1,1.8,0.1,2.7c0,3.3,0,6.5,0,9.8c0,0.3-0.1,0.6,0.1,0.8c0.3,0.2,0.6,0.5,0.9,0.4
			c0.4,0,0.2-0.5,0.2-0.8c0-3.9,0-7.8,0-11.7c0-0.6,0.1-0.9,0.8-0.6c0.9,0.4,2,0.4,2.5,1.1c0.5,0.6,0.1,1.8,0.2,2.7
			c0,3.3,0,6.6,0,9.9c0,0.5,0.8,1.2,1.3,1c0.3-0.1,0.2-0.4,0.2-0.6c0-2.6,0-5.3,0-7.9C27.8,27.5,27.8,26,27.8,24.3z"/>
		<path class="st2" d="M11.1,35.8c-1.3,0.5-2.5,0.9-3.7,1.3c-0.4,0.2-0.3,0.5-0.3,0.8c0,2.4,0,4.8,0,7.2c0,0.6-0.1,0.9-0.7,0.5
			c-0.8-0.4-1.8-0.4-2.3-1C3.7,44.1,4,43.1,4,42.3c0-5.4,0-10.8,0-16.2c0-0.5,0.2-0.8,0.7-1c3.8-1.3,7.5-2.6,11.3-3.9
			c0.6-0.2,0.7-0.1,0.7,0.5c0,3.8,0,7.6,0,11.4c0,0.5-0.2,0.8-0.7,0.9c-1.8,0.6-1.8,0.6-1.8,2.5c0,2.6,0,5.1,0,7.7
			c0,0.5,0.1,0.8,0.7,1c1.8,0.6,1.8,0.6,1.8,2.5c0,1.6,0,1.6-1.5,1c-1.1-0.4-2.2-0.8-3.3-1.2c-0.6-0.2-0.8-0.5-0.8-1.1
			c0-3.3,0-6.5,0-9.8C11.1,36.5,11.1,36.2,11.1,35.8z"/>
		<path d="M13.4,25.6c0,2,0,3.9,0,5.7c0,0.3-0.1,0.4-0.4,0.5c-1.8,0.6-3.6,1.2-5.3,1.8c-0.4,0.1-0.5,0.1-0.5-0.4c0-1.7,0-3.4,0-5.1
			c0-0.3,0-0.5,0.3-0.6C9.4,26.9,11.3,26.3,13.4,25.6z"/>
	</g>
	<g>
		<path d="M37.4,33.1v-12h5.3c1.1,0,1.9,0.1,2.4,0.3c0.6,0.2,1,0.6,1.3,1.1c0.3,0.5,0.5,1.1,0.5,1.8c0,0.9-0.3,1.6-0.8,2.1
			c-0.5,0.6-1.4,1-2.5,1.1c0.4,0.2,0.7,0.4,1,0.6c0.5,0.4,0.9,1,1.3,1.6l2.1,3.3h-2l-1.6-2.5c-0.5-0.7-0.8-1.3-1.2-1.6
			c-0.3-0.4-0.6-0.6-0.8-0.8s-0.5-0.3-0.7-0.3c-0.2,0-0.5-0.1-0.9-0.1H39v5.3C39,33.1,37.4,33.1,37.4,33.1z M39,26.4h3.4
			c0.7,0,1.3-0.1,1.7-0.2c0.4-0.1,0.7-0.4,0.9-0.7s0.3-0.7,0.3-1.1c0-0.6-0.2-1-0.6-1.4c-0.4-0.4-1.1-0.5-2-0.5H39L39,26.4L39,26.4z
			"/>
		<path d="M49.5,33.1v-12h8.7v1.4h-7.1v3.7h6.6v1.4h-6.6v4.1h7.4v1.4L49.5,33.1L49.5,33.1z"/>
		<path d="M59.3,33.1l4.6-12h1.7l4.9,12h-1.8l-1.4-3.6h-5L61,33.1H59.3z M62.8,28.2h4.1l-1.3-3.3c-0.4-1-0.7-1.8-0.8-2.5
			c-0.2,0.8-0.4,1.5-0.7,2.3L62.8,28.2z"/>
		<path d="M71.8,33.1v-12h1.6v10.6h5.9v1.4H71.8z"/>
		<path d="M81.1,33.1v-12h1.6v10.6h5.9v1.4H81.1z"/>
		<path d="M92.6,33.1V28L88,21.1h1.9l2.4,3.6c0.4,0.7,0.8,1.4,1.2,2c0.4-0.6,0.8-1.3,1.3-2.1l2.3-3.5H99L94.2,28v5.1
			C94.2,33.1,92.6,33.1,92.6,33.1z"/>
		<path d="M40.8,50.8l-3.2-12h1.6l1.8,7.9c0.2,0.8,0.4,1.6,0.5,2.5c0.3-1.3,0.5-2,0.5-2.2l2.3-8.1h1.9l1.7,6.1
			c0.4,1.5,0.7,2.9,0.9,4.3c0.2-0.8,0.3-1.6,0.6-2.6l1.9-7.7H53l-3.3,12h-1.5l-2.5-9.1c-0.2-0.8-0.3-1.2-0.4-1.4
			c-0.1,0.5-0.2,1-0.3,1.4l-2.5,9.1L40.8,50.8L40.8,50.8z"/>
		<path d="M54,45c0-2,0.5-3.5,1.6-4.7s2.5-1.7,4.1-1.7c1.1,0,2.1,0.3,3,0.8c0.9,0.5,1.6,1.3,2,2.2c0.5,1,0.7,2,0.7,3.2
			c0,1.2-0.3,2.3-0.7,3.3s-1.2,1.7-2.1,2.2S60.8,51,59.8,51c-1.1,0-2.1-0.3-3-0.8s-1.6-1.3-2-2.2C54.3,47,54,46,54,45z M55.7,45
			c0,1.5,0.4,2.6,1.2,3.4s1.8,1.3,2.9,1.3c1.2,0,2.2-0.4,3-1.3s1.2-2,1.2-3.6c0-1-0.2-1.8-0.5-2.6s-0.8-1.3-1.5-1.7
			c-0.6-0.4-1.3-0.6-2.1-0.6c-1.1,0-2.1,0.4-2.9,1.2C56.1,41.9,55.7,43.2,55.7,45z"/>
		<path d="M67.6,50.8v-12h5.3c1.1,0,1.9,0.1,2.4,0.3c0.6,0.2,1,0.6,1.3,1.1c0.3,0.5,0.5,1.2,0.5,1.8c0,0.8-0.3,1.6-0.8,2.2
			s-1.4,1-2.6,1.1c0.4,0.2,0.7,0.4,1,0.6c0.5,0.4,0.9,1,1.3,1.6l2.1,3.3h-2l-1.6-2.5c-0.5-0.7-0.8-1.3-1.2-1.7s-0.6-0.7-0.8-0.8
			c-0.2-0.2-0.5-0.3-0.7-0.3c-0.2,0-0.5-0.1-0.9-0.1h-1.8v5.3C69.2,50.8,67.6,50.8,67.6,50.8z M69.2,44.1h3.4c0.7,0,1.3-0.1,1.7-0.2
			c0.4-0.2,0.7-0.4,0.9-0.7s0.3-0.7,0.3-1.1c0-0.6-0.2-1-0.6-1.4c-0.4-0.4-1.1-0.5-1.9-0.5h-3.8L69.2,44.1L69.2,44.1z"/>
		<path d="M79.6,50.8v-12h1.6v10.6h5.9v1.4C87.1,50.8,79.6,50.8,79.6,50.8z"/>
		<path d="M89,50.8v-12h4.1c0.9,0,1.7,0.1,2.1,0.2c0.7,0.2,1.3,0.4,1.8,0.9c0.6,0.5,1.1,1.2,1.4,2c0.3,0.8,0.5,1.8,0.5,2.8
			c0,0.9-0.1,1.7-0.3,2.4c-0.2,0.7-0.5,1.3-0.8,1.8s-0.7,0.8-1.1,1.1c-0.4,0.3-0.9,0.5-1.4,0.6c-0.6,0.1-1.2,0.2-1.9,0.2L89,50.8
			L89,50.8z M90.6,49.4h2.6c0.8,0,1.4-0.1,1.9-0.2s0.8-0.3,1.1-0.6c0.4-0.4,0.7-0.9,0.9-1.5s0.3-1.4,0.3-2.3c0-1.3-0.2-2.2-0.6-2.9
			s-0.9-1.1-1.5-1.3c-0.4-0.2-1.1-0.3-2.1-0.3h-2.5L90.6,49.4L90.6,49.4z"/>
	</g>
</g>
</svg>
