<?xml version="1.0" encoding="utf-8"?>
<!-- Generator: Adobe Illustrator 24.1.2, SVG Export Plug-In . SVG Version: 6.00 Build 0)  -->
<svg version="1.1" id="Слой_2" xmlns="http://www.w3.org/2000/svg" xmlns:xlink="http://www.w3.org/1999/xlink" x="0px" y="0px"
	 viewBox="0 0 100 70" style="enable-background:new 0 0 100 70;" xml:space="preserve">
<style type="text/css">
	.st0{fill-rule:evenodd;clip-rule:evenodd;fill:#9CACE4;}
	.st1{fill-rule:evenodd;clip-rule:evenodd;fill:#5C74EB;}
</style>
<g id="Слой_27">
	<path class="st0" d="M12.5,27.1c-0.8,0.2-6.1,3.3-6.8,4c-0.8,0.8-0.9,1.2-0.9,5c0,4.7-0.1,4.5,4.2,7c4.2,2.4,3.8,2.4,8,0
		c4.4-2.5,4.3-2.3,4.2-7.4c-0.1-4.7,0.2-4.3-4.1-6.8c-2.4-1.4-3.7-2-4.1-1.9C13,27,12.8,27,12.5,27.1 M29.2,30.9
		c-0.2,0.5-0.1,11.8,0.1,11.8c0.3,0.1,1.9,0.1,2.1,0c0.2-0.1,0.2-0.4,0.2-2v-1.9h1.1h1.1l0.9,1.8c1,2.2,1,2.1,2.5,2.1
		c1.5,0,1.5,0.1,0.4-2.3c-1.1-2.2-1.1-2.2-0.6-2.6c2.3-1.7,1.6-6.3-1.1-7.1C35,30.6,29.3,30.6,29.2,30.9 M50.3,30.8c0,0.1,0,2.8,0,6
		l0,5.9l1,0c0.7,0,1,0,1.1-0.2c0.1-0.2,0.2-0.2,0.7,0.1c1.3,0.6,3.4,0.3,4.4-0.8c3.5-3.5,0.3-9.9-4.2-8.3l-0.5,0.2l0-1.5l0-1.5
		l-1.2,0C50.7,30.7,50.4,30.7,50.3,30.8 M31.7,34.7v1.7l1.6-0.1c3.9-0.2,3.7-3.4-0.2-3.4h-1.4L31.7,34.7 M42.7,33.5
		c-4.9,1.6-3.7,9.4,1.4,9.4c6.1,0,6.4-9.4,0.3-9.6C43.6,33.3,43,33.4,42.7,33.5 M60.5,33.7c-0.3,0.3-0.1,6.2,0.2,7
		c0.7,2.1,3.1,3,5.2,1.9l0.8-0.4l0.1,0.3c0.1,0.3,0.2,0.3,1.1,0.3l1,0v-4.5v-4.5h-1.2h-1.2l-0.1,2.9c0,1.8-0.1,3-0.2,3.1
		c-0.7,1.3-2.5,1.2-3-0.1c-0.1-0.2-0.2-1.5-0.2-3.1l-0.1-2.8l-1.2,0C61.1,33.6,60.5,33.6,60.5,33.7 M70.1,33.8
		c0,0.1,0.7,1.1,1.5,2.3l1.5,2l-0.7,1c-0.4,0.6-1.1,1.5-1.5,2.2c-1,1.4-1,1.5,0.6,1.5c1.4,0,1.4,0,2.5-1.6c0.7-1.1,0.6-1.1,1.3,0.1
		c1.1,1.6,1,1.6,2.4,1.6c1.6,0,1.6,0,0-2.3c-0.8-1.1-1.4-2-1.5-2.2c-0.1-0.2,0.2-0.6,1.3-2.3c1.7-2.5,1.7-2.4,0.1-2.4
		c-1.5,0-1.3-0.1-2.2,1.2c-0.4,0.6-0.7,1.1-0.8,1.1c-0.1,0.1-0.4-0.5-0.9-1.1l-0.8-1.2h-1.4C70.3,33.6,70.1,33.6,70.1,33.8
		 M53.5,35.8c-1.1,0.6-1.2,3.7-0.2,4.5c0.8,0.6,2.3,0.3,2.7-0.7C57.1,37.4,55.3,34.8,53.5,35.8 M43.2,36c-1.4,0.8-1.3,3.7,0.2,4.4
		c1.5,0.7,2.7-0.3,2.8-2.2C46.1,36.3,44.6,35.1,43.2,36"/>
	<path class="st1" d="M11.5,23c-3,1-9.3,5.3-10,6.8L1,30.6V36v5.4l0.4,0.8c1,2.1,9.2,7,11.6,7c2.6,0,10.7-4.8,11.8-7l0.4-0.8V36
		v-5.4l-0.4-0.8c-0.7-1.4-1.3-1.9-5.5-4.3C14.4,22.6,13.4,22.3,11.5,23 M11.8,25.2c-1.3,0.6-7.3,4.2-7.8,4.6c-1,0.9-1,1-1,6.3
		c0,6.2-0.4,5.5,5,8.7c5.4,3.1,4.7,3.1,10.1,0c5.4-3.2,5-2.5,5-8.7c0-6.3,0.3-5.7-4.9-8.7C13.7,24.7,13.2,24.5,11.8,25.2 M85.5,31.5
		c0,1.3-0.1,1.2,1.4,1.1l1-0.1l0-1l0-1h-1.2h-1.2L85.5,31.5 M92.7,33.5c-3.9,1.2-4.2,7.3-0.4,9.1c3.8,1.7,7.6-2.2,6.2-6.3
		C97.8,34,95.2,32.8,92.7,33.5 M85.5,33.8c0,0.1-0.1,2.1,0,4.6l0,4.4h1.2h1.2v-4.5v-4.5l-1.1,0C85.9,33.6,85.6,33.6,85.5,33.8
		 M93.2,36c-1.2,0.7-1.3,3.4-0.1,4.3c1.3,1,2.9-0.2,2.9-2.2C96.1,36.2,94.7,35.2,93.2,36 M80.5,40.4c-0.1,0.1-0.1,0.5-0.1,1.3
		l0.1,1.1h1.2h1.2v-1.2v-1.2l-1.1,0C81,40.2,80.6,40.3,80.5,40.4"/>
</g>
</svg>
