<?xml version="1.0" encoding="utf-8"?>
<!-- Generator: Adobe Illustrator 24.1.2, SVG Export Plug-In . SVG Version: 6.00 Build 0)  -->
<svg version="1.1" id="Слой_2" xmlns="http://www.w3.org/2000/svg" xmlns:xlink="http://www.w3.org/1999/xlink" x="0px" y="0px"
	 viewBox="0 0 100 70" style="enable-background:new 0 0 100 70;" xml:space="preserve">
<style type="text/css">
	.st0{fill:#1C81F9;}
</style>
<g>
	<g>
		<path class="st0" d="M19.1,39.9v-1c0.1,0.1,0.3,0.2,0.4,0.3c0.2,0.1,0.3,0.2,0.5,0.2c0.2,0.1,0.4,0.1,0.5,0.1c0.2,0,0.4,0,0.5,0
			c0.5,0,0.9-0.1,1.2-0.3s0.4-0.5,0.4-0.9c0-0.2,0-0.4-0.1-0.5c-0.1-0.2-0.2-0.3-0.4-0.4c-0.2-0.1-0.3-0.2-0.5-0.3s-0.4-0.2-0.7-0.4
			c-0.3-0.1-0.5-0.3-0.7-0.4c-0.2-0.1-0.4-0.3-0.6-0.5c-0.2-0.2-0.3-0.3-0.4-0.5c-0.1-0.2-0.1-0.5-0.1-0.7c0-0.3,0.1-0.6,0.2-0.9
			s0.3-0.5,0.6-0.6c0.2-0.2,0.5-0.3,0.8-0.4s0.6-0.1,1-0.1c0.7,0,1.3,0.1,1.6,0.3v1c-0.4-0.3-1-0.5-1.7-0.5c-0.2,0-0.4,0-0.6,0.1
			s-0.4,0.1-0.5,0.2s-0.3,0.2-0.4,0.3s-0.1,0.3-0.1,0.5c0,0.2,0,0.3,0.1,0.5c0.1,0.1,0.2,0.3,0.3,0.4c0.1,0.1,0.3,0.2,0.5,0.3
			s0.4,0.2,0.7,0.3c0.3,0.1,0.5,0.3,0.8,0.4c0.2,0.2,0.5,0.3,0.6,0.5c0.2,0.2,0.3,0.4,0.4,0.6c0.1,0.2,0.2,0.5,0.2,0.7
			c0,0.4-0.1,0.7-0.2,0.9c-0.1,0.3-0.3,0.5-0.6,0.6s-0.5,0.3-0.8,0.3s-0.6,0.1-1,0.1c-0.1,0-0.3,0-0.4,0c-0.2,0-0.4,0-0.5-0.1
			c-0.2,0-0.4-0.1-0.5-0.1C19.4,40,19.2,40,19.1,39.9z"/>
		<path class="st0" d="M29,40.2h-3.9v-7.4H26v6.7h3V40.2z"/>
		<path class="st0" d="M31.7,32.8v0.8H31v5.9h0.7v0.8h-2.3v-0.8h0.7v-5.9h-0.7v-0.8H31.7z"/>
		<path class="st0" d="M38.5,32.8l-2.8,7.4h-1L32,32.8h1l2.1,5.9c0.1,0.2,0.1,0.4,0.2,0.7h0c0-0.2,0.1-0.4,0.2-0.7l2.1-5.9H38.5z"/>
		<path class="st0" d="M44.7,40.2h-1.2l-2.9-3.4c-0.1-0.1-0.2-0.2-0.2-0.3h0v3.7h-0.9v-7.4h0.9v3.5h0c0-0.1,0.1-0.2,0.2-0.3l2.8-3.2
			h1.1l-3.2,3.6L44.7,40.2z"/>
		<path class="st0" d="M51.1,37.2c0,2.1-0.9,3.1-2.8,3.1c-1.8,0-2.7-1-2.7-3v-4.5h0.9v4.5c0,1.5,0.6,2.3,1.9,2.3
			c1.2,0,1.9-0.7,1.9-2.2v-4.6h0.9L51.1,37.2L51.1,37.2z"/>
		<path class="st0" d="M58.3,40.2h-1L56,38.1c-0.1-0.2-0.2-0.4-0.3-0.5s-0.2-0.3-0.3-0.3c-0.1-0.1-0.2-0.2-0.4-0.2
			c-0.1,0-0.3-0.1-0.4-0.1h-0.7v3.2H53v-7.4h2.2c0.3,0,0.6,0,0.9,0.1c0.3,0.1,0.5,0.2,0.7,0.4c0.2,0.2,0.4,0.4,0.5,0.6
			s0.2,0.5,0.2,0.9c0,0.3,0,0.5-0.1,0.7c-0.1,0.2-0.2,0.4-0.3,0.6c-0.1,0.2-0.3,0.3-0.5,0.4s-0.4,0.2-0.7,0.3v0
			c0.1,0.1,0.2,0.1,0.3,0.2s0.2,0.2,0.3,0.3c0.1,0.1,0.2,0.2,0.3,0.3s0.2,0.3,0.3,0.4L58.3,40.2z M53.8,33.5v2.7H55
			c0.2,0,0.4,0,0.6-0.1s0.3-0.2,0.5-0.3c0.1-0.1,0.2-0.3,0.3-0.5c0.1-0.2,0.1-0.4,0.1-0.6c0-0.4-0.1-0.7-0.4-0.9s-0.6-0.3-1.1-0.3
			L53.8,33.5L53.8,33.5z"/>
		<path class="st0" d="M59,39.9v-1c0.1,0.1,0.3,0.2,0.4,0.3c0.2,0.1,0.3,0.2,0.5,0.2c0.2,0.1,0.4,0.1,0.5,0.1c0.2,0,0.3,0,0.5,0
			c0.5,0,0.9-0.1,1.2-0.3c0.3-0.2,0.4-0.5,0.4-0.9c0-0.2,0-0.4-0.1-0.5s-0.2-0.3-0.4-0.4c-0.2-0.1-0.3-0.2-0.5-0.3s-0.4-0.2-0.7-0.4
			c-0.3-0.1-0.5-0.3-0.7-0.4c-0.2-0.1-0.4-0.3-0.6-0.5c-0.2-0.2-0.3-0.3-0.4-0.5C59,35.1,59,34.9,59,34.6c0-0.3,0.1-0.6,0.2-0.9
			s0.3-0.5,0.6-0.6c0.2-0.2,0.5-0.3,0.8-0.4s0.6-0.1,1-0.1c0.7,0,1.3,0.1,1.6,0.3v1c-0.4-0.3-1-0.5-1.7-0.5c-0.2,0-0.4,0-0.6,0.1
			s-0.4,0.1-0.5,0.2c-0.2,0.1-0.3,0.2-0.4,0.3s-0.1,0.3-0.1,0.5c0,0.2,0,0.3,0.1,0.5c0.1,0.1,0.2,0.3,0.3,0.4
			c0.1,0.1,0.3,0.2,0.5,0.3c0.2,0.1,0.4,0.2,0.7,0.3c0.3,0.1,0.5,0.3,0.8,0.4c0.2,0.2,0.5,0.3,0.6,0.5c0.2,0.2,0.3,0.4,0.4,0.6
			c0.1,0.2,0.2,0.5,0.2,0.7c0,0.4-0.1,0.7-0.2,0.9c-0.1,0.3-0.3,0.5-0.6,0.6s-0.5,0.3-0.8,0.3s-0.7,0.1-1,0.1c-0.1,0-0.3,0-0.4,0
			c-0.2,0-0.3,0-0.5-0.1c-0.2,0-0.3-0.1-0.5-0.1C59.2,40,59.1,40,59,39.9z"/>
		<path class="st0" d="M68,40.3c-1.1,0-1.9-0.3-2.5-1c-0.6-0.7-0.9-1.6-0.9-2.7c0-1.2,0.3-2.2,1-2.9s1.5-1.1,2.6-1.1
			c1,0,1.8,0.3,2.5,1c0.6,0.7,0.9,1.6,0.9,2.7c0,1.2-0.3,2.2-1,2.9C69.9,40,69,40.3,68,40.3z M68,33.4c-0.8,0-1.4,0.3-1.9,0.8
			c-0.5,0.6-0.7,1.3-0.7,2.2c0,0.9,0.2,1.7,0.7,2.2c0.5,0.6,1.1,0.8,1.9,0.8c0.8,0,1.5-0.3,1.9-0.8s0.7-1.3,0.7-2.2
			c0-1-0.2-1.7-0.7-2.3C69.5,33.7,68.8,33.4,68,33.4z"/>
		<path class="st0" d="M78.5,32.8l-2.8,7.4h-1l-2.7-7.4h1l2.1,5.9c0.1,0.2,0.1,0.4,0.2,0.7h0c0-0.2,0.1-0.4,0.2-0.7l2.1-5.9H78.5z"
			/>
		<path class="st0" d="M79.7,40.3c-0.2,0-0.3-0.1-0.4-0.2c-0.1-0.1-0.2-0.3-0.2-0.4s0.1-0.3,0.2-0.4c0.1-0.1,0.3-0.2,0.4-0.2
			s0.3,0.1,0.4,0.2c0.1,0.1,0.2,0.3,0.2,0.4s-0.1,0.3-0.2,0.4C80.1,40.2,79.9,40.3,79.7,40.3z"/>
		<path class="st0" d="M87.9,40.2h-1.1L83,34.3c-0.1-0.2-0.2-0.3-0.2-0.5h0c0,0.2,0,0.5,0,1v5.4h-0.9v-7.4H83l3.7,5.8
			c0.2,0.2,0.3,0.4,0.3,0.5h0c0-0.2-0.1-0.6-0.1-1.1v-5.2h0.9L87.9,40.2L87.9,40.2z"/>
		<path class="st0" d="M93.8,40.2h-3.9v-7.4h3.8v0.8h-2.9V36h2.7v0.8h-2.7v2.6h3.1C93.7,39.4,93.7,40.2,93.8,40.2z"/>
		<path class="st0" d="M99.6,33.5h-2.2v6.7h-0.9v-6.7h-2.1v-0.8h5.2C99.6,32.8,99.6,33.5,99.6,33.5z"/>
	</g>
	<polygon class="st0" points="1.4,35 9.1,28.3 16.7,35 9.1,41 	"/>
	<polygon class="st0" points="2.2,36.9 8.9,42.2 15.8,36.9 16.9,37.5 9.1,43.8 1,37.9 	"/>
</g>
</svg>
