<?xml version="1.0" encoding="utf-8"?>
<!-- Generator: Adobe Illustrator 24.1.2, SVG Export Plug-In . SVG Version: 6.00 Build 0)  -->
<svg version="1.1" id="Слой_2" xmlns="http://www.w3.org/2000/svg" xmlns:xlink="http://www.w3.org/1999/xlink" x="0px" y="0px"
	 viewBox="0 0 100 70" style="enable-background:new 0 0 100 70;" xml:space="preserve">
<style type="text/css">
	.st0{fill:#4D3EFA;}
	.st1{fill:#FFFFFF;}
	.st2{fill:none;stroke:#AAAAAA;stroke-width:1.5021;stroke-linecap:round;stroke-linejoin:round;stroke-miterlimit:10;}
	.st3{fill:#AAAAAA;}
</style>
<g>
	<circle class="st0" cx="14.4" cy="42.9" r="6.3"/>
	<polygon class="st1" points="11.3,41.7 14.4,43.5 17.8,41.7 17.8,45.6 11.3,45.6 	"/>
	<polygon class="st1" points="14.4,42.9 11.3,41.2 17.8,41.2 	"/>
	<path class="st2" d="M18.6,36.7c0,0,0.7-2.1,0.9-4c0,0-4.8-1-8.7-4.8c0,0-5,4-8.7,4.3c0,0-1.3,11.8,6.4,16"/>
	<g>
		<path class="st3" d="M25.1,41.9c0.3,1.1,1.1,1.6,2.4,1.6s1.9-0.5,1.9-1.3c0-0.9-0.5-1.3-2.5-1.8c-3.1-0.7-3.8-1.8-3.8-3.3
			c0-2,1.5-3.3,4.1-3.3c3,0,4.2,1.6,4.3,3.3H29c-0.1-0.7-0.5-1.4-2-1.4c-1,0-1.6,0.4-1.6,1.2c0,0.8,0.5,1.1,2.3,1.5
			c3.3,0.8,4,2,4,3.6c0,2-1.5,3.5-4.5,3.5c-2.9,0-4.4-1.4-4.6-3.5C22.6,41.9,25.1,41.9,25.1,41.9z"/>
		<path class="st3" d="M43.1,41c0-1.9,0-4.1,0.1-5.3h-0.1c-0.5,2.3-1.7,6-2.7,9.6h-2.1c-0.8-3.1-2-7.3-2.5-9.6h-0.1
			c0.1,1.3,0.1,3.6,0.1,5.6v4h-2.2V33.9h3.6c0.9,2.9,1.9,6.6,2.2,8.3h0c0.3-1.5,1.5-5.4,2.5-8.3h3.5v11.3h-2.3L43.1,41L43.1,41z"/>
		<path class="st3" d="M49.6,41.9c0.3,1.1,1.1,1.6,2.4,1.6s1.8-0.5,1.8-1.3c0-0.9-0.5-1.3-2.5-1.8c-3.1-0.7-3.8-1.8-3.8-3.3
			c0-2,1.5-3.3,4.1-3.3c3,0,4.2,1.6,4.3,3.3h-2.5c-0.1-0.7-0.5-1.4-2-1.4c-1,0-1.6,0.4-1.6,1.2c0,0.8,0.5,1.1,2.3,1.5
			c3.3,0.8,4,2,4,3.6c0,2-1.5,3.5-4.5,3.5c-2.9,0-4.4-1.4-4.6-3.5C47.1,41.9,49.6,41.9,49.6,41.9z"/>
		<path class="st3" d="M62.4,45.2v-2.4h-4.9v-2l4.5-6.3h2.5v6.4h1.3l-0.2,1.9h-1.1v2.4L62.4,45.2L62.4,45.2z M62.4,39
			c0-1.2,0-1.8,0-2.5c-0.4,0.9-1.8,2.9-2.8,4.4h2.8V39z"/>
		<path class="st3" d="M70,45.2v-4c0-0.1,0-0.2-0.1-0.4L66,33.9h2.8c0.9,1.7,2,4,2.6,5.2c0.5-1.2,1.7-3.5,2.6-5.2h2.6l-3.9,6.9
			c-0.1,0.1-0.1,0.1-0.1,0.4v4C72.4,45.2,70,45.2,70,45.2z"/>
		<path class="st3" d="M87.6,39.5c0,3.1-1.9,5.8-5.5,5.8c-3.5,0-5.4-2.6-5.4-5.8c0-3.3,2-5.8,5.5-5.8C85.5,33.8,87.6,36.1,87.6,39.5
			z M79.2,39.5c0,2.2,1,3.9,3,3.9c2.2,0,2.9-1.8,2.9-3.8c0-2.1-0.9-3.8-3-3.8C80,35.8,79.2,37.3,79.2,39.5z"/>
		<path class="st3" d="M92,33.9v6.7c0,2.2,1.1,2.8,2.3,2.8c1.4,0,2.3-0.8,2.3-2.8v-6.7H99v6.6c0,3.8-2.3,4.8-4.7,4.8
			c-2.5,0-4.7-1-4.7-4.8v-6.6H92z"/>
	</g>
</g>
</svg>
