<?xml version="1.0" encoding="utf-8"?>
<!-- Generator: Adobe Illustrator 24.1.2, SVG Export Plug-In . SVG Version: 6.00 Build 0)  -->
<svg version="1.1" id="Слой_2" xmlns="http://www.w3.org/2000/svg" xmlns:xlink="http://www.w3.org/1999/xlink" x="0px" y="0px"
	 viewBox="0 0 100 70" style="enable-background:new 0 0 100 70;" xml:space="preserve">
<style type="text/css">
	.st0{fill:#A8A8A8;}
	.st1{fill:#D7D7D8;stroke:#0F0F0F;stroke-width:0.5447;stroke-miterlimit:10;}
	.st2{fill:none;stroke:#0F0F0F;stroke-width:0.5447;stroke-linecap:round;stroke-linejoin:round;stroke-miterlimit:10;}
	.st3{fill:none;stroke:#0F0F0F;stroke-width:0.5447;stroke-miterlimit:10;}
</style>
<g>
	<g>
		<path class="st0" d="M5.4,34.5L4.6,45.7c0,0,6.7,5.3,14.2,0l-0.9-11.2C17.9,34.5,14.8,29.5,5.4,34.5z"/>
		<ellipse class="st0" cx="11.6" cy="31.7" rx="9.2" ry="3.8"/>
		<path class="st1" d="M4,33.9L3.2,45c0,0,6.7,5.3,14.2,0l-0.9-11.2C16.5,33.9,13.4,28.9,4,33.9z"/>
		<ellipse class="st1" cx="10.2" cy="31.1" rx="9.2" ry="3.8"/>
		<path class="st2" d="M4,31.6c0,0,6.7,3.2,11.9,0"/>
		<path class="st3" d="M3.6,39.5c0,0,5.7,4.7,13.3,0"/>
	</g>
	<g>
		<path d="M23.5,35.4h-3.1v-1.1h7.4v1.1h-3.1v8.4h-1.3L23.5,35.4L23.5,35.4z"/>
		<path d="M27.9,38.8c0-1,0-1.5,0-1.9H29c0,0.2,0,0.7,0,1.4c0.4-0.9,1.2-1.5,2.3-1.6v1.2c-1.4,0-2.3,0.8-2.3,2.5v3.3h-1.2L27.9,38.8
			L27.9,38.8z"/>
		<path d="M32.5,33.8h1.2v1.5h-1.2V33.8z M32.5,36.9h1.2v6.9h-1.2V36.9z"/>
		<path d="M41.2,41.7c-0.3,1.2-1.1,2.3-2.8,2.3c-1.9,0-3.1-1.4-3.1-3.6c0-2,1.1-3.7,3.2-3.7c2,0,2.7,1.4,2.8,2.3h-1.2
			c-0.2-0.7-0.6-1.3-1.6-1.3c-1.2,0-1.9,1-1.9,2.6c0,1.6,0.7,2.6,1.9,2.6c0.9,0,1.4-0.5,1.7-1.3L41.2,41.7L41.2,41.7z"/>
		<path d="M43.8,40.2c0.6-0.7,2.1-2.3,3-3.3h1.4l-2.6,2.7l2.9,4.2h-1.4l-2.3-3.5l-1,1v2.5h-1.2v-10h1.2L43.8,40.2L43.8,40.2z"/>
		<path d="M50.3,41.8C50.5,42.6,51,43,52,43c1,0,1.4-0.4,1.4-1.1c0-0.7-0.3-1-1.6-1.3c-2-0.5-2.4-1.1-2.4-2c0-1,0.7-1.9,2.5-1.9
			c1.8,0,2.5,1,2.6,2h-1.1c-0.1-0.5-0.4-1.1-1.5-1.1c-1,0-1.3,0.5-1.3,0.9c0,0.5,0.3,0.8,1.5,1.1c2.1,0.5,2.5,1.2,2.5,2.2
			c0,1.2-1,2.1-2.7,2.1c-1.8,0-2.7-0.9-2.8-2.1L50.3,41.8L50.3,41.8z"/>
		<path d="M67.9,39.8c0-1.8,0-3.5,0.1-4.5h-0.1c-0.4,1.5-1.9,5.6-3,8.6h-1.1c-0.8-2.4-2.4-7-2.8-8.6h0C61,36.3,61,38.4,61,40v3.8
			h-1.2v-9.5h1.9c1.1,2.9,2.4,6.7,2.7,7.9h0c0.2-0.9,1.8-5.1,2.9-7.9h1.8v9.5h-1.2L67.9,39.8L67.9,39.8z"/>
		<path d="M76.3,42.3c0,0.6,0.1,1.3,0.1,1.5h-1.1c-0.1-0.2-0.1-0.5-0.1-0.9c-0.2,0.5-0.8,1.1-2.1,1.1c-1.6,0-2.3-1.1-2.3-2.1
			c0-1.5,1.2-2.3,3.3-2.3c0.5,0,0.9,0,1.2,0V39c0-0.6-0.2-1.3-1.5-1.3c-1.2,0-1.3,0.6-1.5,1.1h-1.2c0.1-1,0.7-2,2.7-2
			c1.7,0,2.6,0.7,2.6,2.3L76.3,42.3L76.3,42.3z M75.2,40.4c-0.2,0-0.8,0-1.1,0c-1.4,0-2.1,0.4-2.1,1.3c0,0.7,0.5,1.2,1.3,1.2
			c1.7,0,1.9-1.1,1.9-2.4C75.2,40.7,75.2,40.4,75.2,40.4z"/>
		<path d="M78.9,41.8c0.2,0.8,0.8,1.2,1.7,1.2c1,0,1.4-0.4,1.4-1.1c0-0.7-0.3-1-1.6-1.3c-2-0.5-2.4-1.1-2.4-2c0-1,0.7-1.9,2.5-1.9
			c1.8,0,2.5,1,2.6,2h-1.2c-0.1-0.5-0.4-1.1-1.5-1.1c-1,0-1.3,0.5-1.3,0.9c0,0.5,0.3,0.8,1.6,1.1c2.1,0.5,2.5,1.2,2.5,2.2
			c0,1.2-1,2.1-2.7,2.1c-1.8,0-2.7-0.9-2.8-2.1L78.9,41.8L78.9,41.8z"/>
		<path d="M83.8,36.9H85v-2h1.2v2h1.5v1h-1.5v4c0,0.7,0.2,1,0.8,1c0.2,0,0.4,0,0.6-0.1v0.9c-0.3,0.1-0.7,0.1-1,0.1
			c-1.1,0-1.6-0.6-1.6-1.7v-4.3h-1.2V36.9z"/>
		<path d="M89.6,40.6c0,1.4,0.7,2.4,1.9,2.4c1.1,0,1.4-0.6,1.7-1.1h1.2c-0.3,0.9-1,2.1-2.9,2.1c-2.2,0-3.1-1.8-3.1-3.5
			c0-2,1-3.7,3.1-3.7c2.2,0,3,1.8,3,3.3c0,0.2,0,0.4,0,0.6L89.6,40.6L89.6,40.6z M93.3,39.7c0-1.1-0.6-2-1.8-2c-1.2,0-1.8,0.8-1.9,2
			H93.3z"/>
		<path d="M96.1,38.8c0-1,0-1.5,0-1.9h1.2c0,0.2,0,0.7,0,1.4c0.4-0.9,1.2-1.5,2.3-1.6v1.2c-1.4,0-2.3,0.8-2.3,2.5v3.3h-1.2
			L96.1,38.8L96.1,38.8z"/>
	</g>
</g>
</svg>
