<?xml version="1.0" encoding="utf-8"?>
<!-- Generator: Adobe Illustrator 24.1.2, SVG Export Plug-In . SVG Version: 6.00 Build 0)  -->
<svg version="1.1" id="Слой_2" xmlns="http://www.w3.org/2000/svg" xmlns:xlink="http://www.w3.org/1999/xlink" x="0px" y="0px"
	 viewBox="0 0 100 70" style="enable-background:new 0 0 100 70;" xml:space="preserve">
<style type="text/css">
	.st0{fill:#DD8390;}
</style>
<g>
	<path class="st0" d="M10.7,29.9h2.7l-4.4,9.5H5.4L1,29.9h2.7l3.5,7.6L10.7,29.9z"/>
	<path class="st0" d="M24.8,39.5h-2.4v-3h-5.8v3h-2.4l0.1-8c0,0-0.2-1.4,1.3-1.4h7.9c0,0,1.4-0.2,1.4,1.1L24.8,39.5z M22.4,32.6
		c0-0.6-0.6-0.6-0.6-0.6h-4.4c-1,0-0.8,0.5-0.8,0.5v2h5.8V32.6z"/>
	<path class="st0" d="M37.1,29.9l-4.9,4.8l4.9,4.8h-3.6l-3-3l-0.8-0.8h-1.3v3.8h-2.5V30h2.5v3.8h1.2l0.8-0.8l3-3L37.1,29.9
		L37.1,29.9z"/>
	<path class="st0" d="M47.4,36.1v0.2c0,0,0,0,0,0c0,0,0,0.8,0,0.8c0,0.1,0,0.2,0,0.3c0,0,0,0,0,0c0,0.1,0,0.2,0,0.3c0,0,0,0,0,0
		c0,0.1,0,0.2-0.1,0.2c0,0,0,0,0,0.1c0,0.1-0.1,0.1-0.1,0.2c0,0,0,0,0,0.1c0,0-0.1,0.1-0.1,0.2c0,0,0,0.1-0.1,0.1
		c0,0-0.1,0.1-0.1,0.1c0,0-0.1,0.1-0.1,0.1c0,0,0,0-0.1,0.1c-0.5,0.4-1.3,0.6-2.2,0.6h-4.3c-1,0-1.7-0.2-2.2-0.6c0,0,0,0-0.1-0.1
		c0,0-0.1-0.1-0.1-0.1c0,0-0.1-0.1-0.1-0.1c0,0,0-0.1-0.1-0.1c0,0-0.1-0.1-0.1-0.2c0,0,0,0,0-0.1c0-0.1-0.1-0.1-0.1-0.2
		c0,0,0,0,0-0.1c0-0.1,0-0.2-0.1-0.2c0,0,0,0,0,0c0-0.1,0-0.2,0-0.3c0,0,0,0,0,0c0-0.1,0-0.2,0-0.3v0v-0.8h2.2c0,0,0,0.3,0,0.3
		c0,0,0,0.1,0,0.1v0c0,0,0,0.1,0,0.1c0,0,0,0,0,0c0,0,0,0.1,0,0.1c0,0,0,0,0,0c0,0,0,0.1,0,0.1c0,0,0,0,0,0c0,0,0,0,0,0.1
		c0,0,0,0,0,0c0,0,0,0,0,0c0,0,0,0,0,0c0,0,0,0,0,0c0.2,0.2,0.5,0.3,0.9,0.3h0.3h2.8h0.3c0.3,0,0.7,0,1-0.3c0.1-0.2,0.2-0.4,0.2-0.6
		c0,0,0,0,0-0.1c0-0.2-0.2-0.5-0.3-0.6c-0.3-0.2-0.5-0.2-0.8-0.2h-0.4h-3.3H40c-0.1,0-0.2,0-0.3,0c0,0,0,0-0.1,0c-0.1,0-0.2,0-0.3,0
		c0,0,0,0,0,0c-0.3,0-0.6-0.1-0.8-0.2c0,0,0,0,0,0c-0.1,0-0.1-0.1-0.2-0.1c0,0,0,0,0,0c-0.3-0.2-0.5-0.4-0.7-0.6c0,0,0,0,0,0
		c0-0.1-0.1-0.1-0.1-0.2c0,0,0,0,0,0c-0.1-0.2-0.2-0.4-0.2-0.7c0,0,0,0,0,0c0-0.1,0-0.2,0-0.3c0,0,0,0,0-0.1c0,0,0,0,0-0.1v-0.1
		c0,0,0,0,0-0.1c0,0,0-0.8,0-0.8c0-0.1,0-0.2,0-0.3c0,0,0,0,0,0c0-0.1,0-0.2,0-0.3c0,0,0,0,0,0c0-0.1,0-0.2,0.1-0.2c0,0,0,0,0-0.1
		c0-0.1,0.1-0.1,0.1-0.2c0,0,0,0,0-0.1c0,0,0.1-0.1,0.1-0.2c0,0,0-0.1,0.1-0.1c0,0,0.1-0.1,0.1-0.1c0,0,0.1-0.1,0.1-0.1
		c0,0,0,0,0.1-0.1c0.5-0.4,1.3-0.6,2.2-0.6h4.3c1,0,1.7,0.2,2.2,0.6c0,0,0,0,0.1,0.1c0,0,0.1,0.1,0.1,0.1c0,0,0.1,0.1,0.1,0.1
		c0,0,0,0.1,0.1,0.1c0,0,0.1,0.1,0.1,0.2c0,0,0,0,0,0.1c0,0.1,0.1,0.1,0.1,0.2c0,0,0,0,0,0.1c0,0.1,0,0.1,0.1,0.2c0,0,0,0,0,0
		c0,0.1,0,0.2,0,0.3c0,0,0,0,0,0c0,0.1,0,0.2,0,0.3v0v0.8h-2.2c0,0,0-0.3,0-0.3c0,0,0-0.1,0-0.1v0c0,0,0-0.1,0-0.1c0,0,0,0,0,0
		c0,0,0-0.1,0-0.1c0,0,0,0,0,0c0,0,0-0.1,0-0.1c0,0,0,0,0,0c0,0,0,0,0-0.1c0,0,0,0,0,0c0,0,0,0,0,0c0,0,0,0,0,0c0,0,0,0,0,0
		c-0.2-0.2-0.5-0.3-0.9-0.3h-0.3h-2.8h-0.3c-0.4,0-0.9,0.1-1.1,0.5c-0.1,0.2-0.1,0.5,0,0.7c0.1,0.4,0.5,0.5,0.8,0.6c0,0,0,0,0,0
		c0,0,0.1,0,0.1,0c0,0,0,0,0,0c0,0,0.1,0,0.1,0h0.4h2.8h0.9c0.1,0,0.2,0,0.3,0c0,0,0,0,0.1,0c0.1,0,0.2,0,0.3,0c0,0,0,0,0,0
		c0.3,0,0.6,0.1,0.8,0.2c0,0,0,0,0,0c0.1,0,0.1,0.1,0.2,0.1c0,0,0,0,0,0c0.3,0.2,0.5,0.4,0.7,0.6c0,0,0,0,0,0c0,0.1,0.1,0.1,0.1,0.2
		c0,0,0,0,0,0c0.1,0.2,0.2,0.4,0.2,0.7c0,0,0,0,0,0c0,0.1,0,0.2,0,0.3C47.3,36,47.3,36,47.4,36.1C47.3,36.1,47.3,36.1,47.4,36.1
		L47.4,36.1z"/>
	<path class="st0" d="M55.1,37.8L51,32.4v7.1h-2.5v-9.5h4l2.9,4l2.4-4h4v9.5h-2.5v-7.1L55.1,37.8"/>
	<path class="st0" d="M73.2,36.1v0.2c0,0,0,0,0,0c0,0,0,0.8,0,0.8c0,0.1,0,0.2,0,0.3c0,0,0,0,0,0c0,0.1,0,0.2-0.1,0.3c0,0,0,0,0,0
		c0,0.1-0.1,0.2-0.1,0.2c0,0,0,0,0,0.1c0,0.1-0.1,0.1-0.1,0.2c0,0,0,0,0,0.1c0,0-0.1,0.1-0.1,0.2c0,0-0.1,0.1-0.1,0.1
		c0,0-0.1,0.1-0.1,0.1c0,0-0.1,0.1-0.1,0.1c0,0-0.1,0-0.1,0.1c-0.5,0.4-1.3,0.6-2.2,0.6h-4.3c-1,0-1.7-0.2-2.2-0.6c0,0,0,0-0.1-0.1
		c0,0-0.1-0.1-0.1-0.1c0,0-0.1-0.1-0.1-0.1c0,0,0-0.1-0.1-0.1c0,0-0.1-0.1-0.1-0.2c0,0,0,0,0-0.1c0-0.1-0.1-0.1-0.1-0.2
		c0,0,0,0,0-0.1c0-0.1,0-0.2-0.1-0.2c0,0,0,0,0,0c0-0.1,0-0.2,0-0.3c0,0,0,0,0,0c0-0.1,0-0.2,0-0.3v0v-0.8h2.2c0,0,0,0.3,0,0.3
		c0,0,0,0.1,0,0.1v0c0,0,0,0.1,0,0.1c0,0,0,0,0,0c0,0,0,0.1,0,0.1c0,0,0,0,0,0c0,0,0,0.1,0,0.1c0,0,0,0,0,0c0,0,0,0,0,0.1
		c0,0,0,0,0,0c0,0,0,0,0,0c0,0,0,0,0.1,0c0,0,0,0,0,0c0.2,0.2,0.5,0.3,0.9,0.3h0.3h2.8h0.3c0.3,0,0.7,0,1-0.3
		c0.1-0.2,0.2-0.4,0.2-0.6c0,0,0,0,0-0.1c0-0.2-0.2-0.5-0.3-0.6c-0.3-0.2-0.6-0.2-0.8-0.2h-0.4h-3.3h-0.3c-0.1,0-0.2,0-0.3,0
		c0,0-0.1,0-0.1,0c-0.1,0-0.2,0-0.3,0c0,0,0,0,0,0c-0.3,0-0.6-0.1-0.8-0.2c0,0,0,0,0,0c-0.1,0-0.1-0.1-0.2-0.1c0,0,0,0-0.1,0
		c-0.3-0.2-0.5-0.4-0.7-0.6c0,0,0,0,0,0c0-0.1-0.1-0.1-0.1-0.2c0,0,0,0,0,0c-0.1-0.2-0.2-0.4-0.2-0.7c0,0,0,0,0,0c0-0.1,0-0.2,0-0.3
		c0,0,0,0,0-0.1c0,0,0,0,0-0.1v-0.1c0,0,0,0,0-0.1c0,0,0-0.8,0-0.8c0-0.1,0-0.2,0-0.3c0,0,0,0,0,0c0-0.1,0-0.2,0-0.3c0,0,0,0,0,0
		c0-0.1,0-0.2,0.1-0.2c0,0,0,0,0-0.1c0-0.1,0.1-0.1,0.1-0.2c0,0,0,0,0-0.1c0,0,0.1-0.1,0.1-0.2c0,0,0-0.1,0.1-0.1
		c0,0,0.1-0.1,0.1-0.1c0,0,0.1-0.1,0.1-0.1c0,0,0,0,0.1-0.1c0.5-0.4,1.3-0.6,2.2-0.6h4.3c1,0,1.7,0.2,2.2,0.6c0,0,0.1,0,0.1,0.1
		c0,0,0.1,0.1,0.1,0.1c0,0,0.1,0.1,0.1,0.1c0,0,0.1,0.1,0.1,0.1c0,0,0.1,0.1,0.1,0.2c0,0,0,0,0,0.1c0,0.1,0.1,0.1,0.1,0.2
		c0,0,0,0,0,0.1c0,0.1,0.1,0.1,0.1,0.2c0,0,0,0,0,0c0,0.1,0,0.2,0.1,0.3c0,0,0,0,0,0c0,0.1,0,0.2,0,0.3v0v0.8h-2.2c0,0,0-0.3,0-0.3
		c0,0,0-0.1,0-0.1v0c0,0,0-0.1,0-0.1c0,0,0,0,0,0c0,0,0-0.1,0-0.1c0,0,0,0,0,0c0,0,0-0.1,0-0.1c0,0,0,0,0,0c0,0,0,0,0-0.1
		c0,0,0,0,0,0c0,0,0,0,0,0c0,0,0,0-0.1,0c0,0,0,0,0,0c-0.2-0.2-0.5-0.3-0.9-0.3h-0.3h-2.8h-0.3c-0.4,0-0.9,0.1-1.1,0.5
		c-0.1,0.2-0.1,0.5,0,0.7c0.1,0.4,0.5,0.5,0.8,0.6c0,0,0,0,0,0c0,0,0.1,0,0.1,0c0,0,0,0,0,0c0,0,0.1,0,0.1,0h0.4h2.8h0.9
		c0.1,0,0.2,0,0.3,0c0,0,0.1,0,0.1,0c0.1,0,0.2,0,0.3,0c0,0,0,0,0,0c0.3,0,0.6,0.1,0.8,0.2c0,0,0,0,0,0c0.1,0,0.1,0.1,0.2,0.1
		c0,0,0,0,0.1,0c0.3,0.2,0.5,0.4,0.7,0.6c0,0,0,0,0,0c0,0.1,0.1,0.1,0.1,0.2c0,0,0,0,0,0c0.1,0.2,0.2,0.4,0.2,0.7c0,0,0,0,0,0
		c0,0.1,0,0.2,0,0.3C73.1,36,73.1,36,73.2,36.1C73.2,36.1,73.2,36.1,73.2,36.1L73.2,36.1z"/>
	<path class="st0" d="M74,39.5v-2h2.2v2H74z"/>
	<path class="st0" d="M86.1,36.4C86.1,36.4,86.1,36.4,86.1,36.4l1.7,3.1h-2.7l-1.6-2.8h-3.9v2.8h-2.5v-9.5h1.5l0,0h5.6l0,0h0.2l0,0
		c1,0,1.7,0.2,2.2,0.6c0,0,0.1,0,0.1,0.1c0,0,0.1,0.1,0.1,0.1c0,0,0.1,0.1,0.1,0.1c0,0,0.1,0.1,0.1,0.1c0,0,0.1,0.1,0.1,0.2
		c0,0,0,0,0,0.1c0,0.1,0.1,0.1,0.1,0.2c0,0,0,0,0,0.1c0,0.1,0.1,0.1,0.1,0.2c0,0,0,0,0,0c0,0.1,0,0.2,0.1,0.3c0,0,0,0,0,0
		c0,0.1,0,0.2,0,0.3v0l0,1.7c0,0.1,0,0.2,0,0.3c0,0,0,0,0,0.1c0,0.1,0,0.2,0,0.3c0,0,0,0,0,0c-0.1,0.3-0.1,0.5-0.2,0.7c0,0,0,0,0,0
		c0,0.1-0.1,0.1-0.1,0.2c0,0,0,0,0,0c-0.2,0.3-0.4,0.5-0.7,0.6c0,0,0,0-0.1,0C86.3,36.3,86.2,36.4,86.1,36.4L86.1,36.4z M79.7,31.9
		v2.8h4h0.4c0,0,0.1,0,0.1,0c0,0,0,0,0,0c0,0,0.1,0,0.1,0c0,0,0,0,0,0c0.1,0,0.2,0,0.3-0.1c0,0,0,0,0,0c0,0,0.1,0,0.1,0c0,0,0,0,0,0
		c0.1-0.1,0.2-0.2,0.3-0.3c0,0,0,0,0,0c0,0,0,0,0.1-0.1c0,0,0,0,0,0c0-0.1,0.1-0.2,0.1-0.3c0,0,0,0,0,0c0,0,0-0.1,0-0.1c0,0,0,0,0,0
		c0,0,0-0.1,0-0.1v-0.7l0,0c0,0,0-0.1,0-0.1v0c0,0,0-0.1,0-0.1c0,0,0,0,0,0c0,0,0-0.1,0-0.1c0,0,0,0,0,0c0,0,0-0.1,0-0.1
		c0,0,0,0,0,0c0,0,0,0,0-0.1c0,0,0,0,0,0c0,0,0,0,0,0c0,0,0,0-0.1,0c0,0,0,0,0,0c-0.2-0.2-0.5-0.3-0.9-0.3l0,0h-0.3l0,0L79.7,31.9
		L79.7,31.9z"/>
	<path class="st0" d="M96.7,29.9h2.5v5.9c0,0.1,0,0.3,0,0.4c0,0,0,0.1,0,0.1c0,0.1,0,0.2,0,0.3c0,0,0,0,0,0.1
		c-0.1,0.4-0.2,0.7-0.3,1c0,0,0,0,0,0c-0.1,0.1-0.1,0.2-0.2,0.3c0,0,0,0,0,0.1c-0.3,0.3-0.6,0.6-1,0.9c0,0,0,0-0.1,0
		c-0.1,0-0.2,0.1-0.3,0.1c0,0,0,0-0.1,0c-0.3,0.1-0.7,0.2-1.1,0.3c0,0,0,0-0.1,0c-0.1,0-0.3,0-0.4,0c0,0-0.1,0-0.1,0
		c-0.1,0-0.3,0-0.4,0h-2.3c-1.4,0-2.4-0.3-3.2-0.9c0,0-0.1-0.1-0.1-0.1c-0.1-0.1-0.1-0.1-0.2-0.2c-0.1,0-0.1-0.1-0.1-0.2
		c0,0-0.1-0.1-0.1-0.1c-0.1-0.1-0.1-0.2-0.1-0.2c0,0,0-0.1-0.1-0.1c-0.1-0.1-0.1-0.2-0.1-0.3c0,0,0,0,0-0.1c0-0.1-0.1-0.2-0.1-0.3
		c0,0,0,0,0-0.1c0-0.1-0.1-0.3-0.1-0.4c0,0,0,0,0,0c0-0.1,0-0.3,0-0.4c0,0,0,0,0,0V30h2.5v5.5v0c0,0.1,0,0.2,0,0.2c0,0,0,0,0,0
		c0,0.1,0,0.1,0,0.2c0,0,0,0,0,0c0,0.1,0,0.1,0.1,0.2c0,0,0,0,0,0c0,0,0,0.1,0.1,0.2c0,0,0,0,0,0.1c0,0,0.1,0.1,0.1,0.1
		c0,0,0,0,0.1,0.1c0,0,0.1,0.1,0.1,0.1c0,0,0.1,0.1,0.1,0.1c0,0,0,0,0.1,0c0.4,0.3,0.9,0.5,1.7,0.5h1.2c0.1,0,0.2,0,0.2,0
		c0,0,0,0,0.1,0c0.1,0,0.1,0,0.2,0c0,0,0,0,0,0c0.2,0,0.4-0.1,0.6-0.2c0,0,0,0,0,0c0.1,0,0.1,0,0.2-0.1c0,0,0,0,0,0
		c0.2-0.1,0.4-0.3,0.5-0.5c0,0,0,0,0,0c0,0,0.1-0.1,0.1-0.1c0,0,0,0,0,0c0.1-0.2,0.1-0.3,0.2-0.5c0,0,0,0,0,0c0-0.1,0-0.1,0-0.2
		c0,0,0,0,0,0c0-0.1,0-0.1,0-0.2L96.7,29.9L96.7,29.9z"/>
</g>
</svg>
