<?xml version="1.0" encoding="utf-8"?>
<!-- Generator: Adobe Illustrator 24.1.2, SVG Export Plug-In . SVG Version: 6.00 Build 0)  -->
<svg version="1.1" id="Слой_2" xmlns="http://www.w3.org/2000/svg" xmlns:xlink="http://www.w3.org/1999/xlink" x="0px" y="0px"
	 viewBox="0 0 100 70" style="enable-background:new 0 0 100 70;" xml:space="preserve">
<style type="text/css">
	.st0{fill:#1051AF;}
</style>
<g>
	<g>
		<path class="st0" d="M9.4,45.3c0,0,0.1,0,0.1,0c1.7-0.3,3.2-1.1,4.4-2.4c0.1-0.1,0.1-0.2,0.2-0.2c0.1,0,0.1,0,0.1,0.1
			c0,0.3,0.1,0.5,0.1,0.8c0,0.1,0,0.3,0,0.4c0,0.1,0,0.1,0.1,0.1c0.2,0,0.4,0,0.6-0.1c1.2-0.2,2.3-0.7,3.2-1.5
			c1.1-0.9,1.8-2.1,2.1-3.5c0,0,0-0.1,0-0.2c0.2,0.2,0.6,1,0.8,1.6c0.2,0.5,0.3,0.9,0.4,1.8c0,0,0.1,0,0.1,0
			c1.2-0.7,2.3-1.5,3.2-2.5c0,0,0-0.1,0.1-0.1c0,0.1,0,0.1,0,0.2c-0.4,1.7-1.1,3.3-2.2,4.7c-1.6,2-3.6,3.3-6.1,4
			c-0.5,0.1-1.1,0.2-1.6,0.3c-0.1,0-0.1,0-0.2,0c0,0-0.1,0-0.1,0.1c0,0.2,0,0.3,0.1,0.5c0,0.3,0.1,0.6,0.1,0.8c0,0,0,0,0,0.1
			c0,0,0,0-0.1,0c-0.1,0-0.1,0-0.1,0c-1.5-0.6-2.7-1.5-3.8-2.7c-0.6-0.6-1-1.3-1.4-2C9.4,45.3,9.4,45.3,9.4,45.3z"/>
		<path class="st0" d="M7.3,36C7.2,36,7.2,35.9,7.3,36c-0.5-0.8-0.9-1.5-1-2.3c-0.1-0.3-0.1-0.5-0.1-0.8c0-0.1,0-0.1,0-0.2
			c0,0,0,0-0.1,0c0,0,0,0-0.1,0c-1,0.6-2,1.3-2.8,2.1c-0.1,0.1-0.3,0.3-0.4,0.4c0,0,0-0.1,0-0.1c0.1-0.4,0.2-0.8,0.3-1.2
			c1.2-3.6,4-6.4,7.7-7.4c0.6-0.2,1.2-0.3,1.8-0.4c0,0,0.1,0,0.1,0c0.2,0,0.2,0,0.1-0.2c0-0.4-0.1-0.8-0.1-1.1c0-0.1,0-0.2,0-0.3
			c0.1,0,0.1,0,0.1,0c1.1,0.4,2,1,2.8,1.7c0.9,0.8,1.6,1.7,2.3,2.7c0.1,0.1,0.1,0.2,0.2,0.3c0,0.1,0,0.1,0,0.1
			c-0.3,0-0.6,0.1-0.9,0.2c-1.2,0.3-2.3,1-3.2,1.9c-0.2,0.2-0.3,0.3-0.5,0.5c0,0,0,0,0,0c-0.1,0-0.1,0-0.1,0c0,0,0,0,0-0.1
			c0-0.3-0.1-0.5-0.1-0.8c0-0.1,0-0.2,0-0.4c0-0.1,0-0.1-0.1-0.1c-0.2,0-0.4,0-0.6,0.1c-2,0.4-3.7,1.6-4.6,3.4
			c-0.3,0.5-0.5,1-0.6,1.6C7.3,35.9,7.3,35.9,7.3,36C7.3,35.9,7.3,36,7.3,36z"/>
		<path class="st0" d="M26.5,36.2c0,0.1,0,0.1-0.1,0.2c-0.5,1.3-1.3,2.4-2.3,3.4c-0.7,0.7-1.5,1.3-2.3,1.8c0,0-0.1,0-0.1,0
			c0,0,0-0.1,0-0.1c-0.2-1.4-0.8-2.6-1.7-3.6c-0.2-0.3-0.5-0.5-0.8-0.8c0,0,0,0,0,0c0,0,0,0,0,0c0,0,0,0,0,0c0.2,0,0.5,0,0.7-0.1
			c0.1,0,0.3,0,0.4,0c0.1,0,0.1,0,0.1-0.1c0-0.3-0.1-0.6-0.1-0.9c-0.6-2.3-2.3-4.2-4.6-4.8c-0.1,0-0.2-0.1-0.3-0.1c0,0,0,0-0.1,0
			c0.2-0.2,1-0.6,1.6-0.8c0.6-0.2,1.1-0.3,1.7-0.4c0,0,0-0.1,0-0.1c-0.7-1.2-1.4-2.2-2.4-3.2c0,0-0.1,0-0.1-0.1
			c0.2,0,0.4,0.1,0.6,0.1c3.9,1,7,4.1,8,7.9c0.1,0.5,0.3,1.1,0.3,1.7c0,0.1,0,0.2,0,0.2c0,0,0,0,0,0c0,0,0.1,0,0.1,0
			c0.4,0,0.7-0.1,1.1-0.1C26.3,36.2,26.4,36.2,26.5,36.2z"/>
		<path class="st0" d="M12.3,43.8c-0.5,0.3-1.1,0.6-1.6,0.8C10.1,44.8,9.5,45,8.9,45c0,0.1,0.1,0.2,0.2,0.3s0.1,0.2,0.2,0.3
			c0.1,0.1,0.1,0.2,0.2,0.3c0.1,0.1,0.1,0.2,0.2,0.3c0.1,0.1,0.1,0.2,0.2,0.3s0.1,0.2,0.2,0.3c0.1,0.1,0.1,0.2,0.2,0.3
			c0.1,0.1,0.2,0.2,0.3,0.3c0.1,0.1,0.2,0.2,0.3,0.3c0.1,0.1,0.2,0.2,0.3,0.3s0.2,0.2,0.3,0.3c-0.2,0-0.4-0.1-0.6-0.1
			c-3.9-1-6.9-4.1-7.9-7.9c-0.2-0.6-0.3-1.1-0.3-1.7c0-0.2,0-0.2-0.2-0.2c-0.4,0-0.8,0.1-1.1,0.1c-0.1,0-0.1,0-0.2,0
			c0-0.1,0-0.1,0-0.2c0.4-0.9,0.9-1.8,1.5-2.5c0.8-1,1.7-1.8,2.8-2.4c0.2-0.1,0.3-0.2,0.5-0.3c0,0,0,0.1,0.1,0.1
			c0.3,1.7,1,3.1,2.3,4.2c0.1,0.1,0.2,0.2,0.3,0.3c0,0,0,0,0,0c0,0,0,0,0,0c-0.1,0-0.3,0-0.4,0c-0.2,0-0.5,0-0.7,0.1
			c-0.1,0-0.1,0-0.1,0.1c0,0.2,0,0.4,0.1,0.6c0.4,2,1.5,3.5,3.2,4.5c0.5,0.3,1.1,0.5,1.7,0.7C12.1,43.8,12.2,43.8,12.3,43.8z"/>
	</g>
	<g>
		<path d="M55.4,45c-0.6,0-1.2,0-1.8,0V34.6h1.8v0.6c0.1,0,0.4-0.2,0.5-0.3c0.7-0.3,1.5-0.5,2.3-0.4c2.2,0.2,3.1,2.1,2.6,4
			c-0.2,0.7-0.6,1.2-1.1,1.7c-0.9,0.8-2.2,1.3-3.5,1.3c0-0.1,0-0.3,0-0.4c0.5-0.2,0.9-0.3,1.3-0.5c1.7-0.9,1.9-2.7,1.2-4.1
			c-0.3-0.7-1-1.1-1.9-1.1c-0.4,0-0.9,0.2-1.4,0.3c0,0.3,0,0.7,0,1L55.4,45z"/>
		<path d="M52.3,34.7c-0.3,2-0.5,4-0.8,6c-0.3,2.2-1.5,3.6-3.7,4.3c-0.5,0.1-1,0.2-1.5,0l0.4-0.5c2.4-0.3,2.9-2.7,2.9-2.7
			c-1.1-0.7-2.1-1.3-3.1-1.9c-0.5-0.3-1-0.8-1.3-1.3c-0.7-0.8-0.7-1.8-0.2-2.7c0.5-0.8,1.5-1.3,2.8-1l0.3,0.7l-0.5,0.2
			c-3.5,1.5,2.1,5,2.1,5s0.5-5.5,0.5-6L52.3,34.7z"/>
		<path d="M37.1,32.6c-0.2,0.2-0.3,0.3-0.5,0.4c-0.3-0.2-0.7-0.4-1-0.6c-0.8-0.5-1.6-0.5-2.5-0.3c-0.8,0.2-1.4,0.6-1.7,1.4
			c-0.7,1.6-0.8,3.3-0.4,5c0.1,0.5,0.4,0.9,0.6,1.3c1,1.2,2.9,1.5,4.2,0.7c0.4-0.2,0.7-0.5,1.2-0.8c0.2,0.2,0.3,0.3,0.5,0.4
			c-0.7,0.8-1.1,1.2-1.8,1.5c-1.8,0.8-3.4,0.5-5-0.6c-1.2-0.8-1.8-1.9-1.9-3.3c-0.1-1.3,0-2.5,0.6-3.6c1.1-2.2,3.9-3.6,6.6-2.3
			C36,31.6,36.7,32,37.1,32.6z"/>
		<path d="M82.2,41.6c0.2-0.9,0.4-1.7,0.6-2.5c0.1-0.7,0.2-1.4,0.2-2c0-1.3-1-2.3-2.2-2.5c-1-0.2-1.9,0-2.8,0.4l-0.6,0.2v-0.6
			l-1.6,0.1c0,2.3,0,4.6,0,6.9c0.6,0,1.1,0,1.7,0c0-1.9,0-3.8,0-5.6c1-0.5,1.9-0.7,2.9-0.2c0.4,0.4,0.6,0.8,0.7,1.3
			c0.2,1.2,0.3,2.3,0,3.5l-0.3,1L82.2,41.6z"/>
		<path d="M95.2,38.8l1.9,2.8c0.7,0,1.3,0,1.9,0c-0.5-0.7-0.9-1.4-1.4-2l-1.5-1.9l2.4-3c-0.3,0-0.5,0-0.7,0c-0.6,0.8-1.2,1.5-2,2.4
			c-0.6-0.9-1.2-1.7-1.7-2.4h-2l2.6,3.8c-0.8,1-1.6,2-2.5,3.2l0.7,0l0.4-0.6"/>
		<path d="M66.3,41.7c-0.6,0.1-1.2,0.1-1.7-0.1c-1.4-0.4-1.8-1.4-1.8-2.3c0-1.3,0-2.5,0-4l-1.2-0.1v-0.7h1.1c0-0.6,0-1.3,0-1.9
			c0.6,0,1.1,0,1.7,0l0.1,0v1.8h1.3v0.7h-1.3c-0.4,5.7,0.4,5.6,0.4,5.6s0.3,0.4,1.2,0.1L66.3,41.7z"/>
		<path d="M38.9,34.6v6.8l2,0c0-1.9,0-3.8,0-5.7c0.9-0.2,1.7-0.2,2.5,0.3c0.3-0.4,0.2-0.2,0.7-1.1c-1-0.7-2.2-0.4-3.2,0.1v-0.5
			L38.9,34.6z"/>
	</g>
	<path d="M70.3,34.1c0,0-3.7,0.4-3.5,4.1c0,0,0.2,2.7,3.5,3.1l-0.1-0.6c0,0-2.3-1.2-1.7-4c0,0,0.2-1.4,1.8-1.8c0,0,1.5-0.2,1.9,1.5
		c0,0,1.1,4-2.1,4.4l0.1,0.6c0,0,3.6,0.5,3.8-3.6C74.2,37.7,74.4,33.8,70.3,34.1z"/>
	<path d="M86.9,37.2h2.9c0,0,0-2.7-1.9-2.5c0,0-1.8,0.1-1.8,3c0,0-0.2,2.7,1.4,3.1c0,0,2.1,0.4,2.9-1l0.6,0.2c0,0-2.3,2.9-5.2,0.8
		c0,0-2.5-1.7-1-5c0,0,1.5-2.9,4.3-1.7c0,0,2.1,0.6,2.5,3.7l-4.9,0L86.9,37.2z"/>
	<path d="M69.4,40.1c0,0,0.7,0.9,1.9,0.4c1.2-0.6,0.1,0.4,0.1,0.4h-1.7L69.4,40.1z"/>
</g>
</svg>
