<?xml version="1.0" encoding="utf-8"?>
<!-- Generator: Adobe Illustrator 24.1.2, SVG Export Plug-In . SVG Version: 6.00 Build 0)  -->
<svg version="1.1" id="Слой_2" xmlns="http://www.w3.org/2000/svg" xmlns:xlink="http://www.w3.org/1999/xlink" x="0px" y="0px"
	 viewBox="0 0 100 70" style="enable-background:new 0 0 100 70;" xml:space="preserve">
<style type="text/css">
	.st0{fill:#FE7E37;}
</style>
<g>
	<path class="st0" d="M69.3,35.5c-0.4,0.8-0.8,1.6-1.3,2.4c-1.6,3-3.1,6-4.7,8.9c-0.7,1.2-1.7,1.8-3.1,1.7c-1.6-0.1-2.7-1.5-2.7-3.3
		c0-3,0-6,0-9c0-0.2,0-0.4,0-0.6c0,0-0.1,0-0.1,0c-0.4,0.7-0.8,1.4-1.2,2.2c-1.8,3.4-3.7,6.7-5.6,10.1c-0.1,0.3-0.3,0.4-0.6,0.4
		c-1.4,0-2.7,0-4.1,0c-0.3,0-0.4-0.1-0.4-0.4c0-7,0-13.9,0-20.8c0-0.4,0.1-0.4,0.5-0.4c1.4,0,2.8,0,4.1,0c0.4,0,0.5,0.2,0.5,0.5
		c0,3.7,0,7.4,0,11c0,0.2,0,0.4,0,0.7c0.4-0.4,0.5-0.9,0.8-1.3c1.8-3.2,3.5-6.5,5.3-9.7c0.7-1.3,2.1-1.9,3.5-1.5
		c1.3,0.3,2.2,1.5,2.2,3c0,3.1,0,6.1,0,9.2c0,0.2,0,0.4,0,0.6c0,0,0.1,0,0.1,0c0.3-0.5,0.6-1,0.8-1.6c1.7-3.2,3.4-6.4,5.1-9.6
		c0.7-1.3,2.1-1.9,3.5-1.6c1.3,0.3,2.2,1.5,2.3,3c0,0.2,0,0.4,0,0.6c0,5.9,0,11.8,0,17.8c0,0.5-0.2,0.7-0.7,0.7c-1.2,0-2.5,0-3.7,0
		c-0.4,0-0.6-0.1-0.6-0.5c0-3.9,0-7.7,0-11.6c0-0.2,0-0.4,0-0.5C69.4,35.5,69.3,35.5,69.3,35.5z"/>
	<path class="st0" d="M14.8,39.4c-2.7,0-5.3,0-8,0c-0.5,0-0.6,0.1-0.4,0.6c0.6,2,2.1,3.1,4,3.5c3.1,0.7,5.9,0.2,8.3-2
		c0.2-0.2,0.4-0.3,0.6,0c0.9,0.8,1.9,1.6,2.8,2.4c0.3,0.3,0.3,0.4,0,0.7c-2.4,2.6-5.3,3.8-8.8,4c-2.4,0.1-4.8-0.3-7-1.5
		c-3-1.7-4.7-4.4-5.2-7.8C0.8,37,1,34.8,1.8,32.7c1.4-3.7,4.1-5.8,8-6.5c2.3-0.4,4.7-0.3,6.9,0.5c3.8,1.3,5.9,4.1,6.6,8.1
		c0.2,1.4,0.2,2.8,0.1,4.2c0,0.4-0.2,0.5-0.5,0.5C20.2,39.4,17.5,39.4,14.8,39.4z M6.2,35.2c1.2,0,2.3,0,3.3,0c2.8,0,5.6,0,8.5,0
		c0.2,0,0.5,0.1,0.4-0.3c-0.4-1.5-1.2-2.7-2.7-3.4c-2.2-1-4.5-1-6.7,0C7.4,32.2,6.6,33.5,6.2,35.2z"/>
	<path class="st0" d="M87.6,26c2.2,0,4.3,0.4,6.3,1.5c2.3,1.3,3.8,3.3,4.6,5.9c0.8,2.7,0.8,5.4-0.2,8.1c-1.1,3.1-3.2,5.2-6.3,6.3
		c-2.9,1-5.8,1-8.7,0c-4-1.3-6.2-4.2-6.9-8.3c-0.4-2.4-0.3-4.8,0.7-7.2c1.4-3.4,3.9-5.3,7.4-6.1C85.5,26.1,86.5,26,87.6,26z
		 M87.6,43.6c0.3,0,0.7,0,1,0c2.8-0.2,4.6-1.7,5.2-4.4c0.3-1.4,0.3-2.8-0.1-4.2c-0.5-2-1.8-3.3-3.8-3.8c-1.5-0.4-3.1-0.4-4.6,0
		c-1.8,0.5-3.1,1.5-3.7,3.3c-0.6,1.8-0.6,3.6-0.1,5.4c0.5,1.7,1.7,2.9,3.4,3.4C85.8,43.6,86.7,43.7,87.6,43.6z"/>
	<path class="st0" d="M22.2,26.4c0.3,0,0.7,0,1,0c1.6,0,3.1,0,4.7,0c0.3,0,0.5,0.1,0.7,0.4c1.3,1.9,2.7,3.8,4,5.7
		c0.3,0.4,0.4,0.3,0.6,0c1.3-1.9,2.6-3.8,4-5.7c0.1-0.2,0.2-0.4,0.5-0.4c1.8,0,3.7,0,5.5,0c0,0,0.1,0,0.2,0.1
		c-0.7,0.9-1.3,1.8-1.9,2.7c-1.7,2.4-3.4,4.8-5.1,7.2c-0.3,0.4-0.2,0.6,0,0.9c2.4,3.4,4.7,6.9,7.1,10.3c0.1,0.1,0.2,0.3,0.3,0.4
		c-0.1,0.2-0.3,0.1-0.4,0.1c-1.8,0-3.6,0-5.3,0c-0.3,0-0.5-0.1-0.7-0.4c-1.4-2.1-2.9-4.1-4.3-6.2c-0.1-0.1-0.2-0.2-0.3-0.3
		c-0.2,0.1-0.3,0.3-0.4,0.4c-1.5,2-2.9,4.1-4.4,6.1c-0.1,0.2-0.2,0.3-0.5,0.3c-1.9,0-3.8,0-5.8,0c0.5-0.8,1-1.5,1.5-2.2
		c2-2.8,4-5.7,6-8.5c0.2-0.3,0.3-0.5,0-0.9c-2.3-3.2-4.6-6.4-6.9-9.5C22.4,26.8,22.2,26.7,22.2,26.4z"/>
</g>
</svg>
