<?xml version="1.0" encoding="utf-8"?>
<!-- Generator: Adobe Illustrator 24.1.2, SVG Export Plug-In . SVG Version: 6.00 Build 0)  -->
<svg version="1.1" id="Слой_2" xmlns="http://www.w3.org/2000/svg" xmlns:xlink="http://www.w3.org/1999/xlink" x="0px" y="0px"
	 viewBox="0 0 100 70" style="enable-background:new 0 0 100 70;" xml:space="preserve">
<style type="text/css">
	.st0{fill:#FEAE02;}
	.st1{fill:#FEAF05;}
</style>
<g>
	<g>
		<path class="st0" d="M23.3,40.1c0,1.8,0,3.6,0,5.4c0,1.6-1.1,2.8-2.6,2.8c-1.5,0-2.7-1.2-2.7-2.8c0-3.4,0-6.8,0-10.2
			c0-1.9-1.1-2.9-2.9-2.9c-1.1,0-2.2,0-3.2,0c-1.5,0-2.7-1.2-2.7-2.7c0-1.5,1.2-2.6,2.7-2.6c1.9,0,3.7-0.2,5.6,0.3
			c3.4,0.9,5.9,4,5.9,7.5C23.3,36.6,23.3,38.3,23.3,40.1z"/>
		<path class="st0" d="M7.3,41.2c0,1.4,0,2.9,0,4.3c0,1.6-1.1,2.8-2.6,2.8c-1.5,0-2.7-1.2-2.7-2.8c0-2.8,0-5.7,0-8.5
			c0-1.6,1.1-2.8,2.6-2.8c1.5,0,2.7,1.2,2.7,2.8C7.3,38.4,7.3,39.8,7.3,41.2z"/>
		<path class="st1" d="M7.3,29.7c0,1.5-1.2,2.7-2.6,2.7c-1.5,0-2.7-1.2-2.7-2.7C2,28.2,3.2,27,4.7,27C6.2,27,7.3,28.2,7.3,29.7z"/>
	</g>
	<g>
		<path d="M26,32.9h1.4v9.8H26V32.9z"/>
		<path d="M37.2,38.4v4.3h-1.3v-4.1c0-1.5-0.7-2.2-2-2.2c-1.4,0-2.3,0.8-2.3,2.5v3.8h-1.3v-7.4h1.3v1.1c0.5-0.8,1.5-1.2,2.7-1.2
			C35.9,35.2,37.2,36.2,37.2,38.4z"/>
		<path d="M46.1,35.3l-3.2,7.4h-1.4l-3.2-7.4h1.4l2.5,5.9l2.6-5.9H46.1z"/>
		<path d="M53.8,39.4h-6c0.2,1.3,1.2,2.2,2.7,2.2c0.9,0,1.6-0.3,2.1-0.9l0.7,0.9c-0.7,0.8-1.7,1.2-2.9,1.2c-2.4,0-4-1.6-4-3.8
			c0-2.2,1.6-3.8,3.7-3.8s3.7,1.5,3.7,3.8C53.8,39.1,53.8,39.3,53.8,39.4z M47.8,38.4h4.7c-0.1-1.2-1.1-2.1-2.4-2.1
			C48.9,36.3,47.9,37.2,47.8,38.4z"/>
		<path d="M54.7,41.9l0.6-1.1c0.6,0.5,1.6,0.8,2.6,0.8c1.2,0,1.8-0.4,1.8-1c0-1.7-4.7-0.2-4.7-3.2c0-1.3,1.2-2.2,3.1-2.2
			c1,0,2,0.3,2.7,0.7l-0.6,1.1c-0.7-0.4-1.4-0.6-2.1-0.6c-1.2,0-1.7,0.4-1.7,1c0,1.7,4.7,0.3,4.7,3.2c0,1.3-1.2,2.2-3.2,2.2
			C56.5,42.7,55.3,42.4,54.7,41.9z"/>
		<path d="M66.8,42.2c-0.4,0.3-1,0.5-1.6,0.5c-1.5,0-2.3-0.8-2.3-2.3v-4.1h-1.3v-1.1h1.3v-1.6h1.3v1.6h2.1v1.1h-2.1v4
			c0,0.8,0.4,1.2,1.2,1.2c0.4,0,0.8-0.1,1.1-0.3L66.8,42.2z"/>
		<path d="M67.5,39c0-2.2,1.6-3.8,3.8-3.8s3.8,1.6,3.8,3.8c0,2.2-1.6,3.8-3.8,3.8C69.1,42.7,67.5,41.2,67.5,39z M73.8,39
			c0-1.6-1.1-2.6-2.5-2.6c-1.4,0-2.5,1-2.5,2.6c0,1.6,1.1,2.6,2.5,2.6C72.7,41.6,73.8,40.5,73.8,39z"/>
		<path d="M81,35.2v1.3c-0.1,0-0.2,0-0.3,0c-1.4,0-2.3,0.9-2.3,2.5v3.7H77v-7.4h1.3v1.2C78.8,35.6,79.7,35.2,81,35.2z"/>
		<path d="M82.4,33c0-0.5,0.4-0.9,0.9-0.9c0.5,0,0.9,0.4,0.9,0.8c0,0.5-0.4,0.9-0.9,0.9C82.8,33.8,82.4,33.5,82.4,33z M82.6,35.3H84
			v7.4h-1.3V35.3z"/>
		<path d="M90.7,42.2c-0.4,0.3-1,0.5-1.6,0.5c-1.5,0-2.3-0.8-2.3-2.3v-4.1h-1.3v-1.1h1.3v-1.6H88v1.6h2.1v1.1H88v4
			c0,0.8,0.4,1.2,1.2,1.2c0.4,0,0.8-0.1,1.1-0.3L90.7,42.2z"/>
		<path d="M98.7,35.3l-3.6,8.1c-0.7,1.6-1.5,2-2.6,2c-0.7,0-1.4-0.2-1.9-0.7l0.6-1c0.4,0.3,0.8,0.5,1.3,0.5c0.6,0,1.1-0.3,1.4-1.1
			l0.2-0.5l-3.3-7.4h1.4l2.6,5.9l2.6-5.9H98.7z"/>
	</g>
</g>
</svg>
