<?xml version="1.0" encoding="utf-8"?>
<!-- Generator: Adobe Illustrator 24.1.2, SVG Export Plug-In . SVG Version: 6.00 Build 0)  -->
<svg version="1.1" id="Слой_2" xmlns="http://www.w3.org/2000/svg" xmlns:xlink="http://www.w3.org/1999/xlink" x="0px" y="0px"
	 viewBox="0 0 100 70" style="enable-background:new 0 0 100 70;" xml:space="preserve">
<style type="text/css">
	.st0{fill:#404757;}
	.st1{fill:#379FFE;}
	.st2{fill:none;stroke:#FFFFFF;stroke-width:0.3052;stroke-linecap:round;stroke-linejoin:round;stroke-miterlimit:10;}
	.st3{fill:#FFFFFF;}
</style>
<g>
	<g>
		<path class="st0" d="M29.3,40.5c-0.2,0.1-0.5,0.1-0.8,0.2c-0.3,0-0.6,0.1-0.9,0.1c-0.7,0-1.3-0.1-1.7-0.3c-0.5-0.2-0.8-0.6-1-1
			c-0.1-0.3-0.2-0.7-0.2-1.3v-4.4h-1.6v-1.7h1.6v-2.4h2.1v2.4h2.4v1.7h-2.4v4.1c0,0.3,0,0.6,0.1,0.7c0.2,0.3,0.5,0.4,1,0.4
			c0.2,0,0.5,0,0.7-0.1c0.2,0,0.5-0.1,0.7-0.1V40.5z"/>
		<path class="st0" d="M38.9,36.3c0,0.7-0.1,1.3-0.3,1.8c-0.2,0.5-0.5,1-0.8,1.4c-0.4,0.4-0.8,0.7-1.3,0.9c-0.5,0.2-1.1,0.3-1.8,0.3
			c-0.7,0-1.3-0.1-1.8-0.3c-0.5-0.2-1-0.5-1.3-0.9c-0.4-0.4-0.6-0.8-0.8-1.4c-0.2-0.5-0.3-1.2-0.3-1.8s0.1-1.3,0.3-1.8
			c0.2-0.5,0.5-1,0.9-1.4c0.4-0.4,0.8-0.7,1.3-0.9c0.5-0.2,1.1-0.3,1.8-0.3c0.7,0,1.3,0.1,1.8,0.3c0.5,0.2,1,0.5,1.3,0.9
			c0.4,0.4,0.6,0.8,0.8,1.4C38.8,35,38.9,35.6,38.9,36.3z M36.8,36.3c0-0.5,0-0.8-0.2-1.2c-0.1-0.3-0.3-0.6-0.4-0.9
			c-0.2-0.2-0.4-0.4-0.7-0.5c-0.3-0.1-0.5-0.2-0.8-0.2c-0.3,0-0.6,0.1-0.8,0.2c-0.3,0.1-0.5,0.3-0.7,0.5s-0.3,0.5-0.4,0.9
			s-0.2,0.7-0.2,1.2c0,0.5,0,0.8,0.2,1.2c0.1,0.3,0.3,0.6,0.4,0.9s0.4,0.4,0.7,0.5s0.5,0.2,0.8,0.2c0.3,0,0.6-0.1,0.8-0.2
			s0.5-0.3,0.7-0.5c0.2-0.2,0.3-0.5,0.4-0.9C36.7,37.1,36.8,36.7,36.8,36.3z"/>
		<path class="st0" d="M40.8,27.9h2.1v7.6h0l3.2-3.4h2.5L45,36l3.7,4.5h-2.5l-3.3-3.9h0v3.9h-2.1L40.8,27.9L40.8,27.9z"/>
		<path class="st0" d="M53.9,39.1c0.4,0,0.8,0,1.3-0.1c0.4-0.1,0.9-0.2,1.3-0.3v1.6c-0.3,0.1-0.7,0.2-1.2,0.3
			c-0.5,0.1-1.1,0.2-1.7,0.2c-0.6,0-1.2-0.1-1.7-0.2c-0.5-0.2-1-0.4-1.4-0.7s-0.7-0.8-1-1.3s-0.3-1.2-0.3-2s0.1-1.4,0.3-2
			c0.2-0.6,0.5-1,0.9-1.4s0.8-0.7,1.3-0.8c0.5-0.2,1-0.3,1.5-0.3c0.5,0,1,0.1,1.5,0.2s0.8,0.4,1.2,0.8c0.3,0.3,0.6,0.8,0.8,1.3
			s0.3,1.2,0.3,1.9c0,0.3,0,0.5,0,0.7h-5.5c0,0.4,0.1,0.7,0.3,1s0.3,0.5,0.6,0.7s0.5,0.3,0.8,0.4C53.2,39,53.5,39.1,53.9,39.1z
			 M53.1,33.5c-0.3,0-0.5,0-0.7,0.1c-0.2,0.1-0.4,0.2-0.5,0.4c-0.2,0.2-0.3,0.4-0.3,0.6c-0.1,0.2-0.1,0.5-0.2,0.7h3.3
			c0-0.3,0-0.5-0.1-0.7s-0.2-0.4-0.3-0.6s-0.3-0.3-0.5-0.4C53.6,33.5,53.3,33.5,53.1,33.5z"/>
		<path class="st0" d="M60.6,33.3L60.6,33.3c0.1-0.2,0.3-0.3,0.5-0.5c0.2-0.2,0.4-0.3,0.6-0.4c0.2-0.1,0.5-0.2,0.8-0.3
			s0.6-0.1,0.9-0.1c0.3,0,0.6,0,0.9,0.1c0.3,0.1,0.6,0.2,0.8,0.3s0.4,0.3,0.6,0.6s0.3,0.5,0.4,0.8c0.1,0.2,0.1,0.4,0.1,0.6
			c0,0.2,0,0.5,0,0.7v5.5h-2.1v-5.2c0-0.2,0-0.4,0-0.6s-0.1-0.3-0.1-0.4c-0.1-0.3-0.3-0.5-0.5-0.6c-0.2-0.1-0.5-0.2-0.8-0.2
			c-0.4,0-0.8,0.1-1.2,0.3c-0.4,0.2-0.7,0.5-1,0.8v5.8h-2.1v-8.4c0,0,1.8,0,1.8,0L60.6,33.3z"/>
	</g>
	<g>
		<path class="st0" d="M69.5,34.2c0,0.2,0.1,0.4,0.1,0.6c0.1,0.1,0.2,0.3,0.4,0.3c0.2,0.1,0.3,0.2,0.6,0.2s0.4,0.1,0.7,0.2
			c0.3,0.1,0.6,0.2,0.9,0.2c0.3,0.1,0.5,0.2,0.8,0.4c0.2,0.2,0.4,0.4,0.6,0.7c0.1,0.3,0.2,0.7,0.2,1.1c0,0.4-0.1,0.8-0.2,1.1
			c-0.2,0.3-0.4,0.6-0.7,0.8s-0.7,0.4-1.1,0.5c-0.4,0.1-0.9,0.2-1.4,0.2c-0.3,0-0.6,0-0.8,0c-0.3,0-0.5-0.1-0.7-0.1
			s-0.3-0.1-0.5-0.2c-0.1,0-0.2-0.1-0.3-0.2v-1.1c0.3,0.1,0.7,0.3,1,0.3s0.7,0.1,1.1,0.1c0.3,0,0.6,0,0.9-0.1
			c0.3-0.1,0.5-0.1,0.7-0.3c0.2-0.1,0.3-0.3,0.4-0.4c0.1-0.2,0.2-0.4,0.2-0.6s-0.1-0.4-0.1-0.6s-0.2-0.3-0.4-0.4
			c-0.2-0.1-0.3-0.2-0.5-0.2s-0.4-0.1-0.6-0.2c-0.3-0.1-0.6-0.1-0.9-0.2c-0.3-0.1-0.6-0.2-0.8-0.4c-0.2-0.2-0.4-0.4-0.6-0.6
			c-0.2-0.3-0.2-0.6-0.2-1c0-0.4,0.1-0.8,0.2-1.1c0.2-0.3,0.4-0.6,0.6-0.8c0.3-0.2,0.6-0.4,0.9-0.5s0.7-0.2,1.1-0.2
			c0.5,0,0.9,0,1.3,0.1c0.4,0.1,0.8,0.2,1.1,0.3v1.2c-0.3-0.1-0.7-0.2-1-0.3c-0.3-0.1-0.7-0.1-1.1-0.1c-0.3,0-0.6,0-0.8,0.1
			c-0.2,0.1-0.4,0.2-0.5,0.3c-0.1,0.1-0.2,0.3-0.3,0.4C69.5,33.8,69.5,34,69.5,34.2z"/>
		<path class="st0" d="M77,32.9c0,0,0.2-0.2,0.3-0.3s0.3-0.2,0.5-0.3c0.2-0.1,0.4-0.2,0.7-0.3c0.3-0.1,0.6-0.1,0.9-0.1
			c0.5,0,0.9,0.1,1.3,0.2c0.4,0.2,0.8,0.4,1.1,0.8s0.6,0.8,0.8,1.3c0.2,0.5,0.3,1.2,0.3,2c0,0.6-0.1,1.1-0.2,1.5
			c-0.1,0.4-0.3,0.8-0.4,1.2c-0.2,0.3-0.4,0.6-0.7,0.8s-0.5,0.4-0.8,0.5s-0.5,0.2-0.8,0.3c-0.3,0.1-0.5,0.1-0.8,0.1
			c-0.5,0-0.9-0.1-1.3-0.3s-0.7-0.4-1-0.7h0v4.8h-1.3V32H77L77,32.9z M81.6,36c0-0.5-0.1-0.9-0.2-1.3c-0.1-0.4-0.3-0.7-0.5-1
			c-0.2-0.3-0.4-0.5-0.8-0.6s-0.6-0.2-1-0.2c-0.3,0-0.5,0-0.8,0.1c-0.2,0.1-0.4,0.2-0.6,0.3c-0.2,0.1-0.3,0.2-0.5,0.4
			c-0.1,0.1-0.2,0.3-0.3,0.4v4.3c0.3,0.3,0.6,0.5,1,0.7s0.8,0.3,1.2,0.3c0.3,0,0.5,0,0.8-0.1c0.3-0.1,0.6-0.3,0.8-0.5
			c0.2-0.3,0.4-0.6,0.6-1C81.5,37.2,81.6,36.7,81.6,36z"/>
		<path class="st0" d="M92.5,36.1c0,0.7-0.1,1.2-0.3,1.8s-0.4,1-0.8,1.4c-0.3,0.4-0.8,0.7-1.2,0.9c-0.5,0.2-1,0.3-1.6,0.3
			c-0.6,0-1.2-0.1-1.7-0.3c-0.5-0.2-0.9-0.5-1.2-0.9c-0.3-0.4-0.6-0.8-0.8-1.4s-0.3-1.1-0.3-1.8s0.1-1.3,0.3-1.8s0.4-1,0.8-1.4
			c0.3-0.4,0.8-0.7,1.2-0.9s1-0.3,1.6-0.3c0.6,0,1.2,0.1,1.6,0.3c0.5,0.2,0.9,0.5,1.2,0.9c0.3,0.4,0.6,0.8,0.8,1.4
			C92.4,34.9,92.5,35.5,92.5,36.1z M91.1,36.1c0-0.5-0.1-1-0.2-1.4c-0.1-0.4-0.3-0.7-0.5-1c-0.2-0.3-0.5-0.5-0.8-0.6
			c-0.3-0.1-0.6-0.2-1-0.2s-0.7,0.1-1,0.2c-0.3,0.1-0.6,0.3-0.8,0.6c-0.2,0.3-0.4,0.6-0.5,1c-0.1,0.4-0.2,0.8-0.2,1.4
			c0,0.5,0.1,1,0.2,1.3c0.1,0.4,0.3,0.7,0.5,1c0.2,0.3,0.5,0.5,0.8,0.6c0.3,0.1,0.6,0.2,1,0.2s0.7-0.1,1-0.2s0.6-0.3,0.8-0.6
			s0.4-0.6,0.5-1C91,37.1,91.1,36.6,91.1,36.1z"/>
		<path class="st0" d="M99,40.3c-0.1,0-0.3,0.1-0.5,0.1s-0.5,0.1-0.8,0.1c-0.4,0-0.8,0-1.1-0.2s-0.6-0.3-0.8-0.5
			c-0.2-0.2-0.4-0.4-0.5-0.7c-0.1-0.3-0.2-0.6-0.2-1v-5h-1.6V32h1.6v-2.3h1.3V32h2.5v1.2h-2.5V38c0,0.2,0,0.4,0.1,0.5
			s0.1,0.3,0.3,0.4s0.3,0.2,0.5,0.3s0.4,0.1,0.7,0.1c0.2,0,0.4,0,0.6,0c0.2,0,0.4-0.1,0.6-0.1V40.3z"/>
	</g>
	<path class="st1" d="M11.5,28.9c0,0-1.3-0.3-2.6,0c0,0-1.6-2.7-2.9-3c0,0-2-0.6-2.5,2.5c0,0-0.3,2.3,0.3,3.9c0,0-1.2,2.2,0,4.6
		c0,0,1,2.7,4,2.7c0,0,6.8,0.6,7.9-1.3c0,0,2-2,0.9-5.5c0,0,0.3-4.5,0-5.5c0,0-0.4-1.6-1.9-1.4C14.8,25.9,13.2,26,11.5,28.9z"/>
	<path class="st1" d="M8.8,40.9c0,0-2.9,0-4.6-0.9c0,0-1.6-0.6-2.7,1.2c0,0-0.9,1.4,0,2.5c0,0,0.6,0.9,3.8,0.9h11.6c0,0,3,0,4-3.3
		c1-3.3,0.9-6.1,0.5-7.4c0,0-0.1-0.6,0.3-0.7c0,0,1-1.3-1.2-2.3c0,0-1.2-0.4-2.2,0.6c0,0-1,1,0,2.3c0,0,1.6,7.1-6.6,7.2
		c0,0,1.2,1.6-0.4,2.5c0,0-1.2,0.6-1.9-0.3c0,0-0.9-0.9-0.1-2L8.8,40.9z"/>
	<path class="st2" d="M6.2,33.5c0,0,1.8-1.6,2.5,0.7"/>
	<path class="st2" d="M14.2,33.5c0,0-1.3-1.5-2.4,0.7"/>
	<path class="st2" d="M7.9,36.9c0,0,1.4,1.7,2.2-0.1c0,0,1,1.6,2,0.1"/>
	<path class="st3" d="M10.1,36.7c0,0-0.9-0.7-0.7-1c0,0,1-0.7,1.7,0C11.1,35.7,10.9,36.7,10.1,36.7z"/>
</g>
</svg>
