<?xml version="1.0" encoding="utf-8"?>
<!-- Generator: Adobe Illustrator 24.1.2, SVG Export Plug-In . SVG Version: 6.00 Build 0)  -->
<svg version="1.1" id="Слой_2" xmlns="http://www.w3.org/2000/svg" xmlns:xlink="http://www.w3.org/1999/xlink" x="0px" y="0px"
	 viewBox="0 0 100 70" style="enable-background:new 0 0 100 70;" xml:space="preserve">
<style type="text/css">
	.st0{fill-rule:evenodd;clip-rule:evenodd;fill:#6D6EDB;}
</style>
<g>
	<polygon class="st0" points="69.8,58.9 69.8,61.3 64.9,61.3 64.9,36.6 69.8,36.6 	"/>
	<polygon class="st0" points="88,58.9 88,61.3 83.1,61.3 83.1,36.6 88,36.6 	"/>
	<polygon class="st0" points="79.4,58.9 79.4,61.3 74.6,61.3 74.6,36.6 79.4,36.6 	"/>
	<polygon class="st0" points="97.5,58.9 97.5,61.3 92.6,61.3 92.6,36.6 97.5,36.6 	"/>
	<rect x="68" y="46.5" class="st0" width="8.3" height="4.9"/>
	<rect x="84.1" y="46.5" class="st0" width="10.2" height="4.9"/>
	<path class="st0" d="M90.4,9.1c2.5,0,4.7,1,6.3,2.6l0,0c1.6,1.6,2.6,3.9,2.6,6.3c0,2.5-1,4.7-2.6,6.3l0,0c-1.6,1.6-3.9,2.6-6.3,2.6
		c-2.5,0-4.7-1-6.3-2.6l0,0c-1.6-1.6-2.6-3.9-2.6-6.3c0-2.5,1-4.7,2.6-6.3C85.6,10.1,87.9,9.1,90.4,9.1L90.4,9.1z M93.1,15.1
		c-0.7-0.7-1.7-1.1-2.8-1.1s-2.1,0.4-2.8,1.1c-0.7,0.7-1.1,1.7-1.1,2.8s0.4,2,1.1,2.8l0,0c0.7,0.7,1.7,1.1,2.8,1.1s2.2-0.5,2.8-1.1
		l0,0c0.7-0.7,1.1-1.7,1.1-2.8C94.3,16.8,93.9,15.9,93.1,15.1L93.1,15.1z"/>
	<polygon class="st0" points="73.5,31.3 73.5,33.8 68.7,33.8 68.7,11 73.5,11 	"/>
	<polygon class="st0" points="95.1,28.9 97.5,28.9 97.5,33.8 83.1,33.8 83.1,28.9 	"/>
	<polygon class="st0" points="76.9,9.1 79.4,9.1 79.4,14 62.9,14 62.9,9.1 	"/>
	<polygon class="st0" points="43.9,42.4 46.4,42.4 46.4,47.3 28.8,47.3 28.8,42.4 	"/>
	<polygon class="st0" points="25,44.9 25,47.3 20.1,47.3 20.1,22.6 25,22.6 	"/>
	<polygon class="st0" points="22.6,22.6 25,22.6 25,27.5 16.4,27.5 16.4,22.6 	"/>
	<path class="st0" d="M37.9,22.6c2.5,0,4.7,1,6.3,2.6l0,0c1.6,1.6,2.6,3.9,2.6,6.3c0,2.5-1,4.7-2.6,6.3l0,0
		c-1.6,1.6-3.9,2.6-6.3,2.6c-2.5,0-4.7-1-6.3-2.6l0,0C30,36.1,29,33.9,29,31.5c0-2.5,1-4.7,2.6-6.3S35.4,22.6,37.9,22.6L37.9,22.6z
		 M40.7,28.8c-0.7-0.7-1.7-1.1-2.8-1.1s-2,0.5-2.8,1.1c-0.7,0.7-1.1,1.7-1.1,2.8s0.5,2,1.1,2.8l0,0c0.7,0.7,1.7,1.1,2.8,1.1
		s2.2-0.5,2.8-1.1l0,0c0.7-0.7,1.1-1.7,1.1-2.8S41.4,29.4,40.7,28.8L40.7,28.8z"/>
	
		<rect x="30.3" y="17.3" transform="matrix(0.7071 -0.7071 0.7071 0.7071 -2.0385 34.4935)" class="st0" width="20.7" height="4.9"/>
	<path class="st0" d="M31.2,5c8.3,0,15.8,3.4,21.1,8.8c5.5,5.5,8.7,13,8.7,21.3s-3.4,15.8-8.8,21.3C46.8,61.7,39.3,65,31,65
		s-15.8-3.4-21.3-8.8c-5.2-5.5-8.6-13-8.6-21.3s3.4-15.8,8.8-21.3C15.4,8.4,22.9,5,31.2,5L31.2,5z M48.9,17.3
		c-4.5-4.6-10.8-7.4-17.7-7.4S18,12.7,13.4,17.3S6,28.1,6,35s2.8,13.2,7.4,17.7s10.8,7.4,17.7,7.4s13.2-2.8,17.7-7.4
		s7.4-10.8,7.4-17.7S53.4,21.8,48.9,17.3z"/>
</g>
</svg>
