<?xml version="1.0" encoding="utf-8"?>
<!-- Generator: Adobe Illustrator 24.1.2, SVG Export Plug-In . SVG Version: 6.00 Build 0)  -->
<svg version="1.1" id="Слой_2" xmlns="http://www.w3.org/2000/svg" xmlns:xlink="http://www.w3.org/1999/xlink" x="0px" y="0px"
	 viewBox="0 0 100 70" style="enable-background:new 0 0 100 70;" xml:space="preserve">
<style type="text/css">
	.st0{clip-path:url(#SVGID_2_);}
	.st1{fill:#1D1C1B;}
	.st2{fill:url(#SVGID_3_);}
</style>
<g>
	<g>
		<defs>
			<rect id="SVGID_1_" x="0.8" y="28.5" width="98.2" height="20.4"/>
		</defs>
		<clipPath id="SVGID_2_">
			<use xlink:href="#SVGID_1_"  style="overflow:visible;"/>
		</clipPath>
		<g class="st0">
			<path class="st1" d="M30.6,43.3c-0.5,0-0.9,0-1.4,0c-0.5,0-1-0.1-1.4-0.2v-8.2c0.4-0.1,0.9-0.1,1.3-0.2c0.5,0,0.9,0,1.3,0
				c0.5,0,1,0,1.5,0.1c0.4,0.1,0.8,0.2,1.2,0.4c0.3,0.2,0.6,0.4,0.8,0.7c0.2,0.3,0.3,0.7,0.3,1.1c0,0.7-0.3,1.2-1,1.6
				c0.5,0.2,0.9,0.5,1.1,0.8c0.2,0.4,0.3,0.8,0.3,1.2c0,0.9-0.3,1.5-1,2C32.9,43.1,31.9,43.3,30.6,43.3z M29.6,38.1h0.9
				c0.6,0,1-0.1,1.3-0.2c0.3-0.2,0.4-0.4,0.4-0.7c0-0.3-0.1-0.6-0.4-0.7c-0.3-0.1-0.6-0.2-1.1-0.2c-0.2,0-0.3,0-0.5,0
				c-0.2,0-0.4,0-0.5,0L29.6,38.1z M29.6,39.5v2.2c0.1,0,0.3,0,0.5,0c0.2,0,0.3,0,0.5,0c0.6,0,1-0.1,1.4-0.2
				c0.3-0.2,0.5-0.5,0.5-0.9c0-0.4-0.2-0.7-0.4-0.8c-0.3-0.2-0.7-0.3-1.3-0.3L29.6,39.5z"/>
			<path class="st1" d="M38.2,36.7c0.5,0,1,0.1,1.3,0.2c0.3,0.1,0.6,0.3,0.9,0.5c0.2,0.2,0.4,0.5,0.5,0.8c0.1,0.3,0.1,0.7,0.1,1.1
				v3.8c-0.3,0.1-0.6,0.1-1.1,0.2c-0.6,0.1-1.1,0.1-1.7,0.1c-0.4,0-0.8,0-1.1-0.1c-0.3-0.1-0.6-0.2-0.9-0.4
				c-0.2-0.2-0.4-0.4-0.6-0.7c-0.1-0.3-0.2-0.7-0.2-1c0-0.3,0.1-0.7,0.2-1c0.2-0.3,0.4-0.5,0.6-0.6c0.3-0.2,0.6-0.3,0.9-0.3
				c0.3-0.1,0.7-0.1,1-0.1c0.2,0,0.4,0,0.6,0c0.2,0,0.3,0,0.5,0.1v-0.2c0-0.1,0-0.3-0.1-0.4c0-0.1-0.1-0.2-0.2-0.3
				c-0.2-0.2-0.5-0.3-1-0.3c-0.3,0-0.6,0-0.9,0.1c-0.3,0-0.5,0.1-0.8,0.2L36.1,37c0.1,0,0.2-0.1,0.4-0.1c0.2,0,0.3-0.1,0.5-0.1
				s0.4,0,0.6-0.1C37.8,36.7,38,36.7,38.2,36.7z M38.4,42c0.2,0,0.3,0,0.5,0c0.1,0,0.3,0,0.4,0v-1.4c-0.1,0-0.2,0-0.3,0
				c-0.1,0-0.3,0-0.4,0c-0.2,0-0.3,0-0.5,0c-0.1,0-0.3,0.1-0.4,0.1c-0.1,0-0.2,0.1-0.3,0.2c-0.1,0.1-0.1,0.2-0.1,0.4
				c0,0.3,0.1,0.5,0.3,0.6C37.8,41.9,38,42,38.4,42L38.4,42z"/>
			<path class="st1" d="M46.6,38.4c-0.2,0-0.4-0.1-0.6-0.1c-0.2,0-0.5-0.1-0.7-0.1c-0.1,0-0.3,0-0.4,0c-0.1,0-0.2,0-0.4,0.1v4.9
				h-1.8v-6.1c0.4-0.1,0.8-0.2,1.2-0.3c0.5-0.1,1-0.2,1.5-0.2c0.1,0,0.2,0,0.4,0c0.1,0,0.3,0,0.4,0s0.3,0,0.4,0.1
				c0.1,0,0.2,0.1,0.4,0.1L46.6,38.4z"/>
			<path class="st1" d="M51.8,38.4c-0.2,0-0.4-0.1-0.6-0.1c-0.2,0-0.5-0.1-0.7-0.1c-0.1,0-0.3,0-0.4,0c-0.1,0-0.2,0-0.4,0.1v4.9
				h-1.8v-6.1c0.4-0.1,0.8-0.2,1.2-0.3c0.5-0.1,1-0.2,1.5-0.2c0.1,0,0.2,0,0.4,0c0.1,0,0.3,0,0.4,0s0.3,0,0.4,0.1
				c0.1,0,0.2,0.1,0.4,0.1L51.8,38.4z"/>
			<path class="st1" d="M59.2,36.8c-0.4,1.2-0.8,2.4-1.2,3.5s-0.8,2.1-1.3,3.1c-0.2,0.3-0.3,0.6-0.5,0.9c-0.2,0.2-0.3,0.5-0.6,0.6
				c-0.2,0.2-0.4,0.3-0.7,0.4c-0.3,0.1-0.6,0.1-0.9,0.1c-0.3,0-0.5,0-0.8-0.1c-0.2,0-0.4-0.1-0.6-0.2l0.3-1.5
				c0.2,0.1,0.3,0.1,0.5,0.1c0.2,0,0.3,0,0.5,0c0.3,0,0.6-0.1,0.8-0.3c0.2-0.2,0.3-0.5,0.5-0.7c-0.4-0.8-0.8-1.7-1.3-2.7
				c-0.5-1.1-0.8-2.3-1.2-3.4h1.9c0.1,0.3,0.2,0.7,0.3,1s0.2,0.7,0.3,1.1c0.1,0.4,0.3,0.7,0.4,1.1s0.3,0.7,0.4,1
				c0.1-0.3,0.2-0.6,0.3-1c0.1-0.4,0.2-0.7,0.3-1.1c0.1-0.4,0.2-0.8,0.3-1.1s0.2-0.7,0.3-1H59.2z"/>
			<path class="st1" d="M65.4,37c0,0.3-0.1,0.6-0.2,0.9c-0.1,0.3-0.3,0.6-0.5,0.8c-0.2,0.3-0.4,0.5-0.7,0.8
				c-0.3,0.2-0.5,0.5-0.7,0.7c-0.1,0.1-0.3,0.2-0.4,0.4s-0.3,0.3-0.4,0.4c-0.1,0.2-0.3,0.3-0.3,0.4c-0.1,0.1-0.2,0.2-0.2,0.3h3.7
				v1.5H60c0-0.1,0-0.2,0-0.3v-0.3c0-0.4,0.1-0.7,0.2-1.1c0.1-0.3,0.3-0.6,0.5-0.9s0.4-0.5,0.7-0.8c0.3-0.2,0.5-0.5,0.8-0.7
				c0.2-0.2,0.4-0.4,0.5-0.5c0.2-0.2,0.3-0.3,0.5-0.5c0.1-0.1,0.2-0.3,0.3-0.5c0.1-0.2,0.1-0.3,0.1-0.5c0-0.4-0.1-0.6-0.3-0.8
				c-0.2-0.2-0.5-0.2-0.8-0.2c-0.2,0-0.4,0-0.6,0.1c-0.2,0.1-0.4,0.2-0.5,0.2c-0.1,0.1-0.3,0.2-0.4,0.3c-0.1,0.1-0.2,0.2-0.3,0.2
				l-0.9-1.3c0.4-0.3,0.8-0.6,1.3-0.8c0.5-0.2,1-0.3,1.5-0.3c0.4,0,0.9,0,1.3,0.2c0.3,0.1,0.6,0.3,0.9,0.5c0.2,0.2,0.4,0.5,0.5,0.8
				C65.4,36.3,65.4,36.7,65.4,37L65.4,37z"/>
			<path class="st1" d="M72,34.8v5.1h0.9v1.5H72v1.9h-1.8v-1.9h-3.7V40c0.2-0.4,0.4-0.8,0.7-1.2c0.3-0.5,0.6-0.9,0.9-1.4
				c0.3-0.5,0.7-0.9,1.1-1.4c0.3-0.4,0.7-0.8,1.1-1.2L72,34.8L72,34.8z M70.2,37c-0.3,0.4-0.7,0.9-1,1.3c-0.3,0.5-0.7,1-0.9,1.5h1.9
				V37z"/>
			<path class="st1" d="M75.9,42.3c0,0.4-0.1,0.6-0.3,0.8c-0.2,0.2-0.5,0.3-0.8,0.3s-0.6-0.1-0.8-0.3c-0.2-0.2-0.3-0.5-0.3-0.8
				s0.1-0.7,0.3-0.8c0.2-0.2,0.5-0.3,0.8-0.3s0.6,0.1,0.8,0.3C75.8,41.6,75.9,41.9,75.9,42.3z"/>
			<path class="st1" d="M76.5,40c0-0.5,0.1-0.9,0.2-1.3c0.1-0.4,0.4-0.8,0.7-1.1c0.3-0.3,0.7-0.5,1-0.7c0.4-0.2,0.9-0.3,1.4-0.3
				c0.3,0,0.6,0,0.9,0.1c0.3,0.1,0.6,0.2,0.8,0.3l-0.4,1.5c-0.2-0.1-0.4-0.1-0.6-0.2c-0.2,0-0.5-0.1-0.7-0.1c-0.5,0-0.9,0.2-1.2,0.5
				s-0.4,0.8-0.4,1.3c0,0.6,0.1,1,0.4,1.3s0.7,0.5,1.3,0.5c0.2,0,0.5,0,0.7-0.1c0.2,0,0.5-0.1,0.7-0.2l0.3,1.5
				c-0.3,0.1-0.5,0.2-0.8,0.2c-0.3,0.1-0.7,0.1-1.1,0.1c-0.6,0-1.1-0.1-1.5-0.3c-0.4-0.2-0.8-0.4-1.1-0.7c-0.3-0.3-0.5-0.7-0.6-1.1
				C76.5,40.9,76.5,40.5,76.5,40L76.5,40z"/>
			<path class="st1" d="M88.7,40c0,0.5-0.1,0.9-0.2,1.4c-0.1,0.4-0.3,0.8-0.6,1.1c-0.3,0.3-0.6,0.5-1,0.7c-0.4,0.2-0.9,0.3-1.3,0.2
				c-0.4,0-0.9-0.1-1.3-0.2c-0.4-0.2-0.7-0.4-1-0.7c-0.3-0.3-0.5-0.7-0.7-1.1c-0.2-0.4-0.2-0.9-0.2-1.4c0-0.5,0.1-0.9,0.2-1.4
				c0.2-0.4,0.4-0.8,0.7-1.1c0.3-0.3,0.6-0.5,1-0.7c0.8-0.3,1.7-0.3,2.6,0c0.4,0.2,0.7,0.4,1,0.7c0.3,0.3,0.5,0.7,0.7,1.1
				C88.6,39.1,88.7,39.5,88.7,40L88.7,40z M86.8,40c0-0.6-0.1-1-0.3-1.3c-0.2-0.3-0.6-0.5-1-0.5c-0.2,0-0.4,0-0.6,0.1
				c-0.2,0.1-0.3,0.2-0.4,0.4c-0.2,0.3-0.3,0.8-0.3,1.3s0.1,1,0.3,1.3c0.1,0.2,0.3,0.3,0.4,0.4c0.2,0.1,0.4,0.1,0.6,0.1
				c0.2,0,0.4,0,0.6-0.1c0.2-0.1,0.3-0.2,0.4-0.4C86.7,41,86.8,40.6,86.8,40z"/>
			<path class="st1" d="M93.6,39.8c0-0.6-0.1-1-0.2-1.2s-0.4-0.4-0.8-0.4c-0.1,0-0.2,0-0.4,0c-0.1,0-0.2,0-0.4,0v4.9h-1.8V37
				c0.2,0,0.3-0.1,0.6-0.1c0.2,0,0.4-0.1,0.7-0.1c0.2,0,0.5-0.1,0.7-0.1s0.5,0,0.7,0c0.5,0,0.8,0.1,1.1,0.2c0.3,0.1,0.5,0.2,0.7,0.4
				c0.5-0.4,1.2-0.6,1.8-0.6c0.5,0,0.9,0.1,1.3,0.2c0.3,0.1,0.6,0.3,0.8,0.6c0.2,0.3,0.3,0.6,0.4,0.9c0.1,0.4,0.1,0.8,0.1,1.2v3.6
				h-1.8v-3.4c0-0.6-0.1-1-0.2-1.2s-0.4-0.4-0.8-0.4c-0.1,0-0.3,0-0.4,0.1c-0.2,0-0.3,0.1-0.4,0.2c0.1,0.2,0.1,0.4,0.1,0.6
				c0,0.2,0,0.4,0,0.7v3.5h-1.8L93.6,39.8z"/>
			
				<linearGradient id="SVGID_3_" gradientUnits="userSpaceOnUse" x1="21.2928" y1="26.5283" x2="0.8962" y2="46.9249" gradientTransform="matrix(1 0 0 1 0 2)">
				<stop  offset="0" style="stop-color:#FFBA2F"/>
				<stop  offset="1" style="stop-color:#E7891C"/>
			</linearGradient>
			<path class="st2" d="M9.8,28.5c-4.3,0.3-8.5,4.2-9,8.9c0.1,0,0.3,0,0.5,0c4,0,8,0,12.1,0c0.1,0,0.3,0,0.4,0
				c0.5-0.1,0.7-0.5,0.7-1c0-0.2-0.1-0.4-0.3-0.5c-0.1-0.2-0.4-0.2-0.6-0.2c-0.3,0-0.6,0-0.9,0c-2.2,0-4.4,0-6.7,0
				c-0.4,0-0.5-0.1-0.5-0.5c0-0.6,0-1.2,0-1.7c0-0.3,0.1-0.4,0.4-0.4c0.8,0,1.7,0,2.5,0h1.4V28.5z M0.8,40c0.5,4.8,4.8,8.6,9,8.8
				v-4.5H5.5V40H0.8z M21.5,37.3c-0.5-5.2-5.4-8.7-9-8.8V33c1.4,0,2.7,0,3.8,0.8c1.1,0.9,1.5,2.1,1.3,3.5L21.5,37.3L21.5,37.3z
				 M21.4,40h-3.9c0,0.1,0,0.2,0,0.3c0.3,1.7-0.6,3.2-2.2,3.8c-0.6,0.2-1.2,0.2-1.8,0.3c-0.4,0-0.7,0-1.1,0v4.5
				C17.1,48.5,21.1,44.3,21.4,40L21.4,40z M8.7,41.8c1.6,0,3.2,0,4.7,0c0.7,0,1.1-0.4,1-0.9c0-0.5-0.4-0.8-1.1-0.8
				c-1.4,0-2.8,0-4.2,0c-0.1,0-0.3,0-0.5,0L8.7,41.8z"/>
		</g>
	</g>
</g>
</svg>
