<?xml version="1.0" encoding="utf-8"?>
<!-- Generator: Adobe Illustrator 24.1.2, SVG Export Plug-In . SVG Version: 6.00 Build 0)  -->
<svg version="1.1" id="Слой_2" xmlns="http://www.w3.org/2000/svg" xmlns:xlink="http://www.w3.org/1999/xlink" x="0px" y="0px"
	 viewBox="0 0 100 70" style="enable-background:new 0 0 100 70;" xml:space="preserve">
<style type="text/css">
	.st0{fill:#3F4045;}
	.st1{fill:#FDC703;}
	.st2{fill:#03ACB4;}
	.st3{fill:#3E3F44;}
</style>
<g>
	<g>
		<path class="st0" d="M63,29.8c1.3,0,2.5,0,3.8,0v3.8l-3.9,0.1c0,2.3,0,4.5,0,6.8c0,1,0.6,1.5,1.6,1.5c0.8,0,1.6,0,2.5,0
			c0,1.6,0,3,0,4.5c-1.6,0.2-3,0.2-4.5,0c-2.4-0.3-4.2-2-4.2-4.5c-0.1-6.3,0-12.6,0-19.1h4.8L63,29.8z"/>
		<path class="st0" d="M99,29.5c-2.2,0-4.2-0.1-6.2,0c-2.1,0.1-4.1,2-4.2,4.1c-0.1,4.2,0,8.4,0,12.6c1.7,0,3.2,0,4.8,0
			c0-3.7,0-7.2,0-10.7c0-1.4,0.5-2,1.9-2H99V29.5z"/>
		<path class="st1" d="M47.9,41c1.2,1.7,2.4,3.3,3.8,5.2c-2.1,0-3.8,0-5.5,0c-0.4,0-0.6-0.2-0.8-0.5c-0.1-0.2-0.3-0.3-0.4-0.5
			c-1-1.4-2.7-2.6-2.8-4.2c-0.1-1.6,1.7-2.8,2.7-4.2c1.5-2.2,3.1-4.2,4.7-6.4c0.6-0.8,1.2-1.2,2.2-1.1c1.4,0.1,2.8,0,4.6,0
			C53.4,33.5,50.7,37.3,47.9,41z"/>
		<path class="st2" d="M30.4,46.3c3-4.1,5.8-7.8,8.6-11.6c-1.2-1.7-2.4-3.4-3.8-5.3c1.9,0,3.4,0,5,0c0.7,0,1.1,0.3,1.5,0.9
			c1.1,1.5,2.2,2.9,3.4,4.4c-2.7,3.7-5.4,7.3-8.1,10.9c-0.3,0.5-0.8,0.7-1.4,0.7C34,46.3,32.4,46.3,30.4,46.3z"/>
		<path class="st3" d="M24.2,46.3c0-5.6,0-11,0-16.7c1.5,0,2.9,0,4.4,0v16.8L24.2,46.3z"/>
	</g>
	<path class="st3" d="M2.2,23h4.5l0,7.7c0,0,5.1-3.3,10.1,0.1c1.5,1.1,2.7,3,2.8,6.3c0,0,0.4,9.3-8.7,9.6l0.1-4.8c0,0,3.9-0.2,4.1-4
		c0,0,0.4-3.7-4.1-4.1c0,0-4.1,0-4.1,4.1c0,0,0.1,3.9,4.1,4l0.1,4.8c0,0-9.1,0.1-9.1-8.9C2,37.5,2.2,23,2.2,23z"/>
	<path class="st0" d="M73.5,37.3l7.5-1.8l5.1,1.8l-11.4,3.3c0,0,1.8,4.1,5.7,0.8l2.8,2.8c0,0-3.8,4.4-8.8,2c0,0-8.2-3.7-4.5-12.6
		c0,0,2.7-6.4,10.4-4.1c0,0,5,1.3,5.8,7.8l-11.3,3.3L73.5,37.3l7.5-1.8c0,0-1.4-3.1-4.9-2C76.2,33.4,73.3,34.4,73.5,37.3z"/>
</g>
</svg>
