<?xml version="1.0" encoding="utf-8"?>
<!-- Generator: Adobe Illustrator 24.1.2, SVG Export Plug-In . SVG Version: 6.00 Build 0)  -->
<svg version="1.1" id="Слой_2" xmlns="http://www.w3.org/2000/svg" xmlns:xlink="http://www.w3.org/1999/xlink" x="0px" y="0px"
	 viewBox="0 0 100 70" style="enable-background:new 0 0 100 70;" xml:space="preserve">
<style type="text/css">
	.st0{fill:#1C601C;}
	.st1{fill:#00AC00;}
	.st2{fill:#272A3C;}
	.st3{fill:#1F6B1F;}
</style>
<g>
	<g>
		<path class="st0" d="M16.7,46.7c-0.7,3.1-3,5.3-7.1,5.3c-5.2,0-7.7-3.7-7.7-8.4c0-4.5,2.6-8.6,7.9-8.6c4.4,0,6.5,2.6,6.9,5.3h-3.6
			c-0.4-1.3-1.2-2.5-3.5-2.5c-2.9,0-4.1,2.7-4.1,5.7c0,2.8,1,5.7,4.2,5.7c2.3,0,3.1-1.6,3.4-2.5L16.7,46.7L16.7,46.7z"/>
		<path class="st0" d="M30.7,45.5c0,3.8-2.3,6.5-6.2,6.5c-3.9,0-6.1-2.8-6.1-6.5c0-3.8,2.3-6.5,6.3-6.5
			C28.4,39.1,30.7,41.7,30.7,45.5z M21.9,45.6c0,2.4,1,3.8,2.7,3.8c1.7,0,2.6-1.4,2.6-3.8c0-2.6-1-3.8-2.7-3.8
			C23,41.8,21.9,42.9,21.9,45.6z"/>
		<path class="st0" d="M33.1,34.3h3.4v3.1h-3.4V34.3z M33.1,39.4h3.4v12.4h-3.4V39.4z"/>
		<path class="st0" d="M39.6,42.5c0-1,0-2.2,0-3.1h3.3c0.1,0.3,0.1,1.2,0.1,1.6c0.4-0.8,1.4-1.9,3.6-1.9c2.5,0,4.1,1.7,4.1,4.8v7.9
			h-3.4v-7.5c0-1.4-0.5-2.4-2-2.4c-1.5,0-2.3,0.8-2.3,3v6.9h-3.4C39.6,51.7,39.6,42.5,39.6,42.5z"/>
	</g>
	<g>
		<path class="st1" d="M15.8,45.7c-0.7,3.1-3,5.3-7.1,5.3C3.5,51,1,47.3,1,42.6C1,38.1,3.6,34,8.9,34c4.4,0,6.5,2.6,6.9,5.3h-3.6
			c-0.4-1.3-1.2-2.5-3.5-2.5c-2.9,0-4.1,2.7-4.1,5.7c0,2.8,1,5.7,4.2,5.7c2.3,0,3.1-1.6,3.4-2.5L15.8,45.7L15.8,45.7z"/>
		<path class="st1" d="M29.9,44.6c0,3.8-2.3,6.5-6.2,6.5c-3.9,0-6.1-2.8-6.1-6.5c0-3.8,2.3-6.5,6.3-6.5
			C27.5,38.1,29.9,40.7,29.9,44.6z M21.1,44.6c0,2.4,1,3.8,2.7,3.8c1.7,0,2.6-1.4,2.6-3.8c0-2.6-1-3.8-2.7-3.8
			C22.1,40.8,21.1,42,21.1,44.6z"/>
		<path class="st1" d="M32.2,33.3h3.4v3.1h-3.4V33.3z M32.2,38.4h3.4v12.4h-3.4V38.4z"/>
		<path class="st1" d="M38.8,41.5c0-1,0-2.2,0-3.1h3.3c0.1,0.3,0.1,1.2,0.1,1.6c0.4-0.8,1.4-1.9,3.6-1.9c2.5,0,4.1,1.7,4.1,4.8v7.9
			h-3.4v-7.5c0-1.4-0.5-2.4-2-2.4c-1.5,0-2.3,0.8-2.3,3v6.9h-3.4V41.5z"/>
		<path class="st2" d="M66.9,46c0,1.6-0.4,2.8-1.2,3.6s-1.9,1.2-3.3,1.2h-5.1V34.1h4.8c1.5,0,2.7,0.4,3.4,1.2
			c0.7,0.8,1.1,1.9,1.1,3.2c0,0.8-0.1,1.5-0.4,2c-0.3,0.6-0.8,1.1-1.7,1.5v0.1c0.4,0.1,0.8,0.3,1.1,0.5c0.3,0.3,0.6,0.6,0.7,0.9
			c0.2,0.3,0.3,0.7,0.4,1.2C66.9,45.2,66.9,45.6,66.9,46z M59.3,35.9v5.4h2.6c1,0,1.7-0.3,2.1-0.8c0.4-0.5,0.7-1.2,0.7-2
			c0-0.8-0.2-1.4-0.7-1.9c-0.4-0.5-1.1-0.7-2.1-0.7C61.9,35.9,59.3,35.9,59.3,35.9z M59.3,43v5.8h2.9c0.5,0,1-0.1,1.3-0.2
			s0.6-0.4,0.8-0.7s0.4-0.6,0.4-1c0.1-0.4,0.1-0.8,0.1-1.2c0-0.8-0.2-1.5-0.6-2c-0.4-0.5-1.1-0.8-2.2-0.8C62.2,43,59.3,43,59.3,43z"
			/>
		<path class="st2" d="M75,49.9c-0.3,0.3-0.7,0.6-1.1,0.8c-0.5,0.2-1,0.3-1.7,0.3c-0.6,0-1.1-0.1-1.5-0.3c-0.4-0.2-0.8-0.4-1.1-0.8
			s-0.5-0.7-0.6-1.1c-0.1-0.4-0.2-0.9-0.2-1.3c0-1,0.3-1.9,1-2.6c0.7-0.7,1.7-1,3.1-1h2.2v-1.5c0-0.5-0.2-1-0.5-1.3
			c-0.4-0.3-0.9-0.5-1.6-0.5c-0.5,0-0.9,0.1-1.3,0.3c-0.4,0.2-0.7,0.5-0.9,0.9c-0.3-0.1-0.5-0.3-0.8-0.4c-0.3-0.2-0.5-0.3-0.8-0.5
			c0.3-0.7,0.8-1.2,1.5-1.5c0.7-0.3,1.4-0.5,2.2-0.5c0.6,0,1.1,0.1,1.6,0.2c0.5,0.1,0.9,0.3,1.3,0.6s0.7,0.6,0.9,1.1
			c0.2,0.5,0.3,1,0.3,1.7v8.4h-1.9v-0.9L75,49.9z M75.1,45.5h-2.3c-0.6,0-1.1,0.2-1.5,0.5s-0.6,0.8-0.6,1.5c0,0.5,0.2,1,0.5,1.3
			s0.9,0.5,1.6,0.5c0.7,0,1.2-0.2,1.7-0.5c0.4-0.3,0.7-0.8,0.7-1.6L75.1,45.5L75.1,45.5z"/>
		<path class="st2" d="M85.5,50.8v-7.7c0-0.7-0.2-1.3-0.6-1.7s-0.9-0.6-1.6-0.6c-0.7,0-1.2,0.2-1.6,0.6c-0.4,0.4-0.6,1-0.6,1.7v7.7
			h-1.9V38.9h2v1.3h0.1c0.3-0.5,0.8-0.8,1.2-1.1s1-0.4,1.6-0.4c0.5,0,0.9,0.1,1.3,0.3c0.4,0.2,0.8,0.4,1.1,0.7s0.5,0.7,0.7,1.1
			c0.2,0.4,0.3,0.9,0.3,1.5v8.4L85.5,50.8L85.5,50.8z"/>
		<path class="st2" d="M96.8,50.8L93.7,45l-1.9,2.6v3.2h-1.9V33.4h1.9v11.3h0.1l4.2-5.7h2.2L95,43.5l4,7.3H96.8z"/>
	</g>
	<path class="st3" d="M55.4,32.5c0,0,1.5-6.3,5.8-8.3c0,0,2.4-1.5,8.8-1.5c0,0,12,0,15.1-0.5c3.4-0.5,5.8-3.4,6.3-4.4
		c0,0-0.5,7.8-9.3,8.8l-15.8,0.2C66.4,26.9,59.8,27.1,55.4,32.5z"/>
	<path class="st2" d="M55.4,26.6c0,0,1.5-6.3,5.8-8.3c0,0,2.4-1.5,8.8-1.5c0,0,12,0,15.1-0.5c3.4-0.5,5.8-3.4,6.3-4.4
		c0,0-0.5,7.8-9.3,8.8L66.4,21C66.4,21,59.8,21.3,55.4,26.6z"/>
	<path class="st1" d="M55.4,31.5c0,0,1.5-6.3,5.8-8.3c0,0,2.4-1.5,8.8-1.5c0,0,12,0,15.1-0.5c3.4-0.5,5.8-3.4,6.3-4.4
		c0,0-0.5,7.8-9.3,8.8l-15.8,0.2C66.4,25.9,59.8,26.2,55.4,31.5z"/>
</g>
</svg>
