<?xml version="1.0" encoding="utf-8"?>
<!-- Generator: Adobe Illustrator 24.1.2, SVG Export Plug-In . SVG Version: 6.00 Build 0)  -->
<svg version="1.1" id="Слой_2" xmlns="http://www.w3.org/2000/svg" xmlns:xlink="http://www.w3.org/1999/xlink" x="0px" y="0px"
	 viewBox="0 0 100 70" style="enable-background:new 0 0 100 70;" xml:space="preserve">
<style type="text/css">
	.st0{fill:#F45252;}
</style>
<g>
	<g>
		<path class="st0" d="M14.6,25c2.1,0.4,4.3,1.6,5.5,3c-1,1-2,2-3,3c-1.7-1.6-3.8-2.3-6.3-1.7c-1.7,0.4-3,1.3-4,2.6
			c-2.1,2.7-1.8,6.6,0.5,9c2.1,2.2,6.2,3.4,9.8,0.2c1,1,2,2,3,3.1c-0.6,0.7-1.4,1.2-2.3,1.7c-1.3,0.7-2.7,1.2-4.1,1.4
			c-1.9,0.2-3.5-0.1-3.5-0.1c-5.4-1-9.9-6.4-9.1-12.6c0.6-4.7,4.1-8.5,8.8-9.6C9.9,25,12.1,24.5,14.6,25z"/>
		<path class="st0" d="M12.2,31.6c0,0.9,0,1.7,0,2.5c-1.4,0.3-1.8,1.2-1.6,2.2c0.1,0.7,0.9,1.3,1.6,1.4c0.8,0,1.8-0.5,1.8-1.7
			c0.8,0,1.8,0,2.6,0c0,2.4-1.8,4.1-4,4.3c-2.5,0.2-4.6-1.7-4.7-4.3C7.9,33.6,9.9,31.6,12.2,31.6z"/>
	</g>
	<g>
		<path d="M32.5,37.9c-0.2,0.5-0.4,1-0.8,1.5c-0.3,0.5-0.7,0.9-1.2,1.2c-0.5,0.3-1,0.6-1.5,0.8c-0.6,0.2-1.2,0.3-1.8,0.3
			c-0.8,0-1.5-0.1-2.1-0.4s-1.3-0.7-1.8-1.1s-0.9-1-1.2-1.7s-0.4-1.3-0.4-2.1c0-0.7,0.1-1.4,0.4-2.1c0.3-0.7,0.7-1.2,1.2-1.7
			c0.5-0.5,1.1-0.9,1.8-1.1c0.7-0.3,1.4-0.4,2.1-0.4c0.6,0,1.2,0.1,1.8,0.3c0.6,0.2,1.1,0.5,1.5,0.8c0.5,0.3,0.9,0.7,1.2,1.2
			s0.6,1,0.8,1.5h-2.3c-0.3-0.6-0.7-1-1.2-1.4s-1.1-0.5-1.8-0.5c-0.5,0-0.9,0.1-1.3,0.3s-0.8,0.4-1,0.7c-0.3,0.3-0.5,0.7-0.7,1.1
			C24,35.4,24,35.9,24,36.3c0,0.5,0.1,0.9,0.3,1.3s0.4,0.8,0.7,1.1c0.3,0.3,0.6,0.6,1,0.7s0.8,0.3,1.3,0.3c0.6,0,1.2-0.2,1.8-0.5
			c0.5-0.3,0.9-0.8,1.2-1.4C30.2,37.9,32.5,37.9,32.5,37.9z"/>
		<path d="M40.2,41.5l-2.4-3h-1.3v3h-2.2V31.2h4.1c0.7,0,1.4,0.2,2,0.5c0.3,0.1,0.6,0.3,0.8,0.5c0.2,0.2,0.4,0.4,0.6,0.6
			c0.2,0.3,0.3,0.6,0.4,0.9c0.1,0.3,0.2,0.8,0.2,1.2c0,0.5-0.1,1-0.2,1.3s-0.3,0.7-0.5,1c-0.2,0.3-0.5,0.5-0.8,0.7
			c-0.3,0.2-0.6,0.3-0.8,0.4l2.6,3.3L40.2,41.5L40.2,41.5z M36.4,36.6h1.9c0.5,0,0.9-0.1,1.2-0.4s0.5-0.7,0.5-1.4
			c0-0.7-0.2-1.1-0.5-1.4s-0.7-0.4-1.2-0.4h-1.9V36.6z"/>
		<path d="M49.7,31.2H52L48.3,38v3.5h-2.2V38l-3.7-6.8h2.3l2.5,4.7L49.7,31.2z"/>
		<path d="M57.5,31.2c0.7,0,1.4,0.2,2,0.5c0.3,0.1,0.6,0.3,0.8,0.5c0.2,0.2,0.4,0.4,0.6,0.6c0.2,0.3,0.3,0.6,0.4,0.9
			c0.1,0.3,0.2,0.8,0.2,1.2s-0.1,0.8-0.2,1.2c-0.1,0.3-0.3,0.7-0.5,0.9c-0.2,0.3-0.4,0.5-0.6,0.7c-0.2,0.2-0.5,0.3-0.7,0.4
			c-0.6,0.3-1.3,0.4-2,0.5h-1.9v3h-2.2V31.2C53.4,31.2,57.5,31.2,57.5,31.2z M59.2,34.9c0-0.7-0.2-1.1-0.5-1.4s-0.7-0.4-1.2-0.4
			h-1.9v3.5h1.9c0.5,0,0.9-0.1,1.2-0.4S59.2,35.5,59.2,34.9z"/>
		<path d="M66.6,41.7c-0.6,0-1.2-0.1-1.7-0.2s-0.9-0.3-1.2-0.5c-0.3-0.2-0.6-0.4-0.8-0.7s-0.4-0.5-0.5-0.6l1.5-1.2
			c0.1,0.1,0.2,0.3,0.4,0.4s0.4,0.3,0.6,0.4c0.2,0.1,0.5,0.3,0.8,0.4c0.3,0.1,0.6,0.1,0.9,0.1c0.4,0,0.7,0,0.9-0.1
			c0.2-0.1,0.4-0.2,0.5-0.3c0.1-0.1,0.2-0.3,0.3-0.4s0.1-0.2,0.1-0.3c0-0.3-0.1-0.5-0.4-0.7c-0.3-0.2-0.6-0.3-1-0.5
			c-0.4-0.2-0.9-0.3-1.4-0.5s-0.9-0.4-1.4-0.6c-0.4-0.3-0.8-0.6-1-1c-0.3-0.4-0.4-0.9-0.4-1.5c0-0.3,0-0.5,0.2-0.9
			c0.1-0.3,0.3-0.6,0.6-0.9c0.3-0.3,0.6-0.5,1.1-0.8c0.5-0.2,1.1-0.3,1.8-0.3c0.6,0,1.1,0.1,1.6,0.2s0.8,0.3,1.1,0.5
			c0.3,0.2,0.5,0.4,0.7,0.6c0.2,0.2,0.3,0.4,0.4,0.5l-1.4,1.1c-0.3-0.4-0.6-0.6-1.1-0.8s-0.9-0.2-1.3-0.2c-0.4,0-0.7,0.1-1,0.3
			c-0.3,0.2-0.4,0.5-0.4,0.8c0,0.3,0.1,0.6,0.4,0.8s0.6,0.4,1,0.5s0.9,0.3,1.4,0.4s0.9,0.3,1.4,0.6c0.4,0.2,0.8,0.5,1,0.9
			s0.4,0.9,0.4,1.5c0,0.3-0.1,0.6-0.2,0.9c-0.1,0.3-0.3,0.7-0.7,1c-0.3,0.3-0.7,0.6-1.2,0.8C68,41.6,67.4,41.7,66.6,41.7z"/>
		<path d="M71.4,33.1v-1.9H80v1.9h-3.2v8.4h-2.2v-8.4H71.4z"/>
		<path d="M88.8,39.6v1.9h-7.1V31.2h7.1v1.9h-4.9v2.4h4.5v1.9h-4.5v2.2C83.9,39.6,88.8,39.6,88.8,39.6z"/>
		<path d="M96.7,41.5l-2.4-3h-1.3v3h-2.2V31.2h4.1c0.7,0,1.4,0.2,2,0.5c0.3,0.1,0.6,0.3,0.8,0.5c0.2,0.2,0.4,0.4,0.6,0.6
			c0.2,0.3,0.3,0.6,0.4,0.9s0.2,0.8,0.2,1.2c0,0.5-0.1,1-0.2,1.3s-0.3,0.7-0.6,1c-0.2,0.3-0.5,0.5-0.8,0.7c-0.3,0.2-0.6,0.3-0.8,0.4
			l2.6,3.3H96.7z M92.9,36.6h1.9c0.5,0,0.9-0.1,1.2-0.4s0.5-0.7,0.5-1.4c0-0.7-0.2-1.1-0.5-1.4c-0.3-0.3-0.7-0.4-1.2-0.4h-1.9V36.6z
			"/>
	</g>
</g>
</svg>
