<?xml version="1.0" encoding="utf-8"?>
<!-- Generator: Adobe Illustrator 24.1.2, SVG Export Plug-In . SVG Version: 6.00 Build 0)  -->
<svg version="1.1" id="Слой_2" xmlns="http://www.w3.org/2000/svg" xmlns:xlink="http://www.w3.org/1999/xlink" x="0px" y="0px"
	 viewBox="0 0 100 70" style="enable-background:new 0 0 100 70;" xml:space="preserve">
<style type="text/css">
	.st0{fill:#010101;}
	.st1{fill:#5CDE55;}
</style>
<g>
	<g>
		<path d="M68.9,53c0.7,0,1.4,0,2.1,0c0-4.6,0-9.1,0-13.7c-0.7,0-1.2,0-1.9,0c0,3.6,0,7.2,0,10.9c-1.2-1.9-2.3-3.5-3.4-5.2l-4.1-5.7
			c-0.7,0-1.4-0.1-2.1,0.1c0,4.5,0,9.1,0,13.6c0.6,0.1,1.2,0.1,1.9,0c0-3.7,0-7.3,0-10.9c0.5,0.5,0.9,1,1.2,1.6
			c1.9,3,3.8,5.9,5.7,8.8l0.3,0.5L68.9,53z"/>
		<path d="M86.4,46.1c0,1.8,0,3.5,0,5.3c0,0.3,0.1,0.6-0.3,0.8c-2.7,1.2-5.5,1.6-8.2,0.3c-2.9-1.4-4.3-4.3-3.9-7.5
			c0.5-4,3.8-6.6,8.3-6.1c1.9,0.2,3.1,0.8,4.1,1.8c-0.4,0.4-0.9,0.8-1.4,1.2c-1.4-1.3-3.1-1.6-4.9-1.2c-2.4,0.5-3.9,2.5-4,5.1
			c-0.1,3.7,2.6,6.2,6.3,5.7c0.6-0.1,1.2-0.2,1.8-0.4c0.3-0.1,0.5-0.2,0.5-0.6c0-1.1,0-2.2,0-3.4c-1,0-2,0-3,0c0-0.6,0-1.1,0-1.6
			h4.9L86.4,46.1z"/>
		<path class="st0" d="M41.6,52.9c-0.6,0-1.2,0-1.9,0c0-2.1,0-4.1,0-6.2c-2.3,0-4.6,0-6.9,0c0,2.1,0,4.1,0,6.2c-0.6,0-1.2,0-1.8,0
			c0-4.5,0-9.1,0-13.6c0.6,0,1.1,0,1.8,0c0,1.8,0,3.7,0,5.6c2.3,0,4.6,0,6.9,0c0-1.8,0-3.7,0-5.6c0.7-0.1,1.3-0.1,1.9,0
			C41.6,43.8,41.6,48.3,41.6,52.9z"/>
		<path class="st1" d="M2.5,51.8c2.5-3.7,5.1-7.4,7.6-11.1c0.2-0.3,0.4-0.5,0.8-0.5l0-1.3l-1.3,0.5c0.2,0.3,0.2,0.5,0,0.8
			c-0.4,0.5-0.7,1-1.1,1.5c-2.4,3.5-4.8,6.9-7.1,10.4L1,53l2,0c2.3,0,2.3,0,3.6-2c0.5-0.8,1-1.5,1.6-2.3c0.9,1.3,1.7,2.5,2.5,3.7
			c0.2,0.2,0.3,0.5,0.6,0.5l4.2,0l-0.7-1.2c-1.3-1.9-2.6-3.9-4-5.8c-0.3-0.5-0.3-0.8,0-1.3c1.5-2.1,2.9-4.2,4.4-6.4
			c0.2-0.3,0.4-0.5,0.8-0.4l0.1-1.4l-1.3,0.6c0.3,0.4,0,0.7-0.2,1c-0.6,0.8-1.1,1.6-1.7,2.4c-2.6,3.8-5.1,7.5-7.7,11.3
			c0,0-0.3,0.5-1.3,0.5l0.8-1.2c2.7-3.9,5.3-7.8,8-11.7c0.2-0.3,0.5-0.5,0.9-0.4l0-1.4l-1.3,0.5c0.4,0.3,0.2,0.5,0,0.8
			c-0.3,0.5-0.7,0.9-1,1.4C8.7,44.1,6.1,48,3.5,51.8c0,0-0.4,0.7-1.4,0.6L2.5,51.8z"/>
		<path class="st0" d="M99,52.9c-3,0-5.9,0-9,0c0-4.5,0-9.1,0-13.6h8.8l0,1.6c-2.3,0-4.6,0-6.8,0c0,1.4,0,2.7,0,4.1
			c2.1,0,4.2,0,6.4,0c0,0.6,0,1.1,0,1.6c-2.1,0-4.2,0-6.4,0c0,1.5,0,3,0,4.6H99L99,52.9z"/>
		<path d="M28.4,41c-0.5,0.4-1,0.7-1.5,1.1c-0.8-0.9-1.8-1.4-3-1.5c-1.2-0.1-2.3,0.1-3.4,0.8c-1,0.7-1.7,1.6-2,2.7
			c-0.5,2-0.4,3.8,0.9,5.5c1.7,2.3,5.6,2.6,7.4,0.5c0.1-0.1,0.1-0.3,0.4-0.3c0.5,0.2,0.9,0.5,1.4,0.9c-1.3,2.2-4.2,2.9-7,2.3
			c-3-0.7-5.1-3.2-5.3-6.5c-0.2-3.4,1.4-6.2,4.4-7.2C23.5,38.3,26.8,39,28.4,41z"/>
		<path class="st0" d="M13.9,22.8c-0.4,0.3-0.7,0.5-1.1,0.8c-1.3-1.4-2.9-2-4.9-1.6c-2.4,0.5-4.2,2.3-4.5,4.8
			c-0.3,2.3,0.3,4.3,2.1,5.9c1.8,1.5,5.7,1.7,7.3-0.6c0.1-0.1,0.1-0.1,0.2-0.2c0.4,0.2,0.7,0.4,1,0.6c-1.1,2-3.9,3-6.7,2.4
			c-3.1-0.6-5.2-3.1-5.4-6.5c-0.3-3.1,1.5-6,4.2-7.2C9.2,19.9,12.7,21,13.9,22.8z"/>
		<path class="st0" d="M31.7,34l0,0.6h1.4v-5.3v-0.6l3.2-4.9c0.6-0.9,1.2-1.9,1.8-2.8h-1.6l-2.7,4.3c-0.5,0.7-0.9,1.5-1.5,2.2
			L28.1,21h-0.4c-0.3,0-0.6,0-1.1,0c0.2,0.3,0.3,0.5,0.4,0.6c1.4,2,2.7,4.1,4.1,6.1l0.8,1L31.7,34z"/>
		<path class="st0" d="M60.5,21c-3.5,0-7,0-10.5,0v1.1l4.6,0.1c0,4.2,0,8.3,0,12.4c0.5,0,0.9,0,1.4,0c0-4.1,0-8.3,0-12.5h4.6
			L60.5,21z"/>
		<path class="st1" d="M1.5,38.9c1.5,0,2.8,0,4.2,0c0.3,0,0.5,0.2,0.7,0.4c0.4,0.6,0.9,1.3,1.3,1.9c0.2,0.2,0.3,0.4,0.1,0.7
			c-0.7,0.9-1.2,2-2.1,3C4.2,42.9,2.9,41,1.5,38.9z"/>
	</g>
	<path d="M16.8,21.1l4.5-0.1c4.6,0,4,4.1,4,4.1c-0.2,2.7-3.4,3.1-3.4,3.1l4,6.5H24l-3.5-6.3l-2.3-0.1v6.4h-1.4L16.8,21.1h1.4l0.1,6
		c2.8,0.4,4.4-0.3,4.4-0.3c2.8-1.5,1.2-3.6,1.2-3.6s-0.5-1.1-1.8-1.1c-0.2,0-4.2,0-4.2,0L16.8,21.1z"/>
	<path d="M41.7,34.7h-1.3V21l0.7,0l0.6,0l0.1,6.2h2.4c0,0,3.2,0.1,3.3-2.5c0,0,0.5-2.6-3.1-2.6c-0.4,0-3.2,0-3.2,0h-0.8v-1.2h4.2
		c0,0,3.9-0.1,4.3,3.5c0,0,0.4,3.2-3.5,3.9c0,0-1.8,0.2-3.6,0.1L41.7,34.7z"/>
	<path d="M68.9,21.9c0,0-5.5-0.5-6,5.8c0,0-0.3,5.2,5,6.2c0,0,5.4,0.7,6.3-5C74.3,28.8,75,23,68.9,21.9l-0.3-1.3c0,0,6,0,7,5.6
		c0,0,1.2,5.1-3.3,7.8c0,0-4.6,2.7-8.5-0.8c0,0-4.3-3.4-1.3-9.3c0,0,2.1-3.6,6.1-3.4L68.9,21.9z"/>
	<polygon points="49.6,39.3 43.8,53 45.8,53 50.5,41.4 53.1,47.9 47.3,47.9 46.6,49.5 53.4,49.5 55,53 57.3,53 51.5,39.3 	"/>
</g>
</svg>
