<?xml version="1.0" encoding="utf-8"?>
<!-- Generator: Adobe Illustrator 24.1.2, SVG Export Plug-In . SVG Version: 6.00 Build 0)  -->
<svg version="1.1" id="Слой_2" xmlns="http://www.w3.org/2000/svg" xmlns:xlink="http://www.w3.org/1999/xlink" x="0px" y="0px"
	 viewBox="0 0 100 70" style="enable-background:new 0 0 100 70;" xml:space="preserve">
<style type="text/css">
	.st0{fill:#F2D91F;}
	.st1{fill:#F6F5F5;}
	.st2{fill:#010100;}
	.st3{fill:#010000;}
	.st4{fill:#F1D81F;}
	.st5{fill:#F5F4F4;}
</style>
<g>
	<path class="st0" d="M45.2,25.1H3.2c0,0-2-0.1-2,2.4v15.2v1.3c0,0-0.4,2.1,1.8,2.1l36.6,0.2L45.2,25.1z"/>
	<g>
		<path class="st1" d="M45.1,25c0.2,0,0.4,0,0.7,0c9.9,0,19.8,0,29.6,0c0.2,0,0.4,0,0.7,0c0.2,0,0.4,0,0.6,0c6.2,0,12.3,0,18.5,0
			c1.5,0,2.7,1.2,2.7,2.7c0,5.3,0,10.6,0,15.9c0,1.5-1.2,2.7-2.7,2.7c-8,0-16.1,0-24.1,0c-0.2,0-0.4,0-0.6,0c-0.2,0-0.4,0-0.7,0
			c-9.8,0-19.7,0-29.5,0c-0.2,0-0.4,0-0.7,0c1.8-7,3.6-14,5.4-21C45,25.2,45.1,25.1,45.1,25z"/>
		<path d="M31.4,33c-0.3,0.4-0.5,0.8-0.8,1.1c-0.6-0.5-1.3-0.8-2.1-0.8c-0.2,0-0.5,0-0.7,0.2c-0.2,0.1-0.3,0.3-0.3,0.6
			s0.1,0.4,0.4,0.5c0.5,0.3,1.1,0.3,1.6,0.5c0.4,0.1,0.7,0.2,1.1,0.4c1.6,0.8,1.3,2.8,0.3,3.6c-1.3,1-4,0.7-5.2-0.6
			c0.3-0.4,0.5-0.8,0.8-1.2c0.5,0.5,1.2,0.9,1.9,1c0.4,0,0.8,0,1.2-0.1c0.3-0.1,0.5-0.3,0.5-0.7c0-0.3-0.2-0.5-0.5-0.6
			c-0.5-0.2-1.1-0.3-1.6-0.5c-0.3-0.1-0.6-0.2-0.9-0.3c-0.8-0.4-1.3-0.9-1.3-1.8c0-0.9,0.4-1.6,1.2-2C28.3,31.6,30.4,31.9,31.4,33z"
			/>
		<path class="st2" d="M11.5,32c1.7,0,3.4,0,5.1,0c0.1,0.4,0,0.9,0,1.4c-1.2,0-2.4,0-3.6,0c0,0.5,0,1,0,1.6c1.2,0,2.3,0,3.5,0
			c0,0.5,0,0.9,0,1.4c-1.2,0-2.3,0-3.5,0c0,1,0,2,0,3c-0.5,0-1,0-1.5,0C11.4,39.1,11.4,32.5,11.5,32z"/>
		<path class="st3" d="M32.2,33.4c0-0.5,0-0.9,0-1.4c1.9,0,3.8,0,5.8,0c0,0.4,0,0.9,0,1.3c-0.7,0-1.3,0-2.1,0c0,2,0,4,0,6.1
			c-0.5,0.1-1,0-1.6,0c0-2,0-4,0-6.1C33.6,33.4,33,33.4,32.2,33.4z"/>
		<path d="M70,32c0.5,0,0.9,0,1.4,0c0.2,0,0.3,0.2,0.4,0.3c1,1.3,1.9,2.7,2.9,4c0.1,0.1,0.1,0.2,0.3,0.3c0-1.6,0-3.1,0-4.6
			c0.5,0,1,0,1.6,0c0,2.5,0,4.9,0,7.4c-0.4,0.1-0.9,0-1.3,0c-0.2,0-0.3-0.2-0.4-0.3c-1-1.3-1.9-2.7-2.9-4.1
			c-0.1-0.1-0.2-0.2-0.3-0.4c0,1.7,0,3.2,0,4.8c-0.5,0-1,0-1.5,0C70,37,70,34.6,70,32z"/>
		<path d="M84.7,33.6c-0.4,0.2-0.8,0.5-1.2,0.7c-0.2,0-0.2-0.1-0.2-0.2c-1.1-1.4-3.2-0.8-3.7,0.8c-0.5,1.5,0.3,3.1,1.7,3.4
			c0.3,0.1,0.6,0,0.9,0c0.9-0.2,1.1-0.4,1-1.4c-0.6,0-1.2,0-1.9,0c0-0.5,0-0.9,0-1.4c1.1,0,2.3,0,3.5,0c0,0.9,0,1.8,0,2.8
			c0,0.1-0.1,0.2-0.2,0.3c-1.1,1.1-2.4,1.5-3.9,1.1c-1.4-0.3-2.4-1.3-2.8-2.7c-0.4-1.6-0.1-3,1.2-4.1c1.3-1,2.7-1.2,4.2-0.5
			C83.9,32.6,84.3,33,84.7,33.6z"/>
		<path d="M54.3,32.1c0.5,0,1,0,1.5,0c0,1,0,1.9,0,2.9c1.2,0,2.3,0,3.5,0c0-1,0-1.9,0-2.9c0.5,0,1,0,1.5,0c0,2.5,0,4.9,0,7.4
			c-0.5,0-1,0-1.5,0c0-1,0-2,0-3.1c-1.2,0-2.3,0-3.4,0c0,1,0,2,0,3.1c-0.5,0.1-1,0-1.5,0C54.3,37,54.3,34.6,54.3,32.1z"/>
		<path d="M91.2,35c0,0.5,0,0.9,0,1.4c-1.2,0-2.3,0-3.5,0c0,0.6,0,1.1,0,1.7c1.2,0,2.4,0,3.6,0c0,0.5,0,0.9,0,1.4
			c-1.7,0-3.4,0-5.1,0c0-2.5,0-5,0-7.5c1.7,0,3.4,0,5.1,0c0.1,0.4,0,0.9,0.1,1.4c-1.2,0-2.4,0-3.6,0c0,0.5,0,1,0,1.6
			C88.9,35,90,35,91.2,35z"/>
		<path d="M53.2,33.8c-0.4,0.2-0.9,0.4-1.3,0.7c0,0-0.1-0.1-0.1-0.1c-0.5-0.7-1.2-1.1-2-0.9c-1,0.2-1.6,0.8-1.8,1.7
			c-0.4,1.5,0.4,2.8,1.8,3.1c0.9,0.2,1.5-0.1,2.2-1c0.4,0.2,0.8,0.4,1.3,0.6c-0.6,1.4-2.1,2.1-3.9,1.8c-1.7-0.3-2.9-1.7-3-3.4
			c-0.1-2,0.9-3.6,2.7-4.1C50.6,31.6,52.4,32.2,53.2,33.8z"/>
		<path class="st4" d="M22.1,36.8c-0.8,0-1.5,0-2.3,0c0.4-1,0.7-2.1,1.1-3.2C21.4,34.8,21.8,35.8,22.1,36.8z"/>
		<path class="st5" d="M66.6,36.8c-0.8,0-1.5,0-2.3,0c0.4-1,0.7-2.1,1.1-3.1c0,0,0.1,0,0.1,0C65.8,34.8,66.2,35.8,66.6,36.8z"/>
	</g>
	<g>
		<polygon class="st2" points="61.9,39.5 64.5,32.1 66.6,32.1 68.1,35.8 66.4,35.8 65.6,33.2 63.8,39.5 		"/>
		<polygon class="st2" points="66.5,36 66.8,36.9 64,36.9 63.5,38.3 67.1,38.4 67.5,39.5 69.4,39.5 67.9,35.5 66.3,35.5 		"/>
	</g>
	<g>
		<polygon class="st2" points="16.9,39.5 19.5,32.1 21.6,32.1 23.1,35.8 21.4,35.8 20.6,33.3 18.8,39.5 		"/>
		<polygon class="st2" points="21.5,36 21.8,36.9 19,36.9 18.5,38.4 22.1,38.4 22.5,39.5 24.5,39.5 22.9,35.5 21.3,35.5 		"/>
	</g>
</g>
</svg>
