<?xml version="1.0" encoding="utf-8"?>
<!-- Generator: Adobe Illustrator 24.1.2, SVG Export Plug-In . SVG Version: 6.00 Build 0)  -->
<svg version="1.1" id="Слой_2" xmlns="http://www.w3.org/2000/svg" xmlns:xlink="http://www.w3.org/1999/xlink" x="0px" y="0px"
	 viewBox="0 0 100 70" style="enable-background:new 0 0 100 70;" xml:space="preserve">
<style type="text/css">
	.st0{fill:#28FEFE;}
	.st1{fill:#079AC2;}
	.st2{fill:#2EB0D2;}
	.st3{fill:#6FFFFF;}
	.st4{fill:#4A4848;}
</style>
<g>
	<polygon class="st0" points="2,26.8 2,28.3 13.1,23.1 13.1,21.4 	"/>
	<polygon class="st1" points="2,28.3 2,33.9 9.5,30.4 3.6,27.6 	"/>
	<path class="st2" d="M3.7,27.6l9.4-4.5c0,0,0.4,5.4-3.6,7.4L3.7,27.6z"/>
	<polygon class="st3" points="2,33.9 9.5,30.4 9.5,33.3 4.7,35.2 	"/>
	<polygon class="st0" points="2,36.6 23.4,26.2 23.4,27.6 2,38.1 	"/>
	<polygon class="st3" points="15.9,29.8 15.9,22.9 23.4,26.2 	"/>
	<polygon class="st1" points="2,38.1 3.7,37.3 9.5,40.5 2,43.8 	"/>
	<polygon class="st2" points="2,38.1 17.6,30.4 23.4,33.3 9.5,40.5 	"/>
	<polygon class="st1" points="17.6,30.4 23.4,27.6 23.4,33.3 	"/>
	<polygon class="st3" points="2,43.8 9.5,40.5 9.5,47.1 	"/>
	<polygon class="st3" points="15.9,37.1 15.9,39.6 23.4,36.1 20.5,34.8 	"/>
	<polygon class="st1" points="23.4,36.1 23.4,41.7 21.8,42.6 15.9,39.6 	"/>
	<path class="st2" d="M21.8,42.6l-5.9-3c0,0-3.3,2.1-3.3,7.5L21.8,42.6z"/>
	<polygon class="st0" points="12.6,47.1 23.4,41.7 23.4,43.3 12.6,48.7 	"/>
	<g>
		<path class="st4" d="M29.9,42.8V28.7h1.7v12.5h5.6v1.6H29.9z"/>
		<path class="st4" d="M45.7,42.8l-0.9-3.2h-4.5l-0.9,3.2h-1.7l4.1-14.1h1.5l4.1,14.1H45.7z M43.3,34.4l-0.8-3.1h-0.1l-0.8,3.1
			l-1,3.7h3.7L43.3,34.4z"/>
		<path class="st4" d="M56.5,38.9c0,1.2-0.4,2.2-1.1,2.9c-0.7,0.7-1.8,1.1-3.1,1.1c-1.1,0-2-0.2-2.7-0.7c-0.7-0.5-1.3-1-1.6-1.8
			l1.5-0.9c0.3,0.5,0.6,0.9,1.1,1.2c0.5,0.3,1,0.5,1.8,0.5c0.9,0,1.5-0.2,1.9-0.7c0.4-0.5,0.6-1,0.6-1.7c0-0.4-0.1-0.7-0.2-1
			c-0.1-0.3-0.3-0.5-0.5-0.7s-0.5-0.3-0.8-0.5c-0.3-0.1-0.7-0.3-1-0.4c-0.7-0.2-1.3-0.4-1.8-0.7s-0.9-0.5-1.2-0.8s-0.5-0.7-0.7-1.1
			s-0.2-0.9-0.2-1.4c0-0.6,0.1-1.1,0.3-1.6s0.5-0.9,0.8-1.2s0.8-0.6,1.3-0.8c0.5-0.2,1.1-0.3,1.7-0.3c1,0,1.9,0.2,2.5,0.6
			c0.6,0.4,1.1,0.8,1.4,1.4l-1.4,1c-0.3-0.5-0.6-0.8-1-1c-0.4-0.2-0.9-0.3-1.6-0.3c-0.8,0-1.4,0.2-1.7,0.6s-0.5,1-0.5,1.6
			c0,0.4,0.1,0.7,0.2,0.9c0.2,0.3,0.4,0.5,0.7,0.7c0.3,0.2,0.6,0.3,1,0.5c0.4,0.1,0.8,0.3,1.2,0.4c0.6,0.2,1.1,0.4,1.5,0.7
			c0.4,0.2,0.8,0.5,1,0.8s0.4,0.7,0.5,1.1C56.5,37.9,56.5,38.4,56.5,38.9z"/>
		<path class="st4" d="M58.5,42.8V28.7h1.7v12.5h5.6v1.6H58.5z"/>
		<path class="st4" d="M75.3,38.7c0,0.7-0.1,1.2-0.3,1.8c-0.2,0.5-0.5,1-0.8,1.3c-0.4,0.4-0.8,0.7-1.3,0.8c-0.5,0.2-1.1,0.3-1.7,0.3
			c-0.7,0-1.4-0.1-1.9-0.4c-0.5-0.2-0.9-0.6-1.3-1c-0.3-0.4-0.6-0.9-0.7-1.4s-0.2-1.1-0.2-1.7v-5.7c0-0.5,0.1-1,0.2-1.5
			s0.4-1,0.7-1.4c0.3-0.4,0.8-0.7,1.3-1c0.5-0.3,1.2-0.4,1.9-0.4c0.7,0,1.3,0.1,1.8,0.4s0.9,0.6,1.3,1c0.3,0.4,0.6,0.9,0.8,1.4
			s0.2,1,0.2,1.5L75.3,38.7L75.3,38.7z M73.6,32.8c0-0.2,0-0.5-0.1-0.8s-0.2-0.6-0.4-0.9c-0.2-0.3-0.4-0.5-0.7-0.7s-0.7-0.3-1.2-0.3
			s-0.9,0.1-1.2,0.3s-0.6,0.4-0.8,0.7c-0.2,0.3-0.3,0.5-0.4,0.9c-0.1,0.3-0.1,0.6-0.1,0.8l0,5.6c0,0.4,0,0.8,0.1,1.1
			c0.1,0.4,0.2,0.7,0.4,0.9c0.2,0.3,0.5,0.5,0.8,0.6s0.7,0.2,1.2,0.2c0.3,0,0.6-0.1,0.9-0.2c0.3-0.1,0.5-0.3,0.8-0.5
			s0.4-0.5,0.5-0.8c0.1-0.3,0.2-0.7,0.2-1L73.6,32.8L73.6,32.8z"/>
		<path class="st4" d="M85.6,38.7c0,1.3-0.3,2.3-1,3c-0.7,0.7-1.6,1-2.8,1h-4.3V28.7h4c1.3,0,2.3,0.3,2.9,1s0.9,1.6,0.9,2.7
			c0,0.7-0.1,1.2-0.4,1.7s-0.7,0.9-1.4,1.3v0.1c0.4,0.1,0.7,0.3,0.9,0.5s0.5,0.5,0.6,0.8c0.2,0.3,0.3,0.6,0.3,1
			C85.6,38,85.6,38.4,85.6,38.7z M79.2,30.2v4.5h2.2c0.8,0,1.4-0.2,1.8-0.6c0.4-0.4,0.6-1,0.6-1.7c0-0.7-0.2-1.2-0.6-1.6
			c-0.4-0.4-1-0.6-1.8-0.6L79.2,30.2L79.2,30.2z M79.2,36.2v4.9h2.4c0.4,0,0.8-0.1,1.1-0.2c0.3-0.1,0.5-0.3,0.7-0.5s0.3-0.5,0.4-0.8
			s0.1-0.6,0.1-1c0-0.7-0.2-1.3-0.5-1.7s-1-0.7-1.8-0.7H79.2z"/>
		<path class="st4" d="M87.8,42.8V28.7h1.7v14.1H87.8z"/>
		<path class="st4" d="M95.8,30.2v12.6h-1.7V30.2h-3.2v-1.5H99v1.5H95.8z"/>
	</g>
</g>
</svg>
