<?xml version="1.0" encoding="utf-8"?>
<!-- Generator: Adobe Illustrator 24.1.2, SVG Export Plug-In . SVG Version: 6.00 Build 0)  -->
<svg version="1.1" id="Слой_2" xmlns="http://www.w3.org/2000/svg" xmlns:xlink="http://www.w3.org/1999/xlink" x="0px" y="0px"
	 viewBox="0 0 100 70" style="enable-background:new 0 0 100 70;" xml:space="preserve">
<style type="text/css">
	.st0{fill:url(#SVGID_1_);}
	.st1{fill:#00990D;}
	.st2{fill:#FFFFFF;}
	.st3{fill:url(#SVGID_2_);}
	.st4{fill:url(#SVGID_3_);}
</style>
<g>
	
		<radialGradient id="SVGID_1_" cx="10.734" cy="35.2995" r="6.359" fx="8.4333" fy="37.2757" gradientTransform="matrix(1 0 0 -1 0 72)" gradientUnits="userSpaceOnUse">
		<stop  offset="0.4974" style="stop-color:#BCFD8B"/>
		<stop  offset="0.5424" style="stop-color:#B3F885"/>
		<stop  offset="0.6177" style="stop-color:#99E974"/>
		<stop  offset="0.7138" style="stop-color:#6FD159"/>
		<stop  offset="0.8258" style="stop-color:#36B034"/>
		<stop  offset="0.9048" style="stop-color:#099617"/>
	</radialGradient>
	<circle class="st0" cx="10.8" cy="36.6" r="6.4"/>
	<g>
		<path class="st1" d="M14.9,31.6c0,0-3.3-1.9-7.5,6.6c0,0-1.3,2.3,0.8,4.2c0,0-3.6-1.6,0.7-7.4C8.8,35,12,30.3,14.9,31.6z"/>
		<path class="st1" d="M11,30.3c0,0-1.2,1.4,1.2,3.5c0,0,3.1,2.7,4.8,1.9c0,0-1.9,1-5-1.7C12,33.9,9.7,32,11,30.3z"/>
		<path class="st1" d="M6,33.4c0,0,4-0.4,6.9,2.1c0,0,5,2.9,2.1,6c0,0,2.5-1.7-1.7-5.4c0,0-4.6-3.8-8.1-2.3"/>
		<path class="st1" d="M8.3,30.9c0,0-1.2,0.4-0.6,4.2c0,0,0.4,6.5,5.2,7.3c0,0-4.1,0.4-5.4-6.2C7.6,36.3,6.4,32,8.3,30.9z"/>
		<path class="st1" d="M5.1,39.3c0,0,1.5,3.8,8.3-0.6c0,0,4.2-3.1,3.1-5c0,0,1,1-1,3.5C15.5,37.2,8.9,44.5,5.1,39.3z"/>
		<ellipse class="st1" cx="9.9" cy="34.1" rx="0.6" ry="0.8"/>
		<ellipse class="st1" cx="15.1" cy="37.6" rx="0.6" ry="0.8"/>
		<ellipse class="st1" cx="9.6" cy="41" rx="0.9" ry="0.7"/>
	</g>
	<g>
		<path class="st2" d="M15.6,31.8c0,0-4.1-2.3-8.3,6.2c0,0-1.3,2.6,0.9,4.5c0,0-3.7-1.9,0.6-7.7C8.8,34.8,12.5,29.4,15.6,31.8z"/>
		<path class="st2" d="M11,30.1c0,0-1.2,1.4,1.2,3.5c0,0,3.1,2.7,4.8,1.9c0,0-1.9,1-5-1.7C12,33.7,9.7,31.8,11,30.1z"/>
		<path class="st2" d="M15.1,41.5c0,0,2.5-2.3-1.7-5.6c0,0-5.6-3.8-8.3-2.1c0,0-0.4,0.2-0.2,1.2c0,0-0.6-1.5,1.5-1.7
			c0,0,3.3-0.4,6.6,2.1C12.9,35.3,18,38.4,15.1,41.5z"/>
		<path class="st2" d="M8.9,30.1c0,0-1.9,0.8-1.2,4.8c0,0,0.8,6.7,5.6,7.5c0,0-4.4,0.2-5.8-6.4C7.6,36.1,6.4,30.9,8.9,30.1z"/>
		<path class="st2" d="M5.1,39.1c0,0,1.5,3.8,8.3-0.6c0,0,4.8-3.7,2.7-5.8c0,0,2.1,1-0.6,4.2C15.5,37,8.9,44.3,5.1,39.1z"/>
		<ellipse class="st2" cx="9.9" cy="33.9" rx="0.6" ry="0.8"/>
		<ellipse class="st2" cx="15.1" cy="37.4" rx="0.6" ry="0.8"/>
		<ellipse class="st2" cx="9.6" cy="40.8" rx="0.9" ry="0.7"/>
	</g>
	
		<linearGradient id="SVGID_2_" gradientUnits="userSpaceOnUse" x1="9.9731" y1="44.2855" x2="18.3355" y2="29.8012" gradientTransform="matrix(1 0 0 -1 0 72)">
		<stop  offset="0" style="stop-color:#00FFFF"/>
		<stop  offset="0.1557" style="stop-color:#00FCFF"/>
		<stop  offset="0.2853" style="stop-color:#00F1FF"/>
		<stop  offset="0.4056" style="stop-color:#00E0FF"/>
		<stop  offset="0.5202" style="stop-color:#00C8FF"/>
		<stop  offset="0.6309" style="stop-color:#00A8FF"/>
		<stop  offset="0.7387" style="stop-color:#0081FF"/>
		<stop  offset="0.8439" style="stop-color:#0053FF"/>
		<stop  offset="0.9447" style="stop-color:#0020FF"/>
		<stop  offset="1" style="stop-color:#0000FF"/>
	</linearGradient>
	<path class="st3" d="M10.3,27.5c0,0,7.3,0.8,8,8.1c0,0,1.2,6.4-5.2,9.1c0,0,7.9-1.7,7.1-9.6C20.3,35.1,19.5,28.1,10.3,27.5z"/>
	
		<linearGradient id="SVGID_3_" gradientUnits="userSpaceOnUse" x1="33.498" y1="30.0669" x2="41.2919" y2="16.5675" gradientTransform="matrix(-0.8879 0.2321 -0.2529 -0.9675 45.4112 50.7726)">
		<stop  offset="0" style="stop-color:#00FFFF"/>
		<stop  offset="0.1557" style="stop-color:#00FCFF"/>
		<stop  offset="0.2853" style="stop-color:#00F1FF"/>
		<stop  offset="0.4056" style="stop-color:#00E0FF"/>
		<stop  offset="0.5202" style="stop-color:#00C8FF"/>
		<stop  offset="0.6309" style="stop-color:#00A8FF"/>
		<stop  offset="0.7387" style="stop-color:#0081FF"/>
		<stop  offset="0.8439" style="stop-color:#0053FF"/>
		<stop  offset="0.9447" style="stop-color:#0020FF"/>
		<stop  offset="1" style="stop-color:#0000FF"/>
	</linearGradient>
	<path class="st4" d="M8.8,29.7c0,0-7,1.8-5.8,9.1c0,0,0.4,5.7,6.7,6.8c0,0-7.3-0.3-8.6-7C1.1,38.7-0.5,31.3,8.8,29.7z"/>
	<g>
		<path d="M23.7,41.6h-1v-8.1H25c0.3,0,0.6,0,0.9,0.1c0.3,0,0.5,0.1,0.8,0.2c0.5,0.2,0.9,0.4,1.1,0.8s0.4,0.8,0.4,1.3
			c0,0.4-0.1,0.8-0.2,1.1c-0.2,0.3-0.4,0.6-0.7,0.8s-0.7,0.4-1.1,0.5c-0.5,0.1-1,0.2-1.5,0.2c-0.3,0-0.5,0-0.8,0L23.7,41.6
			L23.7,41.6z M23.7,37.3c0.1,0,0.3,0,0.4,0c0.1,0,0.3,0,0.4,0c0.5,0,0.9,0,1.2-0.1s0.6-0.2,0.8-0.3s0.4-0.3,0.5-0.5
			c0.1-0.2,0.1-0.4,0.1-0.7c0-0.3-0.1-0.6-0.2-0.8c-0.1-0.2-0.4-0.4-0.6-0.5c-0.2-0.1-0.4-0.1-0.6-0.1s-0.5,0-0.8,0h-1.1L23.7,37.3
			L23.7,37.3z"/>
		<path d="M31.9,40.9c0.3,0,0.6,0,0.9-0.1c0.3,0,0.5-0.1,0.8-0.2v0.8c-0.2,0.1-0.5,0.2-0.8,0.2s-0.6,0.1-1,0.1c-0.4,0-0.8,0-1.2-0.2
			c-0.4-0.1-0.7-0.3-0.9-0.5c-0.3-0.2-0.5-0.5-0.6-0.9c-0.1-0.4-0.2-0.8-0.2-1.4c0-0.5,0.1-1,0.2-1.4c0.1-0.4,0.3-0.7,0.6-1
			c0.2-0.3,0.5-0.5,0.8-0.6s0.6-0.2,1-0.2c0.3,0,0.6,0,0.9,0.2s0.5,0.3,0.7,0.5s0.4,0.5,0.5,0.9c0.1,0.4,0.2,0.8,0.2,1.3
			c0,0,0,0.1,0,0.1s0,0.1,0,0.2h-4c0,0.4,0.1,0.7,0.2,0.9s0.3,0.5,0.5,0.6s0.4,0.3,0.7,0.3C31.3,40.9,31.6,40.9,31.9,40.9z
			 M31.4,36.5c-0.2,0-0.4,0-0.6,0.1c-0.2,0.1-0.4,0.2-0.5,0.3c-0.1,0.2-0.3,0.3-0.3,0.5c-0.1,0.2-0.1,0.4-0.2,0.6h2.9
			c0-0.2,0-0.4-0.1-0.6c-0.1-0.2-0.2-0.4-0.3-0.5c-0.1-0.2-0.3-0.3-0.4-0.3C31.8,36.5,31.6,36.5,31.4,36.5z"/>
		<path d="M38.5,36.6L38.5,36.6c-0.3,0-0.5,0-0.7,0.1c-0.2,0-0.4,0.1-0.6,0.2s-0.4,0.2-0.5,0.3c-0.2,0.1-0.3,0.3-0.4,0.4v4h-0.9
			v-5.8h0.7l0.2,0.9h0c0.1-0.2,0.2-0.3,0.3-0.4c0.1-0.1,0.3-0.2,0.5-0.3s0.4-0.2,0.6-0.2c0.2,0,0.4-0.1,0.6-0.1c0,0,0.1,0,0.1,0
			c0,0,0.1,0,0.1,0L38.5,36.6L38.5,36.6z"/>
		<path d="M42.8,33.5c-0.1,0-0.3,0-0.4,0s-0.3,0-0.4,0c-0.2,0-0.4,0-0.6,0.1c-0.2,0-0.3,0.1-0.4,0.3c-0.1,0.1-0.2,0.3-0.3,0.5
			c-0.1,0.2-0.1,0.4-0.1,0.7v0.9h1.7v0.8h-1.7v5h-0.9v-5h-1v-0.8h1v-0.9c0-0.4,0.1-0.8,0.2-1c0.1-0.3,0.3-0.5,0.5-0.7
			c0.2-0.2,0.4-0.3,0.7-0.4c0.3-0.1,0.5-0.1,0.8-0.1c0.2,0,0.4,0,0.5,0c0.2,0,0.3,0,0.4,0.1V33.5z"/>
		<path d="M46.1,40.9c0.3,0,0.6,0,0.8-0.1c0.3,0,0.5-0.1,0.8-0.2v0.8c-0.2,0.1-0.5,0.2-0.8,0.2s-0.6,0.1-1,0.1c-0.4,0-0.8,0-1.2-0.2
			c-0.4-0.1-0.7-0.3-0.9-0.5c-0.3-0.2-0.5-0.5-0.6-0.9c-0.2-0.4-0.2-0.8-0.2-1.4c0-0.5,0.1-1,0.2-1.4c0.1-0.4,0.3-0.7,0.6-1
			c0.2-0.3,0.5-0.5,0.8-0.6s0.6-0.2,1-0.2c0.3,0,0.6,0,0.9,0.2c0.3,0.1,0.5,0.3,0.7,0.5s0.4,0.5,0.5,0.9c0.1,0.4,0.2,0.8,0.2,1.3
			c0,0,0,0.1,0,0.1s0,0.1,0,0.2h-4c0,0.4,0.1,0.7,0.2,0.9c0.1,0.3,0.3,0.5,0.5,0.6c0.2,0.2,0.4,0.3,0.7,0.3
			C45.6,40.9,45.8,40.9,46.1,40.9z M45.6,36.5c-0.2,0-0.4,0-0.6,0.1c-0.2,0.1-0.3,0.2-0.5,0.3c-0.1,0.2-0.3,0.3-0.3,0.5
			c-0.1,0.2-0.1,0.4-0.2,0.6h3c0-0.2,0-0.4-0.1-0.6c-0.1-0.2-0.2-0.4-0.3-0.5c-0.1-0.2-0.3-0.3-0.4-0.3
			C46.1,36.5,45.9,36.5,45.6,36.5z"/>
		<path d="M52,35.7c0.3,0,0.5,0,0.8,0.1c0.3,0.1,0.5,0.1,0.7,0.3v0.8c-0.3-0.1-0.5-0.2-0.7-0.2c-0.2,0-0.4-0.1-0.7-0.1
			c-0.2,0-0.5,0-0.7,0.1c-0.2,0.1-0.4,0.2-0.6,0.4s-0.3,0.4-0.4,0.7c-0.1,0.3-0.2,0.7-0.2,1.1c0,0.3,0,0.6,0.1,0.9
			c0.1,0.3,0.2,0.5,0.4,0.7s0.4,0.3,0.6,0.5c0.3,0.1,0.5,0.2,0.8,0.2c0.2,0,0.5,0,0.7-0.1c0.2,0,0.5-0.1,0.7-0.2v0.8
			c-0.1,0-0.2,0.1-0.3,0.1c-0.1,0-0.2,0.1-0.4,0.1c-0.1,0-0.3,0-0.4,0.1c-0.2,0-0.3,0-0.5,0c-0.4,0-0.8-0.1-1.1-0.2
			s-0.7-0.3-0.9-0.5s-0.5-0.5-0.6-0.9s-0.2-0.8-0.2-1.3c0-0.4,0-0.7,0.1-1c0.1-0.3,0.2-0.6,0.3-0.8c0.1-0.2,0.3-0.4,0.5-0.6
			s0.4-0.3,0.6-0.4c0.2-0.1,0.4-0.2,0.6-0.2C51.6,35.7,51.8,35.7,52,35.7z"/>
		<path d="M58,41.6c-0.1,0-0.2,0.1-0.4,0.1s-0.4,0-0.6,0c-0.3,0-0.6,0-0.8-0.1s-0.4-0.2-0.5-0.3s-0.3-0.3-0.3-0.5
			c-0.1-0.2-0.1-0.4-0.1-0.7v-3.5h-1.1v-0.8h1.1v-1.6h0.9v1.6H58v0.8h-1.7V40c0,0.1,0,0.3,0.1,0.4s0.1,0.2,0.2,0.3s0.2,0.2,0.3,0.2
			c0.1,0,0.3,0.1,0.5,0.1c0.1,0,0.3,0,0.4,0c0.1,0,0.3,0,0.4-0.1L58,41.6L58,41.6z"/>
		<path d="M65.3,34.2c-0.4,0-0.9,0.1-1.3,0.2s-0.7,0.4-1,0.6c-0.3,0.3-0.5,0.6-0.7,1.1c-0.2,0.4-0.3,0.9-0.3,1.5s0.1,1,0.2,1.5
			c0.2,0.4,0.4,0.8,0.7,1c0.3,0.3,0.6,0.5,1,0.6c0.4,0.1,0.8,0.2,1.3,0.2c0.1,0,0.3,0,0.4,0c0.2,0,0.3,0,0.5-0.1
			c0.2,0,0.3-0.1,0.4-0.1c0.2,0,0.3-0.1,0.4-0.1v0.9c-0.2,0.1-0.5,0.2-0.8,0.2c-0.3,0-0.6,0.1-1,0.1c-0.7,0-1.3-0.1-1.8-0.3
			c-0.5-0.2-1-0.5-1.3-0.8c-0.3-0.3-0.6-0.8-0.8-1.3s-0.3-1.1-0.3-1.7c0-0.6,0.1-1.2,0.3-1.7c0.2-0.5,0.5-1,0.8-1.4s0.8-0.7,1.3-0.9
			s1.1-0.3,1.7-0.3c0.2,0,0.3,0,0.5,0c0.2,0,0.3,0,0.5,0.1c0.2,0,0.3,0.1,0.4,0.1c0.1,0,0.2,0.1,0.3,0.1v0.9
			c-0.3-0.1-0.5-0.2-0.8-0.2C65.9,34.2,65.7,34.2,65.3,34.2z"/>
		<path d="M69.6,36.6L69.6,36.6c0.1-0.1,0.2-0.3,0.4-0.4c0.1-0.1,0.3-0.2,0.4-0.3c0.2-0.1,0.3-0.2,0.5-0.2s0.4-0.1,0.6-0.1
			c0.2,0,0.4,0,0.7,0.1c0.2,0.1,0.4,0.2,0.6,0.3s0.3,0.4,0.4,0.6s0.2,0.6,0.2,1v3.8h-0.9v-3.7c0-0.5-0.1-0.8-0.3-1
			c-0.2-0.2-0.5-0.3-0.9-0.3c-0.3,0-0.7,0.1-0.9,0.3c-0.3,0.2-0.6,0.4-0.8,0.7v4.1h-0.9v-8.8h0.9L69.6,36.6L69.6,36.6z"/>
		<path d="M78.6,40.9L78.6,40.9c-0.1,0.1-0.2,0.2-0.3,0.3c-0.1,0.1-0.3,0.2-0.4,0.3c-0.2,0.1-0.3,0.1-0.5,0.2
			c-0.2,0-0.4,0.1-0.6,0.1c-0.3,0-0.5,0-0.8-0.1c-0.2-0.1-0.4-0.2-0.6-0.4s-0.3-0.3-0.4-0.6c-0.1-0.2-0.1-0.5-0.1-0.8
			c0-0.3,0.1-0.5,0.2-0.8s0.3-0.4,0.4-0.6c0.2-0.2,0.4-0.3,0.7-0.4c0.3-0.1,0.6-0.1,0.9-0.1c0.3,0,0.6,0,0.8,0.1
			c0.3,0,0.5,0.1,0.7,0.2h0v-0.4c0-0.2,0-0.3,0-0.4s-0.1-0.2-0.1-0.3c-0.1-0.2-0.3-0.3-0.5-0.5s-0.5-0.2-0.9-0.2
			c-0.3,0-0.6,0-0.8,0.1c-0.3,0-0.5,0.1-0.8,0.2V36c0.1,0,0.2-0.1,0.3-0.1c0.1,0,0.3-0.1,0.4-0.1c0.2,0,0.3,0,0.5-0.1
			c0.2,0,0.3,0,0.5,0c0.6,0,1.1,0.1,1.4,0.3c0.4,0.2,0.6,0.5,0.8,0.8c0.1,0.1,0.1,0.3,0.1,0.4s0,0.3,0,0.5v3.8h-0.8L78.6,40.9z
			 M78.6,39c-0.2,0-0.4-0.1-0.6-0.1c-0.2,0-0.5-0.1-0.8-0.1c-0.4,0-0.7,0.1-0.9,0.3c-0.2,0.2-0.3,0.4-0.3,0.8c0,0.2,0,0.3,0.1,0.5
			c0.1,0.1,0.1,0.2,0.2,0.3c0.1,0.1,0.2,0.2,0.3,0.2c0.1,0,0.3,0.1,0.4,0.1c0.2,0,0.4,0,0.6-0.1s0.3-0.1,0.5-0.2
			c0.1-0.1,0.3-0.2,0.3-0.2s0.2-0.1,0.2-0.2V39z"/>
		<path d="M82.2,36.6L82.2,36.6c0.1-0.1,0.2-0.3,0.4-0.4c0.1-0.1,0.3-0.2,0.4-0.3c0.2-0.1,0.3-0.2,0.5-0.2c0.2,0,0.4-0.1,0.6-0.1
			c0.3,0,0.5,0,0.7,0.1c0.2,0.1,0.4,0.2,0.6,0.3s0.3,0.4,0.4,0.6c0.1,0.3,0.2,0.6,0.2,1v3.8h-0.9v-3.7c0-0.5-0.1-0.8-0.3-1.1
			s-0.5-0.3-0.8-0.3c-0.3,0-0.6,0.1-0.9,0.3s-0.6,0.4-0.8,0.7v4.1h-0.9v-5.8H82L82.2,36.6z"/>
		<path d="M90.1,35.7c0.3,0,0.5,0,0.7,0.1c0.2,0.1,0.3,0.1,0.5,0.2c0.1,0.1,0.2,0.2,0.3,0.3s0.1,0.2,0.2,0.2h0l0.2-0.7h0.7v6.1
			c0,0.4-0.1,0.8-0.2,1.2c-0.2,0.3-0.3,0.6-0.6,0.8s-0.6,0.4-0.9,0.5c-0.4,0.1-0.8,0.2-1.2,0.2c-0.4,0-0.7,0-1-0.1
			c-0.3-0.1-0.5-0.2-0.7-0.2v-0.8c0.1,0.1,0.3,0.1,0.4,0.1c0.1,0,0.3,0.1,0.4,0.1s0.3,0,0.4,0.1c0.1,0,0.3,0,0.5,0
			c0.7,0,1.2-0.2,1.6-0.5s0.5-0.8,0.5-1.4V41h0c-0.2,0.2-0.4,0.4-0.7,0.5c-0.3,0.1-0.6,0.2-0.9,0.2c-0.2,0-0.3,0-0.5,0
			c-0.2,0-0.4-0.1-0.6-0.2c-0.2-0.1-0.4-0.2-0.5-0.3c-0.2-0.1-0.3-0.3-0.4-0.5s-0.2-0.5-0.3-0.8c-0.1-0.3-0.1-0.6-0.1-1
			c0-0.5,0.1-1,0.2-1.4c0.2-0.4,0.3-0.7,0.6-1c0.2-0.3,0.5-0.5,0.8-0.6C89.4,35.7,89.7,35.7,90.1,35.7z M88.5,38.7
			c0,0.5,0.1,0.8,0.2,1.1s0.3,0.5,0.4,0.7c0.2,0.2,0.3,0.3,0.6,0.3c0.2,0.1,0.4,0.1,0.6,0.1c0.3,0,0.6-0.1,0.8-0.2
			c0.3-0.1,0.5-0.3,0.7-0.5v-3c-0.1-0.1-0.1-0.2-0.2-0.3c-0.1-0.1-0.2-0.2-0.3-0.3c-0.1-0.1-0.3-0.2-0.4-0.2c-0.2,0-0.3-0.1-0.5-0.1
			c-0.3,0-0.5,0.1-0.7,0.2c-0.2,0.1-0.4,0.3-0.5,0.5c-0.1,0.2-0.3,0.4-0.3,0.7C88.5,38.1,88.5,38.4,88.5,38.7z"/>
		<path d="M97.2,40.9c0.3,0,0.6,0,0.8-0.1c0.3,0,0.5-0.1,0.8-0.2v0.8c-0.2,0.1-0.5,0.2-0.8,0.2s-0.6,0.1-1,0.1c-0.4,0-0.8,0-1.2-0.2
			c-0.4-0.1-0.7-0.3-0.9-0.5c-0.3-0.2-0.5-0.5-0.6-0.9c-0.2-0.4-0.2-0.8-0.2-1.4c0-0.5,0.1-1,0.2-1.4c0.1-0.4,0.3-0.7,0.6-1
			c0.2-0.3,0.5-0.5,0.8-0.6c0.3-0.1,0.6-0.2,1-0.2c0.3,0,0.6,0,0.9,0.2s0.5,0.3,0.7,0.5c0.2,0.2,0.4,0.5,0.5,0.9
			c0.1,0.4,0.2,0.8,0.2,1.3c0,0,0,0.1,0,0.1s0,0.1,0,0.2h-4c0,0.4,0.1,0.7,0.2,0.9s0.3,0.5,0.4,0.6c0.2,0.2,0.4,0.3,0.7,0.3
			C96.6,40.9,96.8,40.9,97.2,40.9z M96.7,36.5c-0.2,0-0.4,0-0.6,0.1c-0.2,0.1-0.3,0.2-0.5,0.3c-0.1,0.2-0.3,0.3-0.3,0.5
			c-0.1,0.2-0.1,0.4-0.2,0.6H98c0-0.2,0-0.4-0.1-0.6c-0.1-0.2-0.2-0.4-0.3-0.5c-0.1-0.2-0.3-0.3-0.4-0.3
			C97.1,36.5,96.9,36.5,96.7,36.5z"/>
	</g>
</g>
</svg>
