<?xml version="1.0" encoding="utf-8"?>
<!-- Generator: Adobe Illustrator 24.1.2, SVG Export Plug-In . SVG Version: 6.00 Build 0)  -->
<svg version="1.1" id="Слой_1" xmlns="http://www.w3.org/2000/svg" xmlns:xlink="http://www.w3.org/1999/xlink" x="0px" y="0px"
	 viewBox="0 0 100 60" style="enable-background:new 0 0 100 60;" xml:space="preserve">
<style type="text/css">
	.st0{opacity:0.74;}
	.st1{fill:#E83F33;}
</style>
<g class="st0">
	<path class="st1" d="M37.5,20.4c0.8,0,1.6,0,2.4,0c0.1,0.2,0,0.3,0,0.4c0,0.9,0,1.8,0,2.7l0,7.9c0,0-2.1,0.1,0,0
		c2.4-0.1,2.2-2.6,2.2-2.6s-0.2,2.2,0,0s-2.3-2.7-2.3-2.7v-0.3l-0.1-2.1c2.7,0.1,3.9,2,3.9,2c1.9,2.5,1.2,7.4-3.3,8
		c-0.3,0-0.4,0.2-0.4,0.4c0,0.9,0,1.8,0,2.7l0,0.4h-2.4c0-1.2,0-2.4,0-3.5c-1.5-0.2-2.8-0.8-3.8-2c-0.8-1.1-1-2.3-0.9-3.5
		c0,0,0.4-4.6,4.9-4.4l-0.1,2.3c0,0-2.4-0.1-2.4,2.6s0,0,0,0s-0.3,2.5,2.2,2.7c2.5,0.2,0,0,0,0L37.5,20.4z"/>
	<path class="st1" d="M61.4,22.8c2.1,0,4.2,0,6.2,0c0-0.8,0-1.6,0-2.4c-2.9,0-5.8,0-8.8,0c0,4.4,0,8.8,0,13.2c0.1,0,0.2,0,0.3,0
		c1.6,0,3.3,0,4.9,0c0.5,0,1,0,1.5-0.1c0.8-0.2,1.6-0.5,2.2-1.2c0.9-1.1,1-2.3,0.8-3.6c-0.3-1.9-1.7-2.9-3.5-3.1
		c-1-0.1-2.7-0.1-3.8-0.1v2.4c0,0,4.6-0.6,4.8,1.5c0.2,2.2,0,0,0,0s0.1,1.8-1.7,1.9c-1.9,0.1,0,0,0,0l-3,0L61.4,22.8z"/>
	<path class="st1" d="M3.5,33.6c0.3,0,0.4-0.1,0.5-0.4c0.3-0.8,0.5-1.6,0.8-2.4h0.9l0.1-2.3l-0.3,0l1.9-5.3l1.7,5.3h-4l-0.8,2.4h5.5
		l0.1,0.2c0.2,0.7,0.5,1.5,0.7,2.2c0.1,0.2,0.1,0.3,0.3,0.3c0.8,0,1.7,0,2.6,0c0-0.1-0.1-0.3-0.1-0.4c-1.2-3.7-2.5-7.4-3.7-11.1
		c-0.1-0.4-0.3-0.7-0.5-1c-0.8-1.1-2.7-1.2-3.5-0.1c-0.3,0.4-0.4,0.8-0.6,1.2c-1.3,3.7-2.6,7.3-3.9,11l-0.1,0.4L3.5,33.6z"/>
	<path class="st1" d="M73.5,29.4c0,0-1.6-0.1-1.6,0.9c0,1.1,0,0,0,0s-0.3,1.4,1.5,1.4s0,0,0,0s2.2,0.3,1.8-2.3c-0.3-2.6,0,0,0,0
		H73.5l0.4-2l1.3,0c0.1-0.9-0.4-1.5-1.3-1.5c-0.3,0-0.6,0-0.9,0.1c-0.2,0.1-0.5,0.2-0.6,0.4c-0.2,0.5-0.6,0.5-1,0.4
		c-0.5,0-1,0-1.6,0c0,0-0.1,0-0.1,0c-0.1-0.1,0-0.3,0-0.4c0.3-1,0.9-1.8,1.8-2.3c1.4-0.6,2.8-0.7,4.1-0.1c1.3,0.5,1.9,1.6,2,2.9
		c0.1,1.2,0,2.3,0,3.5c0,0.4,0,0.8,0.5,0.8c0.1,0,0.1,0.1,0.1,0.2c0,0.7,0,1.3,0,2c-1.3,0.2-2.2-0.1-2.8-0.9
		c-0.1,0.1-0.3,0.3-0.4,0.4c-0.6,0.5-1.3,0.7-2.1,0.7c-1.2,0-2.3-0.3-3-1.4c-0.8-1.1-0.8-3.1,0.4-4.1c0.5-0.4,1.1-0.6,1.7-0.7
		c0,0,2.4-0.3,3.5,0L73.5,29.4z"/>
	<path class="st1" d="M50.1,29.4c0,0-1.6-0.1-1.6,0.9c0,1.1,0,0,0,0s-0.3,1.4,1.5,1.4c1.8,0.1,0,0,0,0s2.2,0.3,1.8-2.3
		c-0.3-2.6,0,0,0,0H50.1l0.4-2l1.3,0c0.1-0.9-0.4-1.5-1.3-1.5c-0.3,0-0.6,0-0.9,0.1c-0.2,0.1-0.5,0.2-0.6,0.4
		c-0.2,0.5-0.6,0.5-1,0.4c-0.5,0-1,0-1.6,0c0,0-0.1,0-0.1,0c-0.1-0.1,0-0.3,0-0.4c0.3-1,0.9-1.8,1.8-2.3c1.4-0.6,2.8-0.7,4.1-0.1
		c1.3,0.5,1.9,1.6,2,2.9c0.1,1.2,0,2.3,0,3.5c0,0.4,0,0.8,0.5,0.8c0.1,0,0.1,0.1,0.1,0.2c0,0.7,0,1.3,0,2c-1.3,0.2-2.2-0.1-2.8-0.9
		c-0.1,0.1-0.3,0.3-0.4,0.4c-0.6,0.5-1.3,0.7-2.1,0.7c-1.2,0-2.3-0.3-3-1.4c-0.8-1.1-0.8-3.1,0.4-4.1c0.5-0.4,1.1-0.6,1.7-0.7
		c0,0,2.4-0.3,3.5,0L50.1,29.4z"/>
	<path class="st1" d="M85.7,24.1c0.8,0,1.6,0,2.4,0c0,3.1,0,6.3,0,9.4c-0.8,0-1.6,0-2.4,0c0-1.2,0-2.4,0-3.6
		c-0.1-0.1-0.2-0.1-0.3-0.1c-0.9,0-1.8,0-2.7,0c-0.3,0-0.4,0.1-0.4,0.4c0,1,0,1.9,0,2.9c0,0.1,0,0.3,0,0.5c-0.8,0-1.5,0-2.3,0
		c-0.1-0.1-0.1-0.2-0.1-0.3c0-2.9,0-5.8,0-8.7c0-0.3,0.1-0.4,0.4-0.4c0.7,0,1.3,0,2,0c0,1.2,0,2.3,0,3.5c1.1,0,2.2,0,3.4,0
		C85.7,26.4,85.7,25.3,85.7,24.1z"/>
	<path class="st1" d="M94.7,28.6c1.5,1.7,2.9,3.3,4.3,4.9c-0.1,0.1-0.2,0.1-0.3,0.1c-0.8,0-1.6,0-2.4,0c-0.2,0-0.4-0.1-0.6-0.2
		c-1-1.2-2.1-2.3-3.1-3.5c-0.1-0.1-0.1-0.1-0.3-0.3c0,1.4,0,2.6,0,3.9c-0.8,0-1.6,0-2.4,0c0-3.1,0-6.3,0-9.4c0.8,0,1.6,0,2.4,0
		c0,1.2,0,2.4,0,3.6c0,0,0,0,0.1,0c0.5-0.6,1-1.1,1.5-1.7c0.5-0.6,1.1-1.2,1.6-1.8c0.1-0.1,0.2-0.2,0.4-0.2c0.9,0,1.8,0,2.9,0
		C97.4,25.6,96,27.1,94.7,28.6z"/>
	<path class="st1" d="M14.1,33.5c0-0.7,0-1.4,0-2.1c0-0.1,0.1-0.1,0.2-0.1c0.6-0.1,0.9-0.3,1-0.9c0.1-0.8,0.1-1.7,0.2-2.5
		c0-1.2,0.1-2.3,0.1-3.5c0-0.1,0-0.2,0-0.3c2.3,0,4.6,0,6.9,0c0,3.1,0,6.3,0,9.4c-0.3,0.1-0.6,0-0.9,0c-0.4,0-0.8,0-1.1,0
		c-0.3,0-0.3-0.1-0.3-0.4c0-1.4,0-2.8,0-4.2c0-0.9,0-1.7,0-2.6c-0.8,0-1.5,0-2.3,0c-0.1,0.6-0.1,1.1-0.1,1.7c0,1.1,0,2.2-0.2,3.3
		c-0.3,1.3-1,2.1-2.5,2.2C14.7,33.5,14.4,33.6,14.1,33.5z"/>
	<path class="st1" d="M26.7,24.1c-0.8,0-1.6,0-2.4,0c0,3.2,0,6.3,0,9.4c0,0,0.1,0,0.1,0c1.6,0,3.3,0.1,4.9-0.1
		c1.1-0.1,1.9-0.7,2.4-1.7c0.2-0.4,0.3-0.8,0.3-1.2c0.2-1.8-0.7-3.2-2.6-3.6c-0.8-0.1-2.1-0.1-2.9-0.1l-0.1,2c0,0,3.2-0.5,3.1,1.2
		c-0.1,1.5-1.5,1.2-2.9,1.3l0,0L26.7,24.1z"/>
	<path class="st1" d="M13.9,37.6c0,0.9,0,1.8,0,2.7c-4.3,0-8.6,0-12.9,0c0-0.9,0-1.7,0-2.7C5.3,37.6,9.6,37.6,13.9,37.6z"/>
</g>
</svg>
