<?xml version="1.0" encoding="utf-8"?>
<!-- Generator: Adobe Illustrator 24.1.2, SVG Export Plug-In . SVG Version: 6.00 Build 0)  -->
<svg version="1.1"
	 id="svg5" xmlns:inkscape="http://www.inkscape.org/namespaces/inkscape" xmlns:sodipodi="http://sodipodi.sourceforge.net/DTD/sodipodi-0.dtd" xmlns:svg="http://www.w3.org/2000/svg"
	 xmlns="http://www.w3.org/2000/svg" xmlns:xlink="http://www.w3.org/1999/xlink" x="0px" y="0px" viewBox="0 0 362.4 274.4"
	 style="enable-background:new 0 0 362.4 274.4;" xml:space="preserve">
<style type="text/css">
	.st0{opacity:0.81;}
	.st1{fill-rule:evenodd;clip-rule:evenodd;fill:#1D1D1B;}
	.st2{fill:#FFC800;}
</style>
<sodipodi:namedview  bordercolor="#666666" borderopacity="1.0" id="namedview7" inkscape:current-layer="layer1" inkscape:cx="241.48944" inkscape:cy="163.93683" inkscape:document-units="mm" inkscape:pagecheckerboard="0" inkscape:pageopacity="0.0" inkscape:pageshadow="2" inkscape:window-height="1017" inkscape:window-maximized="1" inkscape:window-width="1920" inkscape:window-x="-8" inkscape:window-y="-8" inkscape:zoom="1.8116734" pagecolor="#ffffff" showgrid="false">
	</sodipodi:namedview>
<g class="st0">
	<polygon class="st1" points="355.8,128.3 355.7,128.1 354.2,128.1 352,133.3 349.7,128.1 348.2,128.1 348.2,136.3 349.5,136.3 
		349.5,130.5 351.4,135.2 352.5,135.2 354.6,130.5 354.3,136.1 354.6,136.3 355.7,136.3 355.8,136.1 	"/>
	<g>
		<g id="layer1" transform="translate(25.890543,-68.63694)" inkscape:groupmode="layer" inkscape:label="Layer 1">
			<g id="g859" transform="matrix(3.5301229,0,0,3.5301229,-25.890174,68.651313)">
				<path id="path849" class="st2" d="M16,52.6c7.7,0.1,14-6,14.2-13.8C30.1,31.2,23.7,25,16,25.1C8.3,25,2,31.2,1.9,38.9
					C2,46.6,8.3,52.7,16,52.6z"/>
				<path id="path851" d="M22.1,49.1c-4.8,2.7-10,3.2-13.4,1.6c4.4,2.6,9.9,2.6,14.3,0.1c4.4-2.4,7.1-7.1,7.1-12.1
					C30,42.3,26.9,46.4,22.1,49.1L22.1,49.1z"/>
				<path id="path853" d="M17.8,26.1c1,1.6-1.4,4.7-5.3,6.9s-7.8,2.6-8.8,1c0-0.1-0.1-0.2-0.1-0.2c-0.2-1,0.1-2,0.8-2.8
					c0.1-0.2,0.2-0.3,0.4-0.5C6,29,7.4,27.8,9,26.9s3.4-1.5,5.2-1.7c0.2,0,0.4-0.1,0.6-0.1c1-0.2,2.1,0.1,2.9,0.7
					C17.7,26,17.8,26,17.8,26.1z"/>
				<path id="path855" d="M23.9,27.9c1.7,2.9-1.7,7.9-7.7,11.2c-5.9,3.3-12.1,3.7-13.8,0.8c-0.3-0.5-0.4-1-0.5-1.6
					c-0.1,2,0.3,3.9,1.1,5.7c0.1,0.3,0.2,0.6,0.4,0.8l0,0c0.5,0.9,1.3,1.6,2.2,2c3.3,1.7,9,1.1,14.2-1.8c5.3-3,8.6-7.4,8.7-11.1
					c0.1-1-0.2-2-0.7-2.9c-0.2-0.3-0.4-0.6-0.6-0.8c-1.2-1.5-2.8-2.8-4.5-3.7C23.2,27,23.6,27.4,23.9,27.9L23.9,27.9L23.9,27.9z"/>
			</g>
		</g>
		<polygon class="st1" points="347.1,128.3 346.9,128.1 341.5,128.1 341.5,129.4 343.5,129.4 343.5,136.1 343.8,136.3 344.8,136.3 
			344.8,129.4 346.9,129.4 347.1,129.2 		"/>
		<path class="st1" d="M210.3,128.1c-7.9,0-12.4,4.5-13.5,13.6l-0.9,9.3c-0.3,3.9-2.2,6-5.6,6.6c-0.9,0-1.3,0.4-1.3,1.3v3.7
			c0,0.8,0.4,1.3,1.3,1.3c7.5,0,11.7-4.4,12.5-13.2l0.9-8.2c0.2-3.1,0.8-5.1,1.6-6c0.9-1.1,2.7-1.7,5.3-1.7h6v27.5
			c0,0.8,0.4,1.3,1.3,1.3h4.3c0.8,0,1.3-0.4,1.3-1.3v-32.8c0-0.9-0.4-1.3-1.3-1.3h-11.9V128.1z"/>
		<path class="st1" d="M161.6,148.6v-19.2c0-0.9-0.4-1.3-1.3-1.3h-4.5c-0.8,0-1.3,0.4-1.3,1.3v21.4c0,8.8,4.2,13.2,12.5,13.2
			c4.1,0,7.9-1.5,11.5-4.5l0.7,3.1c0.4,0.5,0.7,0.7,1.1,0.7h3.1c0.9,0,1.3-0.4,1.3-1.1v-33c0-0.9-0.5-1.3-1.5-1.3H179
			c-0.9,0-1.3,0.4-1.3,1.3v23.1c-2.6,3.1-5.9,4.7-9.7,4.7C163.8,157.2,161.6,154.3,161.6,148.6L161.6,148.6z"/>
		<path class="st1" d="M149.4,147.5c0-10.9-6-16.4-17.9-16.4h-8.9v-10.8h20.7c0.9,0,1.3-0.5,1.3-1.5v-3.9c-0.1-1-0.4-1.5-1.3-1.5
			h-26.6c-0.9,0-1.3,0.5-1.3,1.5v33.8c0,10,4.8,15.1,14.2,15.1h1.3C143.1,163.7,149.4,158.3,149.4,147.5L149.4,147.5z M131.6,137.8
			c6.8,0,10.3,3.3,10.3,9.8c0,6.3-3.4,9.5-10.3,9.5h-2.2c-4.6-0.1-6.9-2.6-6.9-7.7v-11.6H131.6L131.6,137.8z"/>
		<path class="st1" d="M326.9,142.3h-16.2v-12.9c0-0.9-0.4-1.3-1.3-1.3H305c-0.8,0-1.2,0.4-1.1,1.3v32.8c-0.1,0.8,0.3,1.3,1.1,1.3
			h4.4c0.9,0,1.3-0.4,1.3-1.3v-13.6h16.2v13.6c0,0.8,0.5,1.3,1.4,1.3h4.2c0.9,0,1.3-0.4,1.3-1.3v-32.8c0-0.9-0.4-1.3-1.3-1.3h-4.2
			c-0.9,0-1.4,0.4-1.4,1.3V142.3L326.9,142.3z"/>
		<path class="st1" d="M294.3,128.1H290c-1,0-1.5,0.4-1.5,1.3v23.1c-2.6,3.1-5.8,4.7-9.7,4.7c-4.3,0-6.5-2.9-6.5-8.6v-19.2
			c0-0.9-0.4-1.3-1.3-1.3h-4.3c-1,0-1.5,0.4-1.5,1.3v21.4c0,8.8,4.2,13.2,12.5,13.2c4.5,0,8.3-1.5,11.6-4.5l0.7,3.1
			c0.4,0.5,0.7,0.7,1.2,0.7h3.1c0.8,0,1.3-0.4,1.3-1.1v-33C295.6,128.5,295.2,128.1,294.3,128.1L294.3,128.1z"/>
		<path class="st1" d="M295.5,114.8c0-1-0.4-1.5-1.3-1.5h-27.4c-1,0-1.5,0.5-1.5,1.5v3.9c0,1,0.5,1.5,1.5,1.5h27.4
			c0.9,0,1.3-0.5,1.3-1.5V114.8L295.5,114.8z"/>
		<path class="st1" d="M249.8,134.8c0.7,0.9,1,2.4,1,4.5v0.8l-7.8,0.4c-8.8,0.6-13.2,4.5-13.2,11.8c0,7.9,4.5,11.9,13.4,11.9
			c3.2,0,6.3-0.8,9.1-2.6l0.6,1.3c0.5,0.5,1,0.7,1.3,0.7h2.7c0.7,0,1-0.4,1-1.1v-23.1c0-8.3-4.5-12.4-13.8-12.4
			c-3.9,0-7.5,0.6-10.6,1.9c-0.5,0.4-0.8,0.9-0.8,1.3v3.9c0.1,0.6,0.4,1,0.6,1.1c0.5,0.1,0.9,0.1,1.1,0.1c2.8-1.1,6.1-1.6,9.7-1.6
			C246.9,133.5,248.8,134,249.8,134.8L249.8,134.8z M243.3,157.6c-4,0-6-1.8-6-5.4c-0.1-3.5,1.8-5.4,5.6-5.7l7.8-0.7l0.1,9.5
			C248.3,156.8,245.7,157.6,243.3,157.6L243.3,157.6z"/>
	</g>
</g>
</svg>
