<?xml version="1.0" encoding="utf-8"?>
<!-- Generator: Adobe Illustrator 24.1.2, SVG Export Plug-In . SVG Version: 6.00 Build 0)  -->
<svg version="1.1" id="Слой_1" xmlns="http://www.w3.org/2000/svg" xmlns:xlink="http://www.w3.org/1999/xlink" x="0px" y="0px"
	 viewBox="0 0 100 60" style="enable-background:new 0 0 100 60;" xml:space="preserve">
<style type="text/css">
	.st0{opacity:0.69;}
	.st1{fill:#0079C2;}
</style>
<g id="layer1" transform="translate(-8.479224,-404.6258)" class="st0">
	<g id="g2058" transform="translate(7.081015,7.088444)">
		<path id="path26" class="st1" d="M32.7,430.1h6.2v2h-3v14.3h-3.3V430.1"/>
		<path id="path28" class="st1" d="M42.6,440.3l0.6-8.2h0.2l0.6,8.2H42.6z M39,446.4h3.2l0.3-4.3H44l0.3,4.3h3.2l-1.7-16.3h-5.1
			L39,446.4"/>
		<path id="path30" class="st1" d="M52.2,440.7v3.1c0,0.4,0.3,0.5,0.5,0.5c0.3,0,0.5-0.3,0.5-0.5V440c0-0.5-0.1-1.1-1.3-1.1h-1.3
			v-1.8h1.4c0.9,0,1.3-0.2,1.3-1.2v-3.2c0-0.3-0.2-0.5-0.5-0.5c-0.2,0-0.5,0.1-0.5,0.5v2.7h-3.3V433c0-1.1,0.1-2.9,2.4-2.9H54
			c2.3,0,2.4,1.8,2.4,2.9v2.6c0,1.8-1.2,2.3-2.2,2.2v0.2c2.2-0.1,2.2,1.6,2.2,2.2v3.3c0,1.1-0.1,2.9-2.4,2.9h-2.7
			c-2.3,0-2.4-1.8-2.4-2.9v-2.8H52.2"/>
		<path id="path32" class="st1" d="M58.6,430.1h7.6v16.3h-3.3v-14.3h-1v14.3h-3.3V430.1"/>
		<path id="path34" class="st1" d="M71.5,439v-6.9H72c0.3,0,0.6,0.3,0.6,0.8v5.3c0,0.5-0.3,0.8-0.6,0.8H71.5z M68.3,446.4h3.3v-5.5
			h1.9c2.3,0,2.4-1.8,2.4-2.9V433c0-1.1-0.1-2.9-2.4-2.9h-5.1V446.4"/>
		<path id="path36" class="st1" d="M82.3,443.7c0,0.3-0.2,0.5-0.5,0.5c-0.2,0-0.5-0.1-0.5-0.5v-11.1c0-0.4,0.3-0.5,0.5-0.5
			c0.3,0,0.5,0.3,0.5,0.5V443.7z M78,443.5c0,1.1,0.1,2.9,2.4,2.9h2.7c2.3,0,2.4-1.8,2.4-2.9V433c0-1.1-0.1-2.9-2.4-2.9h-2.7
			c-2.3,0-2.4,1.8-2.4,2.9V443.5"/>
		<path id="path38" class="st1" d="M96.1,430.1h4.3v16.3h-3.3v-10.2H97l-1.7,10.2h-2.6l-1.7-10.2h-0.1v10.2h-3.3v-16.3h4.2l2.1,11.5
			L96.1,430.1"/>
		<path id="path40" class="st1" d="M28.4,407.8c-1-4.4-3.5-7.9-3.8-8.5c-0.5,0.8-2.5,4-3.6,7.4c-1.1,3.9-1.3,7.3-0.9,10.7
			c0.4,3.4,1.8,6.9,1.8,6.9c0.8,1.8,1.9,3.8,2.6,4.7c1.1-1.4,3.6-5.6,4.4-11.2C29.4,414.8,29.4,412.1,28.4,407.8z M24.6,428
			c-0.5-0.9-1.3-2.7-1.3-5.4c0-2.6,1-4.9,1.3-5.3c0.3,0.5,1.2,2.4,1.3,5.1C26,425,25.1,427,24.6,428z M28.1,415.2
			c0,1.7-0.2,3.4-0.5,4.5c0.1-1.8-0.1-4.4-0.5-6.4c-0.4-2-1.6-5.3-2.5-6.9c-0.9,1.5-1.9,4.4-2.5,6.9c-0.6,2.5-0.6,5.5-0.6,6.4
			c-0.1-0.8-0.5-3.5-0.4-6.2c0.1-2.3,0.6-4.6,0.9-5.7c1.1-3.6,2.4-5.9,2.6-6.2c0.2,0.4,1.8,3.2,2.6,6.1
			C28,410.7,28.2,413.5,28.1,415.2"/>
		<path id="path42" class="st1" d="M26.3,430.1h-7.6v5.1c0,0,0,0,0,0c1.8-1.8,4.7-1.8,6.5,0c1.8,1.8,1.8,4.7,0,6.5c0,0,0,0,0,0l0,0
			c0,0,0,0,0,0c-1.8,1.8-4.1,2.6-6.4,2.6c-2.3,0-4.7-0.9-6.5-2.7c-3.1-3.1-3.5-8-1.1-11.6c0.3-0.5,0.7-0.9,1.1-1.4
			c1.8-1.8,4.1-2.7,6.5-2.7v-12.2c-9,0-16.3,7.3-16.3,16.3c0,9,7.3,16.3,16.3,16.3c4.7,0,8.9-2,11.9-5.2v-11.1H26.3"/>
	</g>
</g>
</svg>
