<?xml version="1.0" encoding="utf-8"?>
<!-- Generator: Adobe Illustrator 24.1.2, SVG Export Plug-In . SVG Version: 6.00 Build 0)  -->
<svg version="1.1" id="Слой_1" xmlns="http://www.w3.org/2000/svg" xmlns:xlink="http://www.w3.org/1999/xlink" x="0px" y="0px"
	 viewBox="0 0 100 60" style="enable-background:new 0 0 100 60;" xml:space="preserve">
<style type="text/css">
	.st0{opacity:0.71;}
	.st1{fill:#00985F;}
</style>
<g class="st0">
	<path class="st1" d="M10.8,22.1v8.8c0,0.4-0.3,0.7-0.7,0.7H9c-0.1,0-0.1,0.1-0.1,0.1v7.4c0.3,0,0.5,0.1,0.8,0.1
		c4.8,0,8.6-3.8,8.6-8.6C18.3,26.2,15.1,22.6,10.8,22.1z M10.6,35.3c-0.6,0-1.1-0.5-1.1-1.1c0-0.6,0.5-1.1,1.1-1.1
		c0.6,0,1.1,0.5,1.1,1.1C11.7,34.8,11.2,35.3,10.6,35.3z M13.1,35.3c-0.6,0-1.1-0.5-1.1-1.1c0-0.6,0.5-1.1,1.1-1.1
		c0.6,0,1.1,0.5,1.1,1.1S13.7,35.3,13.1,35.3z M15.7,35.3c-0.6,0-1.1-0.5-1.1-1.1c0-0.6,0.5-1.1,1.1-1.1c0.6,0,1.1,0.5,1.1,1.1
		S16.3,35.3,15.7,35.3z"/>
	<path class="st1" d="M9.8,22c-4.8,0-8.6,3.8-8.6,8.6c0,4.1,2.9,7.6,6.8,8.4v-7.7c0-0.4,0.3-0.7,0.7-0.7h1.1c0.1,0,0.1-0.1,0.1-0.1
		V22z M8.1,29.1C7.5,29.1,7,28.6,7,28C7,27.4,7.5,27,8.1,27c0.6,0,1.1,0.5,1.1,1.1S8.7,29.1,8.1,29.1L8.1,29.1z M95.8,26.7v3.2h-4.3
		v-3.2h-2.2v8.6h2.2v-3.5h4.3v3.5h2.1v-8.6L95.8,26.7z M60,27.7c-0.4-0.8-1.1-1.2-1.8-1.2s-1.4,0.4-1.8,1.2L53,35.3h2.3l0.8-1.8h4.4
		l0.8,1.8h2.3L60,27.7z M56.7,31.8l1.3-3.1c0.1-0.1,0.1-0.1,0.2-0.1c0.1,0,0.2,0,0.2,0.1l1.3,3.1H56.7z M34.4,25.1
		c-1,0-1.7,0.6-2.1,1.6l-2.8,6.5l-2.8-6.5c-0.5-1.1-1.1-1.6-2.1-1.6c-1,0-1.9,0.7-1.9,2.1v8h2.1v-7.7l2.8,6.4c0.4,0.9,1,1.5,1.9,1.5
		c0.9,0,1.5-0.6,1.9-1.5l2.8-6.4v7.8h2.1v-8C36.3,25.8,35.4,25.1,34.4,25.1L34.4,25.1z M40.1,33.5c-0.1,0-0.2-0.1-0.2-0.2v-1.5h5.4
		V30h-5.4v-1.3c0-0.1,0.1-0.2,0.2-0.2h5.3v-1.8h-6.4c-0.8,0-1.3,0.6-1.3,1.3v6c0,0.7,0.6,1.3,1.3,1.3h6.4v-1.8h-5.3V33.5z M49,35.3
		v-6.6c0-0.1,0.1-0.2,0.2-0.2h5.3v-1.8h-6.4c-0.8,0-1.3,0.6-1.3,1.3v7.3L49,35.3L49,35.3z M87.8,31c0-3-1.3-4.4-4.5-4.4h-0.8
		C79.3,26.6,78,28,78,31c0,2.9,1.3,4.4,4.5,4.4h0.7C86.5,35.3,87.8,33.9,87.8,31z M83.2,33.6h-0.7c-1.8,0-2.5-0.8-2.5-2.6
		c0-1.7,0.6-2.6,2.5-2.6h0.7c1.8,0,2.5,0.9,2.5,2.6C85.7,32.8,85.1,33.6,83.2,33.6z M72,25.3h-4.2c-3.2,0-4.4,1.6-4.4,4.4
		c0,0.5,0.1,0.9,0.1,1.2c0.4,2,1.5,3.2,4.5,3.2h1v1.1H71v-1.1h0.9c3,0,4.1-1.2,4.5-3.2c0.1-0.4,0.1-0.8,0.1-1.2
		C76.5,27,75.2,25.3,72,25.3L72,25.3z M68.8,32.4h-1c-1.5,0-2-0.6-2.3-1.4c-0.1-0.3-0.1-0.8-0.1-1.2c0-1.8,0.9-2.6,2.1-2.6h1.3
		L68.8,32.4L68.8,32.4z M74.2,31c-0.3,0.9-0.9,1.4-2.3,1.4h-1v-5.3h1.3c1.2,0,2.1,0.8,2.1,2.6C74.4,30.2,74.4,30.6,74.2,31L74.2,31z
		"/>
</g>
</svg>
