<?xml version="1.0" encoding="utf-8"?>
<!-- Generator: Adobe Illustrator 24.1.2, SVG Export Plug-In . SVG Version: 6.00 Build 0)  -->
<svg version="1.1" id="Слой_1" xmlns="http://www.w3.org/2000/svg" xmlns:xlink="http://www.w3.org/1999/xlink" x="0px" y="0px"
	 viewBox="0 0 100 60" style="enable-background:new 0 0 100 60;" xml:space="preserve">
<style type="text/css">
	.st0{opacity:0.71;}
	.st1{fill:#8A3FFC;}
</style>
<g class="st0">
	<path class="st1" d="M21.3,40.4C21.3,40.4,21.3,40.5,21.3,40.4c-0.7,0.2-7.9,1.2-10.9-5.1c-0.5-1.2-1-2.5-1-3.1
		c0.2,1.4,0.1,3.1,0.1,4.8c0,1.1-0.1,1.2-1.2,1.2c-0.6,0-1.3,0-1.9,0c-0.7,0-1-0.3-1.2-0.9c-0.7-2.4-1.5-4.7-2.2-7.1
		c-0.6-1.8-1.1-3.6-1.7-5.4c-0.2-0.5-0.2-1-0.4-1.5c0-0.1,0.1-0.2,0.1-0.3c0.2-0.2,0.5-0.1,0.8-0.1c2.2,0,4.4,0,6.7,0
		c0.9,0,1.1,0.1,1.1,1.1c0,1.6,0.1,3.2-0.1,4.7c0.1-1.9,1-3.6,2.3-5.2c1.4-1.6,3-2.6,5-3.2c0,0,0,0,0,0c0.1,0,4.1-0.8,6.9,0.6
		c3.9,1.9,6.1,4.8,6.3,9.2C30.2,35.2,26.2,39.7,21.3,40.4C21.3,40.4,21.3,40.4,21.3,40.4l-0.1-6.5c0,0,0-0.1,0-0.1
		c0.3-0.1,2.3-0.9,2.2-3.6l0,0c0,0,0.1-3.2-3.3-3.8c0,0,0,0,0,0s-3.4-0.5-4.3,3.3l0,0c-0.3,3.1,2.4,4,2.5,4.1c0,0,0,0,0,0
		c0.1,0,1.4,0.7,2.9,0c0,0,0.1,0,0.1,0.1V40.4z"/>
	<path d="M37.8,25.8c0.9,0,1.7,0,2.6,0c0,0.3,0,0.5,0,0.9c2.1-1.7,4.1-1.5,5.9,0.4c0.3-0.1,0.4-0.4,0.6-0.6c1.9-1.8,5.2-1,6,1.4
		c0.1,0.4,0.2,0.8,0.2,1.2c0,2,0,4,0,6.1c-0.9,0-1.8,0-2.7,0c0-1.1,0-2.3,0-3.4c0-0.7,0-1.4,0-2.1c0-1.2-0.7-1.9-1.7-2
		c-1.1,0-1.8,0.7-1.9,1.9c0,1.7,0,3.4,0,5.1c0,0.2,0,0.3,0,0.5c-0.9,0-1.7,0-2.6,0c-0.1-0.2-0.1-0.4-0.1-0.6c0-1.7,0-3.4,0-5.1
		c0-0.9-0.6-1.5-1.4-1.7c-1.2-0.2-2,0.3-2.2,1.5c-0.1,0.4-0.1,0.9-0.1,1.3c0,1.5,0,3.1,0,4.6c-0.9,0-1.7,0-2.6,0
		C37.8,32.1,37.8,29,37.8,25.8z"/>
	<path d="M87.8,31c0.3-2.2-1-4.4-3.2-5.2c-2-0.8-4.5-0.1-5.8,1.6c-1.3,1.7-1.3,4.3-0.1,6.1c1.7,2.4,6.1,2.9,8.8,0.1
		c-0.6-0.4-1.1-0.8-1.7-1.2c-2.2,1.8-4.9,1.4-5.5-0.7h2.8v-2.1h-2.6c0,0,0.5-1.8,2.3-1.7h-0.1c0,0,1.9-0.1,2.3,1.7h-4.9v2.1h7.4
		C87.7,31.6,87.8,31.2,87.8,31z"/>
	<path d="M98.9,25.6l-2.7,0L96,26.2c-0.7,1.8-1.4,3.5-2.2,5.4c-0.8-2.1-1.6-4-2.4-5.9c-1,0-1.9,0-2.9,0c0.1,0.3,0.2,0.5,0.3,0.7
		c1.1,2.7,2.1,5.4,3.2,8.1l0.2,0.7l-1.6,3.7h3.1L98.9,25.6z"/>
	<path d="M75.9,29c0-1.4-0.6-2.6-2-3.2c-1.4-0.6-2.8-0.5-4.1,0.3c-0.3,0.2-0.7,0.7-0.7,0.7l0-1.2c-0.8,0-1.7,0-2.6,0
		c0,3.2,0,6.4,0,9.6c0.9,0,1.7,0,2.6-0.1c0-0.8,0-1.5,0-2.2c0-1.2-0.1-2.4,0.1-3.6c0.1-0.8,0.5-1.3,1.2-1.6c1.4-0.5,2.6,0.4,2.6,1.9
		c0,1.6,0,3.2,0,4.8v0.7h2.7L75.9,29z"/>
	<path d="M59.8,25.4c-2.4,0-5.1,1.6-5,4.9c-0.1,2.9,2.1,5,5,5c0,0,5.2,0.5,5.2-5.2h-2.7c0,0,0.3,2.9-2.5,2.9c-2.5-0.1,0,0,0,0
		s-2.5,0.2-2.5-2.5c-0.1-2.7,0,0,0,0c0,0-0.1-2.8,2.5-2.8c2.7-0.1,0,0,0,0s2.3-0.1,2.5,2.5c0.2,2.7,0,0,0,0H65
		C65,30.3,65.4,25.3,59.8,25.4z"/>
</g>
</svg>
