<?xml version="1.0" encoding="utf-8"?>
<!-- Generator: Adobe Illustrator 24.1.2, SVG Export Plug-In . SVG Version: 6.00 Build 0)  -->
<svg version="1.1" id="Слой_1" xmlns="http://www.w3.org/2000/svg" xmlns:xlink="http://www.w3.org/1999/xlink" x="0px" y="0px"
	 viewBox="0 0 100 60" style="enable-background:new 0 0 100 60;" xml:space="preserve">
<style type="text/css">
	.st0{opacity:0.81;}
	.st1{fill:#FAEB00;}
</style>
<g class="st0">
	<g>
		<path d="M93.1,28.3h2V26H97v2.3h2v-5.8h-2v2h-1.9v-2h-2V28.3z M80.8,24.2c0.4-0.3,1-0.5,1.5-0.5c0.2,0,0.8,0,0.8,0.5
			c0,0.5-0.5,0.5-0.7,0.5h-1v1.3h0.9c0.3,0,0.8,0,0.8,0.5c0,0.2-0.1,0.5-0.8,0.5s-1.2-0.2-1.7-0.5l-0.5,1.4c1.1,0.6,2.1,0.7,2.6,0.7
			c2.3,0,2.6-1.3,2.6-1.8c0-0.6-0.4-1.2-1.2-1.4l0,0c0.5-0.2,0.8-0.7,0.8-1.3c0-1.3-1.4-1.6-2.3-1.6c-0.8,0-1.7,0.2-2.4,0.6
			L80.8,24.2z M76.4,21.8c0.9,0,1.9-0.4,2.3-1.3l-1.3-0.5c-0.2,0.7-0.7,0.7-1,0.7c-0.2,0-0.8,0-0.9-0.7l-1.3,0.5
			C74.5,21.4,75.5,21.8,76.4,21.8 M73.3,22.5v5.8h2l2-3.2v3.2h2v-5.8h-2l-2,3.1v-3.1H73.3z M59.8,27.1v-3.2c-0.7,0-1.4,0.5-1.4,1.6
			C58.4,26.5,59.1,27.1,59.8,27.1 M61.6,23.8v3.2c0.7,0,1.4-0.5,1.4-1.6C63,24.3,62.3,23.8,61.6,23.8 M59.7,30.8v-2.4
			c-1.2,0-3.2-0.5-3.2-3c0-2.5,2-3,3.2-3v-2.5h2v2.5c1.2,0,3.2,0.5,3.2,3c0,2.5-2,3-3.2,3v2.4L59.7,30.8L59.7,30.8z M50.7,27.1v-3.2
			c-0.7,0-1.4,0.5-1.4,1.6C49.3,26.5,50,27.1,50.7,27.1 M52.5,23.8v3.2c0.7,0,1.4-0.5,1.4-1.6C53.8,24.3,53.1,23.8,52.5,23.8
			 M50.5,30.8v-2.4c-1.2,0-3.2-0.5-3.2-3c0-2.5,2-3,3.2-3v-2.5h2v2.5c1.2,0,3.2,0.5,3.2,3c0,2.5-2,3-3.2,3v2.4L50.5,30.8L50.5,30.8z
			 M43.5,21.8c0.9,0,1.9-0.4,2.3-1.3l-1.3-0.5c-0.2,0.7-0.7,0.7-1,0.7c-0.2,0-0.8,0-1-0.7l-1.3,0.5C41.7,21.4,42.6,21.8,43.5,21.8
			 M40.4,22.5v5.8h2l2-3.2v3.2h2v-5.8h-2l-2,3.1v-3.1H40.4z M28,21.6v1.9h0.7c1,0,1.1-0.6,1.1-1c0-0.4-0.1-0.9-1.1-0.9H28L28,21.6z
			 M25.8,28.3v-8.5h3.4c2.3,0,3,1.6,3,2.8s-0.7,2.8-3,2.8H28v2.9H25.8z M72,22.5v5.8h-2v-0.6h0c-0.4,0.6-1.1,0.8-1.7,0.8
			c-1.7,0-2.9-1.4-2.9-3.1c0-1.6,1.2-3.1,2.9-3.1c0.6,0,1.3,0.2,1.8,0.8v-0.5H72z M68.7,24.1c-0.8,0-1.3,0.6-1.3,1.3
			c0,0.7,0.5,1.3,1.3,1.3s1.3-0.6,1.3-1.3S69.6,24.1,68.7,24.1 M39.1,22.5v5.8h-2v-0.6h0c-0.4,0.6-1.1,0.8-1.7,0.8
			c-1.7,0-2.9-1.4-2.9-3.1c0-1.6,1.2-3.1,2.9-3.1c0.6,0,1.3,0.2,1.8,0.8v-0.5H39.1z M35.8,24.1c-0.8,0-1.3,0.6-1.3,1.3
			c0,0.7,0.5,1.3,1.3,1.3c0.8,0,1.3-0.6,1.3-1.3S36.7,24.1,35.8,24.1 M92.1,25.6v0.2h-4.2c0,0.8,0.4,1.3,1.3,1.3
			c0.4,0,0.7-0.2,1-0.5h2c-0.3,1.4-1.6,2-2.9,2c-1.9,0-3.3-1.1-3.3-3.1c0-1.9,1.3-3.1,3.1-3.1C91,22.4,92.1,23.7,92.1,25.6
			 M87.9,24.7h2.4c-0.1-0.5-0.6-0.9-1.2-0.9C88.5,23.8,88,24.1,87.9,24.7 M29,37.5h-0.6l-0.3,1.8h0.6c1.3,0,1.6-0.4,1.7-0.9
			C30.5,37.9,30.3,37.5,29,37.5 M32.7,38.5c-0.1,0.6-0.3,1.2-0.7,1.6c-0.9,0.9-2.3,1-3.1,1h-3.4l1.4-8.5h5.8l-0.3,1.7h-3.5l-0.3,1.7
			h1c0.8,0,1.7,0.1,2.4,0.7C32.6,37,32.9,37.7,32.7,38.5 M38.8,39.6h-3.2L34.7,41h-2.5l4.9-8.5h2.5l2,8.5h-2.5L38.8,39.6z
			 M38.5,37.9L38,35.1h0l-1.4,2.7C36.5,37.9,38.5,37.9,38.5,37.9z M54.6,32.5h-2.4L50.8,41h2.3l0.6-3.7h0l2.4,3.7h3l-3.1-4.5l4.2-4
			h-2.9L54,36.1h0L54.6,32.5z M45.6,32.5l-0.5,3.2h3.1l0.5-3.2H51L49.6,41h-2.3l0.6-3.7h-3.1L44.2,41H42l1.4-8.5
			C43.4,32.5,45.6,32.5,45.6,32.5z"/>
	</g>
	<g>
		<rect x="1.7" y="20.5" class="st1" width="19.9" height="19.9"/>
		<path d="M1.7,20.5h19.9v19.9H1.7C1.7,40.3,1.7,20.5,1.7,20.5z M1,41h21.3V19.8H1V41z"/>
		<g>
			<path d="M11.6,32.8l-6.1,6.1l-2.4-2.4l6.1-6.1l-1.3-1.3v-2.5L7,25.7v2.2l-0.8,0.8l-3.1-3.1l-0.8,0.8c0-0.6,0.1-2.3,1.5-3.6
				c1.5-1.5,3.2-0.8,3.8-0.2l3.1,3.1L10,26.4l1.6,1.6l1.6-1.6l-0.8-0.8l3.1-3.1c0.6-0.5,2.2-1.2,3.8,0.2c1.4,1.4,1.5,3.1,1.5,3.6
				l-0.8-0.8L17,28.7l-0.8-0.8v-2.2l-0.9,0.9v2.5L14,30.4l6.1,6.1l-2.4,2.4L11.6,32.8z"/>
		</g>
	</g>
</g>
</svg>
