<?xml version="1.0" encoding="utf-8"?>
<!-- Generator: Adobe Illustrator 24.1.2, SVG Export Plug-In . SVG Version: 6.00 Build 0)  -->
<svg version="1.1" id="Слой_1" xmlns="http://www.w3.org/2000/svg" xmlns:xlink="http://www.w3.org/1999/xlink" x="0px" y="0px"
	 viewBox="0 0 100 60" style="enable-background:new 0 0 100 60;" xml:space="preserve">
<style type="text/css">
	.st0{opacity:0.71;}
	.st1{fill:#21A038;}
	.st2{fill:url(#SVGID_1_);}
	.st3{fill:url(#SVGID_2_);}
	.st4{fill:url(#SVGID_3_);}
	.st5{fill:url(#SVGID_4_);}
	.st6{fill:url(#SVGID_5_);}
	.st7{fill:url(#SVGID_6_);}
</style>
<g class="st0">
	<path class="st1" d="M77.9,25l3.6-2.7h-12v16.1h12v-2.7h-8.6v-4.1h7.3v-2.7h-7.3V25H77.9z"/>
	<path class="st1" d="M60.4,28.5h-4.2V25h6.7l3.6-2.7H52.8v16.1H60c4,0,6.3-1.8,6.3-5C66.3,30.2,64.2,28.5,60.4,28.5z M59.8,35.7
		h-3.6v-4.4h3.6c2.2,0,3.2,0.7,3.2,2.2C63,35,61.9,35.7,59.8,35.7z"/>
	<path class="st1" d="M91.2,22.3h-6.5v16.1h3.4v-4.5h3.1c4.2,0,6.8-2.2,6.8-5.8S95.4,22.3,91.2,22.3z M91.1,31.1h-3V25h3
		c2.2,0,3.4,1.1,3.4,3.1S93.3,31.1,91.1,31.1z"/>
	<path class="st1" d="M46.9,34.9c-0.9,0.5-1.9,0.8-3,0.8c-3.1,0-5.3-2.2-5.3-5.3S40.9,25,44,25c1.1,0,2.2,0.3,3.1,1l2.5-1.8L49.4,24
		c-1.4-1.3-3.4-1.9-5.5-1.9c-2.4,0-4.5,0.8-6.1,2.3c-1.6,1.5-2.4,3.7-2.4,5.9c0,2.2,0.8,4.4,2.4,6c1.6,1.6,3.8,2.4,6.1,2.4
		c2.5,0,4.6-0.9,6.1-2.4l-2.2-1.7L46.9,34.9z"/>
	<g>
		<path class="st1" d="M24.6,22.2c0.6,0.8,1.1,1.7,1.6,2.7l-12,9l-5-3.2v-3.8l5,3.2L24.6,22.2z"/>
		
			<linearGradient id="SVGID_1_" gradientUnits="userSpaceOnUse" x1="-489.9918" y1="422.9334" x2="-491.0584" y2="426.0402" gradientTransform="matrix(2.9126 0 0 -2.9217 1432.5536 1274.757)">
			<stop  offset="0.1444" style="stop-color:#F2E913"/>
			<stop  offset="0.3037" style="stop-color:#E7E518"/>
			<stop  offset="0.5823" style="stop-color:#CADB26"/>
			<stop  offset="0.891" style="stop-color:#A3CD39"/>
		</linearGradient>
		<path class="st2" d="M4,30.3c0-0.2,0-0.3,0-0.5l-3-0.2c0,0.2,0,0.4,0,0.7c0,3.7,1.5,7,3.9,9.4L7,37.6C5.2,35.7,4,33.2,4,30.3z"/>
		
			<linearGradient id="SVGID_2_" gradientUnits="userSpaceOnUse" x1="-489.7747" y1="428.998" x2="-487.0623" y2="430.0396" gradientTransform="matrix(2.9126 0 0 -2.9217 1432.5536 1274.757)">
			<stop  offset="5.920000e-02" style="stop-color:#0FA8E0"/>
			<stop  offset="0.5385" style="stop-color:#0099F9"/>
			<stop  offset="0.9234" style="stop-color:#0291EB"/>
		</linearGradient>
		<path class="st3" d="M14.7,20.1C14.9,20.1,14.5,20.1,14.7,20.1l0.2-3.1c-0.2,0-0.4,0-0.7,0c-3.6,0-7,1.5-9.3,3.9L7,23.1
			C8.9,21.2,11.9,20.1,14.7,20.1z"/>
		
			<linearGradient id="SVGID_3_" gradientUnits="userSpaceOnUse" x1="-487.2116" y1="422.0186" x2="-483.9834" y2="422.7537" gradientTransform="matrix(2.9126 0 0 -2.9217 1432.5536 1274.757)">
			<stop  offset="0.1226" style="stop-color:#A3CD39"/>
			<stop  offset="0.2846" style="stop-color:#86C339"/>
			<stop  offset="0.8693" style="stop-color:#21A038"/>
		</linearGradient>
		<path class="st4" d="M14.2,40.6c-0.2,0-0.3,0-0.5,0l-0.2,3.1c0.2,0,0.4,0,0.7,0c3.6,0,6.9-1.5,9.3-3.9l-2.2-2.2
			C19.5,39.4,17,40.6,14.2,40.6z"/>
		
			<linearGradient id="SVGID_4_" gradientUnits="userSpaceOnUse" x1="-487.1562" y1="430.1194" x2="-484.422" y2="429.2693" gradientTransform="matrix(2.9126 0 0 -2.9217 1432.5536 1274.757)">
			<stop  offset="5.660000e-02" style="stop-color:#0291EB"/>
			<stop  offset="0.79" style="stop-color:#0C8ACB"/>
		</linearGradient>
		<path class="st5" d="M19.9,21.9l2.6-1.9C20.2,18.1,17.1,17,14,17l0.6,3.1C16.8,20.1,18.3,20.7,19.9,21.9z"/>
		<path class="st1" d="M27.4,30.3c0-0.8-0.1-1.6-0.2-2.4l-2.8,2.1c0,0.1,0,0.2,0,0.3c0,3-1.3,5.7-3.4,7.6l1.9,2.4
			C25.6,38.1,27.4,34.2,27.4,30.3z"/>
		
			<linearGradient id="SVGID_5_" gradientUnits="userSpaceOnUse" x1="-489.9677" y1="422.9588" x2="-487.0848" y2="421.8734" gradientTransform="matrix(2.9126 0 0 -2.9217 1432.5536 1274.757)">
			<stop  offset="0.1324" style="stop-color:#F2E913"/>
			<stop  offset="0.2977" style="stop-color:#EBE716"/>
			<stop  offset="0.5306" style="stop-color:#D9E01F"/>
			<stop  offset="0.8023" style="stop-color:#BBD62D"/>
			<stop  offset="0.9829" style="stop-color:#A3CD39"/>
		</linearGradient>
		<path class="st6" d="M14.2,40.6c-3,0-5.7-1.3-7.5-3.4l-2.3,2.1c2.4,2.7,5.9,4.4,9.8,4.4V40.6z"/>
		
			<linearGradient id="SVGID_6_" gradientUnits="userSpaceOnUse" x1="-491.0638" y1="425.934" x2="-489.9333" y2="428.8975" gradientTransform="matrix(2.9126 0 0 -2.9217 1432.5536 1274.757)">
			<stop  offset="6.980000e-02" style="stop-color:#A3CD39"/>
			<stop  offset="0.2599" style="stop-color:#81C55F"/>
			<stop  offset="0.9216" style="stop-color:#0FA8E0"/>
		</linearGradient>
		<path class="st7" d="M7.4,22.7l-2.2-2.1C2.5,23.1,1,26.4,1,30.3h3C4,27.3,5.3,24.6,7.4,22.7z"/>
	</g>
</g>
</svg>
