<?xml version="1.0" encoding="utf-8"?>
<!-- Generator: Adobe Illustrator 24.1.2, SVG Export Plug-In . SVG Version: 6.00 Build 0)  -->
<svg version="1.1" id="Слой_1" xmlns="http://www.w3.org/2000/svg" xmlns:xlink="http://www.w3.org/1999/xlink" x="0px" y="0px"
	 viewBox="0 0 100 60" style="enable-background:new 0 0 100 60;" xml:space="preserve">
<style type="text/css">
	.st0{opacity:0.83;fill-rule:evenodd;clip-rule:evenodd;fill:#231F20;}
</style>
<path class="st0" d="M24.3,30.2c0,2.7-1,5.3-2.7,7.3c-1.8,2-4.2,3.4-6.9,3.7C12,41.6,9.3,41,7,39.5c-2.2-1.4-3.8-3.5-4.5-6
	c0-0.1,0.1-0.3,0.2-0.2l3.9,1.6c0.1,0,0.1,0.1,0.1,0.1c0.2,0.7,0.6,1.4,1.2,1.8c0.6,0.5,1.4,0.7,2.2,0.6c1.6-0.2,2.9-1.5,2.8-3.2
	v-0.1c0-0.1,0-0.1,0.1-0.1l3.7-2.6c0,0,0.1,0,0.1,0h0c0.8,0,1.6-0.2,2.3-0.7c0.7-0.5,1.2-1.1,1.5-1.9c0.3-0.8,0.4-1.6,0.2-2.4
	c-0.2-0.8-0.6-1.6-1.2-2.2c-0.6-0.6-1.3-1-2.2-1.2c-0.8-0.2-1.7-0.1-2.4,0.2c-0.8,0.3-1.4,0.9-1.9,1.5c-0.5,0.7-0.7,1.5-0.7,2.3v0.1
	L10,31.1c0,0-0.1,0.1-0.1,0.1H9.8c-0.6,0-1.2,0.2-1.7,0.5c0,0-0.1,0-0.2,0l-5.8-2.4C2,29.3,2,29.2,2,29.1c0.3-2.8,1.6-5.4,3.7-7.3
	c2.2-1.9,5-2.9,7.8-2.8C19.6,19.2,24.3,24.2,24.3,30.2L24.3,30.2z M11.9,35.2c-0.2,0.4-0.5,0.8-0.8,1c-0.4,0.3-0.8,0.4-1.3,0.4
	c-0.5,0-0.9-0.1-1.3-0.3c-0.2-0.1-0.4-0.3-0.6-0.6c-0.1-0.1,0-0.3,0.2-0.3L9,35.9c0.2,0.1,0.4,0.1,0.7,0.1c0.2,0,0.5,0,0.7-0.1
	c0.2-0.1,0.4-0.2,0.6-0.4s0.3-0.4,0.4-0.6c0.1-0.2,0.1-0.4,0.1-0.7c0-0.2,0-0.5-0.1-0.7c-0.1-0.2-0.2-0.4-0.4-0.6
	c-0.2-0.2-0.4-0.3-0.6-0.4l-1-0.4c-0.2-0.1-0.1-0.3,0-0.3c0.3,0,0.6,0,0.9,0c0.5,0.1,0.9,0.3,1.2,0.7c0.3,0.3,0.5,0.8,0.6,1.2
	C12.2,34.4,12.1,34.8,11.9,35.2L11.9,35.2L11.9,35.2z M15.2,24.9c0.5-0.3,1-0.5,1.6-0.5c0.7,0,1.5,0.3,2,0.8c0.5,0.5,0.8,1.2,0.8,2
	c0,0.6-0.2,1.1-0.5,1.6c-0.3,0.5-0.7,0.8-1.3,1c-1.1,0.4-2.3,0.2-3.1-0.6c-0.8-0.8-1-2-0.6-3.1C14.4,25.7,14.8,25.2,15.2,24.9
	L15.2,24.9z M15.6,29c0.3,0.2,0.8,0.4,1.2,0.4c0.6,0,1.1-0.2,1.5-0.6c0.4-0.4,0.6-0.9,0.6-1.5c0-0.4-0.1-0.8-0.4-1.2
	s-0.6-0.6-0.9-0.8c-0.4-0.2-0.8-0.2-1.2-0.1c-0.4,0.1-0.8,0.3-1.1,0.6c-0.3,0.3-0.5,0.7-0.6,1.1s0,0.8,0.1,1.2
	C15,28.5,15.3,28.8,15.6,29L15.6,29z M34.2,28.4c-1.5-0.5-2.4-0.9-2.4-1.8s0.7-1.5,1.9-1.5c1.1,0,2.1,0.3,3,0.9c0.1,0,0.2,0,0.2-0.1
	l1-1.8c0-0.1,0-0.2,0-0.2c-1.2-0.8-2.7-1.3-4.2-1.2c-2.8,0-4.7,1.4-4.7,4c0,2.2,1.4,3.2,3.5,3.9c0.1,0.1,0.3,0.1,0.4,0.1
	c1.6,0.5,2.6,0.9,2.6,1.8c0,0.9-0.7,1.5-2.3,1.5c-1.2,0-2.3-0.3-3.4-0.9c-0.1,0-0.2,0-0.2,0.1l-0.7,2.1c0,0.1,0,0.2,0.1,0.2
	c1.4,0.8,2.9,1.2,4.4,1.2c3,0,5-1.5,5-4.3c0-2-1.2-2.9-3.3-3.7C34.8,28.6,34.5,28.5,34.2,28.4L34.2,28.4z M40.3,23.1v2.1
	c0,0.1,0.1,0.2,0.2,0.2h3.6c0.1,0,0.2,0.1,0.2,0.2v10.8c0,0.1,0.1,0.2,0.2,0.2h2.4c0.1,0,0.2-0.1,0.2-0.2V25.5
	c0-0.1,0.1-0.2,0.2-0.2h3.6c0.1,0,0.2-0.1,0.2-0.2v-2.1c0-0.1-0.1-0.2-0.2-0.2H40.5C40.4,22.9,40.3,23,40.3,23.1z M62.4,23.1v2.1
	c0,0.1-0.1,0.2-0.2,0.2h-5.7c-0.1,0-0.2,0.1-0.2,0.2v2.7c0,0.1,0.1,0.2,0.2,0.2h4.8c0.1,0,0.2,0.1,0.2,0.2v2.1
	c0,0.1-0.1,0.2-0.2,0.2h-4.8c-0.1,0-0.2,0.1-0.2,0.2v2.8c0,0.1,0.1,0.2,0.2,0.2h5.7c0.1,0,0.2,0.1,0.2,0.2v2.1
	c0,0.1-0.1,0.2-0.2,0.2h-8.4c-0.1,0-0.2-0.1-0.2-0.2V23.1c0-0.1,0.1-0.2,0.2-0.2h8.4C62.4,22.9,62.4,23,62.4,23.1z M72.3,22.9h-2.6
	c-0.1,0-0.1,0-0.1,0.1l-4.7,13.2c0,0.1,0,0.2,0.1,0.2h2.5c0.1,0,0.1,0,0.1-0.1l0.8-2.4c0-0.1,0.1-0.1,0.1-0.1h4.8
	c0.1,0,0.1,0,0.1,0.1l0.8,2.4c0,0.1,0.1,0.1,0.1,0.1H77c0.1,0,0.2-0.1,0.1-0.2L72.3,22.9L72.3,22.9z M69.2,31.4l1.5-4.8
	c0-0.1,0.2-0.1,0.3,0l1.6,4.8c0,0.1,0,0.2-0.1,0.2h-3.1C69.3,31.6,69.2,31.5,69.2,31.4z M86.7,32.7l4.1-9.7c0-0.1,0.1-0.1,0.1-0.1
	h2.3c0.1,0,0.2,0.1,0.2,0.2v13.2c0,0.1-0.1,0.2-0.2,0.2H91c-0.1,0-0.2-0.1-0.2-0.2v-7.4c0-0.2-0.2-0.2-0.3-0.1L87.4,36
	c0,0.1-0.1,0.1-0.1,0.1h-1.3c-0.1,0-0.1,0-0.1-0.1l-3.1-7.1c-0.1-0.2-0.3-0.1-0.3,0.1v7.3c0,0.1-0.1,0.2-0.2,0.2h-2.3
	c-0.1,0-0.2-0.1-0.2-0.2V23.1c0-0.1,0.1-0.2,0.2-0.2h2.3c0.1,0,0.1,0,0.1,0.1L86.7,32.7L86.7,32.7z M98.7,26.1
	c0.2-0.3,0.3-0.7,0.3-1.1c0-0.5-0.2-1.1-0.5-1.4c-0.4-0.4-0.9-0.6-1.4-0.6c-0.4,0-0.7,0.1-1.1,0.3s-0.6,0.5-0.7,0.9
	c-0.1,0.4-0.2,0.8-0.1,1.2c0.1,0.4,0.3,0.7,0.5,1c0.3,0.3,0.6,0.5,1,0.5s0.8,0,1.1-0.1S98.5,26.4,98.7,26.1L98.7,26.1z M95.8,25.9
	c-0.2-0.3-0.3-0.6-0.3-0.9c0-0.4,0.1-0.9,0.4-1.2c0.1-0.2,0.3-0.3,0.5-0.4c0,0,0,0,0,0c0.2-0.1,0.4-0.1,0.6-0.1
	c0.3,0,0.6,0.1,0.9,0.3s0.5,0.4,0.6,0.7c0.1,0.3,0.2,0.6,0.1,1c-0.1,0.3-0.2,0.6-0.4,0.9c-0.4,0.5-1.1,0.6-1.7,0.4
	C96.2,26.3,96,26.1,95.8,25.9L95.8,25.9z M97.8,24.5c0-0.3-0.2-0.6-0.7-0.6h-0.5c-0.1,0-0.2,0.1-0.2,0.2v1.7c0,0.1,0.1,0.2,0.2,0.2
	l0,0c0.1,0,0.2-0.1,0.2-0.2v-0.5c0-0.1,0.1-0.2,0.2-0.2h0.1c0.1,0,0.1,0,0.1,0.1l0.3,0.6c0,0.1,0.1,0.1,0.1,0.1h0
	c0.1,0,0.2-0.1,0.1-0.2l-0.3-0.5c0-0.1,0-0.2,0-0.2c0.1,0,0.1-0.1,0.1-0.1C97.8,24.7,97.8,24.6,97.8,24.5L97.8,24.5z M97.1,24.8
	h-0.2c-0.1,0-0.2-0.1-0.2-0.2v-0.3c0-0.1,0.1-0.2,0.2-0.2h0.2c0.3,0,0.4,0.1,0.4,0.3c0,0.1,0,0.1,0,0.1c0,0,0,0.1-0.1,0.1
	c0,0,0,0,0,0c0,0-0.1,0-0.1,0C97.2,24.8,97.2,24.8,97.1,24.8L97.1,24.8z"/>
</svg>
