<?xml version="1.0" encoding="utf-8"?>
<!-- Generator: Adobe Illustrator 24.1.2, SVG Export Plug-In . SVG Version: 6.00 Build 0)  -->
<svg version="1.1" id="Слой_1" xmlns="http://www.w3.org/2000/svg" xmlns:xlink="http://www.w3.org/1999/xlink" x="0px" y="0px"
	 viewBox="0 0 100 60" style="enable-background:new 0 0 100 60;" xml:space="preserve">
<style type="text/css">
	.st0{opacity:0.82;fill:#141414;}
</style>
<path class="st0" d="M1.1,24.9v5.3l14.2-1.6v-5.7L1.1,24.9 M5.6,30.5v18.1h5.2V29.9L5.6,30.5 M17.2,22.6v25.9h5.5V21.8L17.2,22.6
	 M23.7,21.7v6l7.9-0.9v-6.2L23.7,21.7 M23.7,32.1v6.1l5.2-0.3v-6.2L23.7,32.1 M23.7,42.5v6h7.9v-6.2L23.7,42.5 M52.2,17.7v30.9h7.2
	V16.7L52.2,17.7 M60.7,16.5v7.1l10.5-1.2V15L60.7,16.5 M60.7,28.9v7.2l6.9-0.4v-7.4L60.7,28.9 M60.7,41.4v7.1h10.5v-7.4L60.7,41.4
	 M33.8,20.3v28.3H40V19.4L33.8,20.3 M41.2,42v6.5h9.1v-6.8L41.2,42 M94.7,14.7c-2.3-2.1-5.6-3-9.3-2.5V20c1.5-0.1,2.7,0.5,3.2,1.6
	c0.8,1.7,0,4.4-2.1,6.8C83.4,32.1,75,39.7,75,39.7l12.1-0.4c7.4-7.2,10-11.6,10.5-17C97.8,19.4,96.8,16.6,94.7,14.7 M98,48.5v-8.2
	L73.5,41 M73.5,41l0,7.5H98 M84,12.3c-7.1,1.5-10.6,6.7-10.2,15.3l7.6-0.7c-0.3-4.8,1.1-6,2.6-6.6L84,12.3"/>
</svg>
