<?xml version="1.0" encoding="utf-8"?>
<!-- Generator: Adobe Illustrator 24.1.2, SVG Export Plug-In . SVG Version: 6.00 Build 0)  -->
<svg version="1.1" id="Слой_1" xmlns="http://www.w3.org/2000/svg" xmlns:xlink="http://www.w3.org/1999/xlink" x="0px" y="0px"
	 viewBox="0 0 100 60" style="enable-background:new 0 0 100 60;" xml:space="preserve">
<style type="text/css">
	.st0{opacity:0.81;}
	.st1{fill:#1D191A;}
	.st2{fill:#221E1F;}
	.st3{fill:#231F20;}
	.st4{fill:#211D1E;}
	.st5{fill:#201C1D;}
	.st6{fill:#252122;}
	.st7{fill:#282425;}
	.st8{fill:#333031;}
	.st9{fill:#383536;}
	.st10{fill:#353132;}
	.st11{fill:#322E30;}
	.st12{fill:#FDFDFD;}
	.st13{fill:#FEE511;}
	.st14{fill:#FEFEFE;}
	.st15{fill:#FEE611;}
	.st16{fill:#FCE511;}
	.st17{fill:#FBFBFB;}
	.st18{fill:#FCFCFC;}
	.st19{fill:#FBFBFC;}
	.st20{fill:#2A2521;}
	.st21{fill:#F7F7F7;}
	.st22{fill:#F5F5F5;}
	.st23{fill:#F0F1F1;}
	.st24{fill:#EDEDEE;}
	.st25{fill:#F6F6F6;}
	.st26{fill:#E3E3E4;}
	.st27{fill:#B4B4B4;}
	.st28{fill:#3F3C3E;}
	.st29{fill:#484546;}
	.st30{fill:#282526;}
	.st31{fill:#DCDCDD;}
	.st32{fill:#130F10;}
	.st33{fill:#373435;}
	.st34{fill:#292526;}
	.st35{fill:#2F2C2D;}
	.st36{fill:#242022;}
	.st37{fill:#272425;}
	.st38{fill:#1D1A1E;}
	.st39{fill:#262224;}
	.st40{fill:#242122;}
	.st41{fill:#312C26;}
	.st42{fill:#353027;}
	.st43{fill:#2A2626;}
	.st44{fill:#2B2726;}
	.st45{fill:#363127;}
	.st46{fill:#353233;}
	.st47{fill:#302D2E;}
	.st48{fill:#312E2F;}
	.st49{fill:#2E2B2C;}
	.st50{fill:#2B2728;}
	.st51{fill:#525052;}
	.st52{fill:#79797A;}
	.st53{fill:#504E4F;}
	.st54{fill:#444142;}
	.st55{fill:#F1F1F2;}
	.st56{fill:#EBEBEB;}
</style>
<g class="st0">
	<path class="st1" d="M19.5,43.7c0.5-0.1,1-0.1,1.5-0.3c0.1-0.2-0.1-0.3,0-0.5c1.1-0.3,2.1-0.6,3.1-1.2c-0.4-0.2-0.7-0.3-1-0.4
		c-0.2-0.1-0.3-0.2-0.3-0.4c0-0.3,0-0.5,0-0.9c-1.2,0.5-2.3,0.8-3.5,0.9c-0.1,0.2-0.1,0.3,0,0.5c-0.8,0.1-1.7,0.1-2.5,0
		c0.1-0.2,0.1-0.3,0-0.5c-1.2-0.1-2.4-0.4-3.6-0.9c0,0.3,0,0.6,0,0.9c0,0.2-0.1,0.4-0.3,0.4c-0.3,0.1-0.6,0.2-0.9,0.4
		c1,0.6,2.1,0.9,3.1,1.2c0.1,0.2-0.1,0.3,0,0.5c0.6,0.1,1.1,0.3,1.7,0.3C16.8,43.7,17.9,43.9,19.5,43.7z"/>
	<path class="st2" d="M11.7,26.4c1.4,0,2.7,0,4,0c-0.2-0.4-0.5-0.8-0.8-1c-0.7-0.5-1.5-0.3-1.8,0.5C13,25.9,13,26,13,26
		c-0.1,0-0.3,0-0.5,0c0.1-0.5,0.3-0.9,0.8-1.1c0.9-0.5,1.7-1,2.6-1.5c-0.2-1-0.3-2-0.5-3c-0.1-0.8,0-1.1,0.7-1.5
		c1.3-0.7,2.6-0.7,3.9,0c0.7,0.4,0.9,0.7,0.7,1.5c-0.1,0.8-0.3,1.7-0.5,2.5c-0.1,0.3,0,0.5,0.3,0.7c0.7,0.4,1.5,0.8,2.2,1.3
		c0.5,0.3,0.7,0.6,0.8,1.1c-0.2,0.1-0.3,0.1-0.5,0c-0.2-0.5-0.5-0.9-1-0.9c-0.9,0-1.2,0.6-1.7,1.3c1.3,0,2.6,0,3.9,0
		c0,0.1,0,0.1,0,0.1c-0.5,1-0.5,2-0.5,3.1c0,2.3,0,4.5,0,6.8c0,2.4-1.6,3.3-3.3,3.4c-0.2,0-0.4,0-0.6,0c-1,0-1,0-1.8,0.7
		c-0.5-0.7-1.4-0.7-2.2-0.7c-0.6,0-1.2-0.1-1.7-0.3c-1.1-0.5-1.7-1.4-1.8-2.6c0-0.8,0-1.5,0-2.3c0-1.7,0-3.4,0-5.2
		C12.3,28.4,12.3,27.4,11.7,26.4z"/>
	<path class="st3" d="M83.6,21.7c0.5-0.2,1.1-0.4,1.6-0.6l0.1,7.9c0,0-1.8,0.1,0,0c1.8-0.1,1.7-2.2,1.7-2.2s0,2,0,0s-1.9-2-1.9-2
		l-0.1-1.5c2,0.1,3,1.5,3,1.5c0.5,0.6,0.7,1.4,0.7,2.2c0,1.8-1.1,2.8-3.5,3.3c0,0.7,0,1.4,0,2.1c-0.5,0.2-1.1,0.4-1.6,0.6
		c0-0.9,0-1.8,0-2.7c-1.2-0.1-2.2-0.4-2.9-1.4c-0.5-0.7-0.6-1.5-0.6-2.4c0,0,0.3-3.1,3.5-3.2l0.1,1.5c0,0-1.9,0.1-2,2s0,0,0,0
		s-0.1,2.1,1.8,2.2c1.9,0.1,0,0,0,0L83.6,21.7z"/>
	<path class="st3" d="M92.9,21.9c0.5-0.2,1.1-0.4,1.6-0.6l0.1,7.9c0,0-1.8,0.1,0,0c1.8-0.1,1.7-2.2,1.7-2.2s0,2,0,0s-1.9-2-1.9-2
		l-0.1-1.5c2,0.1,3,1.5,3,1.5c0.5,0.6,0.7,1.4,0.7,2.2c0,1.8-1.1,2.8-3.5,3.3c0,0.7,0,1.4,0,2.1c-0.5,0.2-1.1,0.4-1.6,0.6
		c0-0.9,0-1.8,0-2.7c-1.2-0.1-2.2-0.4-2.9-1.4c-0.5-0.7-0.6-1.5-0.6-2.4c0,0,0.3-3.1,3.5-3.2l0.1,1.5c0,0-1.9,0.1-2,2s0,0,0,0
		S91,29,92.9,29.2c1.9,0.1,0,0,0,0L92.9,21.9z"/>
	<path class="st4" d="M33.2,29.1c-0.3,0.6-0.4,0.6-1.4,0.6c0.4,0.6,0.5,1.3,0.6,2c0.1,0.7,0.5,1.2,1.1,1.4c-0.1,0.6-0.3,0.8-1,1
		c0.1,0.2,0.3,0.3,0.4,0.5c-0.7,0.4-1.3,0.3-1.8-0.4c-0.3-0.4-0.4-0.8-0.4-1.2c0-0.1,0-0.3-0.2-0.2c-0.2,0.1-0.2,0.2-0.1,0.4
		c0.4,0.9,0.2,1.8-0.2,2.7c-0.2,0.3-0.3,0.7-0.4,1c-0.2,0.6-0.4,1.1-0.1,1.7c-0.6,0-1.2,0-1.8-0.3c-0.2,0.3-0.2,0.6-0.3,0.9
		c-0.3,0-0.5-0.2-0.6-0.5c-0.9,1.2-1.8,1.7-3.1,1.7c0.4-0.7,0.5-1.5,0.5-2.3c0.1-0.7,0.3-1.3,0.8-1.8c-0.4-0.3-0.8-0.6-0.7-1.3
		c1,0.2,2,0.2,2.9-0.5c0.2-0.2,0.2-0.2,0.3-0.6c-0.6,0.6-1.3,0.7-2,0.3c0-0.2,0.2-0.4,0.3-0.6c-0.1-0.2-0.4-0.3-0.5-0.6
		c0.2-0.2,0.6-0.1,0.9-0.2c-0.1-0.2-0.2-0.4-0.1-0.6c0.7,0.1,1.4,0.1,1.9-0.4c0.1-0.1,0.1-0.1,0-0.4c-1,0.6-2,0.8-3.2,0.3
		c0.2-0.2,0.4-0.2,0.5-0.5c-0.5-0.2-1-0.3-1.2-0.9c0.4-0.2,0.8,0,1.2-0.2c-0.2-0.2-0.5-0.3-0.5-0.6c0.6-0.1,1.1-0.3,1.3-1.1
		c-0.4,0.1-0.7,0.2-1.1,0.2c-0.5-0.1-0.8-0.4-0.8-0.8c0-0.2,0-0.3,0.2-0.4c0.6-0.3,0.7-0.7,0.3-1.2c-0.3-0.4-0.6-0.6-1-0.8
		c-0.7-0.4-1.4-0.7-2-1.2c-0.4-0.3-0.8-0.6-1-1.1c-0.4-0.8-0.3-1.4,0.3-2c0.5-0.5,1-0.8,1.5-1.3c0.7,0.3,0.8,0.5,0.6,1.3
		c0.5,0,1.1,0,1.5-0.4c0.4-0.6,0-1-0.3-1.4c0.7-0.1,1.3-0.1,1.6,0.6c0.5-0.3,1.1-0.5,1.6,0.1c-0.8,0.7-1.1,1.8-2.2,2.2
		c1,0.5,1.9,0.1,2.8-1c1,1,0.9,2.1-0.3,3.3c0,0.1,0.1,0.1,0.2,0.1c0.8,0.4,1.5,1,2.1,1.8c0.3,0.4,0.6,0.8,0.8,1.1
		c0.3,0.4,0.6,0.8,0.9,1.1C32.4,28.6,32.8,28.9,33.2,29.1z"/>
	<path class="st4" d="M7.8,31.1c-0.2,0.3,0,0.5,0.2,0.6C8.4,31.9,8.8,32,9.2,32c0.2,0,0.4,0,0.6,0c0.1,0.2,0,0.4-0.1,0.6
		c0.3,0.1,0.6,0.1,0.9,0.2c0,0.3-0.3,0.4-0.5,0.6c0,0.2,0.3,0.3,0.2,0.6c-0.7,0.3-1.4,0.3-2-0.3c0,1,1.5,1.5,3.1,1.2
		c0.1,0.5,0,0.7-0.7,1.3c0.7,0.8,0.8,1.8,0.9,2.8c0,0.5,0.2,0.9,0.5,1.3c-1.3-0.1-2.4-0.5-3.1-1.7c-0.2,0.2-0.3,0.5-0.7,0.5
		c0-0.3-0.1-0.6-0.3-0.9c-0.6,0.2-1.1,0.3-1.8,0.3c0.3-0.6,0.1-1.2-0.1-1.8c-0.2-0.5-0.4-0.9-0.6-1.4c-0.3-0.7-0.3-1.4,0-2.1
		c0-0.1,0.1-0.2,0-0.3c0-0.1-0.1-0.1-0.2-0.1c-0.1,0-0.1,0-0.1,0.1c0,0.1,0,0.2-0.1,0.3c-0.1,0.4-0.2,0.7-0.4,1
		C4.4,34.9,3.7,35,3,34.6c0.1-0.2,0.3-0.3,0.4-0.5c-0.6,0-0.9-0.4-1-0.8c0-0.1,0.1-0.1,0.1-0.2c0.6-0.2,0.9-0.7,1-1.3
		c0.1-0.7,0.2-1.4,0.7-2c-1.1,0-1.1,0-1.4-0.6c1.2-0.6,2-1.6,2.7-2.7c0.7-0.9,1.5-1.7,2.6-2.2c-0.5-0.5-1-0.9-1-1.7
		c0-0.6,0.3-1.1,0.6-1.7c0.7,1,1.6,1.6,2.9,1.1c-1.1-0.5-1.5-1.6-2.2-2.3c0.4-0.5,0.7-0.5,1.5-0.1c0.6-0.6,0.9-0.7,1.7-0.5
		c-0.3,0.4-0.7,0.8-0.3,1.4c0.3,0.5,0.9,0.5,1.5,0.5c0-0.3-0.2-0.6,0-0.8c0.1-0.2,0.3-0.4,0.6-0.5c0.4,0.4,0.8,0.7,1.3,1.1
		c1.1,0.9,0.8,2,0.2,2.7c-0.5,0.6-1.2,1-1.9,1.4c-0.4,0.2-0.8,0.4-1.2,0.7c-0.3,0.2-0.5,0.4-0.7,0.7c-0.2,0.4-0.1,0.8,0.3,1
		c0.2,0.1,0.4,0.2,0.3,0.4c0,0.3-0.1,0.5-0.4,0.6c-0.3,0.2-0.6,0.2-1,0.1c-0.2,0-0.3-0.1-0.5-0.1c0.1,0.6,0.4,0.9,1.2,1.1
		c0,0.3-0.3,0.4-0.5,0.6c0.4,0.2,0.8,0.1,1.2,0.2c-0.1,0.6-0.6,0.8-1.1,0.9c0.1,0.3,0.3,0.3,0.5,0.5C10.3,31.9,8.9,31.8,7.8,31.1z"
		/>
	<path class="st3" d="M48.7,26.4c0,1.2,0,2.5,0,3.7c0.6,0,1.1,0,1.7,0c0-2.2,0-4.3,0-6.5c-0.6,0-1.2,0-1.7,0
		c-0.9,1.3-1.7,2.6-2.6,3.9c0,0-0.1,0-0.1,0c0-1.3,0-2.6,0-3.9c-0.6,0-1.2,0-1.7,0c0,2.2,0,4.3,0,6.5H46L48.7,26.4z"/>
	<path class="st3" d="M72.9,26.7c0,0,0,0.3,0.1,0.7c0.1,1.2,0.7,2.2,1.9,2.6c1.2,0.4,2.4,0.3,3.4-0.6c1.1-1,1.2-2.3,0.9-3.7
		c-0.3-1.3-1.4-2.2-2.6-2.3c-1.6-0.1-2.8,0.5-3.3,1.8C73.2,25.4,72.9,26,72.9,26.7l1.8,0.1c0,0-0.1-1.8,1.4-1.9c1.4-0.1,0,0,0,0
		s1.4-0.1,1.5,2c0.1,2,0,0,0,0s0,2-1.3,2c-1.6,0.1,0,0,0,0s-1.7,0.1-1.6-2.2"/>
	<path class="st3" d="M52.1,23.6c0.6,0,1.1,0,1.7,0c0,0.8,0,1.6,0,2.5c0.9,0,1.7,0,2.6,0c0-0.8,0-1.6,0-2.4c0.6,0,1.1,0,1.7,0
		c0,2.1,0,4.3,0,6.5c-0.6,0-1.1,0-1.7,0c0-0.9,0-1.8,0-2.7c-0.9,0-1.7,0-2.6,0c0,0.9,0,1.8,0,2.7c-0.6,0-1.1,0-1.7,0
		C52.1,27.9,52.1,25.8,52.1,23.6z"/>
	<path class="st3" d="M37.2,22.4c0-0.5,0-1,0-1.5c2.3,0,4.5,0,6.8,0c0.1,0.5,0,1,0,1.5c-0.8,0-1.6,0-2.5,0c0,2.6,0,5.2,0,7.7
		c-0.6,0-1.2,0-1.8,0c0-2.6,0-5.1,0-7.7C38.8,22.4,38,22.4,37.2,22.4z"/>
	<path class="st3" d="M72.6,23.7c-0.9,1-1.7,2-2.5,3c0.8,1.1,1.7,2.3,2.5,3.4l-2,0l-0.2-0.3c-0.6-0.8-1.2-1.6-1.8-2.4
		c-0.1-0.1-0.1-0.2-0.3-0.3c0,1,0,2,0,3c-0.6,0-1.1,0-1.7,0c0-2.1,0-4.3,0-6.5c0.5,0,1.1,0,1.7,0c0,0.9,0,1.7,0,2.6
		c0.2,0,0.2-0.1,0.3-0.2l2-2.4L72.6,23.7z"/>
	<path class="st3" d="M61.5,23.6c-0.6,0-1.1,0-1.7,0c0,2.2,0,4.3,0,6.5c1.2,0,2.5,0,3.7,0c0.9,0,1.6-0.6,1.8-1.4
		c0.3-1.4-0.3-2.4-1.7-2.7C63.3,26,63.1,26,62.8,26l-1.4,0l0,1.2c0,0,2.2-0.3,2.2,0.8c0,1.1,0,0,0,0s0.1,0.9-1.2,0.8s0,0,0,0l-0.9,0
		L61.5,23.6z"/>
	<path class="st2" d="M40.4,34.3c1.1,0,2.2,0,3.3,0c0-0.2,0-0.4,0-0.6c-1.3,0-2.6,0-4,0c0,2.1,0,4.2,0,6.3c1,0,1.9,0.1,2.8,0
		c1.3-0.1,1.8-0.8,1.8-2.1c0-0.7-0.4-1.2-1.1-1.4c-0.4-0.1-0.7-0.2-1.1-0.1h-1.9l0,0.6l2,0c0,0,1.3,0,1.3,1c0,1,0,0,0,0
		s0.2,1.4-1.2,1.3s0,0,0,0l-2,0L40.4,34.3z"/>
	<path class="st2" d="M48.1,39.7V40l0.7,0c0-1.2,0-2.4,0-3.6c0-0.5-0.3-0.8-0.8-1c-0.8-0.3-1.6-0.2-2.5,0.2c0.1,0.2,0.1,0.4,0.3,0.5
		c0.4-0.2,0.8-0.3,1.2-0.3c0.6,0,1,0.3,1.1,0.8c0,0.2,0,0.5,0,0.8c-0.6-0.2-1.1-0.3-1.7-0.2c-0.8,0.1-1.4,0.7-1.3,1.5
		c0,0.8,0.6,1.4,1.4,1.4c0,0,1.1,0.1,1.7-0.6L48.2,39c0,0-0.6,0.7-1.4,0.6c-0.8-0.1,0,0,0,0s-1,0-1-0.9c0-0.9,0,0,0,0s-0.1-1,1.1-1
		c1.2,0,0,0,0,0s1.2,0.1,1.3,0.4L48.1,39.7z"/>
	<path class="st4" d="M2,25.8c0.3-0.3,0.5-0.7,0.8-1c-0.3-0.2-0.5-0.4-0.6-0.7c1.4-0.4,2.8-0.8,4.3-0.5c-0.4-0.4-1-0.7-1-1.3
		c-0.2-0.1-0.3,0-0.4,0c-0.3,0-0.5-0.1-0.6-0.3c-0.1-0.3,0.2-0.3,0.4-0.4c-0.2-0.1-0.5-0.2-0.5-0.5c0.3-0.1,0.5,0,0.7,0.1
		c-0.1-0.3-0.2-0.5,0-0.8c0.3,0.1,0.4,0.3,0.3,0.6c0.2-0.1,0.3-0.4,0.6-0.3c0.1,0.2,0,0.3-0.1,0.5c0.1,0,0.3,0,0.4,0
		c0.1,0.1,0.1,0.1,0.1,0.2c-0.1,0.4-0.4,0.6-0.8,0.6c0,0.4,0.3,0.6,0.6,0.8c0.4,0.3,0.8,0.5,1,1c-1.3,0.6-2,1.8-2.9,2.8
		c-0.4-0.3-0.5-0.7-0.8-1.1C3.1,26.1,2.5,26.2,2,25.8z"/>
	<path class="st2" d="M53.8,35.3l-0.7,0v1.9c-0.8,0-1.6,0-2.5,0c0-0.7,0-1.3,0-1.9c-0.2,0-0.4,0-0.6,0c0,1.6,0,3.2,0,4.7
		c0.2,0,0.4,0,0.7,0c0-0.8,0-1.5,0-2.2c0.8,0,1.6,0,2.5,0c0,0.7,0,1.4,0,2.2h0.7L53.8,35.3z"/>
	<path class="st3" d="M55.5,35.3v1.9l2.1-1.8l0.8,0c-0.7,0.7-1.5,1.4-2.2,2.1c0.7,0.8,1.6,1.7,2.3,2.6l-0.7,0c0,0-2-2.2-2.2-2.3
		c0,0.8,0,1.5,0,2.3c-0.3,0-0.5,0-0.7,0v-4.8L55.5,35.3z"/>
	<path class="st4" d="M30.5,22.5c0,0.3-0.3,0.5-0.5,0.7c-0.2,0.2-0.4,0.2-0.6,0.5c1.6-0.5,3,0,4.4,0.4c-0.1,0.4-0.4,0.5-0.6,0.7
		c0.3,0.3,0.5,0.6,0.7,1c-0.4,0.4-0.8,0.5-1.6,0.1c-0.2,0.3-0.4,0.7-0.8,1c-1-1-1.6-2.2-2.9-2.8c0.2-0.4,0.6-0.7,0.9-0.9
		c0.3-0.2,0.5-0.4,0.7-0.7C30.5,22.4,30.5,22.4,30.5,22.5z"/>
	<path class="st5" d="M21.1,17.1c-0.3,0.5-0.5,1-0.6,1.6c-1.7-1-3.3-1-5,0c-0.2-0.5-0.3-1.1-0.6-1.6c0.3-0.1,0.6,0.1,0.9,0
		c0.1-0.3,0.3-0.6,0.5-0.9c0.3,0.1,0.6,0.3,0.9,0.5c0.2-0.3,0.5-0.6,0.7-0.9c0.4,0.2,0.6,0.5,0.8,0.7c0.2,0.2,0.3,0.2,0.5,0.1
		c0.2-0.1,0.4-0.2,0.6-0.3c0.2,0.3,0.3,0.6,0.5,0.9C20.6,17.2,20.8,17,21.1,17.1z"/>
	<path class="st6" d="M30.5,22.5c0,0-0.1-0.1-0.1-0.1c0-0.1,0-0.2-0.2-0.2c-0.5-0.1-0.5-0.2-0.7-0.7c0.1-0.2,0.3-0.1,0.4-0.1
		c0-0.2-0.2-0.3-0.1-0.5c0.3-0.1,0.4,0.1,0.6,0.3c0-0.3,0.1-0.6,0.4-0.7c0.2,0.2,0.1,0.5,0,0.8c0.3-0.1,0.5-0.2,0.7-0.1
		c0,0.4-0.4,0.4-0.6,0.6c0,0.1,0.1,0.1,0.1,0.1c0.2-0.1,0.4-0.1,0.5,0.1c0,0.1,0,0.1,0,0.2c-0.1,0.2-0.3,0.3-0.5,0.2
		c-0.1,0-0.2-0.1-0.3-0.1C30.5,22.3,30.6,22.5,30.5,22.5z"/>
	<path class="st7" d="M21.4,26.1c0.4-0.5,1-0.5,1.3,0C22.2,26.1,21.8,26.1,21.4,26.1z"/>
	<path class="st7" d="M14.7,26c-0.5,0-0.9,0-1.3,0C13.7,25.5,14.2,25.5,14.7,26z"/>
	<path class="st8" d="M19,15.5c0.1,0.2,0.3,0.4,0.1,0.6c-0.1,0.1-0.2,0.1-0.3-0.1C18.6,15.8,18.9,15.7,19,15.5z"/>
	<path class="st9" d="M20.7,16.1c0,0.3,0.1,0.5-0.2,0.6c-0.1,0.1-0.3,0-0.3-0.2C20.2,16.2,20.5,16.2,20.7,16.1z"/>
	<path class="st10" d="M17,15.5c0.2,0.2,0.4,0.3,0.2,0.6c-0.1,0.1-0.2,0.1-0.3,0C16.7,15.9,17,15.7,17,15.5z"/>
	<path class="st11" d="M15.3,16.1c0.2,0.2,0.5,0.2,0.4,0.5c0,0.1-0.2,0.2-0.3,0.2C15.2,16.6,15.3,16.4,15.3,16.1z"/>
	<path class="st12" d="M20.7,43.1c-1.6,0.5-3.6,0.5-5.3,0c0.1-0.5,0.3-1.1,0.5-1.6c1.5,0.2,2.9,0.2,4.3,0
		C20.3,42,20.5,42.6,20.7,43.1z"/>
	<path class="st12" d="M15.7,41c-0.2,0.5-0.3,1-0.5,1.5c-0.9-0.2-1.7-0.5-2.5-0.8c0.2-0.2,0.6-0.2,0.7-0.4c0.1-0.2,0-0.5,0-0.9
		C14.2,40.7,15,40.8,15.7,41z"/>
	<path class="st12" d="M20.3,41c0.8-0.2,1.5-0.4,2.3-0.6c-0.1,0.6-0.1,1.2,0.8,1.3c-0.8,0.4-1.6,0.7-2.5,0.9
		C20.6,42,20.5,41.6,20.3,41z"/>
	<path class="st13" d="M12.9,33.1c0-1.3,0-2.7,0-4c0-0.7,0-1.4-0.3-2.1c1.2,0,2.4,0,3.6,0c0.1,0,0.2,0,0.2,0.1
		c0.3,0.3,0.7,0.5,1.1,0.7c0.2,0.1,0.4,0.4,0.4,0.8c0,0.4,0.2,0.8,0.6,1c0.3,0.1,0.3,0.6,0.7,0.7c-0.3,0.6-0.8,0.8-1.4,0.7
		c-0.3-0.1-0.6-0.1-0.9-0.1c-0.2,0-0.4,0-0.5-0.3c-0.1-0.2-0.4-0.1-0.6-0.2c0.2-0.5,0.3-1,0.5-1.5c0.2-0.4,0.2-0.7,0-1
		c-0.1-0.1-0.1-0.3-0.2-0.5c-0.3,0.2-0.5,0.4-0.8,0.6C15,28,15,28.2,15,28.3c0,0.6,0,1.2,0,1.7c-0.2,0.1-0.3,0-0.4,0
		c-0.2-0.1-0.4,0-0.4,0.2c-0.1,0.2,0,0.4,0.2,0.4c0.3,0,0.3,0.2,0.3,0.4c0,0.2,0,0.3,0,0.5c0,0.2,0,0.4,0.2,0.5
		c0.2,0.1,0.4,0,0.5-0.2c0,0,0.1-0.1,0.1-0.2c0.9,0.3,1.7,0.5,2.6,0.8c0.6,0.2,1.2,0.2,1.6-0.3c0.1-0.1,0.3-0.3,0.5-0.4
		c0,0.4,0.2,0.7,0.5,1c-0.1,0.1,0,0.3-0.1,0.4c-0.1,0.1-0.2,0.1-0.3,0.1c-2.3,0-4.7,0-7,0C13.1,33.2,13,33.2,12.9,33.1z"/>
	<path class="st14" d="M20.9,32.6c-0.1-0.3-0.5-0.1-0.5-0.5c0.1-0.1,0.3,0.1,0.5-0.1c-0.2-0.1-0.4-0.2-0.5-0.4
		c0-0.3,0.1-0.4,0.3-0.6c-0.4-0.1-0.6-0.3-0.7-0.8c-0.1-0.5-0.3-0.9-0.3-1.4c0-0.2-0.1-0.5,0-0.8c-0.2-0.1-0.5-0.1-0.7-0.3
		c0.2-0.1,0.5-0.3,0.7-0.5c0.1-0.1,0.2-0.1,0.3-0.1c1.2,0,2.3,0,3.5,0c0,0.4-0.2,0.7-0.2,1.1c-0.1,0.8,0,1.7,0,2.5
		c0,0.8,0,1.6,0,2.5c-0.2,0.1-0.4,0.1-0.6,0c-0.2-0.2-0.2-0.4-0.4-0.6c-0.2,0.2,0,0.4,0,0.6c-0.2,0.1-0.5,0-0.7,0
		c-0.1-0.3-0.2-0.6-0.3-0.8c-0.1,0.3-0.2,0.5,0,0.7c-0.1,0.2-0.2,0.1-0.4,0.1C20.8,32.9,20.8,32.7,20.9,32.6z"/>
	<path class="st13" d="M23.1,37.2c-0.2,0.7-0.5,1.2-1.1,1.6c-0.1-0.2,0.1-0.3,0.1-0.4c-0.1-0.1-0.2,0-0.3,0.1
		c-0.1,0.2-0.1,0.4-0.3,0.5c-0.1,0.1-0.2,0-0.2,0c-0.1-0.1,0-0.2,0-0.4c-0.1,0-0.2,0.1-0.3,0.1c-0.2-0.2-0.1-0.5,0-0.7
		c0.1-0.3,0.1-0.6-0.2-0.8c-0.2-0.2-0.2-0.5-0.3-0.8c0-0.1,0-0.3,0.1-0.3c0.1,0,0.2,0,0.3,0.1c0.1,0.1,0.2,0.3,0.3,0.5
		c0.1,0.2,0.3,0.4,0.4,0.5c0.3,0.3,0.5,0.3,0.8-0.1c-0.3-0.5-0.8-0.9-1.2-1.3c-0.1-0.1-0.3-0.2-0.4-0.1c-0.6,0.1-1.1-0.1-1.7,0.1
		c-0.3,0.1-0.5,0.1-0.8,0.1c-0.4-0.1-0.7-0.1-0.8-0.7c-0.1-0.5-1-1.3-1.4-1.2c-0.5,0.2-0.9,0-1.4-0.1c-0.1-0.1-0.1-0.2,0.1-0.2
		c2.7,0,5.4,0,8.2,0C23.2,34.7,23.2,35.9,23.1,37.2z"/>
	<path class="st14" d="M21.4,24.7c-0.6,0.3-0.9,0.7-1.2,1.2C20,26,20,26.2,19.7,26.1c-0.1,0-0.2,0.1-0.2,0.2c-0.3,0.8-0.8,1-1.6,1
		c-0.7,0-1.2-0.4-1.4-1.2c-0.3,0.1-0.5-0.1-0.6-0.3c-0.1-0.2-0.3-0.5-0.5-0.7c-0.2-0.2-0.4-0.3-0.7-0.5c0.5-0.3,0.9-0.5,1.3-0.8
		c0.2-0.1,0.3,0,0.4,0c0.4,0.2,0.9,0.4,1.3,0.7c0.3,0.2,0.5,0.2,0.8,0c0.4-0.2,0.8-0.4,1.2-0.7c0.2-0.1,0.4-0.1,0.6,0
		C20.5,24.2,20.9,24.4,21.4,24.7z"/>
	<path class="st15" d="M14.9,33.5c0,0.1,0,0.1,0.1,0.2c0.7,0.3,0.8,0.5,0.4,1.1c-0.1,0.1-0.2,0.2-0.1,0.4c0.1,0.2,0.2,0.1,0.4,0.1
		c0.2,0,0.4-0.1,0.5,0.1c0.1,0.1,0,0.3,0,0.4C16,36.1,15.8,36,15.6,36c-0.5-0.1-1,0.2-1.2,0.6c-0.1,0.3,0,0.5,0.2,0.7
		c0.4,0.4,0.5,1.2,0.2,1.6c-0.1,0-0.2,0.1-0.3,0c0-0.3,0.2-0.4,0.2-0.6c-0.2-0.1-0.2,0.1-0.3,0.2c-0.1,0.1-0.1,0.3-0.3,0.3
		c-0.2-0.2,0.1-0.3,0.1-0.5c-0.3-0.2-0.2,0.2-0.4,0.3c-0.6-0.5-0.9-1.1-0.9-1.9c0-1.1,0-2.1,0-3.2C13.5,33.4,14.2,33.4,14.9,33.5z"
		/>
	<path class="st16" d="M14.6,39c0.1,0,0.1-0.1,0.2-0.1c0.4-0.2,0.6-0.6,0.7-1c0.1-0.6,0.2-0.7,0.7-0.5c0.4,0.1,0.7,0,1.1-0.1
		c0.7-0.1,1.3,0,2-0.2c0.3-0.1,0.6,0.4,0.5,0.7c0,0.2-0.1,0.3-0.2,0.4c-0.1,0.1-0.1,0.3-0.2,0.5c0.3,0.1,0.4,0,0.6-0.3
		c0.1-0.2,0.1-0.6,0.5-0.7c0.2,0.3,0,0.6,0,0.9c0.2,0.1,0.3,0.1,0.5,0.1c0.2,0,0.3-0.1,0.5,0c0,0.1,0.1,0.1,0.2,0.1
		c-0.4,0.2-0.8,0.2-1.2,0.2c-0.3,0-0.6,0-0.9,0c-0.5,0-1,0.1-1.4,0.5c-0.5-0.5-1.2-0.5-1.8-0.6C15.6,39.2,15.1,39.3,14.6,39z"/>
	<path class="st12" d="M15.8,19.7c0.6-1.1,3.9-1.1,4.4,0c-0.7,0.3-1.4,0.6-2.1,0.8c-0.1,0-0.1,0-0.2,0C17.2,20.3,16.5,20,15.8,19.7z
		"/>
	<path class="st17" d="M18.2,24.1c0-1,0-2,0-2.9c0-0.2,0.1-0.3,0.2-0.3c0.6-0.2,1.2-0.4,1.8-0.6c-0.1,0.8-0.3,1.5-0.4,2.2
		c-0.1,0.6-0.3,1-0.9,1.2C18.7,23.8,18.5,24,18.2,24.1z"/>
	<path class="st18" d="M15.9,20.3c0.7,0.2,1.4,0.5,2,0.7c0,1,0,2.1,0,3.1c-0.5-0.3-0.9-0.5-1.4-0.7c0,0-0.1-0.1-0.1-0.1
		C16.2,22.3,16,21.3,15.9,20.3z"/>
	<path class="st19" d="M18.1,28.6c0.2,0,0.3,0.1,0.4,0c-0.1-0.3-0.6-0.3-0.6-0.7c0.6-0.3,1,0.1,1.4,0.3c0.3,0.6-0.1,1.2,0.2,1.7
		c-0.4,0.1-0.5-0.1-0.6-0.3c-0.1-0.2-0.2-0.3-0.4-0.4C18.2,29.1,18.1,28.8,18.1,28.6z"/>
	<path class="st20" d="M14.9,33.5c-0.7-0.1-1.3,0-2,0c0.1-0.1,0.3-0.1,0.4-0.1c3.2,0,6.4,0,9.5,0c0.1,0,0.3,0,0.4,0.1
		c0.1,0.1,0.1,0.3,0.1,0.4c0,1,0,1.9,0,2.9c0,0.1,0.1,0.3-0.1,0.4c0-1.2,0-2.4,0-3.6c-0.1-0.1-0.2-0.1-0.4-0.1c-2.5,0-5,0-7.5,0
		C15.1,33.5,15,33.5,14.9,33.5z"/>
	<path class="st21" d="M15.5,29.7c-0.1-0.2,0.1-0.4,0-0.5c-0.2,0.2-0.1,0.5-0.3,0.7c0-0.4,0.1-0.8,0-1.1c0-0.5,0.1-0.8,0.6-1
		c0.2,0.3,0.4,0.5,0.2,0.9C15.8,29,15.8,29.4,15.5,29.7z"/>
	<path class="st20" d="M12.9,33.1c1.1,0,2.2,0,3.3,0c1.4,0,2.8,0,4.2,0c0.2-0.1,0.1-0.3,0.2-0.4c0,0.2,0,0.3,0,0.5
		c-0.1,0.1-0.3,0.1-0.4,0.1c-2.3,0-4.5,0-6.8,0C13.2,33.2,13,33.3,12.9,33.1z"/>
	<path class="st22" d="M19.1,30.7c0.6,0.6,0.6,1,0.1,1.5c0-0.4-0.1-0.8-0.3-1.2C18.8,30.8,19,30.7,19.1,30.7z"/>
	<path class="st23" d="M18.7,32.3c-0.2,0-0.3,0-0.4-0.1c0.1-0.3,0.1-0.6,0.1-0.9c0-0.1,0-0.2,0.1-0.3c0.1,0,0.2,0.1,0.2,0.2
		C18.8,31.6,18.9,32,18.7,32.3z"/>
	<path class="st20" d="M22.6,33.1c0.2,0,0.4,0,0.6,0c0-0.6,0-1.2,0-1.8c0-0.9,0-1.8,0-2.8c0-0.2,0-0.3,0-0.5c0,1.7,0,3.4,0,5.1
		C23,33.2,22.8,33.3,22.6,33.1z"/>
	<path class="st24" d="M17.6,31c0.5,0.1,0.5,0.4,0.2,1.1c-0.1,0-0.2,0-0.4-0.1C17.5,31.7,17.7,31.4,17.6,31z"/>
	<path class="st25" d="M15.5,30.9c-0.2-0.2-0.5,0.1-0.6-0.2c0.3-0.2,0.5-0.1,0.7,0c0.3,0.2,0.3,0.5,0.1,0.8
		C15.4,31.4,15.4,31.1,15.5,30.9z"/>
	<path class="st25" d="M16.7,31.8c0.1-0.3,0.2-0.6,0.2-0.9c0.2,0,0.4-0.1,0.4,0.1c0.1,0.3,0,0.5-0.1,0.8
		C17.1,32,16.9,31.9,16.7,31.8z"/>
	<path class="st25" d="M16.2,30.9c0.5,0,0.5,0.2,0.2,0.8c-0.1,0-0.2,0-0.4-0.1C16.1,31.4,16.1,31.1,16.2,30.9z"/>
	<path class="st26" d="M19.4,30.4c0-0.1,0.2-0.2,0.3-0.3c0,0.5,0.1,0.8,0.6,1c0,0.2-0.2,0.3-0.3,0.5C19.8,31.1,19.7,30.7,19.4,30.4z
		"/>
	<path class="st20" d="M20.9,32.6c0,0.2,0,0.3,0,0.5c0.2,0.1,0.3,0.2,0.4-0.1c0.1,0.1,0.1,0.1,0,0.2c-0.1,0-0.3,0-0.4,0
		C20.8,33,20.7,32.8,20.9,32.6z"/>
	<path class="st27" d="M14.8,30.4c-0.2,0.1-0.3,0.1-0.4-0.1C14.6,30.1,14.7,30.3,14.8,30.4z"/>
	<path class="st14" d="M32.5,29.3c-0.6,0.1-1.1-0.1-1.6-0.1c0,0.2,0.1,0.3,0.2,0.4c0.5,0.6,0.8,1.2,0.9,1.9c0.1,0.8,0.3,1.5,1.1,1.9
		c-0.3,0.3-0.3,0.3-1.1,0.1c0,0.3,0.1,0.6,0.3,0.9c-0.3,0-0.5-0.2-0.6-0.5c-0.1-0.3-0.2-0.7-0.3-1c-0.2-0.5-0.4-0.7-0.8-0.5
		c-0.4,0.1-0.6,0.5-0.4,1c0.3,0.6,0.2,1.2,0,1.8c-0.2,0.4-0.4,0.8-0.5,1.2c-0.2,0.5-0.4,0.9-0.4,1.5c-0.5,0.1-0.9-0.1-1.2-0.5
		c-0.2,0.3-0.3,0.7-0.5,1c-0.2-0.1-0.2-0.3-0.4-0.5c-0.4,1.1-1.2,1.8-2.5,2c0.2-0.6,0.3-1.1,0.3-1.6c0.1-0.8,0.4-1.5,1-2.1
		c-0.2-0.2-0.4-0.4-0.7-0.6c0.5,0,1-0.1,1.4-0.2c0.4-0.1,0.8-0.3,1.2-0.6c0.2-0.1,0.3-0.3,0.4-0.5c0.1-0.2,0.1-0.5-0.1-0.7
		c-0.2-0.2-0.4-0.2-0.7-0.1c-0.3,0.2-0.6,0.4-1,0.3c0-0.2,0.2-0.2,0.2-0.3c0-0.1-0.2-0.2-0.3-0.4c0.2-0.1,0.5-0.1,0.6-0.3
		c0.1-0.1-0.1-0.2-0.1-0.3c0,0,0.1,0,0.1,0c0.4,0,0.7-0.1,1.1-0.3c0.3-0.1,0.5-0.3,0.6-0.6c0.1-0.3,0.1-0.5-0.1-0.7
		c-0.2-0.2-0.4-0.2-0.7-0.1c-0.2,0.1-0.5,0.3-0.7,0.3c-0.4,0.1-0.7,0.2-1.2,0.1c0.1-0.2,0.2-0.4,0.2-0.7c-0.3-0.1-0.6,0-0.9-0.2
		c0.5-0.1,0.8-0.4,1.2-0.7c-0.1-0.2-0.3-0.1-0.5-0.3c0.8-0.5,0.8-1.2,0.8-2c-0.6,0.2-1.2,0.8-1.8,0.3c0-0.1,0.1-0.2,0.1-0.2
		c0.7-0.5,0.8-1.2,0.3-1.8c-0.3-0.4-0.7-0.7-1.1-0.9c-0.6-0.3-1.2-0.7-1.8-1.1c-0.4-0.3-0.7-0.5-1-0.9c-0.4-0.6-0.4-1.1,0.1-1.7
		c0.1-0.1,0.1-0.1,0.2-0.2c0.3-0.3,0.7-0.5,1.1-0.8c0.3,0.4-0.1,0.7-0.2,1.1c0.7,0.2,1.4,0.2,2.1-0.2c0.6-0.3,0.7-0.7,0.6-1.6
		c0.4,0.1,0.4,0.5,0.6,0.8c0.4-0.2,0.6-0.5,1.2-0.5c-0.5,1.2-1.5,1.7-2.6,2.1c1.2,0.8,2.7,0.7,3.8-0.1c0.4,0.6,0.3,1.1-0.1,1.6
		c-0.3,0.3-0.7,0.6-1,0.9c0,0.2,0.2,0.2,0.3,0.2c1.2,0.6,2.2,1.5,3,2.6C31,27.9,31.6,28.7,32.5,29.3z"/>
	<path class="st14" d="M11.1,27.6c-0.3,0.3-0.6,0.3-1,0.2c-0.3-0.1-0.6-0.3-0.9-0.4c0,0.8,0,1.5,0.8,2c-0.1,0.2-0.4,0.1-0.5,0.3
		c0.3,0.3,0.7,0.6,1.2,0.7c-0.3,0.2-0.6,0.1-0.8,0.2c0,0.3,0.1,0.5,0.2,0.7c-0.5,0.1-1,0-1.4-0.2c-0.2-0.1-0.4-0.2-0.5-0.3
		c-0.2-0.1-0.4-0.1-0.6,0.1c-0.2,0.2-0.2,0.4-0.2,0.6c0.1,0.4,0.3,0.6,0.6,0.7c0.4,0.2,0.8,0.2,1.2,0.3C9.1,32.6,9,32.7,9,32.8
		C9.1,33,9.4,33,9.6,33.1c0,0.2-0.2,0.2-0.3,0.4c0,0.1,0.2,0.1,0.2,0.3c0,0-0.1,0-0.1,0c-0.3,0-0.5-0.2-0.8-0.3
		c-0.4-0.2-0.6-0.2-0.8,0c-0.2,0.2-0.2,0.5,0.1,0.8c0.5,0.6,1.2,0.9,1.9,1c0.3,0.1,0.6,0.1,1,0.1c-0.3,0.2-0.5,0.4-0.7,0.6
		c0.9,0.8,1.1,1.8,1.1,2.8c0,0.3,0.1,0.6,0.2,0.9c-1.3-0.2-2.1-0.9-2.5-2c-0.2,0.1-0.2,0.3-0.4,0.5c-0.2-0.3-0.3-0.7-0.5-1
		c-0.3,0.5-0.7,0.7-1.2,0.6c0-0.8-0.4-1.4-0.7-2.1C5.8,34.9,5.6,34,6,33.2c0.1-0.3,0-0.6-0.3-0.8c-0.3-0.2-0.7-0.2-0.8,0.2
		c-0.1,0.3-0.2,0.7-0.4,1.1c-0.1,0.3-0.3,0.6-0.7,0.7c0.1-0.3,0.2-0.6,0.3-0.9c-0.4,0-0.7,0.3-1.1,0c0-0.1,0.1-0.2,0.2-0.2
		c0.4-0.3,0.6-0.7,0.8-1.2C4,32,4,31.9,4,31.8c0.1-1,0.5-1.8,1.3-2.6c-0.6,0-1.2,0.2-1.7,0.1c0-0.2,0.1-0.2,0.2-0.2
		c0.5-0.4,0.9-0.8,1.3-1.3C6,26.3,7.2,25,9,24.3c-0.4-0.3-0.8-0.6-1.1-0.9c-0.5-0.5-0.6-1.1-0.2-1.7c0.5,0.5,1.1,0.7,1.7,0.7
		c0.8,0,1.5-0.2,2.2-0.5c-1.1-0.4-2.1-0.9-2.6-2.1c0.5,0,0.8,0.3,1.1,0.5c0.2-0.3,0.2-0.7,0.6-0.8c0.1,0.1,0,0.2,0,0.3
		c-0.1,0.6,0.1,1,0.7,1.3c0.5,0.3,1.2,0.3,2,0.2c0-0.2-0.2-0.3-0.2-0.5c-0.1-0.2-0.1-0.4,0-0.6c0.5,0.4,1.1,0.7,1.5,1.3
		c0.2,0.4,0.2,0.8,0,1.2c-0.2,0.4-0.5,0.7-0.9,0.9c-0.6,0.5-1.3,0.8-1.9,1.2c-0.4,0.2-0.7,0.4-1,0.7c-0.7,0.7-0.6,1.5,0.2,2.1
		C11,27.5,11,27.6,11.1,27.6z"/>
	<path class="st12" d="M4.4,26.4C4,26,4,25.5,4.2,25c-0.5,0.2-0.9,0.7-1.5,0.7c0.2-0.4,0.6-0.7,0.9-1c-0.2-0.1-0.5-0.2-0.7-0.4
		C4,24,5,23.6,6.3,24C5.4,24.7,4.8,25.5,4.4,26.4z"/>
	<path class="st12" d="M29.8,24c1.2-0.5,2.3-0.1,3.4,0.2c-0.2,0.2-0.4,0.3-0.7,0.3c0.3,0.4,0.7,0.6,0.9,1.1c-0.6,0-1-0.5-1.5-0.7
		c0.1,0.5,0.1,1-0.2,1.5C31.2,25.5,30.7,24.7,29.8,24z"/>
	<path class="st12" d="M18.9,17.1c0.3-0.1,0.5-0.3,0.8-0.4c0.1,0.3,0.3,0.6,0.4,0.9c0.2,0,0.3,0,0.5,0c-0.1,0.3-0.2,0.5-0.3,0.7
		c-0.7-0.4-1.5-0.6-2.3-0.6c-0.8,0-1.5,0.2-2.3,0.6c-0.1-0.2-0.2-0.4-0.3-0.7c0.2-0.1,0.3,0,0.5-0.1c0.1-0.2,0.3-0.5,0.4-0.8
		c0.3,0.1,0.5,0.3,0.8,0.4c0.2-0.3,0.5-0.6,0.7-0.9C18.3,16.5,18.6,16.8,18.9,17.1z"/>
	<path class="st8" d="M19.5,41.9c0.4,0.3,0.5,0.5,0.2,1c0,0-0.1,0-0.1,0c0-0.1,0-0.2,0-0.2c-0.6-0.1-0.7-0.3-0.4-0.7
		c0.2,0,0.1,0.1,0.2,0.2C19.4,42.1,19.3,41.9,19.5,41.9z"/>
	<path class="st28" d="M17.1,42.2c0.2-0.3,0.5-0.1,0.8-0.2c-0.1,0.4-0.2,0.6-0.3,0.9c0,0.1-0.1,0.2-0.3,0.2c-0.2-0.1-0.1-0.2,0-0.3
		c0.1-0.2,0.3-0.4,0.4-0.5C17.4,42.1,17.3,42.2,17.1,42.2z"/>
	<path class="st29" d="M16.8,41.9c0,0.4-0.2,0.7-0.2,1.1c-0.1,0-0.3,0-0.4-0.1C16.5,42.6,16.2,42,16.8,41.9z"/>
	<path class="st30" d="M18.4,43.1c0.2-0.4,0.1-0.6-0.2-0.8c0.3,0,0.6,0,0.6,0.4C18.8,43,18.7,43.1,18.4,43.1z"/>
	<path class="st31" d="M19.5,41.9c-0.2,0.2,0.2,0.4,0,0.6c-0.4,0-0.1-0.4-0.3-0.6C19.3,41.8,19.4,41.8,19.5,41.9z"/>
	<path class="st32" d="M18.2,42.1c0.2-0.2,0.3-0.2,0.6-0.1C18.5,42.2,18.3,42.1,18.2,42.1z"/>
	<path class="st33" d="M19.5,42.9c0,0,0.1,0,0.1,0c-0.3,0.2-0.3,0.2-0.5,0C19.3,42.6,19.4,43,19.5,42.9z"/>
	<path class="st34" d="M23.1,31.6c-0.6,0.2-0.9,0.1-1-0.4c0-0.2-0.1-0.3-0.3-0.3c-0.3-0.2-0.5-0.4-0.5-0.9c0.3,0.4,0.5,0.7,1,0.7
		C22.4,31.1,22.4,31.1,23.1,31.6z"/>
	<path class="st35" d="M22.1,29c0.1,0.6,0.5,0.8,0.9,1C22.3,30.1,21.9,29.7,22.1,29z"/>
	<path class="st36" d="M21,30.6c0.3,0.5,0.5,0.9,1.1,0.8c-0.3,0.2-0.5,0.2-0.7,0C21,31.3,20.9,31,21,30.6z"/>
	<path class="st37" d="M21.1,27.2c0.2,0.5,0.6,0.6,0.9,0.9C21.4,28.1,21.1,27.8,21.1,27.2z"/>
	<path class="st38" d="M20.9,38.9c-0.2,0.1-0.4,0-0.6,0c0-0.4,0.1-0.7,0.1-1.1c-0.2,0.2-0.2,0.4-0.3,0.6c-0.2,0.6-0.2,0.6-1,0.5
		c0.1-0.3,0.2-0.6,0.4-0.9c0.2-0.4,0.1-0.6-0.2-0.9c-0.5,0.3-1.1,0.3-1.7,0.2c-0.2,0-0.5-0.1-0.6,0.2c-0.1,0.1-0.2,0.1-0.4,0
		c-0.3-0.1-0.6-0.1-0.9-0.2c-0.2,0.1-0.2,0.2-0.2,0.4c0.2,0.6-0.4,0.8-0.5,1.2c0,0.1-0.2,0.1-0.2-0.1c0.2-0.3,0.4-0.5,0.1-0.9
		c-0.1-0.1,0-0.3-0.1-0.5c-0.4,0-0.4-0.4-0.5-0.6c-0.1-0.3,0.1-0.4,0.3-0.6c0.4-0.4,0.9-0.5,1.4-0.3c0.1-0.2,0.1-0.4,0.1-0.5
		c-0.2-0.1-0.3-0.1-0.5,0c-0.2,0.1-0.3,0-0.4-0.1c-0.1-0.2-0.1-0.3,0-0.5c0.1-0.2,0.3-0.3,0.4-0.5c-0.2-0.2-0.4-0.5-0.6-0.6
		c0.2-0.2,0.4,0,0.5,0.1c0.3,0.1,0.6,0.2,0.8-0.2c0.1,0.2,0.3,0.3,0.6,0.4c0.6,0.2,1.1,1,1,1.5c0.5,0,1.1,0.1,1.6,0
		c0.5-0.1,1,0,1.6-0.1c0.2,0,0.4,0.1,0.6,0.2c0.4,0.4,0.8,0.9,1.2,1.4c-0.4,0.5-0.7,0.6-1.2,0.1c-0.2-0.2-0.4-0.5-0.6-0.8
		c-0.1-0.1-0.1-0.3-0.4-0.2c0.1,0.4,0.1,0.8,0.4,1.2c0.2,0.2,0.1,0.4,0.1,0.6c0,0.3-0.1,0.5-0.1,0.8C21.1,38.8,21,38.9,20.9,38.9z"
		/>
	<path class="st39" d="M20.9,38.9c0-0.2,0.1-0.2,0.2-0.3c0.2,0,0.2-0.4,0.5-0.3c0.1,0.2-0.2,0.4-0.2,0.6C21.2,39,21,39,20.9,38.9z"
		/>
	<path class="st40" d="M17.8,25.5c-0.2-0.1-0.3,0-0.5,0.1c-0.1-0.1-0.1-0.3,0-0.4c0.5,0,1,0,1.5,0c0.1,0.1,0,0.3,0,0.4
		c-0.2,0-0.3-0.1-0.5-0.1c0,0.4,0,0.8,0.1,1.2c-0.2,0.1-0.4,0-0.7,0C17.8,26.3,17.8,25.9,17.8,25.5z"/>
	<path class="st41" d="M18.6,39c0.1-0.3,0.1-0.6,0.5-0.7C19,38.6,19,38.9,18.6,39z"/>
	<path class="st42" d="M17.5,39c0.1-0.3,0.1-0.6,0.5-0.7C17.9,38.6,17.9,38.9,17.5,39z"/>
	<path class="st41" d="M16.9,38.3c-0.1,0.3-0.1,0.6-0.5,0.7C16.5,38.7,16.5,38.4,16.9,38.3z"/>
	<path class="st43" d="M18.5,38.3c-0.2,0.6-0.2,0.6-0.5,0.7C18.2,38.7,18.2,38.4,18.5,38.3z"/>
	<path class="st44" d="M15.3,39c0.3-0.7,0.3-0.7,0.6-0.7C15.7,38.6,15.7,38.9,15.3,39z"/>
	<path class="st45" d="M15.9,39c0.1-0.3,0.1-0.6,0.5-0.7C16.3,38.6,16.3,38.9,15.9,39z"/>
	<path class="st34" d="M17,38.9c0.1-0.3,0.1-0.6,0.5-0.7C17.4,38.6,17.4,38.9,17,38.9z"/>
	<path class="st46" d="M18.5,22.3c0.2-0.6,0.7-0.4,1.1-0.6C19.3,22,19,22.2,18.5,22.3z"/>
	<path class="st47" d="M19.7,20.9c-0.4,0.3-0.7,0.5-1.1,0.7C18.5,21.2,18.7,21.1,19.7,20.9z"/>
	<path class="st48" d="M18.5,23.1c0-0.4,0.1-0.4,1-0.7C19.3,22.8,19.2,22.8,18.5,23.1z"/>
	<path class="st49" d="M17.5,21.6c-0.5-0.2-0.8-0.4-1.2-0.7c0.3,0,0.5,0.1,0.7,0.2C17.2,21.2,17.6,21.1,17.5,21.6z"/>
	<path class="st48" d="M17.5,22.3c-0.4-0.1-0.8-0.3-1.1-0.6C17.2,21.8,17.5,22,17.5,22.3z"/>
	<path class="st50" d="M17.5,23.1c-0.4-0.1-0.7-0.2-0.9-0.6C16.9,22.7,17.4,22.5,17.5,23.1z"/>
	<path class="st2" d="M26.9,36.5c0.5-0.7,1.1-1.3,1.6-2c0.4-0.6,0.7-1.2,0.9-1.9c-0.3,0.2-0.7,0.3-1.1,0.2c0.2-0.1,0.3-0.1,0.5-0.2
		c0.4-0.2,0.7-0.5,0.7-1c0.1-1.2-0.2-2.2-0.8-3.3C28.5,29.4,28,30,27.4,30c0.7-0.4,1.1-1,1.1-1.8c0-0.3-0.1-0.6-0.2-0.8
		c-0.3-0.4-0.6-0.8-1-1.3c-0.1,0.5-0.4,0.8-0.9,1.1c0.5-0.8,0.1-1.4-0.3-2c0.2-0.1,0.3,0.1,0.4,0.1c-1.1-1.4-2.8-1.8-4-3
		c1.6,0.7,3.4,0.9,5.1,0.8c-0.8,0.3-1.7,0.3-2.7,0.3c1.6,1.4,3.5,2.2,4.9,3.8c-0.5-0.3-1-0.6-1.6-0.8c0.7,0.9,1.1,1.9,1.6,2.8
		c0.3,0.5,0.7,0.9,1.1,1.3c0.3,0.3,0.6,0.7,0.6,1.2c-0.4-0.7-1-1.2-1.6-1.8c0,0.2,0,0.3,0,0.4c0.1,0.6,0.1,1.2,0,1.7
		c-0.2,0.8-0.3,1.7-0.4,2.5c0,0.4-0.2,0.8-0.5,1.1c0.2-0.6,0.3-1.2,0.3-1.9C28.6,34.8,27.8,35.7,26.9,36.5
		C26.9,36.6,26.9,36.6,26.9,36.5z"/>
	<path class="st51" d="M26.9,36.5C26.9,36.5,27,36.6,26.9,36.5c-0.1,0.3-0.3,0.5-0.5,0.7c-0.1,0-0.1,0-0.1-0.1
		C26.5,36.9,26.7,36.7,26.9,36.5z"/>
	<path class="st52" d="M26.3,37.2C26.4,37.2,26.4,37.2,26.3,37.2c0,0.2-0.2,0.4-0.3,0.6C26,37.5,26.2,37.3,26.3,37.2z"/>
	<path class="st2" d="M6.7,34.8c-0.1-1.6-0.8-3.2-0.5-4.9c-0.6,0.6-1.2,1-1.6,1.8c0-0.4,0.1-0.7,0.4-1c0.2-0.3,0.5-0.5,0.7-0.8
		c0.3-0.3,0.6-0.7,0.8-1.1C6.9,28,7.3,27.1,8,26.3c-0.7,0.1-1.2,0.5-1.7,0.8c1.4-1.6,3.4-2.4,5-3.9c-1,0.1-1.9,0.1-2.8-0.3
		c1.8,0.1,3.6-0.1,5.3-0.9c-0.4,0.5-0.8,0.7-1.2,0.9c-1,0.5-1.9,1.1-2.7,1.9c-0.1,0.1-0.2,0.2-0.3,0.3c0.2,0,0.3-0.2,0.5-0.1
		c-0.5,0.6-0.9,1.2-0.3,2.1c-0.5-0.2-0.9-0.5-1-1.1c-0.4,0.5-0.8,1-1.1,1.6c-0.3,0.6,0,1.5,0.6,2.1c0.1,0.1,0.3,0.2,0.4,0.4
		c-0.8-0.3-1.2-0.9-1.3-1.7c-0.6,0.9-1,2.6-0.7,3.6c0.1,0.3,0.3,0.5,0.6,0.6c0.2,0.1,0.3,0.1,0.6,0.2c-0.4,0.1-0.7,0-1-0.2
		C7,34,7.9,35,8.7,36c0,0.1,0,0.1-0.1,0.1c-0.7-0.7-1.3-1.5-1.9-2.3c-0.1,0.3,0,0.5,0,0.7C6.8,34.6,6.9,34.8,6.7,34.8z"/>
	<path class="st53" d="M8.7,36.1C8.7,36.1,8.7,36.1,8.7,36.1c0.5,0.3,0.9,0.8,1.2,1.2c0,0-0.1,0.1-0.1,0.1C9.4,37,9,36.6,8.7,36.1z"
		/>
	<path class="st54" d="M6.7,34.8c0.1-0.1,0.1-0.2,0.1-0.3c0.1,0.3,0.2,0.7,0.3,1C6.8,35.3,6.7,35.1,6.7,34.8z"/>
	<path class="st12" d="M15.3,38.2c-0.3-0.2-0.3-0.4-0.2-0.7c0.2-0.3,0.2-0.7,0.7-0.7c0.3,0,0.5,0,0.9,0c-0.6-0.6-0.5-1.2-0.3-1.8
		c-0.3,0.2-0.5,0-0.8,0.2c-0.1,0.1-0.2,0-0.2-0.1c-0.1-0.1,0-0.2,0-0.3c0.2-0.2,0.4-0.4,0.5-0.6c0-0.1-0.2-0.1-0.2-0.2
		c0.2-0.1,0.5,0.1,0.6-0.2c0.2,0,0.1,0.1,0.3,0.2c0.6,0.2,0.9,0.6,0.9,1.2c0,0.3,0.2,0.4,0.4,0.4c0.5,0,1,0.1,1.6,0
		c0.5-0.1,1.1,0,1.6-0.1c0.3,0,0.5,0.2,0.7,0.4c0.3,0.3,0.5,0.6,0.8,1c-0.3,0.3-0.4,0.3-0.5,0c-0.1-0.2-0.1-0.4-0.3-0.6
		c-0.1,0.1,0.1,0.2,0,0.4c-0.2-0.1-0.2-0.3-0.4-0.5c-0.1-0.1-0.2-0.2-0.2-0.3c-0.1-0.1-0.3-0.1-0.4,0c-0.2,0.1-0.2,0.2-0.1,0.4
		c0.1,0.4,0.1,0.8,0.5,1.2c0.1,0.1,0.1,0.2,0.1,0.3c-0.1,0.3-0.1,0.7-0.2,1c0,0.1-0.1,0.2-0.3,0.2c-0.1-0.3,0-0.5,0.1-0.8
		c0.1-0.3,0-0.4-0.3-0.5c-0.4-0.1-0.7-0.3-1-0.6c-0.5,0.4-1.1,0.3-1.7,0.3c-0.3,0-0.6-0.1-0.8,0.1c-0.1,0.1-0.2,0.1-0.3,0
		c-0.2,0-0.4-0.1-0.6-0.1c-0.5-0.1-0.8,0.2-0.7,0.7C15.4,38,15.4,38.1,15.3,38.2z"/>
	<path class="st55" d="M14.6,37.2c-0.3-0.5-0.3-0.6,0.4-1c0.3-0.2,0.9-0.1,1,0.3c-0.3,0.1-0.6-0.2-1,0
		C14.8,36.6,14.8,36.9,14.6,37.2z"/>
	<path class="st56" d="M19.9,37.5c0.1,0,0.2,0.1,0.3,0.1c-0.3,1-0.4,1.2-0.7,1.2C19.6,38.3,19.9,37.9,19.9,37.5z"/>
</g>
</svg>
