<?xml version="1.0" encoding="utf-8"?>
<!-- Generator: Adobe Illustrator 24.1.2, SVG Export Plug-In . SVG Version: 6.00 Build 0)  -->
<svg version="1.1" id="Слой_1" xmlns="http://www.w3.org/2000/svg" xmlns:xlink="http://www.w3.org/1999/xlink" x="0px" y="0px"
	 viewBox="0 0 100 60" style="enable-background:new 0 0 100 60;" xml:space="preserve">
<style type="text/css">
	.st0{opacity:0.71;}
	.st1{fill:#DF3232;}
	.st2{fill:#004889;}
	.st3{fill:#008089;}
	.st4{fill-rule:evenodd;clip-rule:evenodd;fill:#FFFFFF;}
	.st5{fill:#FFFFFF;}
	.st6{fill:#4C4948;}
</style>
<g class="st0">
	<path class="st1" d="M8.8,20h8.4c1.2,0,1.9,1,1.6,2.1l-3.9,16.7C14.6,40,13.4,41,12.2,41H3.9c-1.2,0-1.9-1-1.6-2.1l3.9-16.7
		C6.4,21,7.6,20,8.8,20"/>
	<path class="st2" d="M16.4,20h9.6c1.2,0,0.6,1,0.4,2.1l-3.9,16.7C22.3,40,22.4,41,21.2,41h-9.6c-1.2,0-1.9-1-1.6-2.1l3.9-16.7
		C14.1,21,15.3,20,16.4,20"/>
	<path class="st3" d="M25.7,20h8.4c1.2,0,1.9,1,1.6,2.1l-3.9,16.7C31.5,40,30.3,41,29.2,41h-8.4c-1.2,0-1.9-1-1.6-2.1l3.9-16.7
		C23.3,21,24.5,20,25.7,20"/>
	<path class="st4" d="M24.3,35.8h0.8l0.2-0.8h-0.8L24.3,35.8z M24.9,33.6l-0.3,0.9c0,0,0.3-0.2,0.5-0.2c0.2,0,0.4-0.1,0.4-0.1
		l0.2-0.6L24.9,33.6L24.9,33.6z M25.3,32.4l-0.3,0.9c0,0,0.3-0.1,0.4-0.2c0.2,0,0.4-0.1,0.4-0.1l0.2-0.6H25.3z M27.1,32.4l-1,3.4
		h0.3l-0.2,0.7h-0.3l-0.1,0.2h-1l0.1-0.2h-2l0.2-0.6h0.2l1-3.4l0.2-0.7h1L25.4,32c0,0,0.3-0.2,0.5-0.3c0.3-0.1,1.7-0.1,1.7-0.1
		l-0.2,0.7H27.1z"/>
	<path class="st5" d="M27.5,31.7h1.1l0,0.4c0,0.1,0,0.1,0.2,0.1H29l-0.2,0.7h-0.6c-0.5,0-0.7-0.2-0.7-0.4L27.5,31.7z"/>
	<path class="st5" d="M27.6,34.8h-1l0.2-0.6H28l0.2-0.5H27l0.2-0.7h3.2l-0.2,0.7h-1.1l-0.2,0.5H30l-0.2,0.6h-1.2L28.5,35h0.5
		l0.1,0.7c0,0.1,0,0.1,0,0.1c0,0,0.2,0,0.2,0h0.1l-0.2,0.7h-0.4c-0.1,0-0.1,0-0.3,0c-0.1,0-0.2-0.1-0.3-0.1c-0.1,0-0.2-0.1-0.2-0.3
		l-0.1-0.7l-0.5,0.7c-0.2,0.2-0.4,0.4-0.8,0.4h-0.7l0.2-0.6h0.3c0.1,0,0.1,0,0.2-0.1c0,0,0.1,0,0.2-0.1L27.6,34.8z"/>
	<path class="st5" d="M16.6,33.2h2.7l-0.2,0.6H18l-0.2,0.5h1.1L18.7,35h-1.1l-0.3,0.9c0,0.1,0.3,0.1,0.4,0.1l0.5-0.1l-0.2,0.7h-1.2
		c-0.1,0-0.2,0-0.3,0c-0.1,0-0.1-0.1-0.2-0.1c0-0.1-0.1-0.1-0.1-0.3l0.4-1.2H16l0.2-0.7h0.6l0.2-0.5h-0.6L16.6,33.2z"/>
	<path class="st5" d="M18.4,32h1.1l-0.2,0.7h-1.5l-0.2,0.1c-0.1,0.1-0.1,0-0.2,0.1c-0.1,0-0.3,0.1-0.5,0.1h-0.5l0.2-0.6h0.1
		c0.1,0,0.2,0,0.2,0c0,0,0.1-0.1,0.2-0.2l0.3-0.5h1.1L18.4,32z"/>
	<path class="st4" d="M20.5,33.1c0,0,0.3-0.3,0.8-0.4c0.1,0,0.8,0,0.8,0l0.1-0.4h-1.6L20.5,33.1z M21.9,33.4h-1.5l-0.1,0.3h1.3
		c0.2,0,0.2,0,0.2,0L21.9,33.4z M20,31.7h0.9l-0.1,0.5c0,0,0.3-0.2,0.5-0.3s0.7-0.1,0.7-0.1h1.5l-0.5,1.7c-0.1,0.3-0.2,0.5-0.3,0.6
		c-0.1,0.1-0.1,0.2-0.3,0.2c-0.1,0.1-0.2,0.1-0.4,0.1c-0.1,0-0.3,0-0.5,0h-1.5l-0.4,1.4c0,0.1-0.1,0.2,0,0.2c0,0,0.1,0.1,0.1,0.1
		l0.6-0.1l-0.2,0.8h-0.7c-0.2,0-0.4,0-0.5,0c-0.1,0-0.2,0-0.3-0.1c-0.1-0.1-0.2-0.1-0.2-0.2c0-0.1,0-0.2,0.1-0.4L20,31.7z"/>
	<path class="st5" d="M22.7,34.4l-0.1,0.4c0,0.1-0.1,0.2-0.2,0.3c-0.1,0.1-0.2,0.2-0.5,0.2l-0.5,0v0.5c0,0.1,0,0.1,0,0.1
		c0,0,0,0,0.1,0l0.2,0l0.5,0L22,36.7h-0.6c-0.4,0-0.7,0-0.8-0.1c-0.1-0.1-0.1-0.1-0.1-0.3l0-1.8h0.9l0,0.4h0.2c0.1,0,0.1,0,0.2,0
		c0,0,0,0,0.1-0.1l0.1-0.3L22.7,34.4L22.7,34.4z"/>
	<path class="st5" d="M9.7,25.4c0,0.1-0.6,2.8-0.6,2.8c-0.1,0.5-0.2,0.9-0.5,1.2c-0.2,0.1-0.4,0.2-0.6,0.2c-0.4,0-0.6-0.2-0.6-0.5
		l0-0.1l0.1-0.7c0,0,0.6-2.4,0.7-2.8c0,0,0,0,0,0c-1.2,0-1.4,0-1.4,0c0,0,0,0.2,0,0.2l-0.6,2.7l0,0.2L6,29.3c0,0.2,0,0.4,0.1,0.6
		c0.3,0.5,1.1,0.6,1.6,0.6c0.6,0,1.1-0.1,1.5-0.4c0.7-0.4,0.8-1,1-1.5l0.1-0.3c0,0,0.6-2.5,0.7-2.9c0,0,0,0,0,0
		C10.1,25.4,9.8,25.4,9.7,25.4"/>
	<path class="st5" d="M13.2,30.4c-0.4,0-0.6,0-1.1,0l0,0c0-0.2,0.1-0.4,0.1-0.6l0.1-0.3c0.1-0.4,0.2-0.9,0.2-1c0-0.1,0-0.3-0.2-0.3
		c-0.1,0-0.2,0-0.3,0.1c-0.1,0.2-0.2,0.8-0.2,1.1c-0.1,0.6-0.1,0.6-0.2,0.9l0,0c-0.4,0-0.6,0-1.1,0l0,0c0.1-0.3,0.2-0.7,0.2-1
		c0.2-0.9,0.3-1.3,0.3-1.7l0,0c0.5-0.1,0.6-0.1,1.1-0.2l0,0l-0.1,0.3c0.1,0,0.2-0.1,0.3-0.1c0.3-0.1,0.5-0.2,0.7-0.2
		c0.2,0,0.5,0.1,0.6,0.3c0.1,0.2,0,0.5-0.1,1.1l-0.1,0.3C13.4,29.8,13.3,29.9,13.2,30.4L13.2,30.4z"/>
	<path class="st5" d="M14.9,30.4c-0.3,0-0.4,0-0.6,0s-0.3,0-0.5,0l0,0l0,0c0.1-0.2,0.1-0.3,0.1-0.4c0-0.1,0.1-0.2,0.1-0.4
		c0.1-0.3,0.1-0.5,0.2-0.8c0-0.2,0-0.4,0.1-0.5l0,0l0,0c0.3,0,0.4-0.1,0.6-0.1c0.2,0,0.3,0,0.6-0.1l0,0v0c0,0.2-0.1,0.4-0.1,0.6
		c0,0.2-0.1,0.4-0.1,0.6c-0.1,0.4-0.1,0.6-0.2,0.7C15,30.1,15,30.1,14.9,30.4L14.9,30.4L14.9,30.4z"/>
	<path class="st5" d="M17.6,28.9c0,0.1-0.1,0.5-0.3,0.7c-0.1,0.1-0.2,0.2-0.3,0.2c0,0-0.2,0-0.2-0.3c0-0.2,0-0.3,0.1-0.5
		c0.1-0.5,0.2-0.9,0.6-0.9C17.7,28.1,17.7,28.4,17.6,28.9 M18.7,28.9c0.1-0.6,0-0.9-0.1-1.1c-0.2-0.3-0.6-0.4-1-0.4
		c-0.2,0-0.8,0-1.3,0.4c-0.3,0.3-0.5,0.7-0.6,1.1c-0.1,0.4-0.2,1.1,0.5,1.4c0.2,0.1,0.5,0.1,0.7,0.1c0.5,0,1-0.1,1.3-0.5
		C18.6,29.6,18.7,29.1,18.7,28.9"/>
	<path class="st5" d="M29,30.4c-0.5,0-0.7,0-1.1,0l0,0c0.1-0.5,0.3-1,0.4-1.5c0.1-0.6,0.2-0.9,0.2-1.3l0,0c0.5-0.1,0.6-0.1,1.2-0.2
		l0,0c-0.1,0.4-0.2,0.8-0.3,1.2C29.2,29.5,29.1,30,29,30.4L29,30.4z"/>
	<path class="st5" d="M28.3,28.9c0,0.1-0.1,0.5-0.3,0.7c-0.1,0.1-0.3,0.2-0.4,0.2c0,0-0.2,0-0.2-0.3c0-0.1,0-0.3,0.1-0.5
		c0.1-0.5,0.2-0.9,0.6-0.9C28.3,28.2,28.4,28.5,28.3,28.9 M29.3,29c0.1-0.6-0.4-0.1-0.5-0.3c-0.1-0.3-0.1-1-0.6-1.2
		c-0.2-0.1-0.8,0-1.2,0.4c-0.3,0.3-0.5,0.7-0.6,1.1c-0.1,0.4-0.2,1.1,0.5,1.4c0.2,0.1,0.4,0.1,0.6,0.1c0.7,0,1.2-1,1.5-1.4
		C29.2,28.8,29.2,29.2,29.3,29"/>
	<path class="st5" d="M21.6,30.4c-0.4,0-0.6,0-1.1,0l0,0c0-0.2,0.1-0.4,0.1-0.6l0.1-0.3c0.1-0.4,0.2-0.9,0.2-1c0-0.1,0-0.3-0.2-0.3
		c-0.1,0-0.2,0-0.3,0.1c-0.1,0.2-0.2,0.8-0.2,1.1C20,30,20,30.1,20,30.4l0,0c-0.4,0-0.6,0-1.1,0l0,0c0.1-0.3,0.2-0.7,0.2-1
		c0.2-0.9,0.3-1.3,0.3-1.7l0,0c0.5-0.1,0.6-0.1,1.1-0.2l0,0l-0.1,0.3c0.1,0,0.2-0.1,0.3-0.1c0.3-0.1,0.5-0.2,0.7-0.2
		c0.2,0,0.5,0.1,0.6,0.3c0.1,0.2,0,0.5-0.1,1.1l-0.1,0.3C21.8,29.8,21.7,29.9,21.6,30.4L21.6,30.4z"/>
	<path class="st5" d="M25.3,25.3h-0.4c-0.9,0-1.3,0-1.4,0c0,0.1,0,0.2,0,0.2L23.1,27c0,0-0.8,3.2-0.8,3.4c0.8,0,1.1,0,1.2,0
		c0-0.1,0.2-1.1,0.2-1.1s0.2-0.7,0.2-0.7c0,0,0-0.1,0.1-0.1h0.1c0.7,0,1.5,0,2.1-0.4c0.4-0.3,0.7-0.8,0.8-1.3c0-0.1,0.1-0.3,0.1-0.5
		c0-0.2,0-0.4-0.2-0.6C26.6,25.4,26,25.4,25.3,25.3 M25.7,26.9c-0.1,0.3-0.3,0.6-0.6,0.8c-0.2,0.1-0.5,0.1-0.8,0.1h-0.2l0-0.1
		l0.4-1.5l0-0.1v-0.1l0.1,0c0,0,0.7,0.1,0.7,0.1C25.7,26.3,25.8,26.6,25.7,26.9"/>
	<path class="st5" d="M33.2,27.5L33.2,27.5c-0.6,0.1-0.7,0.1-1.1,0.1l0,0v0l0,0c-0.4,0.8-0.4,0.6-0.6,1.3c0,0,0,0,0-0.1l-0.1-1.4
		l0,0c-0.5,0.1-0.6,0.1-1.1,0.2l0,0c0,0,0,0,0,0l0,0c0.1,0.3,0,0.3,0.1,0.8c0,0.3,0.1,0.5,0.1,0.8c0,0.4,0.1,0.6,0.1,1.2
		c-0.3,0.6-0.4,0.8-0.8,1.3l0,0c0.5,0,0.6,0,1,0l0.1-0.1C31.1,31.1,33.2,27.5,33.2,27.5"/>
	<path class="st5" d="M15.4,27.8c0.3-0.2,0.3-0.5,0.1-0.6c-0.2-0.1-0.7-0.1-0.9,0.1c-0.3,0.2-0.3,0.5-0.1,0.6
		C14.7,28,15.1,28,15.4,27.8"/>
	<path class="st5" d="M30.8,31.7l-0.4,0.7c-0.1,0.2-0.4,0.4-0.8,0.4H29l0.2-0.6h0.1c0.1,0,0.1,0,0.2,0c0,0,0.1,0,0.1-0.1l0.2-0.4
		H30.8z"/>
	<path class="st6" d="M58.8,25.4c0.9,0,1.6-0.7,1.6-1.5c0-0.3-0.1-0.6-0.3-0.8c-0.2-0.2-0.5-0.3-0.8-0.3c-0.8,0-1.6,0.7-1.6,1.5
		c0,0.3,0.1,0.6,0.3,0.8C58.2,25.4,58.5,25.4,58.8,25.4"/>
	<path class="st6" d="M43.4,36.5c-0.6,0-1,0.2-1.5,0.7l-0.1-0.6H41v0.1c0,0.3-0.1,0.6-0.2,0.9L40,40.8h1.2l0.6-2.3
		c0.1-0.4,0.4-1,1-1c0.3,0,0.5,0.1,0.4,0.5c0,0.1,0,0.2-0.1,0.4l-0.5,1.9l-0.2,0.6h1.3l0.7-2.7c0-0.2,0.1-0.3,0.1-0.5
		C44.6,36.9,44.2,36.5,43.4,36.5"/>
	<path class="st6" d="M59.6,36.5c-0.6,0-1,0.2-1.5,0.7l-0.1-0.6h-0.9v0.1c0,0.3-0.1,0.6-0.2,0.9l-0.8,3.2h1.3l0.6-2.3
		c0.1-0.4,0.4-1,1-1c0.3,0,0.5,0.1,0.4,0.5c0,0.1,0,0.2-0.1,0.4l-0.5,1.9l-0.2,0.6H60l0.7-2.7c0-0.2,0.1-0.3,0.1-0.5
		C60.8,36.9,60.4,36.5,59.6,36.5"/>
	<path class="st6" d="M79.8,36.5c-0.6,0-1,0.2-1.5,0.7l-0.1-0.6h-0.9v0.1c0,0.3-0.1,0.6-0.2,0.9l-0.8,3.2h1.3l0.6-2.3
		c0.1-0.4,0.4-1,1-1c0.3,0,0.5,0.1,0.4,0.5c0,0.1,0,0.2-0.1,0.4L79,40.2l-0.2,0.6h1.3l0.7-2.7c0-0.2,0.1-0.3,0.1-0.5
		C80.9,36.9,80.5,36.5,79.8,36.5"/>
	<path class="st6" d="M64.2,36.4c-1.4,0-3,1.2-3.1,3c0,0.8,0.4,1.4,1.1,1.4c0.5,0,1-0.3,1.4-0.8c0,0.4,0.1,0.6,0.3,0.7h0h0.7l0-0.1
		c0-0.4,0.1-0.9,0.2-1.4l0.6-2.6l0,0C65.2,36.5,64.6,36.4,64.2,36.4 M63.9,38.2c-0.2,1-0.8,1.7-1.2,1.7c-0.3,0-0.4-0.2-0.4-0.6
		c0-1,0.8-2,1.6-2c0.1,0,0.1,0,0.2,0L63.9,38.2z"/>
	<path class="st6" d="M84.4,36.4c-1.4,0-3,1.2-3.1,3c0,0.8,0.4,1.4,1.1,1.4c0.5,0,1-0.3,1.4-0.8c0,0.4,0.1,0.6,0.3,0.7h0h0.7v-0.1
		c0-0.4,0.1-0.9,0.2-1.4l0.6-2.6l0,0C85.4,36.5,84.8,36.4,84.4,36.4 M84.2,38.2c-0.2,1-0.8,1.7-1.2,1.7c-0.3,0-0.4-0.2-0.4-0.6
		c0-1.1,0.8-2,1.6-2c0.1,0,0.1,0,0.2,0L84.2,38.2z"/>
	<path class="st6" d="M47.1,37.4h1.1l0.2-0.7h-1.1l0.4-1.7h-0.7L46,36.7h-0.7l-0.2,0.7h0.7h-0.5h0.5l-0.5,2.3
		c-0.2,0.9,0.4,1.2,1.2,1.2c0.5,0,0.8,0,1.1-0.1l0.1-0.6c-0.2,0-0.4,0-0.7,0c-0.4-0.1-0.5-0.2-0.4-0.7L47.1,37.4z"/>
	<path class="st6" d="M50.9,36.6c-1.1,0-2.3,0.8-2.6,2.2c-0.3,1.3,0.4,2.1,1.6,2.1c1.1,0,1.5-0.2,1.8-0.3l-0.1-0.7
		c-0.2,0.1-0.5,0.2-1.1,0.2c-0.9,0-1.2-0.5-1-1.2l2.7,0C52.7,37.2,51.9,36.5,50.9,36.6 M51.2,38.2h-1.5c0.2-0.4,0.5-0.8,0.9-0.8
		C51.1,37.4,51.3,37.6,51.2,38.2"/>
	<path class="st6" d="M56,36.5c-0.5,0-1.1,0.5-1.3,0.7l0.1-0.6h-1.1l-1,4.1h1.2l0.7-2.8c0.2-0.1,0.6-0.4,0.9-0.4
		c0.2,0,0.4,0.1,0.5,0.1l0.6-0.9C56.5,36.7,56.3,36.5,56,36.5"/>
	<path class="st6" d="M68.3,34.9h-0.7l-0.8,1.7h-0.7l-0.2,0.7h0.7l-0.5,2.3c-0.2,0.9,0.4,1.2,1.1,1.2c0.5,0,0.8,0,1.1-0.1l0.1-0.6
		c-0.2,0-0.4,0-0.7,0c-0.4-0.1-0.5-0.2-0.4-0.7l0.5-2h1.1l0.2-0.7H68L68.3,34.9z"/>
	<path class="st6" d="M74.4,36.5c-1.2,0-2.5,0.8-2.8,2.1c-0.3,1.3,0.6,2.1,1.8,2.1c1.2,0,2.5-0.8,2.8-2.1
		C76.5,37.3,75.6,36.5,74.4,36.5 M74.9,38.6c-0.2,0.7-0.7,1.3-1.3,1.3c-0.7,0-0.9-0.6-0.7-1.3c0.2-0.7,0.6-1.3,1.3-1.3
		C74.8,37.3,75.1,37.9,74.9,38.6"/>
	<path class="st6" d="M50.5,33.2l0.9-4c0.1-0.6,0.6-1.7,1.6-1.7c0.5,0,0.8,0.3,0.8,0.8c0,0.2-0.1,0.4-0.1,0.6l-0.8,3.3l-0.3,1h2.2
		l1.1-4.6C56,28.3,56,28,56,27.8c0-1.1-0.7-1.8-1.9-1.8c-1,0-1.7,0.4-2.4,1.2l-0.2-1.1h-1.6l0,0.1c-0.1,0.5-0.1,1-0.3,1.5l-1.2,5.4
		H50.5z"/>
	<path class="st6" d="M70.1,29.2c0.1-0.6,0.6-1.7,1.6-1.7c0.5,0,0.8,0.3,0.8,0.8c0,0.2,0,0.4-0.1,0.6l-0.8,3.3l-0.2,1h2.1l1.1-4.6
		c0.1-0.3,0.1-0.5,0.1-0.8c0-1.1-0.7-1.8-1.9-1.8c-1,0-1.7,0.4-2.4,1.2l-0.2-1.1h-1.6l0,0.1c-0.1,0.5-0.1,1-0.3,1.5L67,33.2h2.1
		L70.1,29.2z"/>
	<path class="st6" d="M64.2,26c-2.7,0-4.6,1.9-4.6,4.7c0,1.8,1.5,2.6,3,2.6c2.6,0,4.6-2,4.6-4.8C67.1,26.8,65.7,26,64.2,26
		 M62.8,31.9c-0.7,0-1.1-0.4-1.1-1.3c0-1.1,0.7-3.1,2.1-3.1c0.9,0,1.1,0.7,1.1,1.3C64.9,29.8,64.1,31.9,62.8,31.9"/>
	<path class="st6" d="M84.4,33.4c1,0,1.8-0.5,2.5-1.4c0,0.6,0.2,1,0.6,1.2l0,0h1.3v-0.1c0-0.7,0.2-1.5,0.4-2.4l1-4.3l-0.1,0
		c-0.5-0.2-1.5-0.3-2.3-0.3c-2.6,0-5.5,1.9-5.5,5.1C82.2,32.5,83.1,33.4,84.4,33.4 M87.4,27.5c0.1,0,0.3,0,0.4,0L87.5,29
		c-0.4,1.6-1.3,2.9-2.2,2.9c-0.5,0-0.8-0.3-0.8-1C84.5,29.1,85.9,27.5,87.4,27.5"/>
	<path class="st6" d="M77.5,29.8h1.6c2,0,4-1.4,4.1-3.9c0-1.4-1.1-2.4-2.6-2.4h-3.8l-2.1,8.8l-0.2,1h2.2L77.5,29.8z M78.6,25h1
		c0.7,0,1.4,0.4,1.4,1c0,1.2-0.9,2.2-2.6,2.2h-0.5L78.6,25z"/>
	<path class="st6" d="M43.6,33.3c2.5,0,4.1-1.2,4.6-3.7l1.4-6.3h-2.3l-0.1,0.7c0,0.1-1.3,5.5-1.3,5.6c-0.3,1.3-1,2-2.1,2
		c-1,0-1.6-0.5-1.6-1.2c0-0.2,0-0.4,0.1-0.8l1.5-6.3h-2.2l-0.1,0.7l-1.3,5.7c-0.1,0.3-0.1,0.7-0.1,1C40.1,32.6,41.9,33.3,43.6,33.3"
		/>
	<polygon class="st6" points="57.9,33.2 59.6,26.1 57.4,26.1 56,32.2 55.8,33.2 	"/>
	<polygon class="st6" points="69.1,40.7 70.3,40.7 71.2,36.6 70,36.6 	"/>
	<path class="st6" d="M71.1,34.7c-0.5,0-0.9,0.4-0.9,0.9c0,0.2,0,0.3,0.1,0.4c0.1,0.1,0.3,0.2,0.4,0.2c0.5,0,0.9-0.4,0.9-0.9
		c0-0.2,0-0.3-0.1-0.4C71.4,34.8,71.2,34.7,71.1,34.7"/>
	<polygon class="st6" points="39.1,34.6 37.5,40.7 38.9,40.7 40.4,34.6 	"/>
	<path class="st6" d="M95.8,26.2l-2.5,5l-0.2-5h-2.2l0.7,7.3c-0.4,1.6-1.7,1.5-2.6,1.5h-0.4h-1.2c-0.1,0-0.3,0-0.3,0.2l-0.3,1.1
		l-1,4.4H87l0.9-3.8c0-0.1,0.1-0.2,0.2-0.2l0,0h1.6c2.2,0,3.1-1.2,3.8-2.5l4.5-8H95.8z"/>
</g>
</svg>
