<?xml version="1.0" encoding="utf-8"?>
<!-- Generator: Adobe Illustrator 24.1.2, SVG Export Plug-In . SVG Version: 6.00 Build 0)  -->
<svg version="1.1" id="Слой_1" xmlns="http://www.w3.org/2000/svg" xmlns:xlink="http://www.w3.org/1999/xlink" x="0px" y="0px"
	 viewBox="0 0 100 60" style="enable-background:new 0 0 100 60;" xml:space="preserve">
<style type="text/css">
	.st0{opacity:0.71;}
	.st1{fill:#00AEEF;}
</style>
<g class="st0">
	<g>
		<path color-rendering="auto" shape-rendering="auto" image-rendering="auto" class="st1" d="M54.2,21.2c-2.9,0-5.5,1.2-7.2,3.2
			s-2.5,4.7-2.5,7.7s0.8,5.7,2.5,7.7c1.7,2,4.2,3.2,7.2,3.2c2.9,0,5.5-1.2,7.2-3.2c1.7-2,2.5-4.7,2.5-7.7s-0.8-5.7-2.5-7.7
			S57.2,21.2,54.2,21.2z M89.9,21.5C89.9,21.5,89.9,21.5,89.9,21.5C89.9,21.5,89.9,21.5,89.9,21.5C89.8,21.5,89.8,21.5,89.9,21.5
			c-0.9,0-1.6,0.6-1.8,1.4l-7.1,17.3c-0.4,0.9,0,2,1,2.5s2,0,2.5-1c0,0,0,0,0,0l1.5-3.6h8l0.1,0.3l1.4,3.3c0.4,1,1.5,1.4,2.4,1
			c1-0.4,1.4-1.5,1-2.4c0,0,0,0,0,0l-1.4-3.3l-5.8-14C91.5,22.1,90.8,21.5,89.9,21.5C89.9,21.5,89.9,21.5,89.9,21.5L89.9,21.5z
			 M40.8,21.5c-0.7,0-1.3,0.4-1.7,1l-4.7,8.1l-4.7-8.1c-0.3-0.6-1-1-1.7-1c-1,0-1.8,0.9-1.8,1.9c0,0.3,0.1,0.6,0.3,0.9l6.1,10.5V41
			c0,1,0.8,1.9,1.9,1.9c1,0,1.8-0.8,1.9-1.8c0,0,0-0.1,0-0.1v-6.2l6.1-10.5c0.5-0.9,0.2-2-0.6-2.6C41.5,21.6,41.2,21.5,40.8,21.5
			L40.8,21.5z M67.1,21.6c-1,0-1.9,0.8-1.9,1.8c0,1,0.8,1.9,1.8,1.9c0,0,0,0,0.1,0h4.4l0,15.6c0,1,0.8,1.9,1.8,1.9
			c1,0,1.9-0.8,1.9-1.8c0,0,0,0,0-0.1l0-15.6h4.5c1,0,1.9-0.8,1.9-1.8c0-1-0.8-1.9-1.8-1.9c0,0,0,0-0.1,0L67.1,21.6z M54.2,24.9
			c2,0,3.3,0.7,4.3,1.9c1,1.2,1.6,3,1.6,5.4c0,2.3-0.6,4.2-1.6,5.4c-1,1.2-2.3,1.9-4.3,1.9c-2,0-3.3-0.7-4.3-1.9
			c-1-1.2-1.6-3-1.6-5.4c0-2.3,0.6-4.2,1.6-5.4C50.9,25.6,52.2,24.9,54.2,24.9z M89.9,28.3l2.5,6h-5L89.9,28.3z"/>
	</g>
	<g transform="matrix(1.0696 0 0 1.0696 84.915 -263.04)">
		<g transform="matrix(.13333 0 0 -.13333 -3.7934e-6 781)">
			<path class="st1" d="M-451.4,3831.1c13.3,13.6,21.6,32.3,21.5,52.9v14.5c0,9.1-7.4,16.5-16.5,16.5c-9.1,0-16.5-7.4-16.5-16.5
				V3884c0-11.7-4.6-22.2-12.1-29.8c-7.5-7.6-17.6-12.2-28.8-12.2c-11.3,0-21.3,4.6-28.8,12.2c-7.5,7.6-12.1,18.1-12.1,29.8v14.5
				c0,9.1-7.4,16.5-16.5,16.5c-9.1,0-16.5-7.4-16.5-16.5V3884c0-20.6,8.2-39.4,21.5-52.9c9.6-9.8,22-17,35.9-20.2v-34.7
				c-13.9-3.2-26.3-10.4-35.9-20.2c-13.3-13.6-21.6-32.3-21.5-52.9v-14.5c0-9.1,7.4-16.5,16.5-16.5c9.1,0,16.5,7.4,16.5,16.5v14.5
				c0,11.7,4.6,22.2,12.1,29.8c7.5,7.6,17.6,12.2,28.8,12.2c11.3,0,21.4-4.6,28.8-12.2c7.5-7.6,12.1-18.1,12.1-29.8v-14.5
				c0-9.1,7.4-16.5,16.5-16.5c9.1,0,16.5,7.4,16.5,16.5v14.5c0,20.6-8.2,39.4-21.5,52.9c-9.6,9.8-22,17-35.9,20.2v34.7
				C-473.4,3814.1-461,3821.3-451.4,3831.1"/>
			<path class="st1" d="M-503.8,3675.6c15.8,0,28.6,12.8,28.6,28.5c0,15.8-12.8,28.6-28.6,28.6c-15.8,0-28.6-12.8-28.6-28.6
				C-532.4,3688.4-519.6,3675.6-503.8,3675.6"/>
		</g>
	</g>
</g>
</svg>
